<?xml version="1.0" encoding="UTF-8"?>
<svg id="Layer_1" xmlns="http://www.w3.org/2000/svg" viewBox="0 0 121.45 38.25">
  <defs>
    <style>
      .cls-1 {
        fill: #010101;
      }

      .cls-2 {
        fill: #f47621;
      }
    </style>
  </defs>
  <g>
    <path class="cls-1" d="M11.55,3.12c1.57,0,3.04.3,4.42.89,1.38.59,2.59,1.42,3.65,2.47l-3.44,2.7c-.64-.51-1.36-.93-2.14-1.24-.79-.31-1.62-.46-2.49-.46-1,0-1.94.19-2.8.56-.86.37-1.62.89-2.28,1.54-.66.65-1.17,1.42-1.54,2.29-.37.87-.56,1.8-.56,2.77s.19,1.93.56,2.79c.37.86.89,1.62,1.54,2.27.66.66,1.42,1.17,2.28,1.54.86.37,1.8.56,2.8.56.8,0,1.56-.13,2.3-.38.73-.25,1.4-.61,2.01-1.05.6-.45,1.13-.98,1.56-1.61.44-.63.76-1.31.97-2.05h-6.84v-3.75h6.95l-.04-.08h4.44c.08.62.12,1.21.12,1.78,0,1.6-.3,3.1-.91,4.52-.61,1.42-1.42,2.65-2.45,3.69-1.03,1.04-2.25,1.87-3.65,2.47-1.4.6-2.89.91-4.46.91s-3.1-.3-4.5-.91c-1.4-.61-2.63-1.43-3.67-2.47-1.04-1.04-1.87-2.27-2.47-3.69-.61-1.42-.91-2.92-.91-4.52s.3-3.06.91-4.46c.6-1.4,1.43-2.63,2.47-3.69,1.04-1.06,2.27-1.89,3.67-2.49,1.4-.6,2.9-.91,4.5-.91Z"/>
    <path class="cls-1" d="M24.17,3.58h12.51v3.9h-7.68v5.1h7.22v4.44h-7.22v4.09h7.68v4.44h-12.51V3.58Z"/>
    <path class="cls-1" d="M45.65,26.21c-.85,0-1.6-.06-2.24-.17-.64-.12-1.24-.3-1.8-.54-.55-.25-1.08-.55-1.58-.93-.5-.37-1.04-.82-1.6-1.33l2.82-3.9c.23.23.51.48.85.73.33.26.69.5,1.06.73.37.23.75.42,1.14.56s.75.21,1.08.21c.7-.03,1.26-.2,1.7-.52.44-.32.67-.78.7-1.37.02-.62-.16-1.13-.56-1.54-.4-.41-.9-.8-1.51-1.16-.6-.36-1.27-.73-2.01-1.12-.73-.39-1.41-.86-2.03-1.43-.62-.57-1.13-1.27-1.54-2.1-.41-.84-.62-1.9-.62-3.19,0-.98.21-1.83.62-2.57.41-.73.95-1.35,1.6-1.85.66-.5,1.38-.88,2.16-1.12.79-.24,1.56-.37,2.34-.37s1.46.05,2.07.14c.6.09,1.16.23,1.66.42.5.19.97.43,1.39.71.42.28.86.62,1.29,1l-2.36,4.29c-.77-.67-1.47-1.15-2.09-1.45-.62-.3-1.25-.47-1.89-.52-.39-.03-.76.05-1.12.21-.36.17-.55.55-.58,1.14-.03.57.16,1.01.56,1.33.4.32.9.63,1.51.93.6.3,1.27.62,1.99.97.72.35,1.38.82,1.99,1.43.6.6,1.1,1.37,1.49,2.3.39.93.57,2.12.54,3.59-.03,1-.25,1.91-.68,2.7s-.97,1.48-1.62,2.05c-.66.57-1.4,1-2.24,1.29-.84.3-1.67.44-2.49.44Z"/>
    <path class="cls-1" d="M72.79,3.58v3.9h-6.6v18.07h-4.83V7.49h-6.49v-3.9h17.92Z"/>
  </g>
  <path class="cls-1" d="M115.93,25.59l-5.08-8.07-3.67-.03-.06,8.03-4.52-.03.16-21.97,10.02.07c.95,0,1.86.19,2.71.56.85.37,1.59.87,2.21,1.5s1.12,1.38,1.47,2.23c.35.85.53,1.75.52,2.71,0,1.36-.36,2.59-1.05,3.68-.69,1.09-1.6,1.93-2.74,2.51l5.54,8.84-5.52-.04ZM107.21,13.56l5.5.04c.67,0,1.24-.28,1.74-.86.49-.58.74-1.3.75-2.18,0-.82-.23-1.54-.71-2.15-.48-.61-1.06-.92-1.72-.92l-5.5-.04-.04,6.1Z"/>
  <path d="M80.71,4.43c.49,1.18.96,2.33,1.45,3.5-.33.23-.65.44-.97.68-1.75,1.34-2.81,3.11-3.12,5.27-.55,3.82,1.5,7.35,5,8.78,1.57.64,3.18.75,4.83.39.46-.1.46-.1.64.33.42,1.01.84,2.03,1.26,3.05-.21.16-.44.3-.62.48-.38.37-.54.83-.53,1.35,0,.4,0,.79,0,1.19,0,.49-.24.72-.73.72-1.21,0-2.42,0-3.64,0-.43,0-.69-.24-.7-.68-.01-.43,0-.86,0-1.29,0-.83-.51-1.49-1.29-1.77-.48-.17-.95-.37-1.41-.58-.87-.4-1.63-.28-2.3.39-.26.26-.53.53-.79.79-.39.38-.7.38-1.08,0-.83-.83-1.66-1.67-2.49-2.5-.36-.36-.36-.69,0-1.06.28-.28.56-.56.84-.84.6-.61.74-1.37.4-2.16-.22-.51-.43-1.02-.64-1.54-.34-.87-.97-1.31-1.9-1.31-.39,0-.77,0-1.16,0-.46,0-.7-.26-.7-.72,0-1.21,0-2.42,0-3.64,0-.41.25-.68.67-.69.43-.01.86.01,1.29,0,.82-.03,1.42-.4,1.75-1.18.25-.58.49-1.17.73-1.76.29-.72.16-1.38-.35-1.96-.28-.31-.59-.6-.88-.9-.42-.43-.42-.75,0-1.16.8-.79,1.59-1.58,2.38-2.38.47-.48.76-.48,1.22,0,.21.21.42.41.62.63.6.64,1.31.92,2.22.57Z"/>
  <path class="cls-2" d="M91.54,25.73c-.48-1.16-.95-2.31-1.43-3.46.38-.27.76-.51,1.11-.8,2.28-1.91,3.29-4.34,2.99-7.31-.36-3.63-3.23-6.69-7.05-7.19-.98-.13-1.97-.09-2.93.16-.28.07-.38-.03-.48-.26-.38-.93-.76-1.87-1.16-2.79-.11-.25-.07-.39.18-.54.55-.34.82-.86.84-1.51,0-.42,0-.84,0-1.26,0-.54.26-.78.8-.78,1.16,0,2.31,0,3.47,0,.49,0,.75.25.76.74.01.41,0,.82,0,1.22,0,.87.47,1.5,1.29,1.8.52.19,1.02.43,1.53.64.83.35,1.54.22,2.18-.41.28-.27.54-.55.82-.82.38-.38.68-.38,1.05,0,.84.84,1.68,1.69,2.52,2.53.33.33.33.64,0,.98-.27.29-.56.56-.84.84-.64.65-.78,1.41-.41,2.24.22.51.43,1.02.63,1.54.32.81.96,1.26,1.83,1.27.4,0,.79,0,1.19,0,.5,0,.72.24.72.73,0,1.21,0,2.43,0,3.64,0,.37-.23.62-.6.63-.41.02-.82,0-1.22,0-.99.01-1.64.5-1.97,1.42-.17.49-.39.96-.6,1.44-.34.78-.2,1.55.4,2.16.28.28.56.56.84.84.37.39.37.68,0,1.05-.83.84-1.66,1.67-2.49,2.51-.36.36-.66.36-1.03,0-.22-.21-.44-.43-.65-.65-.62-.68-1.34-.98-2.29-.64Z"/>
  <path class="cls-2" d="M86.11,8.82c3.48,0,6.27,2.8,6.27,6.29,0,3.47-2.81,6.27-6.27,6.26-3.46,0-6.25-2.81-6.26-6.28,0-3.47,2.8-6.28,6.26-6.28ZM89.24,15.14c.02-1.77-1.36-3.19-3.09-3.2-1.71-.02-3.1,1.37-3.16,3.08-.06,1.77,1.41,3.21,3.03,3.22,1.82.01,3.2-1.31,3.22-3.09Z"/>
  <g>
    <path class="cls-1" d="M7.47,38.02h-3.03v-7.38h3.03c.52,0,1,.1,1.46.29.45.19.85.46,1.19.79.34.33.61.72.8,1.17.19.45.29.93.29,1.44s-.1.99-.29,1.43c-.19.45-.46.83-.8,1.17-.34.33-.74.6-1.19.79-.45.19-.94.29-1.46.29ZM5.98,36.7h1.49c.31,0,.6-.06.87-.19s.5-.29.7-.51.35-.46.47-.75c.11-.29.17-.59.17-.92s-.06-.64-.17-.93c-.11-.29-.27-.54-.47-.75s-.43-.38-.7-.51c-.27-.12-.56-.19-.87-.19h-1.49v4.73Z"/>
    <path class="cls-1" d="M14.75,30.64h4.2v1.31h-2.58v1.71h2.42v1.49h-2.42v1.38h2.58v1.49h-4.2v-7.38Z"/>
    <path class="cls-1" d="M27.79,30.64h3.35c.32,0,.62.06.91.18s.54.29.75.5c.22.21.39.46.51.75.12.29.18.59.18.91s-.06.63-.18.92c-.12.28-.29.53-.51.75-.22.22-.47.38-.75.51-.29.12-.59.18-.91.18h-1.84v2.7h-1.52v-7.38ZM29.31,34h1.83c.23,0,.43-.1.59-.29s.25-.44.25-.73c0-.28-.08-.52-.25-.72-.16-.2-.36-.3-.59-.3h-1.83v2.05Z"/>
    <path class="cls-1" d="M37,38.02h-1.85l3.96-7.38h.97l3.94,7.38h-1.85l-.86-1.74h-3.44l-.87,1.74ZM39.58,32.76l-1.04,2.14h2.08l-1.04-2.14Z"/>
    <path class="cls-1" d="M51.55,38.02l-1.73-2.7h-1.23v2.7h-1.52v-7.38h3.37c.32,0,.62.06.91.18.29.12.53.29.75.5.21.21.38.46.5.75.12.29.18.59.18.91,0,.46-.11.87-.34,1.24-.23.37-.53.65-.91.85l1.88,2.96h-1.85ZM48.59,34h1.85c.22,0,.42-.1.58-.29s.25-.44.25-.73c0-.28-.08-.52-.25-.72-.16-.2-.36-.3-.58-.3h-1.85v2.05Z"/>
    <path class="cls-1" d="M62.41,30.64v1.31h-2.22v6.07h-1.62v-6.07h-2.18v-1.31h6.02Z"/>
    <path class="cls-1" d="M65.93,30.64h4.2v1.31h-2.58v1.71h2.42v1.49h-2.42v1.38h2.58v1.49h-4.2v-7.38Z"/>
    <path class="cls-1" d="M75.97,38.24c-.29,0-.54-.02-.75-.06-.22-.04-.42-.1-.6-.18s-.36-.19-.53-.31c-.17-.12-.35-.27-.54-.45l.95-1.31c.08.08.17.16.29.25.11.09.23.17.36.25.12.08.25.14.38.19.13.05.25.07.36.07.23,0,.42-.07.57-.17.15-.11.22-.26.23-.46,0-.21-.05-.38-.19-.52-.13-.14-.3-.27-.51-.39s-.43-.25-.67-.38-.47-.29-.68-.48c-.21-.19-.38-.43-.52-.71-.14-.28-.21-.64-.21-1.07,0-.33.07-.62.21-.86.14-.25.32-.45.54-.62s.46-.29.73-.38c.26-.08.52-.12.78-.12s.49.01.69.04.39.08.56.14c.17.07.32.15.47.24s.29.21.43.34l-.79,1.44c-.26-.22-.49-.39-.7-.49-.21-.1-.42-.16-.64-.17-.13,0-.25.01-.38.07s-.19.18-.19.38c0,.19.05.34.19.45.13.11.3.21.51.31.2.1.43.21.67.32.24.12.46.28.67.48s.37.46.5.77c.13.31.19.71.18,1.21,0,.34-.08.64-.23.91-.14.27-.32.5-.54.69-.22.19-.47.33-.75.43s-.56.15-.84.15Z"/>
    <path class="cls-1" d="M88.29,38.02c-.3,0-.56-.1-.76-.31-.21-.21-.31-.46-.31-.76s.1-.54.31-.75c.21-.21.46-.31.76-.31s.54.1.75.31c.2.21.3.46.3.75s-.1.56-.3.76c-.2.21-.45.31-.75.31Z"/>
    <path class="cls-1" d="M96.34,30.52c.56,0,1.08.11,1.57.34.48.23.9.55,1.24.95l-1.08.97c-.22-.25-.48-.45-.77-.6s-.61-.23-.97-.23c-.32,0-.62.06-.9.19-.28.13-.53.3-.74.52-.21.22-.38.48-.5.77-.12.29-.18.61-.18.93s.06.65.18.95.29.55.5.77.46.39.74.52c.28.13.58.19.9.19.42,0,.8-.11,1.15-.32.35-.21.62-.49.82-.85l1.08,1.04c-.35.48-.78.87-1.31,1.15s-1.11.43-1.74.43c-.52,0-1.01-.1-1.47-.3-.46-.2-.87-.48-1.21-.83-.34-.35-.61-.76-.81-1.23-.2-.47-.3-.97-.3-1.51s.1-1.03.3-1.5c.2-.47.47-.88.81-1.23.34-.35.74-.62,1.21-.82.46-.2.95-.3,1.47-.3Z"/>
    <path class="cls-1" d="M106.16,30.52c.53,0,1.03.1,1.5.3.47.2.88.47,1.23.82.35.35.62.75.83,1.22s.31.96.31,1.49-.1,1.02-.31,1.48c-.2.46-.48.87-.83,1.21-.35.35-.75.62-1.23.82-.47.2-.97.3-1.5.3s-1.04-.1-1.51-.3c-.47-.2-.88-.47-1.23-.82s-.63-.75-.83-1.21c-.2-.46-.31-.96-.31-1.48s.1-1.02.31-1.49.48-.87.83-1.22.76-.62,1.23-.82c.47-.2.97-.3,1.51-.3ZM106.16,31.98c-.33,0-.64.06-.93.19-.29.12-.54.29-.76.5-.22.21-.39.46-.51.75-.13.29-.19.6-.19.93s.06.62.19.91c.12.29.3.53.51.75s.47.38.76.51.6.19.93.19.62-.06.91-.19c.29-.12.54-.29.75-.51s.38-.46.51-.75c.12-.29.19-.59.19-.91s-.06-.64-.19-.93c-.13-.29-.29-.54-.51-.75-.21-.21-.46-.38-.75-.5-.29-.13-.59-.19-.91-.19Z"/>
    <path class="cls-1" d="M113.53,38.02v-7.76h2.35l1.41,5.29,1.39-5.29h2.35v7.76h-1.46v-6.11l-1.54,6.11h-1.51l-1.54-6.11v6.11h-1.46Z"/>
  </g>
</svg>