<?xml version="1.0" encoding="UTF-8"?>
<svg xmlns="http://www.w3.org/2000/svg" version="1.1" viewBox="0 0 200 200">
  <defs>
    <style>
      .cls-1 {
        fill: #fff;
      }
    </style>
  </defs>
  <!-- Generator: Adobe Illustrator 28.7.3, SVG Export Plug-In . SVG Version: 1.2.0 Build 164)  -->
  <g>
    <g id="Layer_1">
      <rect y="0" width="200" height="200"/>
      <g>
        <circle cx="100" cy="100" r="47.8"/>
        <circle class="cls-1" cx="100" cy="100" r="46"/>
        <circle cx="100" cy="100" r="43.7"/>
        <path class="cls-1" d="M92.5,74.7l-.5-1.2s-8.3-1.1-11.9-10.6c0,0-4.4,18.4,17.8,23.4,1,.2,3,.9,4.1,1.1,1.2.1,2.1,0,2.9-.3,0,0-.3,1.2-1.5,1.4,0,0,.2,4.3-5.3,4.3s-6.2-6.6-6.2-6.6c0,0-4.5-2.6-6.4-4.5,0,0-5.7,4.2-8.7,11.3l5.6,5s5.6-1.4,10.5-.5c0,0,.6.2.9.9.3.7,1.5,3.3,6.2,3.3s5.6-2.4,5.6-2.4c0,0-2.6-1.1-2.6-2.8h1.5c0-.1,1.1-.9,1.1-.9,0,0,2.3-.1,3.6.6,0,0-.9-2.1-.9-3.9v-4.3s7,3.5,10.5-2.6l-1.5-2s9.5-7.6,10.5-14.7c0,0-7.2,6.2-14.8,8.2l-.8,1.1s-8.8-3.6-14.7-3.6-5.3.6-5.3.6h0Z"/>
        <path class="cls-1" d="M119.1,86.6s-1,1.8-1.2,3c-.2,1.2-1.7,5.6-7.8,3.8,0,0,.8,1.8.2,2.4-.6.6-2.5,3.3-2.5,3.3,0,0,2.3,2.4,4.8,2.4s4.2-1.4,4.2-4.7h4.1s-2-.8-1.8-10.1ZM100.5,106.4s0,3.4,2.8,3.4,3.4-1.6,3.4-1.6c0,0,.2,2.1-.9,2.6,0,0,1.5,2.9-1,4.3-2.5,1.4-8.5-.8-8.5-.8,0,0-.3-3.3,1-5.4,0,0,1.6.3,2,.3.5,0-.1-2,1.1-2.8h0ZM109.1,101.6s-.5,3.4-1.8,4.7c0,0,2.8,0,3.6-3.8,0,0-1.1-.9-1.8-.9ZM103.7,101.9s-1.2,3.4-1.2,4.5c0,0-1.1-.2-.8-3.8,0,0,.9-1.2,2-.7ZM92.5,98.1s-7.4-1.4-15.8,4.4l.5.9s6.5-4.5,15.7-4.4l-.3-.9h0Z"/>
        <path class="cls-1" d="M92.9,99.7s-6.9.1-12.9,6.1l.7.8s6.9-5.9,13-5.6c0,0-.2-1.2-.8-1.2h0ZM94.1,101.2s-4.5,1.4-9.8,7.6l.5.6s5.5-5.7,10-7.1c0,0,0-1-.7-1ZM117.8,97.4s6.5.7,8.3,4.6v.8s-2.6-4.1-8.2-4.1v-1.4q-.1,0-.1,0Z"/>
        <path class="cls-1" d="M117.6,99.3l-.6,1.1s5.5,1.2,7.6,5.1l.5-.2s-1.6-5.1-7.4-6h0ZM116.5,101l-.9.8s5.5,2.5,7,6c0,0,1-2.8-6.1-6.8ZM109,129.1c-1.2,0-2.2-1-2.2-2.2,0-1.2,1-2.2,2.2-2.2.5,0,.9.1,1.3.4l1.4-2.7c-.8-.5-1.7-.8-2.7-.8-2.5,0-4.6,1.9-5.1,4.3-.5-2.6-2.7-4.2-5.3-4.2-.3,0-1,0-1.5.2v2.9c.9-.3,1.3-.4,1.7-.4,1.3,0,2.3,1,2.3,2.3,0,1.3-1,2.3-2.3,2.3-1.3,0-2.3-1-2.3-2.3v-8.6h-2.9v7.8c-.4-2.4-2.6-4.3-5.2-4.3s-4.7,1.9-5.1,4.3c-.5-2.7-2.7-4.2-5.3-4.2-.3,0-1,0-1.5.2v2.9c.9-.3,1.3-.4,1.7-.4,1.3,0,2.3,1,2.3,2.3,0,1.3-1,2.3-2.3,2.3-1.3,0-2.3-1-2.3-2.3v-8.6h-2.9v8.7c0,2.7,2.1,5.2,5,5.2s5-1.8,5.4-4.3c.5,2.4,2.5,4.3,5.1,4.3s4.9-2,5.2-4.6c.3,2.5,2.3,4.6,4.9,4.6s4.9-1.8,5.4-4.3c.5,2.4,2.5,4.3,5.1,4.3s1.9-.3,2.7-.8l-1.3-2.7c-.4.3-.9.5-1.4.5h0Z"/>
        <circle cx="88.4" cy="126.9" r="2.2"/>
        <path class="cls-1" d="M127.1,124.5v-2.8h-2v-3h-2.9v3h-1.8v2.5c-.8-1.6-2.4-2.7-4.3-2.7-2.9,0-5.5,2.3-5.5,5.2,0,3.3,2.5,5.2,5.4,5.2.3,0,1,0,1.5-.2v-2.9c-.9.3-1.3.4-1.7.4-1.3,0-2.3-1-2.3-2.3,0-1.3,1-2.3,2.3-2.3,1.3,0,2.3,1,2.3,2.3v4.9h2.9v-4.9c0-.8-.2-1.6-.5-2.3h1.7v3.6s-.4,3.8,3.3,3.8h1.6v-2.8h-.9s-1.1-.3-1.1-1.4v-3.2h2Z"/>
      </g>
    </g>
  </g>
</svg>