<?xml version="1.0" encoding="UTF-8"?>
<svg xmlns="http://www.w3.org/2000/svg" version="1.1" viewBox="0 0 200 200">
  <defs>
    <style>
      .cls-1, .cls-2 {
        fill: #fff;
      }

      .cls-2, .cls-3 {
        fill-rule: evenodd;
      }

      .cls-4 {
        fill: #ac202d;
      }
    </style>
  </defs>
  <!-- Generator: Adobe Illustrator 28.7.3, SVG Export Plug-In . SVG Version: 1.2.0 Build 164)  -->
  <g>
    <g id="Layer_1">
      <rect class="cls-1" y="0" width="200" height="200"/>
      <g>
        <polygon class="cls-4" points="150.8 81.6 149.5 86.6 156 86.6 157.3 81.6 150.8 81.6"/>
        <polygon class="cls-4" points="144.7 105.1 149.2 87.5 155.8 87.5 151.3 105.1 144.7 105.1"/>
        <polygon class="cls-4" points="43.2 108.4 35.8 118.4 156.3 118.4 158.8 108.4 43.2 108.4"/>
        <g>
          <path class="cls-3" d="M114.5,87.5h18.5l-1.2,4.6h-11.7l-.6,2.3h11.2l-1,3.7h-11.2l-.6,2.3h11.7l-1.2,4.6h-18.5l4.5-17.6ZM88.8,98.9h7s0,2.6,3.6,2.6,2.9-.8,3-1.2c.1-.7-.3-1-1.3-1.2-3-.7-7.2-2.1-8.3-2.7-.8-.5-1.9-1.5-1.9-3.5,0-2.7,3.2-6,10.1-6,3.4,0,5.5.7,6.8,1.3,2.8,1.2,3,3.9,2.9,5h-6.8s0-2-2.8-2.1c-1.4,0-3,.2-3,1.3s1,1.2,3.3,1.7c.5.1,4.2.9,5.4,1.3,2.1.8,3.1,1.9,2.8,4.2-.7,5.2-7.4,6-10.8,6-4.3,0-8.8-.8-9.8-5,0-.5-.1-1.6-.1-1.6M80.5,99.4l-.6-6.7-4.4,6.7h4.9ZM85.2,87.5l3.1,17.6h-7.4l-.2-2.1h-7.2l-1.4,2.1h-7.9l13-17.6h8ZM66.1,99.7c-.3.6-.8,1.5-1.6,2.4-1.6,1.7-4.4,3.5-9.1,3.5s-8-2.1-9.2-4.1c-.8-1.5-1-3-.9-4.3.2-2.4,2.6-10.2,12.8-10.2s8,1.9,8.9,4c.7,1.7.4,4.2.4,4.5h-6.7c.2-1.3-.2-3.5-2.5-3.5-2.6,0-5,1.9-5.7,4.4-.7,2.8.8,4.5,3.2,4.5,2.6,0,3.9-2.1,3.9-2.1h6.9c0,.2-.3.8-.4,1.1"/>
          <polygon points="145.3 99.2 146.8 93.3 145.9 93.3 147.4 87.5 140.9 87.5 136.3 105.1 142.9 105.1 144.4 99.2 145.3 99.2"/>
          <polygon points="156.2 93.3 155.2 93.3 153.7 99.2 154.7 99.2 153.1 105.1 159.7 105.1 164.2 87.5 157.7 87.5 156.2 93.3"/>
          <path class="cls-2" d="M98.6,110.4h-.6l-2.5,5.8h.9l.7-1.7h2.5l.8,1.7h.9l-2.6-5.8ZM98.3,111.7l.9,2.1h-1.8l.9-2.1Z"/>
          <path class="cls-1" d="M107,113.4h-1.9v.7h1.1v1.2c-.4.1-.8.2-1.3.2-1.4,0-2.4-.9-2.4-2.2s1-2.2,2.2-2.2,1.4.2,2.1.6v-.8c-.9-.4-1.4-.5-2.1-.5-1.8,0-3.1,1.3-3.1,3s1.3,3,3.1,3,1.4-.1,2.2-.5v-2.5h0Z"/>
          <path class="cls-2" d="M108.6,110.4v5.8h.8v-2.5h.3c.4,0,.8.1,1.5,1.3l.8,1.2h1c-.4-.6-.5-.7-.8-1.2-.4-.7-.8-1.3-1.3-1.6.6-.3,1-.7,1-1.4,0-1-.7-1.6-1.9-1.6h-1.4ZM109.4,111.1h.5c.8,0,1.1.3,1.1.9s-.3.9-1.1.9h-.5v-1.8Z"/>
          <rect class="cls-1" x="114.2" y="110.4" width=".8" height="5.8"/>
          <path class="cls-1" d="M121.7,110.8c-.8-.3-1.4-.5-2-.5-1.8,0-3.2,1.3-3.2,3.1s1,2.9,3.1,2.9,1.5-.2,2.1-.5v-.9c-.7.4-1.4.7-2,.7-1.4,0-2.4-.9-2.4-2.2s1-2.2,2.3-2.2,1.3.2,2,.6v-.9h0Z"/>
          <path class="cls-1" d="M128.1,110.4h-.8v3.4c0,.6,0,1-.4,1.3-.3.3-.7.5-1.4.5s-.9-.2-1.3-.5c-.3-.3-.3-.5-.3-1.2v-3.4h-.8v3.6c0,1.6,1.2,2.3,2.4,2.3,1.7,0,2.6-.9,2.6-2.4v-3.5Z"/>
          <polygon class="cls-1" points="130.5 110.4 129.6 110.4 129.6 116.2 133.1 116.2 133.1 115.5 130.5 115.5 130.5 110.4"/>
          <polygon class="cls-1" points="137.6 110.4 132.8 110.4 132.8 111.2 134.8 111.2 134.8 116.2 135.6 116.2 135.6 111.2 137.6 111.2 137.6 110.4"/>
          <path class="cls-1" d="M143.7,110.4h-.8v3.4c0,.6,0,1-.4,1.3-.3.3-.7.5-1.4.5s-.9-.2-1.3-.5c-.3-.3-.3-.5-.3-1.2v-3.4h-.8v3.6c0,1.6,1.2,2.3,2.4,2.3,1.7,0,2.6-.9,2.6-2.4v-3.5Z"/>
          <path class="cls-2" d="M145.3,110.4v5.8h.8v-2.5h.3c.4,0,.8.1,1.5,1.3l.8,1.2h1c-.4-.6-.6-.7-.8-1.2-.4-.7-.8-1.3-1.3-1.6.6-.3,1-.7,1-1.4,0-1-.7-1.6-1.9-1.6h-1.5ZM146.2,111.1h.5c.8,0,1.1.3,1.1.9s-.3.9-1.1.9h-.5v-1.8Z"/>
          <polygon class="cls-1" points="154.2 110.4 150.9 110.4 150.9 116.2 154.2 116.2 154.2 115.5 151.7 115.5 151.7 113.7 154.1 113.7 154.1 112.9 151.7 112.9 151.7 111.2 154.2 111.2 154.2 110.4"/>
        </g>
      </g>
    </g>
  </g>
</svg>