<?xml version="1.0" encoding="UTF-8"?>
<svg id="Layer_1" data-name="Layer 1" xmlns="http://www.w3.org/2000/svg" viewBox="0 0 200 200">
  <defs>
    <style>
      .cls-1 {
        fill: #e2c18d;
      }
    </style>
  </defs>
  <rect class="cls-1" width="200" height="200"/>
  <path d="m30.23,119.56c0,.48.3.74.82.74h9.29s0,1.94,0,1.94h-11.29c-1.25,0-2.14-.8-2.14-1.92v-8.02c0-1.13.89-1.92,2.14-1.92h11.29v1.94h-9.29c-.51,0-.82.23-.82.73v6.5h0Zm31.9-2.56v2.56c0,.48.3.74.82.74h10.41s0,1.94,0,1.94h-12.41c-1.25,0-2.14-.8-2.14-1.92v-8.02c0-1.13.89-1.92,2.14-1.92h11.41v1.94h-9.41c-.51,0-.82.23-.82.73v2h10.28v1.94h-10.28Zm-9.53,0v5.23h3.32v-11.85h-3.32v4.68h-7.42v-4.68h-3.32v11.85h3.32v-5.23h7.42Zm105.53-6.62v1.94h5.82v9.91h3.32v-9.91h5.82v-1.95h-14.96Zm-30.06,11.85v-11.85s3.32,0,3.32,0v9.91h10.35v1.94h-13.67s0,0,0,0Zm-44.74,0c1.25,0,1.56-.51,1.89-1.13s5.37-10.72,5.37-10.72h-3.46s-4.51,9.58-4.57,9.69c-.09.17-.2.19-.51.19s-.43-.02-.51-.19c-.06-.11-4.57-9.69-4.57-9.69h-3.46s5.04,10.11,5.37,10.72c.33.62.64,1.13,1.89,1.13h2.57Zm39.69-11.85h-10.92c-1.25,0-2.14.79-2.14,1.92v8.02c0,1.12.89,1.92,2.14,1.92h10.92c1.25,0,2.14-.8,2.14-1.92v-8.02c0-1.13-.89-1.92-2.14-1.92Zm-1.18,9.17c0,.48-.3.74-.82.74h-6.93c-.52,0-.82-.26-.82-.74v-6.5c0-.51.31-.74.82-.74h6.93c.51,0,.82.23.82.74v6.5Zm24.29-2.56v2.56c0,.48.3.74.82.74h10.41s0,1.94,0,1.94h-12.41c-1.25,0-2.14-.8-2.14-1.92v-8.02c0-1.13.89-1.92,2.14-1.92h11.41v1.94h-9.41c-.51,0-.82.23-.82.73v2h10.28v1.94h-10.28s0,0,0,0Zm-42.46-2.42c0,.48-.3.74-.82.74h-5.22c-.49,0-.93.36-.93.82,0,.26.12.5.28.63.23.19,7.37,5.47,7.37,5.47h5.02s-7.28-4.99-7.28-4.99h2.76c1.25,0,2.14-.8,2.14-1.92v-3.04c0-1.13-.89-1.92-2.14-1.92h-12.86v11.85h3.31v-9.91h7.55c.51,0,.82.23.82.74v1.52s0,0,0,0Zm29.19-30.6h-19.54c-.5,0-.83-.13-.83-.74v-2.59c0-.75-.45-1.14-1.27-1.14h-22.37c-.84,0-1.27.42-1.27,1.14v2.59c0,.55-.29.75-.83.75h-12.81c-.98,0-1.55.42-1.85.97l-6.24,10.9c-.08.14-.13.3-.13.46,0,.43.32.99,1.19.99h19.83c.61,0,.83.25.83.74v2.59c0,.78.51,1.14,1.27,1.14h10.98s11.39,0,11.39,0c.76,0,1.27-.33,1.27-1.13v-2.59c0-.53.25-.75.82-.75h12.43c.86,0,1.47-.2,1.9-.92l6.17-10.77c.13-.23.23-.37.23-.64,0-.73-.71-.99-1.19-.99h0Zm-4.93,4.34l-2.97,5.2c-.19.3-.52.31-.75.31h-14.75c-.61,0-.84.25-.84.75v2.99c0,.5-.25.74-.84.74h-15.49c-.52,0-.84-.16-.84-.74v-2.99c0-.55-.28-.74-.84-.74h-18.09c-.44,0-.75-.25-.75-.6,0-.1.03-.2.08-.28l2.97-5.2c.11-.18.3-.31.75-.31h15.04c.52,0,.84-.19.84-.75v-2.99c0-.53.26-.74.83-.74h15.5c.56,0,.83.22.83.75v2.99c0,.51.27.74.84.74h17.8c.57,0,.75.33.75.6,0,.1-.03.19-.08.28h0Z"/>
</svg>