<?xml version="1.0" encoding="UTF-8"?>
<svg id="Layer_1" data-name="Layer 1" xmlns="http://www.w3.org/2000/svg" viewBox="0 0 200 200">
  <defs>
    <style>
      .cls-1 {
        fill: #fff;
      }
    </style>
  </defs>
  <rect width="200" height="200"/>
  <path class="cls-1" d="m130.6,108.09v22.58c-.15,0-.29.02-.43.02-9.69,0-19.38.03-29.07,0-6.51-.03-12.57-1.75-18.1-5.22-4.98-3.12-8.57-7.46-10.94-12.81-1.37-3.1-2.22-6.33-2.52-9.7-.6-6.85.81-13.23,4.39-19.12,1.18-1.94,2.62-3.67,4.21-5.28,1.48-1.5,3.07-2.87,4.84-4.02,3.22-2.09,6.74-3.46,10.47-4.31,2.68-.61,5.39-.92,8.14-.91,5.58.02,11.16,0,16.74,0h.5c-.13.12-.21.18-.26.25-.32.43-.71.83-.95,1.3-.36.71-.22,1.42.28,2.04.48.59,1.13.74,1.83.58.6-.13,1.17-.36,1.75-.55.31-.1.61-.2.93-.26.25-.05.48.02.62.25.15.25.1.48-.06.7-.43.58-1.07.6-1.58.01-.67.47-1.35.95-2.03,1.42.38.84,1.39,1.33,2.34,1.05,1.38-.4,2.53-1.18,3.34-2.38.83-1.23.2-2.94-1.16-3.29-.43-.11-.85-.03-1.25.11-.56.2-1.11.42-1.66.63-.19.07-.39.15-.59.2-.22.05-.44.06-.56-.19-.13-.25-.11-.48.08-.69.42-.45.89-.44,1.37.04.48-.34.96-.7,1.47-1.02.19-.12.43-.21.65-.21,2.28-.01,4.56,0,6.84,0h.39v22.6h-.44c-8.63,0-17.26-.02-25.89.01-2.46,0-4.75.69-6.71,2.24-1.61,1.27-2.42,2.98-2.59,5.01-.13,1.52.04,2.99.7,4.39.86,1.82,2.34,2.96,4.17,3.7,1.42.57,2.91.85,4.45.85,8.62,0,17.24,0,25.86,0h.47Zm-27.97-25.83c-.96-.48-1.82-.31-2.62.29-.79.58-1.24,1.35-1.16,2.45-.28-.37-.5-.65-.72-.95-.74.52-1.45,1.02-2.12,1.49,1.38,1.95,2.73,3.87,4.1,5.8.74-.52,1.45-1.02,2.19-1.53-.8-1.15-1.59-2.26-2.36-3.38-.15-.21-.28-.44-.36-.68-.17-.48.02-.93.48-1.23.4-.26.8-.24,1.19.12.21.19.41.42.57.65.69.97,1.36,1.94,2.04,2.91.08.11.16.21.25.34.74-.52,1.46-1.02,2.19-1.54-.81-1.15-1.6-2.26-2.37-3.39-.16-.24-.3-.5-.38-.78-.13-.43.1-.86.53-1.13.37-.24.77-.22,1.12.09.23.2.44.44.62.69.7.98,1.39,1.97,2.08,2.96.06.09.13.18.21.28.73-.51,1.45-1.01,2.17-1.52-.04-.07-.07-.13-.1-.18-.88-1.25-1.75-2.51-2.64-3.75-.6-.84-1.42-1.22-2.46-1.05-1.14.19-2.5,1.4-2.46,3.02Zm-11.36,15.28c-.81-1.15-1.61-2.27-2.38-3.4-.17-.25-.32-.54-.39-.84-.11-.48.16-.81.55-1.07.35-.23.72-.22,1.04.04.25.21.49.46.68.72.65.9,1.28,1.82,1.92,2.73.12.18.25.35.39.55.74-.52,1.46-1.03,2.2-1.54-.8-1.15-1.6-2.26-2.37-3.4-.18-.26-.33-.56-.39-.87-.09-.48.19-.81.58-1.05.35-.22.71-.19,1.02.06.25.21.48.46.68.73.71.99,1.4,1.99,2.1,2.99.06.09.13.18.2.27.74-.52,1.46-1.02,2.19-1.54-.98-1.39-1.93-2.76-2.92-4.11-.38-.52-.94-.82-1.59-.88-1.34-.12-2.69.85-3.07,2.21-.07.26-.09.54-.14.81-1.61-.93-3.98.79-3.75,2.76-.26-.34-.48-.63-.72-.94-.73.51-1.44,1.01-2.12,1.49,1.38,1.95,2.74,3.87,4.11,5.8.73-.51,1.44-1.01,2.19-1.53Zm-11.29,4.39c-.9.63-1.76,1.24-2.62,1.84-.59.41-1.24.54-1.93.33-.82-.26-1.35-.83-1.5-1.68-.15-.85.11-1.6.82-2.12.8-.59,1.63-1.15,2.45-1.72.09-.06.18-.13.27-.2-.56-.8-1.1-1.58-1.65-2.37-1.1.77-2.2,1.5-3.25,2.3-1.9,1.47-2.45,4.07-1.38,6.21,1.08,2.16,3.5,3.23,5.84,2.61.82-.22,1.51-.68,2.19-1.16.79-.56,1.58-1.1,2.39-1.67-.55-.8-1.09-1.57-1.65-2.36Zm40.1-24.57c0-.05,0-.08-.02-.09-.94-1.35-1.88-2.7-2.84-4.03-.32-.44-.77-.72-1.31-.85-1.46-.35-3.11.77-3.39,2.31-.01.06-.03.13-.05.24-.18-.22-.33-.4-.48-.59-.76.53-1.48,1.04-2.17,1.52,1.38,1.95,2.73,3.87,4.1,5.8.74-.51,1.45-1.02,2.19-1.53-.81-1.15-1.59-2.26-2.37-3.38-.16-.24-.31-.5-.39-.77-.14-.44.09-.88.54-1.16.37-.23.76-.22,1.12.1.22.2.43.43.6.67.71.99,1.4,1.99,2.1,2.99.06.09.13.18.21.29.74-.52,1.45-1.02,2.15-1.51Zm-37.96,17.91c.81,1.15,1.61,2.27,2.38,3.4.16.23.29.49.37.75.13.44-.07.86-.5,1.14-.38.25-.75.25-1.12-.06-.24-.2-.45-.44-.63-.69-.6-.84-1.18-1.69-1.78-2.53-.17-.24-.35-.49-.53-.75-.74.52-1.46,1.02-2.19,1.54.93,1.32,1.82,2.63,2.75,3.91.85,1.18,2.2,1.43,3.44.67.8-.49,1.32-1.18,1.44-2.19.19.23.34.41.49.6.75-.52,1.47-1.03,2.17-1.52-1.38-1.95-2.74-3.87-4.11-5.8-.73.51-1.44,1.01-2.19,1.53Zm31.09-13.1c-1.36-1.95-2.71-3.88-4.08-5.82-.75.52-1.46,1.03-2.19,1.54,1.37,1.96,2.72,3.89,4.08,5.82.75-.53,1.47-1.03,2.2-1.54Zm-5.86-8.37c-.74.52-1.47,1.03-2.21,1.54.37.53.72,1.03,1.09,1.55.75-.52,1.47-1.03,2.22-1.55-.33-.48-.64-.92-.95-1.36-.04-.06-.09-.11-.15-.18Z"/>
</svg>