<?xml version="1.0" encoding="UTF-8"?>
<svg id="Layer_1" data-name="Layer 1" xmlns="http://www.w3.org/2000/svg" viewBox="0 0 200 200">
  <defs>
    <style>
      .cls-1 {
        fill: #fff;
      }

      .cls-2 {
        fill: #d71818;
      }
    </style>
  </defs>
  <rect class="cls-2" width="200" height="200"/>
  <path class="cls-1" d="m49.25,143.97h101.49v3.93H49.25v-3.93Zm57.78-35.65l-7.02,9.37-7.02-9.37-6.65,12.01h-9.28l11.08-20.04,3.65,4.76,8.22-39.39,8.22,39.39,3.65-4.76,11.08,20.04h-9.28l-6.65-12.01Zm5.36-15.19l-2.08,2.72-10.3-49.46-10.3,49.46-2.08-2.72-17.22,31.12h18.24l4.85-8.73,6.51,8.73,6.51-8.73,4.85,8.73h18.24l-17.22-31.12Z"/>
  <path class="cls-1" d="m71,141.38h17.64v-3.74h-11.78v-1.8h9.7v-3.46h-9.7v-1.8h11.78v-3.74h-17.64v14.55Zm45.99,0h6.37v-10.81h5.59v-3.74h-17.59v3.74h5.63v10.81h0Zm13.25,0h20.5v-3.74h-10.21l10.21-7.07v-3.74h-20.5v3.74h10.21l-10.21,7.07v3.74h0Zm-81,0h10.44l1.29-.05,1.2-.14,1.06-.18,1.02-.28.97-.32.83-.37.69-.46.65-.46.55-.51.51-.6.42-.6.32-.6.23-.65.19-.69.09-.69.05-.65-.05-.69-.09-.69-.19-.69-.23-.65-.32-.65-.42-.56-.51-.6-.55-.51-.65-.51-.69-.42-.83-.42-.97-.32-1.02-.28-1.06-.19-1.2-.09-1.29-.05h-10.44v14.55h0Zm14.27-7.25l-.05.55-.14.6-.23.55-.42.55-.23.28-.28.23-.37.18-.37.18-.37.18-.46.09-.55.05-.51.05h-4.43v-7.07h4.94l.55.09.46.09.37.14.37.19.37.23.28.23.23.23.42.56.23.6.14.6.05.6h0Zm36.48,3.93h-.88l-.83-.09-.69-.18-.6-.23-.51-.37-.23-.18-.14-.23-.14-.28-.09-.23-.09-.32v-9.1h-5.87v9.28l.14.74.23.65.28.65.37.55.46.51.51.46.65.46.65.32.74.32.88.28.88.23.97.18,1.02.09,1.11.09h2.36l1.11-.09,1.06-.09.97-.18.88-.23.83-.28.79-.32.65-.32.65-.46.51-.46.46-.51.37-.55.28-.65.23-.65.09-.74.05-.74v-8.54h-5.86v8.73l-.05.37-.05.32-.09.23-.14.28-.19.23-.18.18-.51.37-.6.23-.69.18-.83.09h-.88,0Zm45.07-21.84l.23.05h.37l.14.05h.19l.14.05.14.09.09.05.05.05h.05l.05.05.05.05.05.05.05.05v.05l.05.05v.05l.05.09v.09l.05.09v.42l-.05.05v.14l-.05.05v.05l-.05.05v.05l-.05.05-.05.05-.05.05h-.05l-.05.05-.05.05-.09.05-.14.05-.14.05h-.14l-.18.05h-.14l-.23.05h-1.25v-2.17h1.02Zm.23-.65h-2.31v6.14h1.06v-2.68h1.29l1.29,2.68h1.16l-1.39-2.82.14-.05.19-.05.14-.05.14-.05.14-.09.09-.09.14-.09.09-.09.09-.09.05-.14.09-.14.05-.14.05-.14v-.14l.05-.14v-.37l-.05-.09v-.19l-.05-.09-.05-.09v-.09l-.05-.05-.05-.09-.09-.09-.05-.05-.05-.05-.09-.09-.05-.05-.09-.05-.09-.05-.09-.05-.05-.05-.14-.05-.09-.05-.09-.05h-.14l-.09-.05h-.14l-.14-.05h-.09l-.18-.05h-.55s0,0,0,0Zm4.57,3.19v.46l-.05.23-.05.23-.05.23-.05.23-.09.19-.09.23-.09.23-.09.19-.09.18-.14.18-.14.18-.14.19-.14.18-.18.18-.19.14-.14.18-.19.14-.23.14-.18.09-.23.14-.19.09-.18.09-.23.09-.23.05-.23.09-.23.05-.23.05h-.23l-.23.05h-.46l-.23-.05h-.23l-.23-.05-.23-.05-.18-.09-.23-.05-.23-.09-.18-.09-.23-.09-.18-.14-.18-.09-.18-.14-.19-.14-.18-.18-.19-.14-.14-.18-.18-.18-.14-.19-.14-.18-.14-.23-.09-.18-.09-.19-.09-.23-.09-.23-.09-.18-.05-.23-.05-.23-.05-.23-.05-.23v-.92l.05-.23.05-.23.05-.23.05-.18.09-.23.09-.23.09-.23.09-.19.14-.23.09-.19.14-.18.18-.19.14-.18.18-.18.14-.18.18-.14.19-.14.18-.14.18-.09.18-.14.23-.09.18-.09.23-.09.18-.05.23-.05.23-.05.23-.05.23-.05h.97l.23.05.23.05.23.05.23.05.18.09.23.05.23.09.18.14.23.09.19.14.18.14.19.14.18.14.19.18.14.18.14.19.14.14.14.23.14.19.09.18.14.23.09.19.05.23.09.23.05.23.05.23.05.23.05.23v.46h0Zm-4.76-5.4h-.51l-.28.05-.28.05-.23.05-.28.09-.23.05-.23.09-.23.09-.23.14-.23.14-.23.14-.18.14-.23.18-.18.14-.19.19-.18.23-.19.18-.18.23-.14.23-.14.19-.14.23-.14.28-.09.23-.09.23-.09.23-.05.28-.09.28-.05.23v.28l-.05.14v.78l.05.14v.23l.05.28.05.28.09.23.09.23.09.28.09.23.14.23.09.23.14.23.18.18.14.23.18.19.19.19.18.18.23.18.18.19.23.14.23.14.23.14.23.14.23.09.23.09.28.09.23.05.28.09.23.05.28.05h1.06l.23-.05.28-.05.23-.09.28-.05.23-.09.23-.09.28-.09.23-.14.23-.14.23-.14.18-.14.23-.19.23-.18.18-.18.18-.19.19-.19.14-.23.19-.18.14-.23.09-.23.14-.23.09-.23.09-.23.09-.23.05-.28.09-.23.05-.28v-.28l.05-.28v-.51l-.05-.28v-.28l-.05-.28-.09-.23-.05-.28-.09-.23-.09-.23-.09-.23-.09-.23-.14-.23-.14-.23-.14-.23-.18-.18-.19-.23-.19-.19-.18-.18-.18-.18-.23-.14-.23-.19-.19-.14-.23-.09-.23-.14-.28-.09-.23-.09-.23-.09-.28-.09-.28-.05-.23-.05-.28-.05h-.55Z"/>
</svg>