<?xml version="1.0" encoding="UTF-8"?>
<svg id="Layer_1" data-name="Layer 1" xmlns="http://www.w3.org/2000/svg" viewBox="0 0 200 200">
  <defs>
    <style>
      .cls-1 {
        fill: #fff;
      }

      .cls-2 {
        fill: #b11116;
      }
    </style>
  </defs>
  <rect class="cls-2" width="200" height="200"/>
  <g>
    <path class="cls-1" d="m176.36,93.73l-.99,2.52c-2.09-.1-4.71-.97-6.24.89-.94,1.22-2.21,3.26-1.32,4.45,1.48,1.73,6.49-.25,6.49-.25l-1.27,3.26c-3.84.41-8.76,1.35-11.63-.23-1.71-1.32-.66-4-.2-5.63.59-1.68,1.2-3.61,3.05-4.43,3.56-1.88,8.17-1.07,12.12-.59Z"/>
    <path class="cls-1" d="m76.48,93.93c.51,1.27.64,2.67,1.17,3.89l3.33-3.89h5.78c-2.16,2.52-5.09,5.27-7.28,7.76-.46.99-.76,1.83-1.12,2.88h-7.59l1.27-3.44c-.76-2.49-1.68-4.86-2.7-7.23l7.13.03h0Z"/>
    <path class="cls-1" d="m97.15,93.93c.46,2.34.94,4.66,1.45,6.95,1.12-2.16,1.71-4.71,2.7-6.95h4.79l-4.25,10.64h-9.04c-.59-2.29-.81-4.73-1.63-6.95l-2.8,6.95h-4.86l4.25-10.64h9.39Z"/>
    <path class="cls-1" d="m66.02,93.88c.94,0,2.11.89,2.34,2.01.36,3.08-.41,6.19-3.16,7.76-3.08,1.68-11.25.79-16.98.92l4.15-10.64,13.64-.05Zm-8.12,2.39c-.69,1.91-1.48,3.82-1.99,5.6,1.17,0,2.37.13,3.54-.05,1.32-.2,2.6-2.77,2.24-4.61-.31-1.37-2.62-.94-3.79-.94Z"/>
    <path class="cls-1" d="m140.63,94.01c1.07,0,1.71.71,1.83,1.5.31,2.57-1.63,5.4-3.28,6.36-1.76,1.02-5.73.79-8.71.79l-.92,1.88h-6.59l4.25-10.64,13.41.1Zm-7.41,2.09c-.81,1.65-1.07,2.32-1.65,3.59.81,0,3.33.56,4.15-.53,2.39-3.16.15-3.05-2.49-3.05Z"/>
    <path class="cls-1" d="m121.46,104.57h-6.69c.05-.51.23-1.02-.36-1.35h-4.35c-.43.33-.66.74-1.15,1.35h-5.78l8.73-10.72h10.11l-.51,10.72Zm-6.34-4.23v-3.89l-2.88,3.89h2.88Z"/>
    <path class="cls-1" d="m158.01,104.57h-6.59c0-.51.25-1.35-.46-1.35-1.4,0-3.31-.08-4.61-.03-.43.43-.66.64-1.27,1.37h-6.13l8.76-10.74h10.64l-.33,10.74Zm-6.41-4.25l.33-4.02-3.59,4.05,3.26-.03Z"/>
    <g>
      <polygon class="cls-1" points="48.22 107.45 51.36 107.45 51.36 108.23 49.14 108.23 49.14 108.92 50.39 108.92 50.39 109.71 49.14 109.71 49.14 111.01 48.22 111.01 48.22 107.45"/>
      <path class="cls-1" d="m52.98,107.45h-.79l-1.78,3.56h.94l.33-.74h1.76l.38.74h.99l-1.83-3.56Zm-.87,2.04l.48-1.02.48,1.02h-.97Z"/>
      <polygon class="cls-1" points="53.49 107.45 54.61 107.45 55.84 108.64 57.06 107.45 58.18 107.45 56.29 109.43 56.29 111.01 55.4 111.01 55.38 109.51 53.49 107.45"/>
      <polygon class="cls-1" points="60.49 107.45 63.47 107.45 63.47 108.23 62.43 108.23 62.45 111.01 61.54 111.01 61.54 108.23 60.49 108.21 60.49 107.45"/>
      <path class="cls-1" d="m59.5,107.45h-.79l-1.78,3.56h.94l.33-.74h1.76l.38.74h.99l-1.83-3.56Zm-.92,2.04l.48-1.02.48,1.02h-.97Z"/>
    </g>
    <g>
      <path class="cls-1" d="m68.74,109.02v1.93l-.15.05c-.31.1-.74.18-1.27.18-.66,0-1.2-.15-1.6-.48-.38-.33-.64-.84-.64-1.4,0-1.15.94-1.91,2.34-1.91.48,0,.87.08,1.07.18l.18.05-.25.71-.18-.05c-.18-.05-.41-.13-.81-.13-.87,0-1.4.43-1.4,1.15s.51,1.15,1.35,1.15c.23,0,.38-.03.51-.05v-.66h-.81v-.74l1.68.03h0Z"/>
      <path class="cls-1" d="m72.1,110.86c-.08-.13-.2-.53-.28-.87-.08-.25-.18-.46-.36-.61.33-.2.53-.51.53-.89,0-.31-.15-.61-.38-.79-.28-.23-.66-.31-1.27-.31-.38,0-.74.03-1.02.08l-.15.03v3.64h.89v-1.45h.28c.38.03.51.13.64.51.15.51.23.74.31.87l.05.08h.99l-.23-.28Zm-1.73-1.86h-.33v-.87c.08-.03.18-.03.31-.03.48,0,.71.15.71.43.03.33-.33.46-.69.46Z"/>
      <path class="cls-1" d="m74.14,107.37c-1.2,0-2.04.79-2.04,1.96s.81,1.88,1.99,1.88,2.04-.79,2.04-1.96-.81-1.88-1.99-1.88Zm-1.09,1.93c0-.56.28-1.2,1.07-1.2.74,0,1.07.61,1.07,1.17s-.33,1.2-1.07,1.2-1.07-.61-1.07-1.17Z"/>
      <path class="cls-1" d="m79.71,107.42v2.14c0,1.04-.64,1.63-1.71,1.63s-1.63-.59-1.63-1.63v-2.16h.92v2.19c0,.59.25.87.74.87.51,0,.79-.28.79-.87v-2.16h.89Z"/>
      <g>
        <path class="cls-1" d="m82.41,108.01c-.1-.05-.2-.13-.33-.15.31.15.48.38.48.74,0,.33-.15.59-.43.74.13-.05.23-.1.33-.18.18-.15.25-.33.25-.59-.05-.23-.15-.41-.31-.56Z"/>
        <path class="cls-1" d="m82.64,107.73c-.28-.2-.69-.31-1.22-.31-.36,0-.69.03-1.02.05l-.18.03v3.67h.89v-1.32h.23c.56,0,1.04-.15,1.35-.43.25-.23.38-.51.38-.87-.03-.33-.18-.64-.43-.81Zm-1.53.41c.08,0,.18-.03.31-.03.33,0,.74.08.74.46,0,.46-.51.53-.81.53-.1,0-.18,0-.23-.03v-.94h0Zm1.32,1.02c-.08.08-.2.15-.33.18.28-.15.43-.41.43-.74s-.18-.59-.48-.74c.15.05.25.1.33.15.18.13.25.31.25.53.03.28-.05.46-.2.61Z"/>
      </g>
    </g>
    <polygon class="cls-1" points="43.85 98.89 37.46 105.28 35.01 102.84 38.93 98.89 35.04 95.02 33.74 93.73 31.3 91.26 33.74 88.79 43.85 98.89"/>
    <polygon class="cls-1" points="36.21 106.55 33.74 109 23.64 98.89 29.97 92.55 32.44 95.02 28.55 98.89 33.03 103.37 36.21 106.55"/>
    <rect class="cls-1" x="31.88" y="97.35" width="3.72" height="3.72" transform="translate(-60.27 52.91) rotate(-45)"/>
  </g>
</svg>