<?xml version="1.0" encoding="utf-8"?>
<!-- Generator: Adobe Illustrator 28.2.0, SVG Export Plug-In . SVG Version: 6.00 Build 0)  -->
<svg version="1.1" id="Layer_1" xmlns="http://www.w3.org/2000/svg" xmlns:xlink="http://www.w3.org/1999/xlink" x="0px" y="0px"
	 viewBox="0 0 200 200" style="enable-background:new 0 0 200 200;" xml:space="preserve">
<style type="text/css">
	.st0{fill:#B11116;}
	.st1{fill:#FFFFFF;}
</style>
<rect y="0" class="st0" width="200" height="200"/>
<g id="g2196">
	<path id="_45496024" class="st1" d="M47.5,100c-0.5,2.4-1.1,4.1-1.9,5.1c-0.8,1-1.8,1.6-3.4,1.6h-0.9l2.8-13.3H45
		c1.5,0,2.3,0.6,2.7,1.6C48.2,95.9,48,97.6,47.5,100L47.5,100z M47.3,87.8H35.9l-5.2,24.3h12c7.5,0,13.2-4.5,14.8-11.9
		C59,93.1,57,87.8,47.3,87.8L47.3,87.8z"/>
	<path id="_45495304" class="st1" d="M75.9,87.8l-3.4,15.8c-0.4,1.9-1.5,2.7-2.5,2.7c-1,0-1.8-0.7-1.4-2.7l3.3-15.8h-9.6L59,104
		c-1.2,5.9,2.3,8.8,9.7,8.8c7.3,0,12.2-2.9,13.4-8.8l3.4-16.2H75.9L75.9,87.8z"/>
	<path id="_44675096" class="st1" d="M99.5,103.2c-0.7,2.6-1.7,3.3-2.9,3.3c-2.4,0-2-2.8-1.2-6.5c0.8-3.9,1.6-6.5,4.1-6.5
		c1.2,0,2.1,0.6,1.6,3.3h8.8c1.5-7.1-3.2-9.6-9.3-9.6c-8.2,0-13.8,5.1-15.2,12.7c-1.6,7.7,1.2,12.9,9.7,12.9c6,0,12-2.9,13.4-9.6
		L99.5,103.2L99.5,103.2z"/>
	<path id="_44670928" class="st1" d="M123.9,102.3h-4.1l4.1-9.2h0.1L123.9,102.3L123.9,102.3z M119,87.8l-12.9,24.3h9.2l1.8-3.9h7
		l0.1,3.9h10l-2.6-24.3H119L119,87.8z"/>
	<polygon id="_45215720" class="st1" points="157.9,87.8 136.3,87.8 134.9,94.4 140.9,94.4 137.1,112.2 146.7,112.2 150.5,94.4 
		156.5,94.4 	"/>
	<polygon id="_44646160" class="st1" points="159.7,87.8 154.5,112.2 164.1,112.2 169.3,87.8 	"/>
</g>
</svg>
