<?xml version="1.0" encoding="UTF-8"?>
<svg id="Layer_1" data-name="Layer 1" xmlns="http://www.w3.org/2000/svg" viewBox="0 0 200 200">
  <defs>
    <style>
      .cls-1 {
        fill: #fff;
      }
    </style>
  </defs>
  <rect width="200" height="200"/>
  <g>
    <g>
      <path class="cls-1" d="m136.59,96.45c-.72.72-.98,1.62-.98,2.98v4.08c0,1.36.26,2.3.98,2.98.72.72,1.66,1.02,2.98,1.02h8.23c1.32,0,2.27-.3,2.95-1.02.72-.72.98-1.62.98-2.98v-4.08c0-1.36-.26-2.3-.98-2.98-.72-.72-1.66-1.02-2.95-1.02h-8.27c-1.28,0-2.23.3-2.95,1.02m2.57,6.76v-3.59c.04-.53.26-.79.83-.83h7.36c.53.04.79.3.83.83v3.7c-.04.53-.3.79-.83.83h-7.36c-.53-.04-.79-.42-.83-.94"/>
      <g>
        <path class="cls-1" d="m109.86,95.43h-8.19c-1.32,0-2.3.3-2.98,1.02-.72.72-.98,1.62-.98,2.98v4.08c0,1.36.26,2.3.98,2.98.72.72,1.66,1.02,2.98,1.02h8.23c1.32,0,2.27-.3,2.95-1.02.72-.72.98-1.62.98-2.98v-4.08c0-1.36-.26-2.3-.98-2.98-.68-.72-1.62-1.02-2.98-1.02h0Zm-8.57,7.7v-3.51c.04-.53.3-.79.83-.83h7.33c.53.04.79.3.83.83v3.7c-.04.53-.3.79-.83.83h-7.36c-.53-.04-.79-.49-.79-1.02"/>
        <path class="cls-1" d="m84.48,95.39h-1.66c-1.02.08-1.81.34-2.42.98-.72.72-.98,1.62-.98,2.98v8.08h3.59v-3.36h8.5v-3.21h-8.46v-1.47c0-.15.04-.34.08-.45.08-.08.11-.15.38-.19h10.8v-3.36h-9.82Z"/>
      </g>
      <polygon class="cls-1" points="116.54 95.43 116.54 98.79 116.92 98.79 122.96 98.79 122.96 107.51 126.55 107.51 126.55 98.79 132.93 98.79 132.93 95.43 116.54 95.43"/>
      <path class="cls-1" d="m155.02,95.43v12.08h3.59v-8.72h6.99c.11,0,.3.08.45.26.15.15.26.38.23.57v7.89h3.59v-8.08c0-1.36-.26-2.3-.98-2.98l-.26.26.26-.26c-.6-.6-1.47-.91-2.57-.98h-11.29v-.04Z"/>
    </g>
    <g>
      <path class="cls-1" d="m64.73,85.69c-3.66-3.66-8.72-5.93-14.31-5.93-11.22,0-20.28,9.06-20.28,20.24s9.06,20.24,20.24,20.24c5.59,0,10.65-2.27,14.31-5.93,3.66-3.66,5.93-8.72,5.93-14.31s-2.23-10.65-5.89-14.31Zm-14.35,32.25c-2.49,0-4.83-.49-6.99-1.4-2.15-.91-4.08-2.23-5.7-3.85s-2.95-3.55-3.85-5.7c-.91-2.15-1.4-4.49-1.4-6.99s.49-4.83,1.4-6.99c.91-2.15,2.23-4.08,3.85-5.7s3.55-2.95,5.7-3.85c2.15-.91,4.49-1.4,6.99-1.4s4.83.49,6.99,1.4c2.15.91,4.08,2.23,5.7,3.85,1.62,1.62,2.95,3.55,3.85,5.7.91,2.15,1.4,4.49,1.4,6.99s-.49,4.83-1.4,6.99c-.91,2.15-2.23,4.08-3.85,5.7-3.25,3.25-7.7,5.25-12.69,5.25Z"/>
      <path class="cls-1" d="m57.4,92.26s.08-.08.15-.26c.08-.15.15-.38.15-.6,0-.15-.04-.34-.11-.49-.15-.3-.38-.49-.6-.57-.19-.08-.38-.11-.38-.11h-5.89c-.08,0-.19.04-.38.08-.19.04-.42.11-.64.26-.38.23-.6.57-.6.57l-8.01,10.99s-.08.11-.15.26c-.08.15-.15.38-.15.64,0,.53.3.87.3.91l2.72,3.74s.45.57,1.25.57,1.25-.64,1.25-.64l11.1-15.33Zm.04-.87h0c0,.19-.08.38-.11.49.04-.15.11-.3.11-.49Z"/>
      <path class="cls-1" d="m41.09,100.26h0l5.82-8.12s.15-.26.15-.68c0-.19-.04-.42-.15-.6-.3-.64-1.02-.68-1.13-.68h-5.78l-.04.04c-.15,0-.53.04-.91.26-.38.23-.6.57-.6.57l-2.76,3.78s-.26.34-.26.79c0,.49.38.94.38.98l2.68,3.7s.49.57,1.32.57c.76,0,1.28-.6,1.28-.6Z"/>
      <path class="cls-1" d="m62.05,90.67s-.08-.11-.23-.23c-.15-.11-.34-.23-.64-.23-.68,0-.98.49-1.02.49l-13.67,18.84s-.08.11-.15.26c-.08.15-.15.38-.15.68,0,.53.3.87.34.94l2.57,3.51s.42.64,1.32.64c.76,0,1.21-.6,1.21-.6l13.41-18.43s.04-.11.11-.26c.08-.19.11-.42.11-.68h0c0-.49-.11-.72-.15-.72l-3.06-4.23Z"/>
    </g>
  </g>
</svg>