<?xml version="1.0" encoding="UTF-8"?>
<svg id="Layer_1" data-name="Layer 1" xmlns="http://www.w3.org/2000/svg" viewBox="0 0 200 200">
  <defs>
    <style>
      .cls-1 {
        fill: #fff;
      }

      .cls-2 {
        fill: #0029aa;
      }
    </style>
  </defs>
  <rect class="cls-2" width="200" height="200"/>
  <g>
    <path class="cls-1" d="m44.33,92.37h9.43c.03.38.08.69.08.99,0,4.44-.01,8.89.02,13.33,0,.83-.32,1.02-1.06,1.02-2.7-.02-5.41,0-8.32,0,1.14,1.68,2.22,3.27,3.31,4.89-2.38,2.29-4.73,4.54-7.18,6.89-.33-.28-.86-.82-1.48-1.22-.44-.28-1.02-.53-1.52-.51-1.19.06-2.38.24-3.55.48-.63.13-1-.02-1.33-.56-.76-1.23-1.52-2.47-2.34-3.65-.37-.53-.3-.88.11-1.31.82-.87,1.6-1.79,2.43-2.64.57-.58.84-1.16.4-1.93-.06-.11-.1-.24-.11-.36-.17-2.33-1.69-3.44-3.71-4.03-1.09-.32-1.46-.94-1.37-2.07.11-1.38.05-2.77.01-4.16-.01-.55.2-.8.7-.93.94-.24,1.91-.45,2.81-.81.46-.19.8-.68,1.19-1.03.02-.02.02-.06.03-.09q1.04-3.02-.94-5.57-1.59-2.05-.26-4.26c.53-.89,1.12-1.76,1.56-2.7.35-.76.85-.84,1.53-.64.85.24,1.71.44,2.53.75.87.32,1.49.06,2.11-.55,1.61-1.59,1.62-1.56,3.18.07,1.57,1.64,3.16,3.26,4.78,4.84.46.45.4.71.05,1.17-.91,1.17-1.76,2.38-2.62,3.58-.17.24-.25.54-.47,1.02Z"/>
    <path class="cls-1" d="m148.39,99.99c-.58-.32-.99-.47-1.33-.73-1.27-.98-2.61-1.43-4.1-.57-1.21.7-1.85,2.64-1.5,4.3.46,2.16,2.5,3.23,4.57,2.35.87-.37,1.7-.82,2.51-1.29.19-.11.33-.44.37-.69.16-1.03.75-1.84,1.67-2.12,1.58-.48,3.23-.71,4.84-1.08.39-.09.74-.31,1.12-.47-.26-.36-.45-.84-.81-1.05-1.37-.82-2.83-.65-4.29-.19-.5.16-1,.31-1.69.52,0-.94-.04-1.72.03-2.49.02-.21.35-.51.58-.56,2.27-.45,4.54-.72,6.83-.13,1.86.48,2.91,1.76,2.92,3.67.02,2.58,0,5.17.03,7.75,0,.61-.21.89-.83.82-.25-.03-.5,0-.76-.01-.94-.03-2.1.39-2.26-1.29-1.39,1.13-2.67,2.01-4.41,1.57-1.67-.42-2.64-1.58-3.28-3.13-.11.03-.21.06-.32.09,0,.48-.06.97.02,1.43.09.57-.08.89-.62,1.09-1.98.74-3.93.89-5.98.13-2.6-.95-3.71-2.92-3.96-5.46-.24-2.44.42-4.64,2.63-5.97,2.38-1.43,4.92-1.34,7.43-.28.26.11.53.49.56.77.07.9.03,1.81.03,2.99Zm8.47,3.62c-.35-.48-.62-1.15-.88-1.15-.89.02-1.84.14-2.65.47-1.19.49-1.31,1.95-.29,2.56.94.57,1.95.36,2.77-.18.46-.3.65-1.01,1.06-1.7Z"/>
    <path class="cls-1" d="m56.11,91.85c1.05,0,2.09.02,3.12,0,.56-.02.69.24.67.74-.05,1.45-.05,2.9-.09,4.35-.02.71.23,1.01.99.96,1.13-.07,2.27-.02,3.4-.02,1.41,0,1.41-.01,1.4-1.39,0-1.54,0-3.07,0-4.63,1.21,0,2.33-.04,3.44.04.17.01.45.55.45.84,0,4.1-.04,8.19-.06,12.29,0,.69.02,1.39.09,2.07.06.64-.16.96-.82.96-.79,0-1.58-.02-2.36,0-.63.02-.81-.27-.79-.87.04-1.73,0-3.47.08-5.2.04-.88-.32-1.1-1.09-1.09-1.32.02-2.65.03-3.97-.02-.65-.02-.82.25-.81.84.05,1.73.05,3.46.12,5.19.04,1.1.02,1.17-1.11,1.17-.72,0-1.45.04-2.17-.04-.24-.03-.63-.35-.64-.55-.02-5.17,0-10.33.02-15.5,0-.02.04-.05.12-.14Z"/>
    <path class="cls-1" d="m85.46,96.2v-5.1c1.05,0,2.02,0,2.98,0,.63,0,.67.41.67.9-.03,4.62-.05,9.25-.06,13.87,0,2.16,0,2.16-2.15,2.17-.37,0-.75,0-1.1,0-.2-.41-.37-.76-.59-1.2-.45.32-.79.58-1.15.82-1.86,1.23-4.28.8-5.62-1-1.72-2.31-1.87-6.45-.32-8.86,1.25-1.94,3.34-2.73,5.66-2.12.51.13,1.01.31,1.68.51Zm-.03,5.65s0,0,0,0c0-.75-.03-1.51,0-2.26.04-.73-.3-1.1-.97-1.27-1.32-.34-2.72.27-3.3,1.55-.65,1.42-.62,2.88-.05,4.31.4,1,1.57,1.52,2.67,1.27,1.49-.34,1.69-.61,1.65-2.17-.01-.47,0-.94,0-1.42Z"/>
    <path class="cls-1" d="m107.03,106.99c-.82.44-1.56.94-2.36,1.26-1.55.61-3.79-.28-4.69-1.77-.87-1.45-.67-3.78.71-4.73,1.01-.7,2.34-1,3.56-1.35.71-.2,1.5-.13,2.25-.24.28-.04.54-.23.81-.35-.15-.32-.23-.75-.48-.94-1.27-.95-2.71-.87-4.15-.49-.63.17-1.24.39-2.07.66.05-1,.06-1.83.15-2.66.02-.16.33-.38.53-.42,2.24-.42,4.48-.71,6.74-.14,1.75.44,2.87,1.7,2.9,3.49.05,2.68.03,5.36.04,8.04,0,.52-.21.76-.73.73-.38-.02-.76-.01-1.13-.02q-1.36,0-2.08-1.07Zm.5-3.52c-.24-.35-.51-1.02-.72-1-.95.08-1.95.2-2.8.61-1.11.53-1.1,1.81-.11,2.4.91.54,1.81.3,2.69-.11.78-.36.77-1.06.94-1.89Z"/>
    <path class="cls-1" d="m120.78,106.75c-.76.49-1.33.94-1.96,1.25-2.79,1.33-5.68-.44-5.74-3.52-.04-2.05-.01-4.1-.02-6.14,0-.41,0-.82-.05-1.23-.16-1.23-.13-1.27,1.13-1.28.54,0,1.08.05,1.61,0,.88-.1,1.07.32,1.06,1.09-.03,2.11,0,4.22,0,6.33,0,.83.13,1.57,1.07,1.89.71.24,2.38,0,2.76-.52.18-.25.23-.64.23-.97,0-2.3,0-4.6-.06-6.9-.02-.7.19-.98.91-.93.69.05,1.39.03,2.08,0,.56-.02.79.18.79.76-.02,3.56-.01,7.12,0,10.68,0,.55-.18.84-.77.79-.31-.03-.63,0-.94-.02-.92-.02-2.05.38-2.07-1.29Z"/>
    <path class="cls-1" d="m161.49,104.22c.57.27,1.05.47,1.51.71,1.38.71,2.83,1.09,4.37.69.42-.11.74-.56,1.11-.85-.32-.28-.6-.69-.98-.83-.8-.28-1.65-.39-2.47-.59-2.22-.54-3.5-1.99-3.44-3.89.05-1.63,1.29-3.06,3.12-3.6,2.1-.62,4.17-.42,6.22.22.28.09.66.4.68.64.08.86.03,1.74.03,2.75-.42-.18-.76-.31-1.08-.48-1.25-.63-2.55-1.19-3.97-.8-.5.14-.91.65-1.35.99.42.33.79.8,1.26.95,1.25.4,2.57.6,3.82,1.01.98.33,1.67,1.01,1.53,2.2-.13,1.15.37,2.39-.63,3.41-1.17,1.2-2.68,1.47-4.2,1.68-1.65.23-3.26-.15-4.8-.74-.31-.12-.64-.59-.69-.94-.1-.77-.03-1.56-.03-2.53Z"/>
    <path class="cls-1" d="m130.48,99.51c0,2.55-.02,5.09.01,7.64,0,.68-.17.99-.9.93-.66-.05-1.32-.03-1.98,0-.7.03-.91-.26-.9-.96.05-4.46.06-8.93.08-13.39,0-.06,0-.13,0-.19.06-.79.12-1.58.19-2.37,1.03-.01,2.07-.06,3.1,0,.15,0,.37.58.37.89.03,2.48.02,4.97.02,7.45,0,0,.01,0,.02,0Z"/>
    <path class="cls-1" d="m94.89,95.82v1.71c.48-.27.82-.44,1.14-.65.4-.25.75-.59,1.18-.77,1.75-.74,2.22-.43,2.22,1.4,0,.65,0,1.3,0,1.89-1.22.06-2.37.11-3.51.18-.76.05-1.07.41-1.05,1.22.07,2.08.03,4.16.09,6.23.02.78-.21,1.1-1.02,1.03-.69-.06-1.38-.01-2.08,0-.53,0-.7-.26-.7-.77,0-3.55,0-7.11-.01-10.66,0-.55.19-.82.77-.81.94.01,1.88,0,2.97,0Z"/>
    <path class="cls-1" d="m132.69,95.84c1.05,0,2.08-.03,3.11.03.18.01.48.39.48.6.04,3.65.05,7.3.02,10.95,0,.21-.36.59-.57.61-.84.06-1.7.06-2.54-.02-.22-.02-.6-.39-.6-.6-.03-3.74-.02-7.48-.01-11.23,0-.06.04-.12.12-.35Z"/>
    <path class="cls-1" d="m71.92,101.91c0-1.76.02-3.52,0-5.29,0-.55.13-.81.74-.78.78.04,1.58-.05,2.36.03.23.02.61.43.61.66.06,3.62.07,7.24.06,10.85,0,.22-.3.45-.5.64-.07.07-.24.03-.37.04q-2.87.18-2.84-2.66c.01-1.16,0-2.33,0-3.49-.02,0-.04,0-.05,0Z"/>
    <path class="cls-1" d="m103.13,93.97c.82-1.4,1.56-2.67,2.32-3.93.09-.15.36-.28.55-.28,1-.03,2-.01,3.14-.01-.15.32-.2.52-.33.67-.76.88-1.61,1.69-2.29,2.62-.86,1.17-1.96,1.17-3.4.93Z"/>
    <path class="cls-1" d="m132.55,91.11c1.17,0,2.2-.02,3.23.02.22,0,.62.23.63.38.06.75.04,1.5-.02,2.25-.01.13-.36.32-.56.33-.88.03-1.76.04-2.63-.03-.23-.02-.59-.35-.61-.57-.08-.74-.03-1.49-.03-2.37Z"/>
    <path class="cls-1" d="m71.85,91.12c1.21,0,2.24,0,3.27,0,.12,0,.35.02.35.05.1.74.23,1.49.21,2.23,0,.23-.42.62-.68.65-.84.08-1.7.07-2.54,0-.22-.02-.57-.37-.6-.59-.08-.74-.03-1.49-.03-2.34Z"/>
  </g>
</svg>