<?xml version="1.0" encoding="UTF-8"?>
<svg id="Layer_1" data-name="Layer 1" xmlns="http://www.w3.org/2000/svg" viewBox="0 0 200 200">
  <defs>
    <style>
      .cls-1 {
        fill: #fff;
      }

      .cls-2 {
        fill: #e80000;
      }
    </style>
  </defs>
  <rect class="cls-2" width="200" height="200"/>
  <g>
    <path class="cls-1" d="m97.63,86.18c4.02-.12,8.04-.24,12.06-.35,2.59-.07,5.19-.07,7.78-.23,2.36-.14,4.72-.4,7.05-.74.79-.12,1.57-.57,2.28-1,1.39-.85,1.72-2.19,1.48-3.71-.26-1.64-1.18-2.95-2.12-4.26-1.99-2.75-4.73-4.57-7.6-6.22-3.78-2.17-7.86-3.6-12-4.89-.4-.12-.8-.24-1.2-.38-.17-.06-.34-.13-.47-.24-.98-.82-.93-1.66.14-2.36.98-.64,2.09-.72,3.21-.66,5.59.31,10.96,1.59,16.11,3.75,6.88,2.9,12.54,7.36,16.88,13.44,1.89,2.65,3,5.61,3.47,8.82.68,4.58-.42,8.75-2.75,12.69-2.87,4.84-6.76,8.66-11.47,11.67-5.22,3.33-10.91,5.47-16.99,6.55-1.75.31-3.53.48-5.3.65-.88.09-1.78,0-2.56-.51-.49-.32-1-.67-.87-1.39.12-.69.55-1.1,1.2-1.31,3.4-1.12,6.78-2.3,10-3.88,3.91-1.91,7.4-4.37,10.16-7.8.99-1.23,1.82-2.53,2.23-4.07.53-1.97-.08-3.43-1.85-4.45-1.09-.63-2.3-.86-3.53-.92-1.71-.08-3.42-.14-5.13-.18-3.15-.08-6.3-.1-9.45-.21-5.87-.2-11.73.12-17.6.27-3.12.08-6.24.19-9.36.3-2.44.08-4.88.24-7.23,1-1.45.47-2.86,1.99-2.5,4.11.27,1.59,1,2.93,1.92,4.2,1.75,2.42,4.08,4.17,6.57,5.74,3.82,2.41,7.98,4.04,12.26,5.41.58.19,1.18.34,1.75.56.34.13.69.31.96.55.74.64.59,1.66-.28,2.1-1,.51-2.08.72-3.18.66-1.42-.09-2.84-.24-4.25-.41-4.82-.58-9.37-2.1-13.72-4.2-5.1-2.46-9.63-5.69-13.2-10.14-2.73-3.41-4.6-7.23-5.25-11.57-.35-2.34-.09-4.67.51-6.95,1.05-3.97,3.13-7.38,5.85-10.4,4.29-4.75,9.48-8.19,15.39-10.6,3.77-1.54,7.67-2.55,11.7-3.05,1.01-.12,2.03-.22,3.05-.26.58-.02,1.16.07,1.74.17.27.05.54.19.78.34.52.34.95.8.86,1.47-.09.68-.56,1.1-1.2,1.32-3.37,1.12-6.72,2.28-9.92,3.84-3.97,1.93-7.51,4.42-10.31,7.89-1.1,1.36-1.99,2.82-2.28,4.57-.22,1.34.11,2.48,1.26,3.33,1.17.86,2.51,1.25,3.92,1.43.85.11,1.7.15,2.56.17,4.67.08,9.33.15,14,.22,1.49.02,2.97,0,4.46,0,0,.03,0,.06,0,.09Zm10.42-23.4c0,.05-.01.11-.02.16.14.06.28.13.42.17.72.19,1.45.36,2.18.55,4.49,1.17,8.87,2.66,12.92,4.98,4.6,2.63,8.55,5.97,11.32,10.56.9,1.49,1.72,3.01,2.03,4.76.31,1.74-.17,2.78-1.75,3.56-.52.25-1.08.48-1.65.56-1.54.2-3.1.39-4.65.46-4.15.18-8.3.36-12.46.44-6.23.11-12.45.15-18.68.19-6.57.04-13.15.07-19.72.05-3.46,0-6.93-.1-10.39-.22-1.39-.05-2.72-.44-3.85-1.32-.46-.35-.74-.81-.89-1.37-.26-.91.06-1.75.33-2.59,1.25-3.86,3.55-7.05,6.47-9.81,3.62-3.43,7.87-5.89,12.48-7.7,2.82-1.11,5.75-1.95,8.63-2.92.18-.06.35-.13.53-.2-.17-.11-.3-.11-.43-.1-2.06.09-4.09.38-6.09.86-6.61,1.58-12.56,4.5-17.82,8.8-3.29,2.68-6.07,5.8-7.95,9.65-1.43,2.92-2.1,6.01-1.92,9.27.01.18.07.36.11.53.06,0,.11-.01.17-.02.03-.14.08-.27.09-.41.16-2.62.87-5.1,1.92-7.48.93-2.1,1.95-4.15,3.54-5.86.31-.34.7-.6,1.07-.88.06-.05.22-.02.3.03.05.03.04.19,0,.27-.04.11-.13.2-.19.3-1.27,1.87-2.31,3.86-3.03,6-1.03,3.04-1.4,6.16-.86,9.34.44,2.62,1.42,5.04,2.76,7.32,2.6,4.42,6.32,7.69,10.67,10.3,4.01,2.41,8.33,4.08,12.86,5.22,1.52.38,3.07.67,4.61.98.21.04.5.17.64-.22-.2-.06-.37-.11-.54-.16-3.92-1.08-7.79-2.27-11.49-3.97-5.44-2.49-10.26-5.78-13.76-10.76-1.45-2.07-2.66-4.23-2.96-6.8-.23-1.97.25-2.91,2.12-3.83.58-.28,1.25-.46,1.9-.5,2.41-.16,4.82-.31,7.23-.36,3.89-.08,7.77-.05,11.66-.09,6.8-.08,13.59-.2,20.39-.27,6.32-.06,12.64-.08,18.95-.1,2.45,0,4.89.02,7.34.09,1.29.04,2.51.38,3.56,1.21.75.6,1.13,1.36,1.07,2.31-.05.64-.12,1.29-.3,1.9-1.08,3.7-3.15,6.8-5.84,9.52-3.65,3.69-7.97,6.4-12.77,8.31-2.89,1.15-5.87,2.06-8.82,3.07-.26.09-.52.18-.78.27.01.04.02.08.03.12.55-.06,1.1-.09,1.64-.19,5.91-1.1,11.45-3.16,16.5-6.45,3.9-2.54,7.33-5.57,9.87-9.52,2.83-4.41,3.95-9.18,2.93-14.37-.66-3.34-2.11-6.35-3.97-9.18-.12-.18-.24-.37-.36-.55.39-.16.39-.16.66.09,1.74,1.65,3.14,3.54,4.2,5.68,1.27,2.55,1.93,5.27,2.23,8.09.02.2.17.38.26.58.04-.02.08-.03.12-.05.01-.07.03-.14.03-.22.15-1.98-.1-3.92-.62-5.82-1.09-3.91-3.25-7.19-6.07-10.05-4.61-4.69-10.16-7.87-16.32-10.06-3.55-1.26-7.23-1.93-10.99-2.15-.26-.02-.53.02-.8.04Zm24.58,22.98c-.45-.29-.91-.56-1.33-.89-.51-.4-.98-.34-1.5-.05-.34.18-.68.38-1.05.5-2.23.69-4.52,1.07-6.84,1.24-3.39.25-6.79.48-10.19.55-6.03.13-12.06.14-18.09.2-2.03.02-4.05.08-6.08.06-1.93-.03-3.87-.14-5.8-.23-2.47-.12-4.95-.07-7.4-.45-1.44-.22-2.9-.37-4.2-1.05-.63-.33-1.13-.27-1.67.06-.39.24-.77.5-1.26.83.27.22.45.43.68.52.39.14.8.26,1.22.3,1.81.17,3.61.37,5.42.43,3.42.12,6.84.23,10.26.21,8.31-.05,16.62-.16,24.93-.27,3.57-.05,7.14-.13,10.71-.21.94-.02,1.89-.03,2.83-.11,1.33-.11,2.65-.25,3.98-.41,1.46-.17,2.91-.35,4.37-.54.4-.05.79-.18,1.02-.66Z"/>
    <path class="cls-1" d="m128.44,138.81c-1.77,0-3.54.08-5.31-.02-1.92-.12-3.44-.99-4.19-2.88-.15-.38-.24-.81-.26-1.22-.04-.96-.01-1.92-.03-2.88-.05-2.53,1.7-4.08,3.72-4.51.52-.11,1.07-.16,1.61-.16,2.98-.01,5.97-.04,8.95.01.84.01,1.72.14,2.5.44,1.73.66,2.73,1.96,2.82,3.85.05,1.03.05,2.07,0,3.1-.11,2.15-1.56,3.74-3.75,4.16-.53.1-1.07.13-1.61.14-1.48.02-2.97,0-4.45,0,0-.01,0-.02,0-.03Zm0-2.87h0c.78,0,1.56.02,2.34,0,1.19-.04,2.06-.91,2.12-2.09.03-.57.03-1.14,0-1.71-.05-1.11-.86-2.02-1.95-2.06-1.66-.06-3.33-.05-4.99,0-.96.03-1.73.76-1.88,1.71-.09.6-.08,1.22-.07,1.84,0,1.38.9,2.28,2.28,2.31.72.02,1.44,0,2.16,0Z"/>
    <path class="cls-1" d="m114.49,132.75c0,1.59,0,3.18,0,4.77,0,.4-.12.56-.54.55-1.52-.02-3.03-.01-4.55,0-.37,0-.57-.08-.59-.52,0-.25-.19-.55-.39-.72-.48-.42-1-.82-1.54-1.16-1.32-.83-2.65-1.64-4.01-2.4-.31-.18-.74-.24-1.11-.21-.51.04-.73.38-.73.89,0,1.2-.01,2.4,0,3.6,0,.4-.14.53-.53.52-1.55-.01-3.09-.01-4.64,0-.41,0-.54-.15-.54-.56.01-3.18.01-6.36,0-9.54,0-.41.13-.56.54-.55,1.56.01,3.12-.01,4.68.02.37,0,.78.13,1.11.31,1.79.97,3.55,1.99,5.34,2.97.37.2.79.36,1.21.43.47.08.61-.09.61-.57,0-.88.01-1.77,0-2.65,0-.34.09-.5.45-.5,1.59,0,3.18.01,4.77,0,.4,0,.43.21.43.51,0,1.6,0,3.21,0,4.81Z"/>
    <path class="cls-1" d="m80.26,132.76c0,1.59-.01,3.18,0,4.77,0,.42-.14.54-.55.54-1.52-.02-3.03-.02-4.55,0-.45,0-.57-.16-.55-.58.03-.61.01-1.23,0-1.84,0-.77-.4-1.17-1.16-1.18-1.64,0-3.27,0-4.91,0-.78,0-1.15.38-1.16,1.17,0,.64-.01,1.29,0,1.93,0,.33-.1.49-.46.49-1.58-.01-3.15,0-4.73,0-.35,0-.47-.14-.47-.49,0-3.23.01-6.45,0-9.68,0-.35.13-.48.47-.48,1.58,0,3.15.01,4.73,0,.37,0,.47.15.46.49-.02.52-.01,1.05,0,1.57.01.76.38,1.14,1.13,1.15,1.65,0,3.3,0,4.95,0,.73,0,1.13-.41,1.14-1.15,0-.54.01-1.08,0-1.62,0-.3.09-.44.41-.43,1.61,0,3.21,0,4.82,0,.36,0,.41.18.41.48,0,1.62,0,3.24,0,4.86Z"/>
    <path class="cls-1" d="m90.61,132.76c0,1.59-.01,3.18,0,4.77,0,.41-.11.55-.54.55-1.51-.02-3.03-.02-4.54,0-.43,0-.57-.14-.56-.58.02-3.18.02-6.36,0-9.53,0-.43.15-.54.55-.54,1.53.01,3.06.02,4.59,0,.4,0,.51.14.51.53-.02,1.6,0,3.21,0,4.81Z"/>
  </g>
</svg>