<?xml version="1.0" encoding="UTF-8"?>
<svg id="Layer_1" data-name="Layer 1" xmlns="http://www.w3.org/2000/svg" viewBox="0 0 200 200">
  <defs>
    <style>
      .cls-1 {
        fill: #0b4ca0;
      }

      .cls-2 {
        fill: #fff;
      }

      .cls-3 {
        fill: #fdb712;
      }

      .cls-4 {
        fill: #00a54f;
      }
    </style>
  </defs>
  <rect class="cls-1" width="200" height="200"/>
  <g>
    <path class="cls-3" d="m46.7,103.95h-23.7c3.97-6.87,7.91-13.69,11.86-20.53,3.95,6.85,7.89,13.68,11.84,20.53Z"/>
    <path class="cls-2" d="m177,105.58v11c-.19,0-.36,0-.53,0-36.75,0-73.51,0-110.26,0-3.66,0-7.32,0-10.98,0-.37,0-.37,0-.37-.36,0-3.2-.02-6.39-.03-9.59,0-.25-.01-.49-.02-.74,0-.31,0-.31.3-.31,4.94,0,9.89,0,14.83,0,13.14,0,26.27,0,39.41,0,10.3,0,20.59,0,30.89,0,11.69,0,23.39,0,35.08,0,.55,0,1.1,0,1.68,0Zm-22.35,4.29s.03.01.05.02c0,.03,0,.06,0,.09,0,1.22,0,2.45-.01,3.67,0,.22.06.28.27.27.36-.02.72-.02,1.08-.02.14,0,.18-.06.17-.19,0-.64-.01-1.27-.01-1.91,0-1.09,0-2.18.01-3.27,0-.12.02-.26-.16-.26-.68,0-1.36,0-2.03.02-.07,0-.17.07-.19.13-.15.41-.27.83-.41,1.24-.24.74-.49,1.49-.75,2.26-.07-.16-.13-.3-.18-.44-.32-1.01-.63-2.01-.96-3.02-.03-.08-.14-.19-.21-.19-.68-.01-1.36,0-2.03,0-.16,0-.22.07-.21.24.02.29.03.59.03.88,0,1.41,0,2.81-.02,4.22,0,.22.07.3.29.3.35,0,.7,0,1.05,0,.14,0,.18-.05.17-.18-.01-1.2-.02-2.4-.03-3.6,0-.07,0-.13.01-.2.06.06.09.12.11.18.38,1.19.77,2.37,1.14,3.56.06.18.14.25.32.24.33-.01.65-.02.98-.02.14,0,.22-.06.26-.19.24-.74.48-1.48.73-2.22.18-.54.36-1.08.54-1.62Zm-81.34.44s.05.07.07.12c.56,1.09,1.12,2.17,1.68,3.26.08.16.18.24.36.24.5-.01,1-.01,1.51,0,.18,0,.16-.1.16-.22,0-.76,0-1.51,0-2.27,0-.97,0-1.94,0-2.91,0-.12,0-.25-.17-.24-.36,0-.72,0-1.08,0-.13,0-.18.06-.18.19,0,.41,0,.83.01,1.24,0,.71,0,1.42,0,2.13-.08-.04-.12-.09-.15-.15-.54-1.08-1.07-2.17-1.61-3.24-.04-.08-.17-.17-.27-.17-.52-.02-1.04,0-1.55,0-.14,0-.19.04-.19.19,0,1.75,0,3.5,0,5.25,0,.14.04.2.19.2.34,0,.69,0,1.03,0,.14,0,.2-.06.2-.2,0-.25,0-.51,0-.76,0-.88,0-1.76,0-2.65Zm89.87,0s.03-.01.04-.02c.04.07.09.13.13.21.54,1.07,1.09,2.14,1.62,3.21.08.15.16.22.33.21.49-.01.97-.03,1.46-.02.18,0,.22-.05.22-.21,0-1.73,0-3.47,0-5.2,0-.15-.05-.22-.21-.21-.31,0-.62,0-.93,0-.2,0-.28.07-.27.28.02,1.03.03,2.07.04,3.1,0,.1-.02.19-.03.32-.05-.06-.07-.07-.08-.09-.55-1.12-1.1-2.24-1.64-3.36-.09-.18-.2-.26-.41-.25-.45.01-.89,0-1.34,0-.32,0-.32,0-.32.31,0,1.59,0,3.18,0,4.77,0,.13-.01.26,0,.38,0,.06.08.16.12.16.42.01.84,0,1.26,0v-3.61Zm-41.66,3.61c.03-.07.04-.09.04-.1,0-1.79,0-3.58.01-5.37,0-.15-.08-.17-.2-.17-.32,0-.64.01-.96,0-.22,0-.28.08-.27.3.03,1.01.03,2.02.05,3.03,0,.11,0,.23,0,.34-.09-.06-.13-.13-.17-.2-.54-1.1-1.08-2.19-1.63-3.29-.04-.08-.16-.17-.24-.17-.52-.01-1.04,0-1.55,0-.17,0-.23.08-.22.24.01.21.02.41.02.62,0,1.51,0,3.02,0,4.53,0,.2.06.27.26.25.29-.02.59-.05.88-.03.2.01.24-.03.24-.23-.02-1.05-.02-2.1-.02-3.15,0-.06.02-.12.02-.18.62,1.12,1.19,2.24,1.77,3.35.05.1.19.21.3.22.56.02,1.11.01,1.66.01Zm12.43-.18s.04-.05.05-.06c.05-.03.11-.07.16-.1.42-.26.73-.61.91-1.07.25-.64.32-1.3.23-1.99-.15-1.11-.89-2.01-1.94-2.22-.46-.09-.95-.1-1.42-.06-.84.08-1.48.5-1.9,1.24-.33.58-.37,1.22-.36,1.87.04,1.57,1.06,2.61,2.63,2.66.19,0,.33.05.45.2.18.22.39.42.61.61.09.08.24.14.36.14.41.02.83,0,1.24,0,.07,0,.14-.03.25-.05-.45-.42-.85-.79-1.27-1.18Zm-20.97-5.54c-.14,0-.27.01-.41.03-1.03.08-1.78.57-2.17,1.54-.3.76-.32,1.55-.12,2.34.25.96.85,1.59,1.83,1.81.36.08.74.11,1.11.1,1.12-.03,2.03-.66,2.38-1.63.23-.66.28-1.33.16-2.02-.12-.69-.46-1.24-1.02-1.67-.52-.4-1.13-.48-1.76-.49Zm-47.55,2.95s.02,0,.04,0c0,.12,0,.24,0,.36.05,1.21.79,2.13,1.97,2.41.36.08.74.11,1.11.09,1.03-.07,1.84-.53,2.28-1.5.26-.56.27-1.17.24-1.78-.06-1.21-.8-2.17-1.91-2.41-.45-.1-.93-.1-1.4-.08-1.02.04-1.95.82-2.18,1.81-.08.36-.1.74-.15,1.11Zm25.57-.04s.01-.03.02-.03c.95-.23,1.23-1.75.41-2.36-.26-.19-.6-.36-.91-.38-.99-.06-1.97-.04-2.96-.06-.15,0-.18.08-.18.21,0,1.73,0,3.45,0,5.18,0,.17.06.25.23.24.35-.01.7-.04,1.05,0,.23.02.27-.05.26-.25-.01-.56,0-1.13-.02-1.69,0-.23.08-.28.29-.27.4.02.67.21.8.57.18.47.34.94.49,1.42.06.18.15.24.32.24.41,0,.83,0,1.24,0,.03,0,.05-.02.09-.04,0-.05,0-.09-.02-.12-.39-.88-.52-1.86-1.14-2.65Zm44.96-.84h0c0,.57-.01,1.15,0,1.72.02.93.52,1.59,1.39,1.88.56.19,1.14.2,1.72.11,1.06-.17,1.81-.99,1.82-2.02.01-1.15,0-2.29,0-3.44,0-.2-.08-.25-.26-.24-.33,0-.67.01-1,0-.22,0-.29.07-.28.29.02.88.03,1.77.02,2.65,0,.32-.04.65-.11.97-.11.48-.41.69-.88.67-.45-.02-.74-.27-.84-.74-.03-.15-.05-.31-.05-.47,0-1.03,0-2.05,0-3.08,0-.24-.08-.3-.3-.29-.33.02-.67.01-1,0-.18,0-.25.05-.25.24.01.58,0,1.16,0,1.74Zm-38.31-.02h0c0-.58,0-1.16,0-1.74,0-.16-.05-.23-.22-.23-.37,0-.73,0-1.1,0-.16,0-.22.05-.21.22.01.95.02,1.89,0,2.84,0,.31-.06.63-.14.94-.09.36-.38.56-.71.58-.45.02-.75-.12-.88-.5-.1-.32-.15-.67-.15-1-.02-.95,0-1.89,0-2.84,0-.17-.05-.24-.23-.24-.37.01-.73,0-1.1,0-.14,0-.22.03-.22.2,0,1.15,0,2.31.01,3.46.02.99.52,1.66,1.47,1.93.4.11.84.15,1.25.13,1.14-.06,2.25-.7,2.22-2.28-.01-.49,0-.99,0-1.48Zm60.83-.84c.1,0,.17-.01.24-.02.49-.02.98.07,1.47,0,.17-.02.35-.01.53,0,.15.01.22-.04.21-.2-.01-.23-.01-.46,0-.69,0-.18-.07-.23-.24-.23-1.16,0-2.31,0-3.47,0-.22,0-.28.07-.28.29,0,1.69,0,3.39,0,5.08,0,.22.07.27.27.27.68,0,1.36,0,2.03,0,.5,0,1-.01,1.51,0,.22,0,.3-.07.28-.29-.02-.18-.01-.37,0-.55.02-.2-.05-.27-.25-.26-.66.01-1.32,0-1.99,0-.09,0-.19,0-.28-.01v-1.22h2.28c0-.28-.02-.53,0-.78.02-.23-.06-.3-.29-.29-.6.02-1.2,0-1.79,0-.12,0-.22,0-.22-.17,0-.3,0-.6,0-.93Zm-33.43,1.69h0c0,.86,0,1.72,0,2.58,0,.18.05.25.25.24.52-.01,1.04,0,1.55,0,.71,0,1.42,0,2.13-.02.05,0,.13-.1.13-.16.01-.21-.02-.43,0-.64.02-.24-.08-.29-.28-.28-.66.01-1.32,0-1.98.02-.21,0-.28-.06-.26-.27.02-.24.03-.48.01-.71-.01-.2.06-.26.26-.26.56,0,1.12.01,1.67,0,.43-.01.36.02.37-.36,0-.16,0-.32,0-.48,0-.18-.05-.25-.25-.24-.62.02-1.24.01-1.86.03-.16,0-.21-.06-.2-.21,0-.21,0-.43,0-.64-.01-.2.05-.28.27-.27.66.02,1.32,0,1.98.01.16,0,.23-.04.23-.21,0-.23,0-.46,0-.69,0-.17-.07-.22-.23-.22-1.16,0-2.33,0-3.49,0-.22,0-.28.08-.28.29.01.84,0,1.69,0,2.53Zm20.74,2.81c0-.56,0-1.1,0-1.64,0-.32,0-.32.31-.32.45,0,.89,0,1.32-.16.82-.31,1.2-.9,1.16-1.84-.04-.76-.54-1.34-1.34-1.53-.93-.22-1.87-.11-2.81-.13-.14,0-.17.07-.17.2,0,1.73,0,3.46,0,5.2,0,.16.04.23.22.23.43,0,.86,0,1.32,0Zm-67.65-1.43c-.05.39-.09.73-.13,1.08-.02.18.05.26.23.29.35.05.69.13,1.04.16.71.06,1.4.02,2.04-.35.57-.32.85-.82.86-1.47.01-.67-.29-1.15-.89-1.43-.29-.14-.59-.23-.89-.34-.2-.07-.41-.14-.6-.22-.17-.07-.26-.2-.25-.39.01-.19.13-.31.3-.36.17-.05.34-.1.51-.09.46.04.92.11,1.42.17.02-.31.05-.67.06-1.03,0-.05-.12-.13-.2-.15-.71-.16-1.42-.18-2.14-.06-.55.1-1.04.34-1.34.84-.38.63-.35,1.78.68,2.24.2.09.42.15.63.23.3.11.61.2.88.36.32.18.32.56,0,.76-.14.09-.33.13-.49.14-.58.04-1.14-.09-1.72-.37Zm25.06.1c-.2.06-.36.1-.52.15-.45.13-.9.18-1.37.08-.77-.16-1.25-.67-1.36-1.44-.11-.76.26-1.51.91-1.84.57-.28,1.16-.21,1.74,0,.17.06.33.13.53.21.03-.34.03-.65.09-.95.05-.25-.04-.32-.25-.38-.65-.17-1.32-.23-1.99-.16-.96.1-1.74.52-2.26,1.36-.28.46-.32.97-.35,1.49-.07,1.1.47,2.07,1.47,2.54,1.08.51,2.19.47,3.31.18.05-.01.11-.1.11-.15-.01-.35-.04-.69-.06-1.08Zm-38.3-2.89c.03-.35.08-.71.1-1.07,0-.06-.12-.17-.19-.18-.51-.09-1.02-.19-1.53-.21-.71-.03-1.39.13-1.99.55-.84.59-1.16,1.41-1.16,2.4,0,1.1.44,1.94,1.44,2.44,1.08.54,2.2.51,3.33.2.05-.01.12-.1.12-.14,0-.35-.03-.71-.05-1.08-.09.02-.15.05-.21.06-.44.07-.89.2-1.34.21-.87.01-1.54-.57-1.68-1.4-.22-1.3.76-2.29,2.06-2.06.37.06.73.19,1.12.3Zm19.05-.25c0,1.43,0,2.81,0,4.19,0,.21.06.31.28.29.32-.02.64-.02.96-.01.3,0,.31,0,.31-.3,0-1.31,0-2.62-.01-3.93,0-.2.06-.27.26-.25.3.02.61.01.91.01.16,0,.25-.06.24-.24-.01-.21-.02-.43,0-.64.02-.21-.06-.27-.27-.27-.84.01-1.67,0-2.51,0-.44,0-.88,0-1.31,0-.16,0-.23.05-.22.22.01.23,0,.46,0,.69-.01.19.07.25.25.25.37,0,.74,0,1.13,0Zm22.45,0c.37,0,.72,0,1.06,0,.32,0,.33-.01.33-.31,0-.18-.02-.37,0-.55.03-.26-.09-.3-.32-.3-1.2,0-2.41,0-3.61,0-.12,0-.23.02-.35.03,0,.32,0,.61,0,.9,0,.18.08.24.24.23.21,0,.41,0,.62,0,.5,0,.49,0,.49.48,0,1.26,0,2.53,0,3.79,0,.18.07.22.22.22.36,0,.72-.02,1.08,0,.21,0,.26-.06.26-.26,0-1.32,0-2.64,0-3.96,0-.08,0-.16,0-.27Zm64.04,2.23s0,0,0,0c0-.67,0-1.34,0-2,0-.2.07-.25.25-.24.29.01.57,0,.86,0,.18,0,.28-.03.26-.25-.02-.23-.01-.46,0-.69.01-.17-.06-.21-.22-.21-.84,0-1.67,0-2.51,0-.44,0-.88,0-1.32,0-.17,0-.25.05-.23.24.02.23.02.46.01.69,0,.16.05.23.22.23.29,0,.59.01.88,0,.22-.01.26.07.26.28-.01,1.32,0,2.64-.01,3.96,0,.2.07.26.27.25.34-.02.69-.04,1.03-.03.2,0,.26-.04.26-.25-.01-.66,0-1.32,0-1.98Zm-27.08-.56c0-.87,0-1.73,0-2.6,0-.13,0-.23-.18-.23-.38,0-.76,0-1.15,0-.16,0-.22.05-.22.23,0,1.72,0,3.43,0,5.15,0,.21.09.26.27.26.33,0,.67-.02,1,0,.24.02.29-.07.29-.29-.01-.84,0-1.68,0-2.53Zm-35.33,0s0,0,0,0c0,.86,0,1.72,0,2.57,0,.18.04.26.24.25.36-.02.72-.04,1.07-.03.18,0,.23-.04.23-.22,0-1.72,0-3.45,0-5.17,0-.16-.05-.23-.22-.23-.36,0-.72,0-1.07,0-.17,0-.26.05-.25.25.01.86,0,1.72,0,2.57Z"/>
    <path class="cls-4" d="m50.4,103.95h-23.7c3.97-6.87,7.91-13.69,11.86-20.53,3.95,6.85,7.89,13.68,11.84,20.53Z"/>
    <path class="cls-2" d="m124.24,98.06v-12.53c.19,0,.41-.03.62-.03,1.21,0,2.42,0,3.64,0,.17,0,.23.05.23.22,0,.45,0,.89,0,1.34,0,5.43,0,10.86,0,16.3,0,.15-.02.3,0,.45.02.21-.09.23-.26.23-1.78,0-3.56-.01-5.33,0-.38,0-.62-.08-.8-.45-.84-1.71-1.71-3.41-2.57-5.11-.8-1.56-1.61-3.1-2.41-4.66-.37-.72-.72-1.45-1.09-2.18-.04-.07-.08-.14-.18-.21-.01.05-.03.11-.03.16.02,1.99.04,3.98.06,5.96.02,1.34.03,2.69.06,4.03.01.7.04,1.4.07,2.1.01.34,0,.35-.33.34-1.3,0-2.6,0-3.9,0-.34,0-.35,0-.35-.34,0-5.72,0-11.44,0-17.16,0-.28,0-.56,0-.84,0-.16.07-.2.22-.2,1.88,0,3.76,0,5.64,0,.3,0,.48.07.62.37.9,1.86,1.84,3.7,2.76,5.55,1.06,2.12,2.11,4.24,3.17,6.36.04.08.09.15.17.28Z"/>
    <path class="cls-2" d="m132.3,94.74c0-2.82,0-5.63,0-8.45,0-.19.02-.38.01-.57,0-.16.06-.22.22-.22.77,0,1.55-.02,2.32-.02,1.56,0,3.13-.01,4.69.01,1.2.02,2.4.09,3.59.35,1.25.27,2.45.68,3.54,1.37,1.6,1.02,2.53,2.49,3.01,4.29.38,1.43.39,2.89.31,4.36-.09,1.52-.54,2.92-1.33,4.2-.84,1.37-2.07,2.29-3.54,2.91-1.81.76-3.71,1.01-5.65,1.02-1.95,0-3.89,0-5.84,0-.34,0-.69,0-1.03.03-.22.01-.29-.06-.29-.28,0-1.74,0-3.48,0-5.23,0-1.26,0-2.51,0-3.77h0Zm4.99-.02h0c0,1.24,0,2.48,0,3.72,0,.55,0,1.1-.01,1.65,0,.19.05.27.26.26.56-.01,1.12.02,1.67,0,.89-.04,1.77-.12,2.62-.45,1.34-.53,2.3-1.41,2.76-2.81.37-1.14.41-2.31.26-3.49-.09-.74-.32-1.45-.71-2.08-.93-1.5-2.37-2.14-4.06-2.29-.86-.08-1.74-.05-2.6-.07-.19,0-.23.08-.22.25.02.48.03.95.03,1.43,0,1.3,0,2.59,0,3.89Z"/>
    <path class="cls-2" d="m54.77,103.99c0-5.81,0-11.59,0-17.38,0-.31,0-.62,0-.93,0-.12.02-.18.17-.18,1.43,0,2.85,0,4.28,0,.54,0,.53,0,.53.53,0,1.8,0,3.6,0,5.39,0,.29,0,.59-.02.88-.02.25.07.32.31.3.29-.03.59-.04.88-.04,1.45,0,2.9.01,4.35.03.22,0,.3-.04.3-.28-.01-2.16,0-4.33-.02-6.49,0-.24.06-.31.31-.31,1.47,0,2.95,0,4.42-.01.18,0,.23.06.22.22,0,.26,0,.52,0,.79,0,5.58,0,11.15,0,16.73,0,.19-.02.38,0,.57.01.19-.07.23-.24.23-.86-.01-1.72-.03-2.58-.03-.6,0-1.2,0-1.79.03-.24,0-.32-.05-.32-.3.01-2.38.01-4.76,0-7.13,0-.6.03-.49-.5-.49-1.68,0-3.37,0-5.05,0-.23,0-.29.07-.29.3.01,2.44.01,4.88.02,7.33,0,.31,0,.3-.3.3-1.44,0-2.87,0-4.31,0-.12,0-.25-.02-.38-.03Z"/>
    <path class="cls-2" d="m108.39,85.51c0,.1,0,.18,0,.26,0,3.89.01,7.78-.01,11.67-.01,1.76-.57,3.35-1.75,4.68-.69.78-1.59,1.27-2.56,1.62-1.17.43-2.39.59-3.63.59-1.19,0-2.37-.09-3.52-.44-1.06-.33-2.05-.79-2.83-1.58-1.06-1.08-1.72-2.38-1.86-3.91-.08-.83-.13-1.66-.14-2.5-.02-3.24,0-6.47,0-9.71,0-.17.02-.33.01-.5,0-.15.06-.18.2-.18,1.49,0,2.98,0,4.47-.02.31,0,.31,0,.31.32,0,3.52,0,7.03,0,10.55,0,.78.08,1.55.33,2.3.35,1,.99,1.71,2.06,1.92.93.18,1.84.11,2.64-.5.57-.43.87-1.02,1.06-1.68.23-.84.28-1.69.28-2.55,0-2.93,0-5.87,0-8.8,0-.41,0-.83-.04-1.24-.01-.23.07-.29.29-.29,1.41,0,2.82-.01,4.23-.02.13,0,.27.01.44.02Z"/>
    <path class="cls-2" d="m170.09,104c-.23,0-.41,0-.59,0-1.45,0-2.9.01-4.35.02-.08,0-.16,0-.24,0-.16,0-.24-.06-.29-.21-.29-.87-.6-1.74-.9-2.61-.11-.32-.21-.65-.34-.96-.03-.08-.18-.14-.28-.14-.63-.01-1.26,0-1.89,0-1.51,0-3.01,0-4.52,0-.23,0-.36.06-.44.29-.38,1.08-.78,2.15-1.18,3.22-.16.44-.12.43-.62.42-1.35-.02-2.7,0-4.04.01-.16,0-.31,0-.51,0,.11-.31.21-.56.3-.82.94-2.47,1.88-4.95,2.82-7.42.72-1.9,1.44-3.81,2.16-5.71.53-1.39,1.06-2.78,1.6-4.16.16-.43.16-.42.63-.42,1.64,0,3.27,0,4.91,0,.07,0,.14,0,.22,0,.44,0,.44,0,.6.41,1.07,2.77,2.14,5.55,3.21,8.32,1,2.59,2.01,5.17,3.01,7.76.21.55.43,1.1.63,1.65.04.11.06.22.11.37Zm-7.96-7.46c-.73-2.41-1.45-4.79-2.17-7.17h-.07c-.79,2.37-1.57,4.76-2.37,7.17h4.62Z"/>
    <path class="cls-2" d="m72.16,85.49c.43,0,.82,0,1.21,0,1.35,0,2.7,0,4.04,0,.32,0,.48.12.61.4.62,1.31,1.26,2.61,1.89,3.91.47.96.94,1.93,1.41,2.89.03.06.07.12.12.21.06-.08.1-.12.12-.17,1.1-2.28,2.21-4.55,3.28-6.83.16-.33.34-.41.67-.4,1.59.01,3.17,0,4.76,0,.13,0,.25.01.42.03-.06.12-.09.22-.15.31-.82,1.37-1.64,2.74-2.46,4.12-.93,1.57-1.86,3.15-2.8,4.72-.45.76-.91,1.51-1.35,2.27-.05.09-.05.21-.05.32,0,2.17,0,4.34.02,6.51,0,.21-.07.26-.26.25-1.46,0-2.92,0-4.38,0-.32,0-.32,0-.32-.31,0-2.08,0-4.15.01-6.23,0-.31-.07-.57-.23-.83-.78-1.31-1.54-2.63-2.33-3.94-.79-1.33-1.59-2.64-2.39-3.96-.61-1.02-1.21-2.04-1.81-3.06-.02-.04-.03-.09-.07-.2Z"/>
    <path class="cls-2" d="m176.82,85.52c0,.1.02.19.02.28,0,5.97,0,11.95,0,17.92,0,.27-.02.29-.33.29-1.04,0-2.07-.01-3.11-.01-.41,0-.83,0-1.24.02-.17,0-.25-.05-.25-.25,0-5.97,0-11.93,0-17.9,0-.35,0-.36.36-.36,1.39-.01,2.77-.02,4.16-.02.13,0,.25.02.39.03Z"/>
    <path class="cls-2" d="m133.78,111.13c-.07.32-.12.68-.25,1-.18.46-.54.73-1.05.71-.51-.02-.86-.3-1.03-.75-.25-.65-.25-1.33-.01-1.98.19-.53.6-.79,1.11-.77.47.02.9.34,1.05.84.09.29.12.6.18.95Z"/>
    <path class="cls-2" d="m114.27,111.05c-.05.44-.09.86-.31,1.25-.43.72-1.42.75-1.88.05-.32-.49-.34-1.03-.29-1.58.02-.2.06-.39.12-.58.18-.55.57-.84,1.09-.84.5,0,.92.29,1.1.83.09.28.12.58.18.88Z"/>
    <path class="cls-2" d="m66.99,111.21c.06-.64.11-1.12.44-1.5.46-.53,1.34-.5,1.71.09.5.8.48,1.65.08,2.47-.19.4-.55.6-1.02.57-.44-.03-.77-.24-.93-.63-.15-.37-.22-.77-.28-1.01Z"/>
    <path class="cls-2" d="m88.92,110.01c0-.06,0-.11,0-.17,0-.49,0-.5.5-.44.19.02.38.03.56.09.29.08.43.28.41.54-.01.25-.2.48-.48.52-.28.04-.57.05-.85.05-.05,0-.13-.09-.13-.14-.02-.15,0-.3,0-.45h0Z"/>
    <path class="cls-2" d="m145.78,109.37c.28.03.53.03.77.09.32.07.51.33.51.64,0,.34-.18.6-.5.7-.11.03-.22.05-.33.06-.49.07-.45.1-.45-.42,0-.33,0-.67,0-1.06Z"/>
  </g>
</svg>