<?xml version="1.0" encoding="UTF-8"?>
<svg id="Layer_1" data-name="Layer 1" xmlns="http://www.w3.org/2000/svg" viewBox="0 0 200 200">
  <defs>
    <style>
      .cls-1 {
        fill: #fff;
      }

      .cls-2 {
        fill: #e57228;
      }
    </style>
  </defs>
  <rect class="cls-2" width="200" height="200"/>
  <g>
    <path d="m100,146.09l-37.65-37.67c-2.48-2.46-3.87-5.31-3.94-8.09-.08-3.06,1.24-5.99,3.94-8.68l37.65-37.73,37.65,37.73c2.7,2.7,4.09,5.62,3.94,8.68-.08,2.78-1.46,5.62-3.94,8.09l-37.65,37.67Z"/>
    <path class="cls-1" d="m64.01,106.82c-2.12-2.12-3.29-4.38-3.36-6.57v-.3c0-2.25,1.16-4.53,3.36-6.7,0,0,28.75-28.83,35.98-36.06,2.99,2.99,36.04,36.06,36.04,36.06,2.2,2.2,3.29,4.45,3.29,6.7v.3c-.08,2.2-1.24,4.45-3.29,6.57l-36.04,36.04c-2.99-2.99-35.98-36.04-35.98-36.04Z"/>
    <path d="m131.96,105.95l-31.96,31.94-31.96-31.94h63.93Zm1.97-1.97l-1.09,1.09h-65.69l-1.09-1.09h67.87Zm-37.88-12.41l-29.26,3.79,33.2-33.28,33.2,33.28-29.26-3.79c-.66-.15-2.25-.36-3.94-.36s-3.29.21-3.94.36h0Z"/>
    <path class="cls-2" d="m95.98,107.25l-1.75,18.31-18.24-18.31h19.98Zm-20.43-14.08l22.1-2.85,2.05-21.37-24.15,24.23Zm48.45,14.08l-18.24,18.31-1.75-18.31h19.98Zm-23.64-38.31l2.05,21.39,22.12,2.84-24.17-24.23Z"/>
    <path d="m125.54,96.45l-1.97-.23-1.16,5.84h1.24s.23-.94.23-1.09h1.39l.23,1.09h1.24l-1.18-5.62h0Zm-1.54,3.44c.08-.23.51-2.25.51-2.48.08.23.51,2.27.51,2.55-.21-.08-.79-.08-1.01-.08h0Zm-54.95-2.78v4.96h1.31v-5.09l-1.31.13Zm4.02-.43l-.96.08v5.33h1.31v-2.55c-.08,0,1.31,2.55,1.31,2.55h.96v-5.69l-1.24.15v2.63l-1.39-2.5Zm4.96.66v4.73h1.31v-4.81l1.03-.15v-1.24l-3.36.38v1.24l1.01-.15Zm5.03,2.12l1.84-.08v-1.39l-1.84.15v-1.24l1.84-.15v-1.39l-3.14.3v6.4h3.19v-1.3h-1.9v-1.31Zm10.52-1.03l1.39,3.64h1.16v-8.02l-1.31.15v3.94l-1.39-3.72-1.16.06v7.59h1.31v-3.64Zm10.8-2.69v6.33h1.39v-6.2l1.39.15v-1.6l-4.24-.45v1.69l1.46.08Zm4.17,6.33h1.45v-7.29l-1.45-.15v7.44Zm6.12-6.78l-1.54-.23c-.96-.08-1.39.43-1.39,1.46v4.02c0,1.01.51,1.52,1.39,1.52h1.39c.96,0,1.39-.51,1.39-1.46v-3.72c0-.86-.36-1.52-1.24-1.6h0Zm-.08,5.48l-1.54-.08v-4.15l1.54.15v4.08Zm5.26-2.05c-.43-.88-.43-.94-1.46-3.06l-1.01-.08v6.5h1.39v-2.84l1.54,2.84h.96v-6.05l-1.39-.15s-.02,2.03-.02,2.84h0Zm9.13-1.82l-1.31-.15v5.31h3.34v-1.16h-2.03v-4Zm-28.09-3.14l1.62,8.32h-1.39l-.3-1.31h-1.6c0-.08-.23,1.31-.23,1.31h-1.46l1.6-8.32h1.77Zm-.88,1.9l-.66,3.64h1.31l-.66-3.64Zm-10.65,6.4h1.54l-1.31-2.91c.66-.36.96-.88.96-1.67v-1.24c0-.96-.43-1.46-1.39-1.39l-2.4.3v6.93h1.24v-3.14l1.37,3.12h0Zm-.08-4.23l-1.31.08v-1.46l1.31-.15v1.54h0Z"/>
  </g>
</svg>