<?xml version="1.0" encoding="UTF-8"?>
<svg id="Layer_1" data-name="Layer 1" xmlns="http://www.w3.org/2000/svg" viewBox="0 0 200 200">
  <defs>
    <style>
      .cls-1 {
        fill: #fff;
      }

      .cls-2 {
        fill: #ff000d;
      }
    </style>
  </defs>
  <rect class="cls-2" width="200" height="200"/>
  <g>
    <path class="cls-1" d="m125.23,120.68c-3.36,0-6.72-.06-10.07.02-3.06.07-5.27-2.29-5.81-4.54-.65-2.73.61-5.53,3.2-6.68,2.08-.93,4.26-1.62,6.41-2.39,2.7-.98,5.41-1.93,8.1-2.93.26-.1.44-.42.65-.64-.28-.12-.57-.33-.85-.33-5.25-.02-10.49-.03-15.74,0-.68,0-.87-.19-.85-.85.05-1.54.05-3.07.03-4.61,0-.47.17-.6.61-.6,6.54.01,13.08-.03,19.62.03,3.66.03,6.22,2.76,6.08,6.27-.1,2.55-1.73,4.55-4.52,5.54-4.5,1.6-9.01,3.2-13.5,4.82-.32.12-.83.44-.81.63.04.57.6.44,1,.44,5.62,0,11.24,0,16.86,0,.87,0,.87,0,.87.86,0,1.4-.03,2.81.01,4.21.02.58-.17.75-.74.75-3.51-.02-7.02-.01-10.54-.01,0,0,0,.02,0,.02Z"/>
    <path class="cls-1" d="m57.79,120.65c-3.53,0-7.07-.01-10.6.01-.63,0-.89-.14-.87-.84.06-1.4.04-2.81,0-4.21-.02-.61.2-.78.8-.78,5.68.02,11.37.01,17.05.01.18,0,.37.05.52-.02.18-.08.38-.23.43-.4.03-.11-.14-.36-.28-.44-.33-.17-.69-.29-1.04-.41-4.36-1.55-8.71-3.12-13.07-4.65-2.46-.86-4.06-2.42-4.46-5.09-.48-3.22,2.03-6.44,5.27-6.64,1.68-.1,3.38-.08,5.07-.09,5.03,0,10.05,0,15.08,0,.88,0,.88,0,.88.86,0,1.47-.02,2.94.01,4.41.02.62-.21.78-.8.77-5.16-.02-10.31-.01-15.47-.01-.11,0-.22,0-.33,0-.33.02-.82-.1-.83.38,0,.2.41.51.69.62,4.14,1.52,8.29,3,12.43,4.51.68.25,1.35.51,2.01.82,2.11.98,3.21,2.69,3.35,4.97.15,2.34-.85,4.17-2.83,5.42-.87.55-1.81.82-2.87.8-3.38-.04-6.76-.01-10.14-.01Z"/>
    <path class="cls-1" d="m104.83,105.96c0,2.57.03,5.14,0,7.7-.04,3.18-1.86,5.77-4.7,6.7-.57.19-1.2.28-1.81.29-4.48.03-8.95.03-13.43.03-3.61,0-6.49-2.65-6.8-6.27-.03-.37-.04-.75-.04-1.12,0-5.09,0-10.18-.02-15.27,0-.66.19-.87.86-.86,2.13.04,4.26.02,6.38.02.94,0,.95,0,.95.93,0,4.65,0,9.3,0,13.96,0,.92.18,1.78,1.01,2.29.43.26.97.46,1.46.48,1.75.06,3.51.03,5.26.02,1.79,0,2.68-.88,2.69-2.67.01-4.72,0-9.44,0-14.15,0-.86,0-.87.88-.87,2.04,0,4.08-.01,6.12,0,1.27,0,1.18-.15,1.18,1.16,0,2.55,0,5.09,0,7.64,0,0,0,0,0,0Z"/>
    <path class="cls-1" d="m167.82,106.09c0,2.55-.03,5.09,0,7.64.05,3.95-3.26,7.06-6.95,6.96-4.32-.12-8.65-.09-12.97.01-3.24.07-6.91-2.68-6.85-7.14.05-4.72,0-9.44,0-14.16,0-.57.01-1.14,0-1.71,0-.36.15-.52.51-.52,2.39,0,4.78,0,7.18,0,.49,0,.51.29.51.64,0,2.3,0,4.61,0,6.91,0,2.46,0,4.92,0,7.38,0,1.98.77,2.76,2.74,2.76,1.67,0,3.34,0,5,0,1.75,0,2.63-.9,2.64-2.63,0-4.72.01-9.44.02-14.16,0-.87,0-.88.86-.88,2.19,0,4.39.01,6.58-.02.59,0,.74.2.74.76-.02,2.72-.01,5.44-.01,8.17Z"/>
    <path class="cls-1" d="m148.37,49.3c1.95.05,4.42.32,6.69,1.44,4.03,2,6.17,5.33,6.56,9.79.51,5.76-1.55,10.72-4.93,15.22-3.67,4.89-8.35,8.48-14.05,10.69-3.75,1.46-7.64,2.04-11.62,1.25-6.45-1.28-10.26-6.17-10.13-12.89.08-4.11,1.47-7.79,3.69-11.22,3.02-4.65,6.86-8.43,11.79-11.01,3.58-1.87,7.31-3.32,12-3.27Zm-10.61,36.21c.55-.04,1.1-.04,1.64-.11,5.97-.8,10.59-3.84,14.12-8.64,2.92-3.98,4.44-8.4,3.96-13.37-.31-3.16-1.42-6.04-3.84-8.21-3.31-2.98-7.3-3.78-11.55-3.01-5.41.97-9.66,3.93-12.9,8.31-3.04,4.1-4.67,8.62-4.06,13.84.76,6.55,6.01,11.25,12.64,11.2Z"/>
    <path class="cls-1" d="m32.18,108.88c0-3.62.01-7.24-.01-10.86,0-.65.15-.87.84-.86,2.24.04,4.47.03,6.71,0,.56,0,.76.14.76.74-.02,7.35-.02,14.7,0,22.04,0,.5-.14.7-.66.7-2.3-.02-4.61-.02-6.91,0-.6,0-.74-.23-.74-.78.02-3.66,0-7.33,0-10.99Z"/>
    <path class="cls-1" d="m133.09,58.63c.44.53.89,1.05,1.33,1.58,2.03,2.5,4.07,4.99,6.07,7.52.26.33.47.82.47,1.24.04,3.16,0,6.32.03,9.47,0,.56-.22.65-.7.65-2.21-.02-4.43-.02-6.64,0-.6,0-.79-.16-.79-.77.02-4.89.01-9.78.01-14.67,0-1.49,0-2.98,0-4.47,0-.15.02-.3.04-.45.06-.03.11-.07.17-.1Z"/>
    <path class="cls-1" d="m149.77,58.7c.01.21.04.42.04.64,0,6.34,0,12.69.01,19.03,0,.55-.16.72-.7.72-2.22-.02-4.43-.03-6.65,0-.63,0-.77-.22-.77-.8.02-3.03.02-6.06,0-9.09,0-.63.19-1.13.59-1.62,2.27-2.76,4.52-5.54,6.77-8.32.18-.22.36-.42.54-.63.06.02.11.05.17.07Z"/>
  </g>
</svg>