<?xml version="1.0" encoding="UTF-8"?>
<svg id="Layer_1" data-name="Layer 1" xmlns="http://www.w3.org/2000/svg" viewBox="0 0 200 200">
  <defs>
    <style>
      .cls-1 {
        fill: #fff;
        fill-rule: evenodd;
      }

      .cls-2 {
        fill: #223d7d;
      }
    </style>
  </defs>
  <rect class="cls-2" width="200" height="200"/>
  <path class="cls-1" d="m150.85,92.38c2.16.12,3.72,1.68,3.96,3.72.12,1.08.12,2.76.12,3.84,0,1.32,0,2.4-.12,3.48-.36,2.52-2.16,3.96-3.96,3.96h-3.12c-1.68,0-3.6-1.44-3.96-3.96-.12-1.08-.12-2.16-.12-3.36s0-2.88.12-3.96c.24-2.04,1.92-3.6,4.08-3.72.48-.12.84-.12,1.44-.12l1.56.12Zm-1.2-6.96c2.28,0,4.44.12,6.24.36,5.04.6,9.12,4.56,9.97,9.49.12.84.36,2.76.36,4.68,0,2.04-.24,3.96-.36,4.68-.84,5.04-4.92,8.89-9.97,9.61-1.8.12-3.96.36-6.24.36h-.72c-2.4,0-4.44-.24-6.36-.36-5.04-.72-9-4.56-9.85-9.61-.12-.72-.36-2.64-.36-4.68,0-1.92.24-3.84.36-4.68.84-4.92,4.8-8.89,9.85-9.49,1.92-.24,3.96-.36,6.24-.36h.84Zm-43.35,14.53c0-1.56.12-3.12.48-4.68.84-4.92,4.8-8.89,9.85-9.49,1.8-.24,3.96-.36,6.24-.36,2.52,0,4.8.12,6.72.36.72.12,1.2.72,1.2,1.44v4.32c0,.84-.6,1.44-1.32,1.44,0,0-2.28-.12-3.48-.12-1.44,0-2.64,0-3.96.12-2.16.12-3.72,1.68-3.96,3.72-.12,1.08-.24,2.16-.24,3.24v.12c0,1.08.12,2.16.24,3.24.24,2.04,1.68,3.6,3.96,3.84,1.2.12,2.64.24,3.96.24,1.2,0,3.48-.12,3.48-.12.72,0,1.32.6,1.32,1.44v4.32c0,.72-.48,1.32-1.2,1.44-1.92,0-4.2.12-6.72.12-2.28,0-4.44-.24-6.24-.36-5.04-.72-9-4.56-9.85-9.61-.36-1.44-.48-3-.48-4.56v-.12Zm-3.24,7.08c.84,0,1.44.72,1.44,1.44v4.32c0,.84-.6,1.44-1.44,1.44h-17.17c-3.11,0-5.64-2.52-5.64-5.63,0,0,0,0,0-.01v-17.05c0-3.11,2.52-5.64,5.63-5.64,0,0,0,0,.01,0h17.17c.84,0,1.44.6,1.44,1.32v4.2c0,.84-.6,1.44-1.44,1.44h-10.57c-.84,0-1.44.48-1.44,1.32v2.64l9-.12c.72,0,1.44.72,1.44,1.44v3.6c0,.84-.72,1.44-1.44,1.44h-9v2.4c0,.84.6,1.44,1.44,1.44h10.57Zm-43.7,7.2c-2.52,0-4.68-1.68-5.4-3.96l-5.88-22.69v-.36c0-.72.6-1.32,1.44-1.32h8.76c.72,0,1.32.48,1.44,1.08l4.56,18.97c0,.24.24.48.6.48.24,0,.48-.24.48-.48l4.68-18.97c.12-.6.72-1.08,1.32-1.08h4.92c.84,0,1.44.6,1.44,1.32v.36l-5.64,22.21c-.6,2.52-2.64,4.44-5.52,4.44h-7.2Zm-24.13-28.34h8.52c.84,0,1.44.6,1.44,1.32v25.57c0,.84-.6,1.44-1.44,1.44h-8.52c-.72,0-1.44-.6-1.44-1.44v-25.57c0-.72.72-1.32,1.44-1.32Z"/>
</svg>