<?xml version="1.0" encoding="UTF-8"?>
<svg id="Layer_1" data-name="Layer 1" xmlns="http://www.w3.org/2000/svg" viewBox="0 0 200 200">
  <defs>
    <style>
      .cls-1 {
        fill: #387c2b;
      }

      .cls-2 {
        fill: #fd0;
      }
    </style>
  </defs>
  <rect class="cls-1" width="200" height="200"/>
  <g>
    <path class="cls-2" d="m101.34,61.47c.27.02.53.06.8.07,7.66.29,14.95,2.05,21.86,5.38.16.08.31.25.38.42,1.51,3.68,2.57,7.48,3.21,11.4.57,3.46.77,6.95.64,10.45-.24,6.17-1.52,12.12-3.86,17.83-.06.15-.2.3-.34.37-4.32,2.09-8.83,3.56-13.54,4.45-3.66.69-7.35,1.02-11.07.98-2.62-.03-5.22-.24-7.81-.64-5.22-.79-10.22-2.31-15.02-4.52-.59-.27-.96-.63-1.2-1.25-1.37-3.58-2.39-7.24-2.98-11.02-.33-2.13-.55-4.27-.61-6.43,0-.15-.04-.31-.07-.46,0-.89,0-1.79,0-2.68.02-.2.06-.39.07-.59.06-2.32.31-4.63.7-6.92.58-3.39,1.51-6.69,2.7-9.92.34-.92.76-1.63,1.75-1.88.01,0,.02,0,.03-.01,6.64-3.04,13.61-4.67,20.91-4.95.28-.01.55-.05.83-.07.87,0,1.75,0,2.62,0Zm-1.03,49.28c1.75,0,4.26-.13,6.76-.47,5.28-.7,10.35-2.14,15.19-4.36.22-.1.35-.23.44-.46,1.74-4.51,2.82-9.17,3.23-13.99.29-3.44.24-6.88-.17-10.31-.5-4.23-1.53-8.32-3.07-12.29-.09-.23-.22-.36-.44-.46-7.01-3.21-14.38-4.78-22.09-4.82-2.81-.02-5.61.2-8.39.64-4.89.76-9.59,2.17-14.08,4.26-.14.07-.28.22-.34.37-2.03,5.16-3.15,10.52-3.39,16.06-.11,2.56-.04,5.12.24,7.67.46,4.21,1.43,8.29,2.88,12.27.23.63.53,1.1,1.2,1.29.19.05.37.16.55.24,6.6,2.86,13.51,4.29,21.47,4.38Z"/>
    <path class="cls-1" d="m100.31,110.75c-7.96-.09-14.87-1.52-21.47-4.38-.18-.08-.36-.19-.55-.24-.67-.18-.97-.65-1.2-1.29-1.45-3.98-2.43-8.06-2.88-12.27-.28-2.55-.35-5.11-.24-7.67.24-5.54,1.37-10.9,3.39-16.06.06-.15.2-.3.34-.37,4.49-2.09,9.19-3.5,14.08-4.26,2.78-.43,5.58-.65,8.39-.64,7.7.04,15.08,1.61,22.09,4.82.22.1.35.24.44.46,1.54,3.97,2.56,8.07,3.07,12.29.41,3.43.46,6.86.17,10.31-.41,4.82-1.49,9.48-3.23,13.99-.09.23-.22.36-.44.46-4.84,2.23-9.91,3.66-15.19,4.36-2.5.33-5.01.47-6.76.47Zm21.57-7.53c.07-.19.11-.29.15-.39,2.26-6.65,3.03-13.47,2.35-20.45-.41-4.27-1.39-8.41-2.9-12.43-.09-.25-.24-.39-.48-.5-5.28-2.37-10.82-3.77-16.59-4.27-4.07-.35-8.14-.21-12.18.41-4.57.7-8.97,1.98-13.19,3.88-.27.12-.42.28-.52.55-2.69,7.2-3.63,14.63-2.84,22.27.43,4.14,1.39,8.14,2.85,12.03.1.28.27.43.53.55,3.82,1.72,7.8,2.93,11.93,3.66,3.05.54,6.12.81,9.21.8,2.52,0,5.03-.2,7.52-.58,4.61-.7,9.04-1.97,13.29-3.89.09-.04.17-.09.29-.15-.11-.2-.21-.39-.31-.57-.9-1.52-1.98-2.9-3.2-4.17-.15-.15-.35-.27-.56-.34-1.9-.64-3.8-1.26-5.69-1.9-1.42-.49-2.77-1.1-3.85-2.18-.52-.52-1.02-1.07-1.54-1.59-.11-.11-.27-.21-.42-.22-.62-.04-1.26-.1-1.88-.06-1.75.13-3.5.31-5.24.47-1.5.15-3,.23-4.47-.12-1.05-.25-2.09-.58-3.12-.9-1.58-.5-3.15-1.02-4.81-1.19-.4-.04-.81-.05-1.31-.08.19.34.31.58.46.81,1.29,2.04,2.73,3.89,5.25,4.51.19.05.38.2.49.36.37.54.71,1.11,1.06,1.67.05.08.04.19.06.29-.1-.02-.22,0-.31-.06-.61-.34-1.22-.67-1.81-1.03-2.83-1.75-5.43-3.78-7.62-6.3-.28-.32-.46-.66-.52-1.09-.04-.28,0-.45.3-.52,1.12-.27,2.22-.61,3.36-.79,1.35-.22,2.73-.33,4.1-.47.23-.02.31-.12.33-.32.04-.32.08-.64.14-.96.36-2.27,1.05-4.43,2.06-6.49.2-.4.15-.49-.3-.59-.83-.17-1.66-.38-2.5-.5-.52-.08-.81-.28-.91-.82-.05-.27-.05-.38.24-.49,2.2-.79,4.44-1.46,6.72-1.99.24-.06.39-.15.5-.38.49-1.07.15-1.78-1-2.05-.11-.03-.22-.04-.33-.06-1.03-.15-2.07-.06-3.06.19-1.36.33-2.69.76-4.03,1.14-.1.03-.22,0-.33.01.06-.1.09-.24.18-.31.3-.24.6-.46.93-.67.47-.3.96-.57,1.46-.87-.3-.88-1.05-1.3-1.84-1.7.07-.05.08-.07.1-.08.03-.01.06-.03.1-.02,1,.14,1.92.44,2.59,1.26.14.17.25.16.43.12.56-.14,1.13-.26,1.7-.37.39-.07.4-.08.32-.47-.19-.92-.7-1.66-1.37-2.3-.13-.13-.27-.25-.4-.37l.05-.11c.13.03.26.03.38.08,1.35.58,2.4,1.46,2.93,2.87.03.08.12.18.19.19.55.09,1.09.17,1.69.26.66-1.68.17-3.18-.85-4.63.14,0,.28,0,.38.06,1.11.62,1.85,1.54,2.18,2.76.41,1.51.2,2.99-.25,4.46-.04.13-.08.27-.13.44,1.4-.24,2.76-.46,4.11-.69.02.04.03.08.05.12-.08.1-.14.22-.23.3-.78.6-1.56,1.19-2.35,1.78-.24.18-.5.26-.81.19-.33-.07-.67-.08-1-.13-.25-.04-.39.02-.46.29-.14.55-.31,1.1-.44,1.65-.33,1.38-.62,2.77-.57,4.21.04,1.18.63,2.01,1.77,2.33.6.17,1.25.22,1.89.24,1.49.03,2.98-.04,4.46.02,1.3.06,2.61.21,3.9.37.69.09,1.37.28,2.11.43.39-2.16-.69-3.83-1.81-5.51.15,0,.29,0,.38.07.75.58,1.54,1.12,2.23,1.76.95.88,1.65,1.94,1.98,3.21.12.47.11.47-.33.65-.43.18-.86.35-1.32.55,1.26,1.34,1.91,2.94,2.39,4.62.2.72.41,1.44.63,2.15.22.7.63,1.25,1.28,1.61.94.52,1.87,1.06,2.79,1.6.2.12.41.29.53.48.83,1.3,1.63,2.62,2.45,3.93.08.12.15.24.27.43Z"/>
    <path class="cls-2" d="m121.88,103.22c-.12-.19-.19-.31-.27-.43-.81-1.31-1.62-2.63-2.45-3.93-.12-.2-.33-.36-.53-.48-.92-.55-1.86-1.08-2.79-1.6-.65-.36-1.06-.91-1.28-1.61-.22-.71-.43-1.43-.63-2.15-.47-1.68-1.12-3.28-2.39-4.62.47-.19.9-.37,1.32-.55.45-.18.45-.19.33-.65-.32-1.28-1.03-2.34-1.98-3.21-.69-.64-1.48-1.19-2.23-1.76-.09-.07-.24-.08-.38-.07,1.12,1.69,2.2,3.35,1.81,5.51-.74-.16-1.42-.35-2.11-.43-1.3-.16-2.6-.32-3.9-.37-1.48-.06-2.98,0-4.46-.02-.63-.01-1.28-.07-1.89-.24-1.14-.31-1.73-1.15-1.77-2.33-.05-1.43.24-2.82.57-4.21.13-.55.31-1.1.44-1.65.07-.27.21-.33.46-.29.33.06.67.06,1,.13.31.07.57,0,.81-.19.78-.59,1.57-1.18,2.35-1.78.1-.07.16-.2.23-.3-.02-.04-.03-.08-.05-.12-1.35.23-2.71.46-4.11.69.05-.17.09-.31.13-.44.45-1.46.66-2.95.25-4.46-.33-1.23-1.08-2.14-2.18-2.76-.11-.06-.24-.07-.38-.06,1.02,1.45,1.52,2.96.85,4.63-.59-.09-1.14-.16-1.69-.26-.07-.01-.16-.11-.19-.19-.53-1.41-1.59-2.29-2.93-2.87-.12-.05-.25-.06-.38-.08l-.05.11c.13.12.27.24.4.37.67.64,1.17,1.38,1.37,2.3.08.39.06.39-.32.47-.57.11-1.14.24-1.7.37-.18.04-.29.05-.43-.12-.66-.82-1.59-1.12-2.59-1.26-.03,0-.07,0-.1.02-.02,0-.03.03-.1.08.79.4,1.53.82,1.84,1.7-.5.3-.99.57-1.46.87-.32.2-.63.43-.93.67-.09.07-.12.2-.18.31.11,0,.23.02.33-.01,1.34-.38,2.67-.81,4.03-1.14,1-.24,2.03-.34,3.06-.19.11.02.22.04.33.06,1.15.27,1.49.98,1,2.05-.1.23-.26.33-.5.38-2.28.53-4.52,1.2-6.72,1.99-.29.1-.29.22-.24.49.1.53.39.74.91.82.84.12,1.67.32,2.5.5.45.09.5.19.3.59-1.01,2.06-1.7,4.23-2.06,6.49-.05.32-.1.64-.14.96-.02.21-.1.3-.33.32-1.37.14-2.74.24-4.1.47-1.13.19-2.24.53-3.36.79-.3.07-.33.24-.3.52.06.43.24.77.52,1.09,2.19,2.52,4.79,4.56,7.62,6.3.59.36,1.2.7,1.81,1.03.09.05.2.04.31.06-.02-.1-.01-.21-.06-.29-.34-.56-.68-1.13-1.06-1.67-.11-.16-.31-.32-.49-.36-2.51-.62-3.96-2.47-5.25-4.51-.15-.23-.27-.48-.46-.81.5.03.9.04,1.31.08,1.66.17,3.23.69,4.81,1.19,1.03.33,2.07.65,3.12.9,1.48.35,2.98.27,4.47.12,1.75-.17,3.49-.34,5.24-.47.62-.05,1.25.02,1.88.06.14,0,.31.11.42.22.52.52,1.02,1.07,1.54,1.59,1.08,1.08,2.44,1.69,3.85,2.18,1.89.65,3.8,1.26,5.69,1.9.2.07.41.19.56.34,1.22,1.27,2.3,2.65,3.2,4.17.11.18.2.37.31.57-.11.06-.2.11-.29.15-4.25,1.91-8.68,3.19-13.29,3.89-2.49.38-5,.57-7.52.58-3.09,0-6.17-.26-9.21-.8-4.13-.74-8.11-1.95-11.93-3.66-.26-.12-.43-.27-.53-.55-1.45-3.89-2.42-7.9-2.85-12.03-.79-7.65.15-15.07,2.84-22.27.1-.27.25-.43.52-.55,4.22-1.9,8.62-3.18,13.19-3.88,4.04-.62,8.11-.76,12.18-.41,5.77.5,11.3,1.89,16.59,4.27.24.11.39.25.48.5,1.51,4.02,2.49,8.16,2.9,12.43.68,6.99-.1,13.8-2.35,20.45-.04.1-.08.21-.15.39Z"/>
    <g>
      <path class="cls-2" d="m97.96,132.25v-.25c0-4.22,0-8.43,0-12.65,0-.26,0-.26.25-.26,2.11,0,4.22-.02,6.33.03,1.46.03,2.86.41,4.09,1.23,1.19.8,1.97,1.9,2.35,3.28.41,1.5.42,2.99-.13,4.46-.71,1.91-2.1,3.11-4.01,3.73-1,.32-2.04.43-3.09.43-1.86,0-3.72,0-5.58,0h-.22Zm2.42-2.15c.07,0,.11.01.15.01,1.2,0,2.39,0,3.59,0,.63,0,1.26-.1,1.86-.29,1.08-.35,1.95-.96,2.44-2.02.44-.95.52-1.96.37-2.99-.2-1.37-.9-2.39-2.16-3-.91-.44-1.89-.55-2.88-.56-1.04,0-2.08,0-3.12,0-.19,0-.24.04-.24.24,0,2.8,0,5.6,0,8.41v.22Z"/>
      <path class="cls-2" d="m137.59,128.41v.26c0,1.13,0,2.25,0,3.38,0,.16-.04.22-.21.21-.66,0-1.33,0-1.99,0-.15,0-.21-.03-.21-.2,0-3.38,0-6.75,0-10.13,0-.13.02-.2.18-.2,2.38,0,4.76,0,7.14.02.59,0,1.15.16,1.67.43,1.04.54,1.54,1.43,1.63,2.57.07.84-.11,1.63-.63,2.32-.43.57-1.02.91-1.69,1.12-.06.02-.13.04-.22.06,1.02,1.34,2.02,2.65,3.04,4-.1,0-.15.01-.2.01-.84,0-1.68,0-2.52,0-.13,0-.22-.04-.3-.15-.89-1.18-1.79-2.36-2.69-3.54-.09-.12-.18-.18-.34-.18-.81,0-1.63,0-2.44,0-.07,0-.15,0-.24.01Zm.15-2.15c.07,0,.12,0,.17,0,.86,0,1.71.01,2.57.01.63,0,1.25.01,1.88-.02.84-.04,1.25-.53,1.18-1.37-.04-.42-.25-.74-.65-.88-.23-.08-.49-.12-.73-.12-1.41-.01-2.81,0-4.22,0-.07,0-.13,0-.2,0v2.38Z"/>
      <path class="cls-2" d="m83.1,125.11v7.12c-.07,0-.13.02-.19.02-.68,0-1.35,0-2.03,0-.15,0-.2-.04-.2-.2,0-3.38,0-6.76,0-10.13,0-.14.03-.2.19-.2.69,0,1.38,0,2.07,0,.1,0,.21.07.28.14,1.99,2.22,3.97,4.44,5.95,6.67.08.09.17.18.25.27.02,0,.03,0,.05-.01v-.21c0-2.2,0-4.4,0-6.61q0-.26.25-.26c.65,0,1.29,0,1.93,0,.16,0,.22.03.22.21,0,3.37,0,6.74,0,10.12,0,.17-.05.21-.21.21-.66,0-1.33,0-1.99,0-.16,0-.26-.05-.37-.17-2-2.28-4.01-4.56-6.01-6.84-.04-.05-.09-.1-.14-.15-.01,0-.03,0-.04.01Z"/>
      <path class="cls-2" d="m59.49,121.47c1.48,0,2.61.17,3.67.68,1.59.77,2.5,2.05,2.78,3.78.19,1.15.12,2.28-.36,3.36-.67,1.52-1.84,2.46-3.41,2.89-1.73.48-3.47.47-5.17-.14-1.94-.71-3.07-2.11-3.37-4.15-.2-1.37,0-2.7.73-3.9.73-1.21,1.86-1.89,3.2-2.25.74-.2,1.49-.27,1.93-.27Zm-3.58,5.48s.02,0,.04,0c.02.23.03.46.06.69.16,1.1.71,1.92,1.76,2.34,1.33.53,2.68.53,4.01.02.91-.35,1.48-1.04,1.72-1.99.13-.52.16-1.05.09-1.58-.15-1.2-.75-2.07-1.9-2.5-1.27-.48-2.56-.47-3.83.01-.84.32-1.43.91-1.7,1.78-.12.4-.16.82-.24,1.22Z"/>
      <path class="cls-2" d="m112.55,132.24v-10.49h9.66v2.11h-7.23v2.06c.09,0,.18.01.27.01,1.69,0,3.38,0,5.07,0,.25,0,.25,0,.25.24,0,.56,0,1.11,0,1.67,0,.07,0,.13,0,.23h-5.6v2.05h7.23v2.13h-9.65Z"/>
      <path class="cls-2" d="m147.49,132.24v-10.49h9.65v2.12h-7.25c0,.09-.01.16-.01.23,0,.54,0,1.08,0,1.61,0,.18.06.23.23.23,1.71,0,3.42,0,5.13,0q.27,0,.27.26c0,.55,0,1.1,0,1.65,0,.07,0,.13,0,.23-.09,0-.17,0-.24,0-1.72,0-3.44,0-5.17,0-.17,0-.23.04-.23.22.01.54.01,1.08,0,1.61,0,.2.07.23.25.23,2.26,0,4.52,0,6.78,0h.24v2.12h-9.65Z"/>
      <path class="cls-2" d="m126.28,123.86v2.05c.1,0,.19.01.28.01,1.69,0,3.38,0,5.07,0,.26,0,.26,0,.26.26,0,.56,0,1.11,0,1.67,0,.16-.05.21-.21.21-1.72,0-3.43,0-5.15,0h-.25v2.05h7.23c0,.07.02.12.02.17,0,.59,0,1.19,0,1.78,0,.15-.05.19-.19.19-3.09,0-6.19,0-9.28,0-.16,0-.2-.06-.2-.21,0-3.37,0-6.74,0-10.11,0-.17.06-.21.22-.21,3.08,0,6.16,0,9.24,0,.16,0,.22.04.21.21-.01.58,0,1.15,0,1.73,0,.06,0,.12-.01.2h-7.24Z"/>
      <path class="cls-2" d="m69.91,125.91h6.37c0-.1,0-.18,0-.25,0-1.23,0-2.46,0-3.7,0-.17.04-.24.22-.24.65.01,1.3,0,1.95,0,.16,0,.23.03.23.21,0,3.37,0,6.73,0,10.1,0,.17-.05.22-.22.22-.66,0-1.32,0-1.97,0-.16,0-.21-.04-.21-.21,0-1.25,0-2.5,0-3.75,0-.18-.04-.23-.23-.23-1.98,0-3.96,0-5.94,0-.06,0-.12,0-.21,0v.23c0,1.24,0,2.49,0,3.73,0,.18-.06.22-.22.22-.67,0-1.34,0-2.01,0-.15,0-.19-.04-.19-.19,0-3.38,0-6.77,0-10.15,0-.14.04-.19.18-.18.69,0,1.38,0,2.07,0,.14,0,.18.05.18.19,0,1.25,0,2.5,0,3.75,0,.07,0,.15,0,.25Z"/>
      <path class="cls-2" d="m49.68,119.12h2.39c0,.06.02.12.02.18,0,2.85,0,5.69-.02,8.54-.01,1-.24,1.96-.83,2.8-.61.88-1.49,1.34-2.5,1.6-1.13.28-2.28.32-3.43.24-.73-.05-1.47-.15-2.2-.24-.08,0-.16-.03-.25-.05v-2.39c.35.09.68.18,1.02.26,1.37.29,2.74.32,4.11-.02.96-.24,1.49-.89,1.62-1.87.05-.35.07-.71.07-1.06,0-2.57,0-5.14,0-7.71v-.27Z"/>
    </g>
  </g>
</svg>