<?xml version="1.0" encoding="utf-8"?>
<!-- Generator: Adobe Illustrator 27.5.0, SVG Export Plug-In . SVG Version: 6.00 Build 0)  -->
<svg version="1.1" id="Layer_1" xmlns="http://www.w3.org/2000/svg" xmlns:xlink="http://www.w3.org/1999/xlink" x="0px" y="0px"
	 viewBox="0 0 200 200" style="enable-background:new 0 0 200 200;" xml:space="preserve">
<style type="text/css">
	.st0{fill:#333333;}
	.st1{fill-rule:evenodd;clip-rule:evenodd;fill:#D1AF89;}
	.st2{fill:#D1AF89;}
	.st3{font-family:'BaskOldFace';}
	.st4{font-size:6.93px;}
	.st5{font-size:13.4792px;}
	.st6{letter-spacing:1;}
</style>
<rect x="-0.1" class="st0" width="200" height="200"/>
<g>
	<path class="st1" d="M100.8,86.1c-0.4-1.7-0.8-2.3-1.1-3.4V81c1.2-0.9,0.4-2.9,3.2-3.8c2.4-0.7,5,0.8,7.4,0.9c0.7,0,1.3,0,1.9-0.1
		l-5,10.3H107c-0.2,0-0.3,0.1-0.3,0.3c0,0.2,0.1,0.3,0.3,0.3h0.4c0.1,0.7,2,2.4,5,2.5c2.9,0,5.2-1.4,5.4-2.5h0.4
		c0.2,0,0.3-0.1,0.3-0.3c0-0.2-0.1-0.3-0.3-0.3h-0.2l-5.1-10.5l0.1,0c0.6-0.2,1-0.6,1.4-1.3c-3.8,2.2-7.5-2.5-11.2-1.8
		c-1.1,0.2-2.2,0.8-3.3,1.8v-1.4c0.5-0.1,0.9-0.9,0.7-1.8c-0.3-1.1-1.3-1.7-1.6-4c-0.3,2.2-1.3,2.8-1.6,4c-0.2,0.9,0.3,1.7,0.8,1.8
		v1.4c-1.1-1-2.2-1.6-3.4-1.8c-3.7-0.7-7.4,4-11.2,1.8c0.3,0.7,0.8,1.1,1.4,1.3l0.1,0L80,88.4h-0.2c-0.2,0-0.3,0.1-0.3,0.3
		c0,0.2,0.1,0.3,0.3,0.3h0.4c0.1,0.7,2,2.4,5,2.5c2.9,0,5.2-1.4,5.4-2.5h0.4c0.2,0,0.3-0.1,0.3-0.3c0-0.2-0.1-0.3-0.3-0.3h-0.2
		l-5-10.3c0.6,0.1,1.2,0.1,1.9,0.1c2.4-0.1,5-1.6,7.4-0.9c2.8,0.9,2,2.9,3.2,3.8v1.8c-0.2,1.2-0.6,1.7-1.1,3.3
		c-0.3,1,0.2,1.7,0.9,2.1c-0.3,0.1-0.5,0.2-0.5,0.4s0.3,0.3,0.8,0.4c-0.5,0.3-0.8,1-0.6,2.1c0.1,0.5,0.3,1.1,0.5,1.8v2.3h-0.1
		c-0.5,0,0,5.4-2.1,5.4c-0.2,0-0.3,0.1-0.3,0.3h-1.8c-0.4,0-0.7,0.3-0.8,0.6h-0.6c-0.6,0-1.1,0.4-1.1,0.8h15.3
		c0-0.5-0.5-0.8-1.1-0.8h-0.6c-0.1-0.3-0.4-0.6-0.8-0.6h-1.8c0-0.2-0.1-0.3-0.3-0.3c-2.1,0-1.6-5.4-2.1-5.4h-0.1v-2.3
		c0.2-0.6,0.4-1.2,0.5-1.8c0.2-1-0.1-1.7-0.6-2.1c0.5-0.1,0.8-0.2,0.8-0.4c0-0.1-0.2-0.3-0.5-0.4C100.6,87.8,101.1,87.1,100.8,86.1
		L100.8,86.1z M112.4,78L112.4,78v0.6l-4.8,9.7h4.8L112.4,78L112.4,78z M112.7,77.9L112.7,77.9v0.7l4.7,9.7h-4.7L112.7,77.9
		L112.7,77.9z M85.2,77.9L85.2,77.9v0.7l-4.8,9.7h4.8L85.2,77.9L85.2,77.9z M85.5,78L85.5,78v0.6l4.7,9.7h-4.7L85.5,78L85.5,78z"/>
	<path class="st1" d="M98.9,121c-18.5,0-33.6-15-33.6-33.6s15-33.6,33.6-33.6c18.5,0,33.6,15,33.6,33.6S117.5,121,98.9,121L98.9,121
		z M98.9,55.5C81.3,55.5,67,69.8,67,87.4s14.3,31.9,31.9,31.9c17.6,0,31.9-14.3,31.9-31.9S116.6,55.5,98.9,55.5L98.9,55.5z"/>
	<path class="st1" d="M98.9,111.1c-13.1,0-23.7-10.6-23.7-23.7c0-13.1,10.6-23.7,23.7-23.7c13.1,0,23.7,10.6,23.7,23.7
		C122.7,100.5,112,111.1,98.9,111.1L98.9,111.1z M98.9,64.9c-12.5,0-22.6,10.1-22.6,22.6c0,12.5,10.1,22.6,22.6,22.6
		c12.5,0,22.6-10.1,22.6-22.6C121.5,75,111.4,64.9,98.9,64.9L98.9,64.9z"/>
	<path class="st1" d="M94.6,115.1c-1.9-0.1-3,0.3-3.7,2c4.6,0.6,5.2-4.3,1.3-5.4C92.1,114.1,93.4,114.3,94.6,115.1L94.6,115.1z
		 M70.8,85c0-1.4-0.4-2.1-1.7-2.6c-0.2,3.3,3.4,3.5,3.9,0.6C71.3,83.2,71.3,84.1,70.8,85L70.8,85z M101.7,111.9h0.4
		c0.2,0,0.3,0.1,0.3,0.3v5.3c0,0.2-0.1,0.3-0.3,0.3h-0.4c-0.2,0-0.3-0.1-0.3-0.3v-5.3C101.4,112,101.5,111.9,101.7,111.9
		L101.7,111.9z M100.1,112.1h0.4c0.2,0,0.3,0.1,0.3,0.3v5.3c0,0.2-0.1,0.3-0.3,0.3h-0.4c-0.2,0-0.3-0.1-0.3-0.3v-5.3
		C99.8,112.2,100,112.1,100.1,112.1L100.1,112.1z M98.6,112.2h0.4c0.2,0,0.3,0.1,0.3,0.3v5.3c0,0.2-0.1,0.3-0.3,0.3h-0.4
		c-0.2,0-0.3-0.1-0.3-0.3v-5.3C98.3,112.4,98.5,112.2,98.6,112.2L98.6,112.2z M97,112.1h0.4c0.2,0,0.3,0.1,0.3,0.3v5.3
		c0,0.2-0.1,0.3-0.3,0.3H97c-0.2,0-0.3-0.1-0.3-0.3v-5.3C96.7,112.2,96.9,112.1,97,112.1L97,112.1z M95.5,111.9H96
		c0.2,0,0.3,0.1,0.3,0.3v5.3c0,0.2-0.1,0.3-0.3,0.3h-0.4c-0.2,0-0.3-0.1-0.3-0.3v-5.3C95.3,112,95.4,111.9,95.5,111.9L95.5,111.9z
		 M121.8,71.7c-0.4-0.8-0.5-1.4,0.1-2.1c1.3,2-0.9,3.3-2.2,1.7C120.9,70.8,121.2,71.3,121.8,71.7L121.8,71.7z M120.1,69.4
		c-0.6-0.8-0.7-1.3-0.2-2.1c1.6,1.7-0.3,3.4-1.9,2.1C119,68.6,119.4,69.1,120.1,69.4L120.1,69.4z M115.2,65.2
		c1.1,0.1,1.6,0.7,1.6,1.3C116.1,66.7,115.3,65.9,115.2,65.2L115.2,65.2z M118,67.5c-0.6-0.7-0.7-1.3-0.2-2c1.5,1.7-0.3,3.3-1.8,2
		C116.9,66.8,117.4,67.2,118,67.5L118,67.5z M123.5,74.1c-0.4-0.9-0.4-1.5,0.3-2.2c1.2,2.1-1.2,3.3-2.4,1.6
		C122.6,73,122.9,73.6,123.5,74.1L123.5,74.1z M124.6,76.5c-0.3-1.1-0.2-1.8,0.7-2.4c1,2.6-1.8,3.6-2.9,1.4
		C123.7,75.2,124,75.9,124.6,76.5L124.6,76.5z M125.8,79.3c-0.3-1.2-0.1-2,0.9-2.7c0.9,3-2.3,3.9-3.4,1.4
		C124.9,77.7,125.2,78.5,125.8,79.3L125.8,79.3z M126.4,82.2c-0.1-1.3,0.2-2.1,1.4-2.6c0.4,3.2-3,3.6-3.7,0.9
		C125.7,80.5,125.9,81.4,126.4,82.2L126.4,82.2z M126.9,85c0-1.4,0.4-2.1,1.7-2.6c0.2,3.3-3.4,3.5-3.9,0.6
		C126.4,83.2,126.4,84.1,126.9,85L126.9,85z M127,88.1c0.2-1.4,0.6-2.1,1.9-2.5c-0.1,3.4-3.8,3.3-4.1,0.3
		C126.6,86.1,126.6,87.1,127,88.1L127,88.1z M126.9,91.2c0.3-1.4,0.8-2.2,2.3-2.4c-0.5,3.6-4.4,3.1-4.3-0.1
		C126.7,89.1,126.6,90.1,126.9,91.2L126.9,91.2z M126.2,94.1c0.5-1.4,1.2-2.1,2.7-2.2c-1,3.7-4.9,2.5-4.4-0.8
		C126.3,92,126,93,126.2,94.1L126.2,94.1z M125.2,97.1c0.7-1.4,1.4-2,2.9-1.9c-1.3,3.6-5.1,2.1-4.4-1.2
		C125.5,94.9,125.1,95.9,125.2,97.1L125.2,97.1z M124,99.9c0.8-1.3,1.6-1.8,3.1-1.5c-1.8,3.4-5.4,1.4-4.2-1.7
		C124.6,97.8,124.1,98.7,124,99.9L124,99.9z M122.4,102.6c1.1-1.3,2-1.7,3.5-1.2c-2.3,3.3-5.9,0.7-4.2-2.4
		C123.3,100.5,122.7,101.4,122.4,102.6L122.4,102.6z M120.5,105.3c1.2-1.2,2.3-1.6,3.8-0.9c-2.8,3.2-6.2,0.1-4.1-3
		C121.6,103.2,120.9,104.1,120.5,105.3L120.5,105.3z M118.3,107.7c1.4-1,2.4-1.3,3.9-0.4c-3.2,2.8-6.2-0.7-3.7-3.5
		C119.7,105.7,118.8,106.5,118.3,107.7L118.3,107.7z M115.7,109.8c1.5-0.9,2.5-1.1,3.9,0c-3.4,2.6-6.1-1.1-3.4-3.7
		C117.3,108,116.3,108.7,115.7,109.8L115.7,109.8z M112.9,111.6c1.6-0.6,2.7-0.6,3.8,0.7c-3.9,1.8-5.8-2.4-2.6-4.4
		C114.8,110.1,113.8,110.6,112.9,111.6L112.9,111.6z M109.7,112.7c1.7-0.2,2.8,0.1,3.6,1.7c-4.3,0.8-5.1-3.8-1.4-4.9
		C112,111.8,110.8,112,109.7,112.7L109.7,112.7z M106.5,114.2c1.9-0.2,3,0.1,3.8,1.8c-4.5,0.9-5.4-4-1.5-5.2
		C108.9,113.2,107.7,113.4,106.5,114.2L106.5,114.2z M103.1,115.1c1.9-0.1,3,0.3,3.7,2c-4.6,0.6-5.2-4.3-1.3-5.4
		C105.6,114.1,104.3,114.3,103.1,115.1L103.1,115.1z M75.9,71.7c0.4-0.8,0.5-1.4-0.1-2.1c-1.3,2,0.9,3.3,2.2,1.7
		C76.8,70.8,76.5,71.3,75.9,71.7L75.9,71.7z M77.6,69.4c0.6-0.8,0.7-1.3,0.2-2.1c-1.6,1.7,0.3,3.4,1.9,2.1
		C78.7,68.6,78.3,69.1,77.6,69.4L77.6,69.4z M82.5,65.2c-1.1,0.1-1.6,0.7-1.6,1.3C81.6,66.7,82.4,65.9,82.5,65.2L82.5,65.2z
		 M79.7,67.5c0.6-0.7,0.7-1.3,0.2-2c-1.5,1.7,0.3,3.3,1.8,2C80.7,66.8,80.3,67.2,79.7,67.5L79.7,67.5z M74.2,74.1
		c0.4-0.9,0.4-1.5-0.3-2.2c-1.2,2.1,1.2,3.3,2.4,1.6C75.1,73,74.8,73.6,74.2,74.1L74.2,74.1z M73.1,76.5c0.3-1.1,0.2-1.8-0.7-2.4
		c-1,2.6,1.8,3.6,2.9,1.4C74,75.2,73.7,75.9,73.1,76.5L73.1,76.5z M71.9,79.3c0.3-1.2,0.1-2-0.9-2.7c-0.9,3,2.3,3.9,3.4,1.4
		C72.8,77.7,72.5,78.5,71.9,79.3L71.9,79.3z M71.3,82.2c0.1-1.3-0.2-2.1-1.4-2.6c-0.4,3.2,3,3.6,3.7,0.9
		C71.9,80.5,71.8,81.4,71.3,82.2L71.3,82.2z M70.7,88.1c-0.2-1.4-0.6-2.1-1.9-2.5c0.1,3.4,3.8,3.3,4.1,0.3
		C71,86.1,71.1,87.1,70.7,88.1L70.7,88.1z M70.8,91.2c-0.3-1.4-0.8-2.2-2.3-2.4c0.5,3.6,4.4,3.1,4.3-0.1
		C71,89.1,71.1,90.1,70.8,91.2L70.8,91.2z M71.5,94.1C71,92.7,70.3,92,68.8,92c1,3.7,4.9,2.5,4.4-0.8C71.4,92,71.7,93,71.5,94.1
		L71.5,94.1z M72.5,97.1c-0.7-1.4-1.4-2-2.9-1.9c1.3,3.6,5.1,2.1,4.4-1.2C72.2,94.9,72.6,95.9,72.5,97.1L72.5,97.1z M73.7,99.9
		c-0.8-1.3-1.6-1.8-3.1-1.5c1.8,3.4,5.4,1.4,4.2-1.7C73.1,97.8,73.6,98.7,73.7,99.9L73.7,99.9z M75.3,102.6c-1.1-1.3-2-1.7-3.5-1.2
		c2.3,3.3,5.9,0.7,4.2-2.4C74.4,100.5,75,101.4,75.3,102.6L75.3,102.6z M77.2,105.3c-1.2-1.2-2.3-1.6-3.8-0.9c2.8,3.2,6.2,0.1,4.1-3
		C76.1,103.2,76.8,104.1,77.2,105.3L77.2,105.3z M79.4,107.7c-1.4-1-2.4-1.3-3.9-0.4c3.2,2.8,6.2-0.7,3.7-3.5
		C78,105.7,78.9,106.5,79.4,107.7L79.4,107.7z M82,109.8c-1.5-0.9-2.5-1.1-3.9,0c3.4,2.6,6.1-1.1,3.4-3.7
		C80.4,108,81.3,108.7,82,109.8L82,109.8z M84.8,111.6c-1.6-0.6-2.7-0.6-3.8,0.7c3.9,1.8,5.8-2.4,2.6-4.4
		C82.9,110.1,83.9,110.6,84.8,111.6L84.8,111.6z M88,112.7c-1.7-0.2-2.8,0.1-3.6,1.7c4.3,0.8,5.1-3.8,1.4-4.9
		C85.7,111.8,86.9,112,88,112.7L88,112.7z M91.2,114.2c-1.9-0.2-3,0.1-3.8,1.8c4.5,0.9,5.4-4,1.5-5.2
		C88.8,113.2,90,113.4,91.2,114.2L91.2,114.2z"/>
	<polygon class="st1" points="98.8,56.6 99.6,58.8 102,58.8 100,60.2 100.8,62.5 98.8,61.1 96.9,62.5 97.7,60.2 95.7,58.8 
		98.1,58.8 98.8,56.6 	"/>
	<polygon class="st1" points="106.1,58.2 106.7,60 108.6,60 107.1,61.1 107.7,62.9 106.1,61.8 104.6,62.9 105.2,61.1 103.6,60 
		105.5,60 106.1,58.2 	"/>
	<polygon class="st1" points="92,58.2 91.4,60 89.5,60 91,61.1 90.4,62.9 92,61.8 93.5,62.9 92.9,61.1 94.5,60 92.6,60 92,58.2 	"/>
	<polygon class="st1" points="112.5,61.2 113,62.6 114.6,62.6 113.3,63.6 113.8,65.1 112.5,64.1 111.3,65.1 111.8,63.6 110.5,62.6 
		112.1,62.6 112.5,61.2 	"/>
	<polygon class="st1" points="85.6,61.2 85.1,62.6 83.5,62.6 84.8,63.6 84.3,65.1 85.6,64.1 86.8,65.1 86.4,63.6 87.6,62.6 
		86.1,62.6 85.6,61.2 	"/>
	<path class="st1" d="M115.6,102.9H82.2c4.2,4.4,10.1,7.2,16.7,7.2C105.5,110.1,111.4,107.3,115.6,102.9L115.6,102.9z"/>
	<polygon class="st1" points="66.4,141.2 79.7,141.2 79.7,141.8 66.4,141.8 66.4,141.2 	"/>
	<polygon class="st1" points="118.2,141.2 131.5,141.2 131.5,141.8 118.2,141.8 118.2,141.2 	"/>
	<text transform="matrix(1 0 0 1 82.3212 144.3044)" class="st2 st3 st4">ASESORIA </text>
	<text transform="matrix(1 0 0 1 65.1757 135.3415)" class="st2 st3 st5 st6">JURIDICA</text>
</g>
</svg>
