<?xml version="1.0" encoding="UTF-8"?>
<svg id="Layer_1" data-name="Layer 1" xmlns="http://www.w3.org/2000/svg" viewBox="0 0 200 200">
  <defs>
    <style>
      .cls-1 {
        fill: #fff;
      }

      .cls-2 {
        fill: #0072bc;
      }
    </style>
  </defs>
  <rect class="cls-2" width="200" height="200"/>
  <g>
    <path class="cls-1" d="m144.12,112.4c-3.02.03-6-.24-8.84-1.33-4.11-1.58-6.44-4.55-7.08-8.86-.29-1.99-.36-3.97.15-5.94.81-3.12,2.8-5.29,5.66-6.71,2.25-1.12,4.65-1.7,7.15-1.85,1.79-.11,3.6-.18,5.39-.09,2.67.14,5.28.63,7.71,1.81,3.36,1.64,5.29,4.33,5.94,7.97.39,2.2.47,4.39-.16,6.56-.94,3.24-3.13,5.37-6.17,6.73-2.51,1.12-5.17,1.59-7.9,1.7-.61.03-1.22,0-1.84,0Zm6.29-12.45c-.05-.39-.1-1.16-.26-1.9-.45-2.13-1.67-3.6-3.86-4.14-1.45-.35-2.92-.33-4.37.07-2.11.58-3.39,1.93-3.79,4.07-.3,1.61-.09,3.19.39,4.74.36,1.16,1.03,2.14,2.14,2.71,2.15,1.12,4.4,1.19,6.6.22,2.32-1.02,3.12-3.01,3.15-5.77Z"/>
    <path class="cls-1" d="m52.87,102.31c-1.31,1.03-2.56,1.99-3.77,3.01-.19.16-.24.57-.24.87-.01,1.73,0,3.46.02,5.19,0,.33-.05.56-.46.56-1.4,0-2.81,0-4.21,0-1.42,0-2.85,0-4.27,0-.29,0-.44-.12-.42-.42,0-.11,0-.21,0-.32,0-7.46,0-14.91,0-22.37,0-.5.17-.65.66-.64,2.63.01,5.26,0,7.89,0,.81,0,.83.02.83.8-.03,2.32-.05,4.64-.07,6.95,0,.1.04.2.08.37.18-.15.32-.26.44-.38,2.53-2.44,5.04-4.89,7.6-7.31.26-.25.73-.42,1.1-.42,2.9,0,5.8.04,8.7.06.77,0,1.55-.05,2.32-.08.21,0,.42,0,.77,0-.19.27-.27.44-.41.56-2.79,2.37-5.58,4.74-8.37,7.1-.25.21-.48.43-.74.62-.3.22-.3.42-.08.71,1.57,2.13,3.13,4.27,4.69,6.41,1.92,2.63,3.83,5.26,5.75,7.9.08.11.13.23.22.39-.13.04-.21.09-.29.09-3.58,0-7.17-.02-10.75-.02-.36,0-.55-.16-.73-.44-1.92-2.87-3.85-5.73-5.78-8.59-.13-.19-.27-.36-.44-.58Z"/>
    <path class="cls-1" d="m71.88,111.85c.62-1.4,1.19-2.7,1.76-4.01,2.8-6.39,5.6-12.77,8.39-19.17.16-.37.38-.51.77-.51,3.42,0,6.85,0,10.27,0,1.03,0,1.02,0,1.4.92,3.03,7.39,6.07,14.78,9.1,22.17.27.66.26.64-.46.64-1.32-.01-2.63.03-3.95.03-1.68,0-3.35-.01-5.03,0-.32,0-.5-.12-.59-.42-.15-.49-.35-.97-.48-1.47-.09-.37-.31-.5-.65-.5-3.12,0-6.24,0-9.35.01-.15,0-.37.19-.44.34-.22.5-.41,1.03-.56,1.56-.1.36-.3.49-.65.48-2.52,0-5.05-.01-7.57-.02-.47,0-.94.02-1.4.02-.15,0-.31-.03-.56-.06Zm16.06-16.41c-1.01,2.8-1.97,5.47-2.95,8.19h5.78c-.94-2.72-1.87-5.4-2.84-8.19Z"/>
    <path class="cls-1" d="m112.55,88.24c3.57,0,7.14,0,10.71,0,.95,0,1.91-.04,2.86-.08.47-.02.68.12.67.64-.03,1.66-.02,3.32,0,4.98,0,.32-.06.48-.44.48-2.16,0-4.32.02-6.48.03-.31,0-.61,0-.92-.02-.81-.06-.81-.07-.81.76,0,5.41,0,10.81,0,16.22,0,.67-.04.67-.7.66-1.31-.02-2.63.01-3.94.02-1.42,0-2.85,0-4.27,0-.5,0-.47-.31-.47-.65,0-4.28,0-8.56,0-12.84,0-1.2-.01-2.39,0-3.59,0-.45-.05-.62-.62-.6-2.52.06-5.05.03-7.57.04-.53,0-.55-.34-.54-.72.02-1.39.05-2.78.06-4.17,0-1.17,0-1.17,1.17-1.17,3.77,0,7.53,0,11.3,0h0Z"/>
  </g>
</svg>