<?xml version="1.0" encoding="utf-8"?>
<!-- Generator: Adobe Illustrator 27.5.0, SVG Export Plug-In . SVG Version: 6.00 Build 0)  -->
<svg version="1.1" id="Layer_1" xmlns="http://www.w3.org/2000/svg" xmlns:xlink="http://www.w3.org/1999/xlink" x="0px" y="0px"
	 viewBox="0 0 200 200" style="enable-background:new 0 0 200 200;" xml:space="preserve">
<style type="text/css">
	.st0{fill:#E52629;}
	.st1{fill:#FFFFFF;}
</style>
<rect class="st0" width="200" height="200"/>
<g>
	<path class="st1" d="M48.1,94.6v13.5h30.7V94.6v-1.9h6c3.8,0,10.2,0.6,16,1.9c6.8,1.5,12.8,3.9,12.8,7.3c0,2.9-4.5,6.1-4.6,6.1
		h43.9c0,0-1.1-4.8-3.4-8c-1.5-2.1-3.3-4-6.1-5.4c-2.4-1.3-5.5-2.3-9.8-3v-0.7c2,0,7.3-1.9,11.9-5c6.2-4.1,7.3-11.9,7.3-11.9h-43.5
		c0,0,3.6,3,3.6,5.7c0,5.7-20.5,10.1-28,10.1h-6.1V74.1H48.1V94.6L48.1,94.6z"/>
	<polygon class="st1" points="48.4,120.2 48.4,110.6 53.6,110.6 53.6,115.8 58.2,110.6 64.3,110.6 58.5,116.6 60.8,120.2 
		64.9,126.6 58.7,126.6 54.8,120.2 53.6,121.5 53.6,126.6 48.4,126.6 48.4,120.2 	"/>
	<path class="st1" d="M66.2,120.2c2.5-1,6.1-0.4,6.1-1.9c0-0.8-1-0.9-1.5-0.9c-0.7,0-1.5,0.1-1.6,1.1h-4.4c0-2.5,1.7-3.9,6.3-3.9
		c5.5,0,5.8,2,5.8,4.8v0.8v4.7c0,0.7,0,1,0.6,1.5v0.2h-4.8l-0.2-1.2c-1.3,1.2-2.7,1.6-4.4,1.6c-2.2,0-4.2-1.1-4.2-3.5
		C64,121.6,65,120.7,66.2,120.2L66.2,120.2z"/>
	<polygon class="st1" points="78.2,120.2 76.4,115 80.9,115 82.2,120.2 82.7,122.1 83.2,120.2 84.5,115 88.4,115 89.7,120.2 
		90.2,122.1 90.7,120.2 92,115 96.4,115 94.7,120.2 92.7,126.6 88.2,126.6 86.5,120.2 86.4,119.8 86.3,120.2 84.8,126.6 80.2,126.6 
			"/>
	<path class="st1" d="M97.3,120.2c2.4-1,6.1-0.4,6.1-1.9c0-0.8-1-0.9-1.5-0.9c-0.6,0-1.5,0.1-1.6,1.1h-4.5c0-2.5,1.8-3.9,6.4-3.9
		c5.5,0,5.8,2,5.8,4.8v0.8v4.7c0,0.7,0,1,0.6,1.5v0.2h-4.8l-0.2-1.2c-1.3,1.2-2.6,1.6-4.4,1.6c-2.2,0-4.1-1.1-4.1-3.5
		C95.1,121.6,96,120.7,97.3,120.2L97.3,120.2z"/>
	<path class="st1" d="M109.2,120.2c-0.3-0.5-0.5-1-0.5-1.7c0-3,3.1-3.8,5.5-3.8c2.5,0,5.5,0.6,5.8,3.6h-4.2
		c-0.1-0.4-0.2-0.6-0.5-0.8c-0.2-0.2-0.6-0.3-0.9-0.3c-0.8,0-1.3,0.3-1.3,0.8c0,1.1,3.6,0.9,5.8,2.2c0.9,0.5,1.5,1.4,1.5,2.7
		c0,2.4-2,4-6.2,4c-2.7,0-5.6-0.8-5.8-3.9h4.4c0,0.5,0.2,0.8,0.5,1.1c0.3,0.2,0.7,0.3,1.1,0.3c0.7,0,1.4-0.2,1.4-1
		C115.8,121.8,110.8,122.6,109.2,120.2L109.2,120.2z"/>
	<path class="st1" d="M122.8,120.2c2.4-1,6.1-0.4,6.1-1.9c0-0.8-1-0.9-1.5-0.9c-0.6,0-1.5,0.1-1.6,1.1h-4.4c0-2.5,1.7-3.9,6.4-3.9
		c5.5,0,5.8,2,5.8,4.8v0.8v4.7c0,0.7,0,1,0.6,1.5v0.2h-4.8l-0.2-1.2c-1.3,1.2-2.6,1.6-4.4,1.6c-2.2,0-4.2-1.1-4.2-3.5
		C120.6,121.6,121.5,120.7,122.8,120.2L122.8,120.2z"/>
	<polygon class="st1" points="134.4,120.2 134.4,110.6 139,110.6 139,118.5 141.9,115 147.3,115 143,119.5 143.5,120.2 147.9,126.6 
		142.4,126.6 139.9,122.4 139,123.3 139,126.6 134.4,126.6 134.4,120.2 	"/>
	<polygon class="st1" points="148.2,115 148.2,120.2 148.2,126.6 152.8,126.6 152.8,120.2 152.8,115 	"/>
	<polygon class="st1" points="148.2,110.2 148.2,113.5 152.8,113.5 152.8,110.2 	"/>
	<path class="st0" d="M128.9,121.4c-1.5,0.7-3.5,0.4-3.5,1.9c0,0.6,0.5,1,1.4,1C128.4,124.3,129,123,128.9,121.4L128.9,121.4z"/>
	<path class="st0" d="M103.3,121.4c-1.5,0.7-3.5,0.4-3.5,1.9c0,0.6,0.5,1,1.5,1C102.9,124.3,103.4,123,103.3,121.4L103.3,121.4z"/>
	<path class="st0" d="M72.3,121.4c-1.5,0.7-3.5,0.4-3.5,1.9c0,0.6,0.5,1,1.4,1C71.9,124.3,72.4,123,72.3,121.4L72.3,121.4z"/>
</g>
</svg>
