<?xml version="1.0" encoding="UTF-8"?>
<svg id="Layer_1" data-name="Layer 1" xmlns="http://www.w3.org/2000/svg" viewBox="0 0 200 200">
  <defs>
    <style>
      .cls-1 {
        fill: #fff;
        fill-rule: evenodd;
      }

      .cls-2 {
        fill: #cc2229;
      }
    </style>
  </defs>
  <rect class="cls-2" width="200" height="200"/>
  <g>
    <path class="cls-1" d="m81.36,99.4l7.7-11.26c.29-.44-.06-.94-.68-.94l-5.94-.04c-.44,0-1.33.56-1.71,1.05l-2.68,3.49-3.73,4.88.03-8.43c0-.57-.6-.94-.97-.94h-6.81c-.47,0-.9.18-.91,1.05-.01.86,1.05,1.03,1.05,1.27v22.54c0,.43.59,1.08,1,1.08l5.84-.03c.41-.01.77-.6.77-1v-9.39s3.74,4.61,3.74,4.61l3.95,4.87c.32.38.96.91,1.62.91l6.34-.04c.6,0,.55-.74.4-.93-3.01-4.23-6.01-8.47-8.99-12.72Zm21.88-12.21h-6.74c-.8,0-.97.47-1.11.97.15.91,1.11,1.16,1.11,1.18v22.75c0,.6.37,1,.89,1h2.42s3.6-.04,3.6-.04c.66,0,.84-.4.84-.96v-23.96c0-.57-.49-.94-1-.94Z"/>
    <path class="cls-1" d="m123.74,75.58c-7.17-1.81-15.23-2.83-23.75-2.83-.06,0-.12.01-.19.01-7.73,0-15.1.86-21.76,2.37-18.71,4.28-31.8,13.83-31.8,24.87s13.09,20.6,31.8,24.87c6.66,1.52,14.04,2.37,21.76,2.37h.19c8.52,0,16.59-1,23.75-2.82,17.77-4.45,30.02-13.74,30.02-24.43,0-10.69-12.25-19.98-30.02-24.43h0Zm0,42.92c-7.06,1.64-15.16,2.57-23.75,2.57-.06,0-.12-.01-.19-.01-7.78,0-15.17-.78-21.76-2.15-16.5-3.44-27.88-10.62-27.88-18.89s11.38-15.45,27.88-18.89c6.59-1.37,13.98-2.15,21.76-2.17h.19c8.6,0,16.69.93,23.75,2.57,15.52,3.57,26.1,10.53,26.1,18.49s-10.57,14.92-26.1,18.49h0Z"/>
    <path class="cls-1" d="m128.39,86.65c-.22-.5-.6-.97-1.11-.97h-9.11c-.32,0-.77.27-.77.71-.01,1.3,1.34,1.25,1.27,1.44l-7.68,22.66c-.13.38.21,1.09.68,1.09l5.35-.04c.47,0,1.14-.4,1.33-.97l2.54-7.61c.86-2.54,1.71-5.07,2.55-7.61.04-.1.18-.16.31-.16.21,0,.43.07.47.22l4.97,15.24c.1.34.8.88,1.16.88l5.57.04c.32,0,.71-.65.61-.94l-8.14-23.99h0Z"/>
  </g>
</svg>