<?xml version="1.0" encoding="UTF-8"?>
<svg id="Layer_1" data-name="Layer 1" xmlns="http://www.w3.org/2000/svg" viewBox="0 0 200 200">
  <defs>
    <style>
      .cls-1 {
        fill: #fff;
      }

      .cls-2 {
        fill: #1aa7ac;
      }
    </style>
  </defs>
  <rect class="cls-2" width="200" height="200"/>
  <g>
    <path class="cls-1" d="m58.4,115.59c-.09-.15-.24-.12-.38-.12-.62,0-1.22-.08-1.83-.19-1.3-.25-2.55-.66-3.74-1.24-1-.49-1.94-1.06-2.81-1.75-1.06-.85-2-1.81-2.81-2.9-1.09-1.45-1.95-3.03-2.47-4.77-.38-1.29-.6-2.6-.65-3.95-.06-1.44.09-2.86.42-4.25.4-1.67,1.11-3.23,2.01-4.69,1.14-1.84,2.66-3.29,4.42-4.52,1.91-1.34,4.05-2.07,6.33-2.45.93-.15,1.86-.18,2.8-.16,2.22.06,4.32.59,6.3,1.58,3.21,1.6,5.63,3.99,7.16,7.24.71,1.51,1.16,3.1,1.37,4.76.12.96.16,1.93.1,2.89-.16,2.35-.8,4.56-1.99,6.61-.68,1.17-1.48,2.26-2.42,3.23-1.27,1.33-2.76,2.38-4.43,3.15-1.2.56-2.44.99-3.75,1.22-.48.08-.98.11-1.47.16-.2.02-.4.01-.6.02-.08,0-.14.02-.13.12h-1.45Zm.82-7.28c4.05.11,8.25-3.38,8.2-8.3-.04-4.72-3.97-8.28-8.42-8.19-4.14.08-8.09,3.4-8.09,8.31,0,4.55,3.83,8.27,8.3,8.18Z"/>
    <path class="cls-1" d="m158.01,84.41c8.34.07,15.31,6.62,15.42,15.4.1,8.17-6.55,15.63-15.59,15.59-8.57-.05-15.39-7.06-15.36-15.48.03-8.69,6.9-15.48,15.53-15.5Zm-8.31,15.55c.01,4.42,3.67,8.22,8.3,8.21,4.58-.01,8.39-3.89,8.21-8.55-.18-4.54-3.97-8.17-8.64-7.96-4.09.18-7.86,3.48-7.87,8.3Z"/>
    <path class="cls-1" d="m75.8,115.17c-.08-.33-.07-30.09,0-30.35.08,0,.17-.02.25-.02,3.61,0,7.23-.02,10.84.02,1.92.02,3.67.64,5.24,1.76,1.05.75,1.92,1.66,2.57,2.77.7,1.21,1.13,2.51,1.28,3.9.12,1.12.07,2.21-.32,3.27-.46,1.28-1.19,2.39-2.24,3.28-.06.05-.13.09-.23.15.15.14.25.24.35.33,1.39,1.21,2.18,2.75,2.41,4.57.27,2.15-.25,4.13-1.4,5.95-1.45,2.29-3.52,3.65-6.15,4.21-.49.1-1,.15-1.5.15-3.59.02-7.19.01-10.78.02-.11,0-.22,0-.33,0Zm7.18-11.53c-.01.07-.03.13-.03.18,0,1.26,0,2.52,0,3.77,0,.34,0,.35.33.35,1.11,0,2.21,0,3.32,0,.18,0,.36-.02.54-.06,1.14-.27,1.84-1.39,1.6-2.53-.2-.99-1.07-1.71-2.09-1.73-1.16-.01-2.31,0-3.47,0-.07,0-.14.01-.22.02Zm0-7.29c.12,0,.23.03.34.02.21,0,.42-.01.63-.01.92,0,1.83,0,2.75,0,.32,0,.62-.08.9-.22.95-.47,1.42-1.55,1.11-2.57-.28-.91-1.09-1.52-2.09-1.53-1.13-.02-2.25,0-3.38,0-.08,0-.17.02-.25.04v4.28Z"/>
    <path class="cls-1" d="m48.95,84.81c-.06.1-.09.17-.13.24-1.4,2.04-2.8,4.09-4.19,6.13-1.89,2.78-3.78,5.56-5.66,8.34-.3.44-.3.44,0,.88,3.27,4.81,6.54,9.62,9.81,14.43.06.09.11.18.19.31-.13.01-.22.02-.3.02-2.72,0-5.44,0-8.15,0-.16,0-.28-.03-.38-.18-.51-.78-1.03-1.56-1.56-2.34-1.19-1.76-2.39-3.51-3.58-5.27-.29-.43-.59-.86-.89-1.29-.06-.08-.12-.15-.21-.27-.04.11-.07.16-.07.22,0,.26,0,.52,0,.79,0,2.64,0,5.28,0,7.91,0,.12,0,.24,0,.39-.14.01-.24.03-.35.03-2.18,0-4.37,0-6.55,0-.09,0-.18-.01-.26-.02-.07-.23-.09-29.86-.03-30.29.23-.08,6.71-.11,7.17-.03,0,.09.02.18.02.28,0,2.88,0,5.76,0,8.64,0,.12,0,.23,0,.35.02,0,.04.02.07.03.05-.05.11-.1.15-.15,1.01-1.48,2.01-2.97,3.01-4.45,1.01-1.49,2.04-2.97,3.05-4.46.14-.2.28-.28.51-.27,2,0,4.01,0,6.01,0,.67,0,1.35,0,2.02,0,.1,0,.19,0,.33.02Z"/>
    <path class="cls-1" d="m113.95,103.61h-9.84c-.02.13-.04.23-.04.34,0,.77-.01,1.53,0,2.3.02,1.03.68,1.69,1.72,1.69,2.58,0,5.15,0,7.73,0,.13,0,.26,0,.38,0,.08.25.09,6.84.02,7.2-.1,0-.2.03-.31.03-2.65,0-5.3.02-7.94,0-2.07-.01-3.91-.71-5.48-2.05-1.3-1.11-2.24-2.5-2.76-4.15-.26-.84-.4-1.71-.4-2.59,0-4.19,0-8.38,0-12.56,0-1.91.5-3.66,1.58-5.23,1.15-1.68,2.72-2.8,4.66-3.41.93-.29,1.89-.4,2.86-.4,2.49,0,4.97,0,7.46,0,.11,0,.22.01.31.02.08.28.08,6.88,0,7.2-.11,0-.22,0-.34,0-2.5,0-4.99,0-7.49,0-.24,0-.48.02-.72.06-.63.11-1.13.61-1.23,1.25-.03.19-.05.38-.05.57,0,.72,0,1.45,0,2.17,0,.28.04.31.32.31,1.78,0,3.56-.02,5.35-.02,1.24,0,2.48,0,3.71,0,.16,0,.32.02.51.04,0,2.41,0,4.79,0,7.22Z"/>
    <path class="cls-1" d="m144.1,84.79v7.2c-.14,0-.25.02-.37.02-1.93,0-3.87,0-5.8,0-.31,0-.63.02-.92.1-.97.27-1.58,1.09-1.59,2.11-.01,1.12,0,2.24,0,3.35,0,2.69,0,5.38,0,8.07,0,.59.17,1.11.56,1.55.45.5,1.02.74,1.69.74,1.65,0,3.3,0,4.95,0,.38,0,.77,0,1.15,0,.1,0,.2,0,.33,0,.01.12.03.22.03.32,0,2.2,0,4.39,0,6.59,0,.33-.01.34-.34.34-2.25,0-4.49.01-6.74,0-2.63-.02-4.88-1-6.67-2.91-1.17-1.24-2.02-2.7-2.37-4.42-.15-.75-.24-1.51-.24-2.28,0-3.77,0-7.53,0-11.3,0-2.14.66-4.05,1.92-5.77.54-.74,1.23-1.36,1.96-1.91,1.3-.98,2.79-1.51,4.39-1.72.48-.06.96-.08,1.45-.08,2.08,0,4.17,0,6.25,0,.11,0,.22,0,.37,0Z"/>
    <path class="cls-1" d="m122.17,84.81c0,.14.02.25.02.35,0,7.45,0,14.9,0,22.35,0,.04,0,.08,0,.12,0,.28.03.31.32.31,1.58,0,3.16,0,4.74,0,.12,0,.24,0,.39,0,.01.1.03.19.03.27,0,2.21,0,4.41,0,6.62,0,.09,0,.18-.02.3-.13.01-.26.03-.38.03-1.43,0-2.86,0-4.29,0-2.53,0-5.05,0-7.58,0-.13,0-.26,0-.41,0v-30.36h7.17Z"/>
  </g>
</svg>