<?xml version="1.0" encoding="UTF-8"?>
<svg id="Layer_1" data-name="Layer 1" xmlns="http://www.w3.org/2000/svg" viewBox="0 0 200 200">
  <defs>
    <style>
      .cls-1 {
        fill: #fff;
      }

      .cls-2 {
        fill: #140a9a;
      }
    </style>
  </defs>
  <rect class="cls-2" width="200" height="200"/>
  <g>
    <path class="cls-1" d="m175.4,107.22c-.11.45-.2.91-.33,1.36-.67,2.35-2.24,3.87-4.44,4.82-1.51.65-3.07.97-4.72.94-1.34-.02-2.67-.08-3.96-.48-2.89-.9-4.9-2.7-5.71-5.67-.19-.68-.27-1.41-.27-2.12-.02-4.46,0-8.92,0-13.38,0-.13,0-.25,0-.39h8.58v.36c0,4.26,0,8.51,0,12.77,0,.66.36,1.15.92,1.27.64.14,1.23-.28,1.38-.97.03-.16.04-.33.04-.5,0-4.17,0-8.33,0-12.5v-.45h8.5v14.95Z"/>
    <path class="cls-1" d="m69.83,113.52c1.06-7.06,2.12-14.08,3.19-21.13.11,0,.21-.02.32-.02,2.42,0,4.83,0,7.25,0,.25,0,.35.08.42.32.8,2.6,1.62,5.2,2.43,7.79.03.11.08.21.14.38.3-.94.57-1.82.85-2.7.58-1.84,1.15-3.68,1.72-5.52.07-.22.17-.28.39-.28,2.43,0,4.85,0,7.28,0,.23,0,.31.05.35.3.46,3.2.93,6.4,1.4,9.59.47,3.23.95,6.45,1.42,9.68.01.09.04.17.07.32.06-.15.11-.25.14-.35,2.17-6.41,4.34-12.81,6.5-19.22.08-.25.19-.33.45-.32,2.64.01,5.28,0,7.92,0,.24,0,.36.06.44.3,2.35,6.85,4.7,13.7,7.05,20.55.03.08.05.16.09.28-.12,0-.21.02-.3.02-2.8,0-5.6,0-8.4,0-.26,0-.35-.09-.41-.33-.78-3.07-1.57-6.14-2.36-9.22-.03-.11-.06-.22-.15-.35-.03.09-.07.19-.09.28-.79,3.09-1.59,6.18-2.37,9.27-.06.25-.16.34-.43.34-5.15,0-10.31,0-15.46,0-.11,0-.21,0-.33-.01-.38-2.65-.76-5.29-1.14-7.92-.02,0-.03,0-.05,0-.03.08-.06.17-.08.25-.68,2.46-1.36,4.92-2.03,7.39-.06.23-.14.31-.39.31-1.48-.01-2.97-.01-4.45,0-.23,0-.31-.06-.37-.29-.66-2.45-1.34-4.89-2.01-7.33-.03-.11-.07-.21-.16-.31-.12.93-.25,1.86-.37,2.78-.22,1.65-.44,3.3-.65,4.95-.03.23-.18.19-.32.19-1.66,0-3.32,0-4.98,0-.73,0-1.45,0-2.18,0h-.34Z"/>
    <path class="cls-1" d="m137.76,105.9c.95.48,1.87.98,2.81,1.41.92.43,1.88.76,2.9.81.35.02.71-.01,1.05-.08.44-.09.68-.38.72-.78.05-.49-.14-.9-.57-1.05-.62-.22-1.25-.41-1.88-.58-1.24-.34-2.47-.73-3.52-1.51-1.51-1.12-2.29-2.66-2.51-4.49-.24-2.09.38-3.91,1.83-5.44.03-.03.06-.07.11-.14h-7.9v19.44h-8.62v-.4c0-4.15,0-8.3,0-12.44q0-.41-.41-.42c-1.41,0-2.83,0-4.24,0h-.38v-7.84c.12,0,.26-.02.39-.02,4.25,0,8.5,0,12.75,0,.56,0,.49.06.49-.48,0-1.96,0-3.92,0-5.88,0-.11,0-.23,0-.36h8.03v8.28c.12-.08.19-.12.25-.17,2.32-1.83,4.98-2.48,7.9-2.2,2.19.21,4.23.9,6.12,2.02.15.09.3.19.47.3-.8,1.88-1.59,3.75-2.37,5.62-.78-.37-1.53-.75-2.31-1.09-.85-.37-1.73-.7-2.68-.73-.21,0-.43.02-.64.07-.36.09-.55.37-.6.72-.05.32.06.6.33.76.31.18.64.34.98.45.92.29,1.87.53,2.78.84,2.06.7,3.46,2.1,4.2,4.14.89,2.44.06,5.85-2.26,7.63-1.75,1.33-3.71,1.99-5.9,2.04-3.09.08-5.93-.74-8.6-2.23-.36-.2-.72-.4-1.1-.61.79-1.88,1.58-3.74,2.36-5.6Z"/>
    <path class="cls-1" d="m47.96,113.52h-.37c-3.03,0-6.07,0-9.1,0-.27,0-.39-.09-.49-.33-1.51-3.37-3.03-6.73-4.55-10.1-.04-.09-.08-.17-.19-.24v10.64h-8.66v-21.11c.1,0,.2-.02.31-.02,2.66,0,5.32,0,7.98,0,.32,0,.37.11.37.39,0,3.14,0,6.28,0,9.41,0,.11,0,.23,0,.34.02,0,.05,0,.07.01.05-.1.1-.2.15-.3,1.43-3.19,2.87-6.38,4.29-9.57.09-.2.18-.28.41-.28,3.07,0,6.15,0,9.22,0,.09,0,.17,0,.3.02-.06.14-.11.26-.16.37-1.55,3.23-3.1,6.47-4.65,9.7-.1.2-.09.35,0,.54,1.65,3.39,3.29,6.79,4.93,10.18.05.1.09.19.16.34Z"/>
    <path class="cls-1" d="m58.1,91.49c5.27-.01,9.82,3.57,10.9,8.76.84,4.01-.03,7.66-2.91,10.69-1.79,1.88-4.02,2.95-6.61,3.29-5.37.71-10.97-2.74-12.29-8.49-1.07-4.65.1-8.7,3.87-11.83,1.93-1.6,4.4-2.42,7.03-2.42Zm-.12,14.7c1.93-.06,3.32-1.53,3.25-3.44-.06-1.71-1.57-3.12-3.26-3.05-1.89.07-3.29,1.53-3.23,3.37.05,1.71,1.57,3.17,3.24,3.12Z"/>
  </g>
</svg>