<?xml version="1.0" encoding="UTF-8"?>
<svg id="Layer_1" data-name="Layer 1" xmlns="http://www.w3.org/2000/svg" viewBox="0 0 200 200">
  <defs>
    <style>
      .cls-1 {
        fill: #00a8ab;
      }

      .cls-2 {
        fill: #fff;
      }
    </style>
  </defs>
  <rect class="cls-1" width="200" height="200"/>
  <path class="cls-2" d="m154.67,94.73c-5.54-.06-10.08,4.38-10.15,9.92,0,.54.03,1.08.11,1.62h5.02c-1.12-2.54.03-5.5,2.56-6.62.77-.34,1.61-.48,2.45-.41,2.77.55,4.57,3.25,4.01,6.02s-3.25,4.57-6.02,4.01v5.02h2.01c2.01,0,3.51-.5,5.02-2.01v2.01h5.02v-10.03c0-5.02-5.02-10.03-10.03-10.03m-35.61,0c-5.54-.11-10.12,4.29-10.23,9.82-.02.74.05,1.49.2,2.21h5.02c-1.12-2.54.03-5.5,2.56-6.62.77-.34,1.61-.48,2.45-.41,2.77.55,4.57,3.25,4.01,6.02-.55,2.77-3.25,4.57-6.02,4.01v5.02h2.01c5.54,0,10.03-4.49,10.03-10.03s-4.49-10.03-10.03-10.03m-53.16,10.03v-10.03h-5.02v12.04h5.02v-2.01Zm10.03-10.03v10.03c.39,2.74-1.52,5.28-4.27,5.67-1.13.16-2.28-.07-3.26-.65v5.02h2.01c5.54,0,10.03-4.49,10.03-10.03v-10.03h-4.52Zm20.06,0c-1.78.05-3.5.57-5.02,1.51v-9.53h-5.02v20.06h5.02v-2.01c.23-2.76,2.65-4.81,5.41-4.59s4.81,2.65,4.59,5.41c-.23,2.76-2.65,4.81-5.41,4.59-.54-.05-1.08-.18-1.58-.39v5.02h1.51c5.54,0,10.03-4.49,10.03-10.03s-4.49-10.03-10.03-10.03m-34.61-8.02h-6.02l-13.04,14.54,13.04,13.54h6.02l-12.54-13.54,12.54-14.54Zm81.75,8.02h-5.02v-8.02h-5.02v28.09h5.02v-15.05h5.02v-5.02Zm-102.32,12.04h-5.02v-20.56h5.02v20.56Z"/>
</svg>