<?xml version="1.0" encoding="UTF-8"?>
<svg id="Layer_1" data-name="Layer 1" xmlns="http://www.w3.org/2000/svg" viewBox="0 0 200 200">
  <defs>
    <style>
      .cls-1, .cls-2, .cls-3 {
        fill-rule: evenodd;
      }

      .cls-1, .cls-4 {
        fill: #b61b2c;
      }

      .cls-2 {
        fill: #fff;
      }
    </style>
  </defs>
  <rect class="cls-4" width="200" height="200"/>
  <g>
    <path class="cls-3" d="m151.85,109.24h1.96v5.08h.78v-5.08h1.94v-.69h-4.68v.69Zm-1.47,3.97h-.03l-2.88-4.66h-.92v5.77h.75v-4.66h.01l2.93,4.66h.88v-5.77h-.75v4.66Zm-4.85.42h-3.48v-1.93h3.16v-.69h-3.16v-1.76h3.43v-.69h-4.21v5.77h4.26v-.69h0Zm-5.53.69v-5.77h-1.1l-1.65,4.87h-.01l-1.65-4.87h-1.11v5.77h.75v-3.4c0-.17-.01-.91-.01-1.43h.01l1.62,4.84h.77l1.62-4.85h.01c0,.54-.01,1.28-.01,1.45v3.4h.75s0,0,0,0Zm-9.99-2.43h1.8c1.25,0,1.71-.91,1.71-1.71,0-.93-.64-1.62-1.71-1.62h-2.58v5.77h.78v-2.43h0Zm-2.2-3.34h-.78v5.77h.78v-5.77Zm-2.92,0v3.65c0,1.25-.79,1.59-1.51,1.59s-1.47-.34-1.47-1.6v-3.63h-.78v3.85c0,1.07.68,2.07,2.23,2.07s2.32-1,2.32-2.17v-3.75h-.78Zm-4.67,5.76l-.79-.61c.61-.61.84-1.52.84-2.25,0-1.25-.66-3.05-2.81-3.05s-2.81,1.79-2.81,3.05.67,3.03,2.81,3.03c.61,0,1.11-.14,1.48-.38l.88.68.4-.46h0Zm-6.29-.68h-3.48v-1.93h3.16v-.69h-3.16v-1.76h3.42v-.69h-4.2v5.77h4.26v-.69h0Zm-8.55-.42h-.01l-2.89-4.66h-.92v5.77h.75v-4.66h.01l2.93,4.66h.88v-5.77h-.75v4.66Zm-4.73-1.76c0-1.25-.67-3.05-2.81-3.05s-2.81,1.79-2.81,3.05.67,3.03,2.81,3.03,2.81-1.79,2.81-3.03h0Zm-6.66-2.89h-.78v5.77h.78v-5.77Zm-6.29.69h1.94v5.08h.78v-5.08h1.96v-.69h-4.68v.69Zm-.5,1.05c-.12-.97-.88-1.89-2.38-1.89-1.68,0-2.69,1.23-2.69,3.01,0,2.21,1.29,3.07,2.6,3.07.43,0,2.2-.1,2.52-2.28h-.76c-.27,1.34-1.14,1.59-1.65,1.59-1.42,0-1.91-1.05-1.91-2.4,0-1.52.84-2.29,1.88-2.29.56,0,1.41.19,1.62,1.2h.75s0,0,0,0Zm-6.82-1.74v3.65c0,1.25-.81,1.59-1.52,1.59s-1.46-.34-1.46-1.6v-3.63h-.78v3.85c0,1.07.67,2.07,2.21,2.07s2.33-1,2.33-2.17v-3.75h-.78s0,0,0,0Zm-8.39,3.3h1.89c.93,0,1.02.55,1.02,1.02,0,.22.03,1.09.14,1.45h.95v-.13c-.23-.14-.27-.26-.28-.58l-.05-1.05c-.03-.81-.36-.95-.69-1.09.37-.22.81-.52.81-1.38,0-1.22-.95-1.55-1.89-1.55h-2.67v5.77h.78v-2.47h0Zm-6.28-2.61h1.96v5.08h.78v-5.08h1.94v-.69h-4.68v.69h0Zm-.65,1c-.03-.64-.23-1.84-2.24-1.84-1.41,0-1.98.88-1.98,1.79,0,1,.84,1.27,1.23,1.36l1.18.27c.95.23,1.23.42,1.23,1.02,0,.82-.95.97-1.51.97-.74,0-1.59-.31-1.59-1.36h-.73c0,.54.09,1.02.58,1.47.26.23.68.55,1.75.55.99,0,2.25-.38,2.25-1.74,0-.92-.56-1.37-1.3-1.55l-1.65-.37c-.33-.09-.68-.24-.68-.74,0-.87.82-1.01,1.32-1.01.64,0,1.38.28,1.42,1.18h.73Zm-6.18,2.97h-.01l-2.89-4.66h-.92v5.77h.76v-4.66h.01l2.94,4.66h.87v-5.77h-.75v4.66h0Zm-4.75-1.76c0-1.25-.65-3.05-2.81-3.05s-2.8,1.79-2.8,3.05.65,3.03,2.8,3.03,2.81-1.79,2.81-3.03h0Zm-6.32-1.15c-.12-.97-.88-1.89-2.37-1.89-1.68,0-2.7,1.23-2.7,3.01,0,2.21,1.29,3.07,2.6,3.07.43,0,2.2-.1,2.52-2.28h-.75c-.26,1.34-1.14,1.59-1.64,1.59-1.43,0-1.92-1.05-1.92-2.4,0-1.52.84-2.29,1.89-2.29.55,0,1.39.19,1.61,1.2h.75s0,0,0,0Zm109.44-22.5c0-.61-.5-1.1-1.11-1.1-.61.01-1.09.52-1.07,1.13.01.59.49,1.06,1.07,1.07.61,0,1.11-.48,1.11-1.09,0,0,0,0,0,0h0Zm-18.38,11.87h-10.71s-.23,3.31,2.48,3.31,2.71-1.15,2.71-1.15h4.96s-1.28,4.37-7.82,4.37-8.1-5.15-8.1-7.62,1.61-7.68,8.33-7.68c6.72,0,8.14,5.43,8.14,8.76h0Zm16.25,2.28h1.36v3.54s-1.84.4-3.01.4-5.01-.22-5.01-5.42v-6.19h-2.03v-2.93h2.03v-4.45h5.47v4.45h2.71v2.93h-2.71v5.77s-.2,1.91,1.19,1.91Zm-15.07-16.05h5.49v19.6h-5.49v-19.6Zm-25.16,19.6h-11.41v-19.6h11.65s5.74-.06,5.74,4.52c0,0,.24,2.75-1.96,4.63,0,0,2.69,1.78,2.69,5.05s-2.51,5.4-6.72,5.4h0Zm-18.73-9.71h6.22v4.37h-6.22v-4.37Z"/>
    <path class="cls-3" d="m92.19,96.73l5.8,8.75h-6.22l-3.35-4.9-1.23,1.25v3.65h-5.26v-19.6h5.26v9.73l4.08-4.18h6.11l-5.19,5.3h0Zm-26.9,8.75v-14.01h4.9v1.57s2.02-1.98,5.31-1.98,5.12,2.48,5.12,5.27v9.15h-5.35v-8.02s-.36-2.12-2.34-2.12-2.34,1.39-2.34,2.39v7.75h-5.3Zm-6.27-20.24h5.1v4.17h-5.1v-4.17Zm0,6.38h5.1v13.85h-5.1v-13.85Zm-15.76-5.74h6.02v14.83h8.49v4.77h-14.52v-19.6Z"/>
    <path class="cls-1" d="m133.21,96.96h-5.01s0-2.8,2.39-2.8,2.57,1.75,2.62,2.8h0Zm-23.56-7.1h3.42c1.25,0,1.89,1.01,1.91,2.02s-.61,2.03-1.91,2.03h-3.42v-4.06Zm0,7.16h4c1.3,0,1.98,1.06,1.99,2.11.01,1.07-.64,2.14-1.99,2.14h-4v-4.25h0Zm20.37,12.19h1.57c.64,0,1.14.23,1.14.97s-.47,1.04-1.16,1.04h-1.55v-2.01h0Zm-12.31,3.91l.61.46c-.24.13-.54.19-.86.19-1.25,0-2.01-.99-2.01-2.34s.75-2.35,2.01-2.35,2.01.99,2.01,2.35c0,.73-.23,1.37-.64,1.78l-.73-.58-.4.49h0Zm-17.86-1.69c0,1.36-.76,2.34-2.01,2.34s-2.01-.99-2.01-2.34.76-2.35,2.01-2.35c1.25,0,2.01.98,2.01,2.35Zm-27.86-2.23h1.94c.38,0,1.04.08,1.04.97,0,.84-.6.99-1.18.99h-1.8v-1.96h0Zm-18.66,2.23c0,1.36-.75,2.34-2.01,2.34s-2.01-.99-2.01-2.34.75-2.35,2.01-2.35,2.01.98,2.01,2.35Zm103.79-23.65c0,.54-.45.97-.99.97s-.97-.43-.97-.97h0c0-.54.43-.97.97-.97h0c.54,0,.99.44.99.97Z"/>
    <path class="cls-3" d="m155.73,88.36h.15v-.52h.41c.24,0,.18.23.2.37l.03.15h.18c-.06-.1-.04-.13-.05-.29-.03-.2-.03-.23-.15-.31.13-.09.17-.15.17-.31-.01-.27-.2-.31-.38-.31h-.55v1.22h0Z"/>
    <path class="cls-2" d="m156.28,87.28c.09,0,.24.03.22.23-.01.15-.11.18-.22.18h-.4v-.41h.4Z"/>
  </g>
</svg>