<?xml version="1.0" encoding="UTF-8"?>
<svg id="Layer_1" data-name="Layer 1" xmlns="http://www.w3.org/2000/svg" viewBox="0 0 200 200">
  <defs>
    <style>
      .cls-1 {
        fill: #fff;
        fill-rule: evenodd;
      }

      .cls-2 {
        fill: #003370;
      }

      .cls-3 {
        fill: #f36e1e;
      }
    </style>
  </defs>
  <rect class="cls-2" width="200" height="200"/>
  <g>
    <path class="cls-3" d="m44.72,94.02h8.6c.68,0,1.22.55,1.22,1.22h0v8.72l-9.83-9.95Z"/>
    <path class="cls-1" d="m80.56,94.41h5.96v13.55h-5.96v-13.55Zm44.56,6.91c0-3.92,3.62-7.1,8.1-7.1s8.1,3.18,8.1,7.1-3.62,7.1-8.1,7.1-8.1-3.18-8.1-7.1m5.52,0c0-2.37,1.15-4.29,2.58-4.29s2.58,1.92,2.58,4.29-1.15,4.28-2.58,4.28-2.58-1.92-2.58-4.28m12.6-7.08h5.09l3.98,5.99v-5.99h5.4v13.77h-4.08l-4.94-7.28v7.28h-5.46v-13.77Zm-39.87.17v8.71c0,2.67-2.18,4.84-4.85,4.84h-4.68c-2.67,0-4.84-2.17-4.84-4.84v-8.71h5.83v10.88h2.71v-10.88h5.83Zm68.8,13.62h-7.06c-2.67,0-5.41-2.18-5.41-4.85v-4.11c0-2.67,2.74-4.84,5.41-4.84h9.68v2.76h-9.65v8.41h4.53v-3.07h-2.26v-2.3h7.35v6.91s.04,1.09-1.29,1.09h-1.3Zm-51.79.16h-8.68c-3.1,0-6.32-2.62-6.32-5.84v-4.95c0-3.22,3.23-5.83,6.32-5.83h11.13v3.32h-10.59v9.82h4.74v-3.39h-2.11v-2.77h7.93v8.32s.05,1.32-1.49,1.32h-.93Zm-41.59-.23v-3.07h-6.65v-13.26h-6.79l-.02,15.01s-.05,1.32,1.49,1.32h11.97Zm-24.23-1.28h-16.83c-2.42,0-4.38-1.96-4.38-4.38v-16.6h-5.8v16.95c0,5.32,4.31,9.63,9.63,9.63h17.38v-5.6Zm-13.26-2.61h-2.62c-1.45,0-2.62-1.18-2.62-2.62v-12.24c0-1.93,1.57-3.5,3.5-3.5h14.27v5.03h-12.55v8.23h5.22l5,5.12h-10.2Z"/>
  </g>
</svg>