<?xml version="1.0" encoding="UTF-8"?>
<svg id="Layer_1" data-name="Layer 1" xmlns="http://www.w3.org/2000/svg" viewBox="0 0 200 200">
  <defs>
    <style>
      .cls-1 {
        fill: #fff;
      }
    </style>
  </defs>
  <rect width="200" height="200"/>
  <g>
    <path class="cls-1" d="m154.06,120.38c.02-.93-1.38-.59-1.93-.65v1.94h.35v-.64h.71l.49.64h.44l-.52-.68c.27-.08.46-.33.46-.62m-1.58.31v-.62c1.63-.21,1.63.83,0,.62Z"/>
    <path class="cls-1" d="m153.01,118.48c-2.77.06-2.76,4.38,0,4.44,2.77-.06,2.76-4.38,0-4.44m0,4.1c-2.35-.04-2.35-3.71,0-3.75,2.35.04,2.35,3.71,0,3.75m-87.84-11.34c-10.42-.05-7.39-1.19-13.66,6.92-.78.65-5.21-7.28-6.05-6.92-.13.19-8.83-.44-8.42.37.17.26-.44,11.48.37,11.21.26-.15,6.39.39,6.12-.36,0,0,0-5.85,0-5.85.12-.8,4.58,5.97,4.77,5.92.17.57,4.98.18,5.4.29.51.35,4.82-6.09,5.13-6.29.58-.51.04,5.82.22,5.92-.28.77,5.89.2,6.12.36.84.32.15-11,.37-11.21,0-.2-.16-.37-.37-.37m55.93,0h-21.33c-.23.01-.44.12-.58.29-1.8,1-.9,7.59-1.09,9.19.11.69.96,1.95,1.68,2.09,0,0,21.33,0,21.33,0,.75.11.21-2.96.37-3.27,0-.2-.16-.37-.37-.37h-16.19c-.75.13-.21-3.64-.37-3.94,0-.2.17-.36.37-.36h16.19c.75.1.21-2.95.37-3.27,0-.2-.16-.36-.37-.37m20.11,4.51c-.92-.56,8.29-4.22,7.47-4.52,0,0-8.72,0-8.72,0-.53-.4-8.6,4.98-8.91,4.14-.12-.29.36-4.29-.37-4.14-.18.16-6.45-.4-6.12.36,0,0,0,10.84,0,10.84-.35.77,5.93.2,6.12.37.87-.17-.1-1.91.69-2.25.41-.08,4.76-2.88,5.12-2.32,6.3,5.34,4.77,4.66,12.97,4.57.85-.13-8.34-6.86-8.26-7.06Zm-53.44-4.22c.4-.56-10.72-.2-10.81-.29-.23.01-.44.12-.59.29l-8.33,10.98c-.63.67,6.45.12,6.48.29.94-.03,1.37-2.04,2.31-2.08,0,0,10.46,0,10.46,0,.23.01.44.12.59.29.31.32,1.15,1.87,1.72,1.79-.01-.19,7.14.4,6.48-.29,0,0-8.32-10.99-8.32-10.99Zm-2.61,6c-.06-.17-6.92.38-6.29-.29.38-.32,1.87-2.92,2.49-2.81.45.06,1.76-.19,2.06.29-.06.18,2.57,2.83,1.75,2.81m54.06-41.8c.15-.05,4.97.2,4.8-.22.17-.25.74-2.96,1.17-2.88,0,0,3.75,0,3.75,0,.34,0,1.19.41,1.51.54.28.33,2.91-2.5,3.13-2.58.09-.09.07-.2-.04-.25-3.97-1.59-3.41-.93-4.01-5.13-.11-.56,3.46,1.38,3.57,1.28.52.24-.45-3.3-.33-3.39-.08-.37.72-.96.9-1.21.31-.3-.73-.61-.84-.75-.6-.31-4.65,1.98-5.26,1.71-.21.03-1.57-.92-1.67-.45-.06.22-.28.6-.02.77.11.17,1.06.55.85.84-.23.18-.73.95-1.09.79-.16-.15-2.07-.63-1.86-1.03,0-.21.95-2.2.51-2.29-.19,0-.86-.54-.98-.18-.05.36-1.03,2.72-.87,3.04,0,0,.54,2.06.54,2.06.28.15-1.91,5.93-1.9,6.2-.2.55-1.43-.12-1.59.45.12.13-.78,2.79-.25,2.68m15.57-11.38c.12-.15,1.18-.44.89-.76-.28-.29-1.22-1.86-1.32-.57.1.13.03,1.56.43,1.33m-.01,1.31c.12.28.08,1.64.47,1.74.27.16,2.74.99,2.78,1.35.14.41.31.99.88.79.43.08.88-2.28,1.04-2.49.1-.61-1.38-1-1.41-1.59-.11-.1,0-2.18-.41-1.91-.15.2-3.59,1.73-3.36,2.11"/>
    <path class="cls-1" d="m162.82,66.03c-.35.08-4.02-2.98-2.71-.82.06.35,1.9,1.05,1.63,1.52-1.95,6.33-.76,3.41-6.01,4.7-.03.25-2.14,3.02-1.75,3.2.16.2,1.19.26,1.03.69-1.41,5.17-1.1,1.61-4.75,1.9-.55-.16.63,4.7.53,4.82-.25.41,4.1,2.42,3.68,2.66-.32.12-3.33-.02-3.41.41,0,0-2.88,6.63-2.88,6.63-.05.12-.12.31-.15.44l-3,12.79c-.03.14,0,.29.08.42-.03.04,1.17,1.42.67,1.35-1.19.09-1.49,0-2.07-1.08-.35-.53,2.84-12.9,2.8-13.42.02-.15,0-.3-.06-.43-.06-.26-1.74-2.95-1.38-3.17,4.81-5.72,4.73-3.54,3.39-11.13-.02-.13-.14-.23-.27-.23l-9.01-.06c-.39.03-.13.56-.4.74,0,0-14.9,13.81-14.9,13.81-.29.3-1.99.1-2.35.16-.43.08-1.41.86-1.32,1.31-.02.29,2.28,3.46,1.94,3.7,0,0-3.33,9.58-3.33,9.58-.21.37.53,1.09.61,1.39-.33.39,6.59.13,6.61.2.34.02.32-.56.38-.77.24-.51-2.59-2.42-2.16-2.81,0,0,8.99-2.71,8.99-2.71.53-.07-2.22-2.39-2.2-2.51-.36-.34-7.83,4.53-7.91,4.71,0,0-1.36,2.51-1.36,2.51-.18.37-1,.14-1.3.21-.62-.05,3.17-7.16,3.06-7.37.22-.61,6.17-.86,6.35-1.5,0,0,1.34-6.16,1.34-6.16.12-.37-1.25-1.31-1.44-1.54-.34-.22.12-1.29.1-1.57.09-.45,3.11,2.44,3.02,2.6.14.02,1.35,9.62,1.68,9.2,0,0,2.12-4.12,2.12-4.12.07-.42,2.91.35,3.14.32.13.02.26-.05.32-.17.1-.35.98-2.07.88-2.42.11-.06-2.22-12.22-1.83-11.91,0,0,4.75,5.64,4.75,5.64.4.07-1.42,4.02-1.42,4.21-.23.21,1.36,3.55,1.42,3.82.05.12.07.32.04.44l-2.2,10.33c0,.47.52,1.48.98,1.6,0,0,6.24,0,6.24,0,1.98-1.07-2.67-3.44-2.5-4.51,0,0,3.31-6.98,3.31-6.98.05-.12.11-.31.13-.44l.58-4.79c.03-.15.09-.29.18-.41l4.78-5.7c.21-.84.29-5.84-.49-6.46-.26-.27.72-2.66.78-2.97.24-.48-.86-1.23-.5-1.63.02-.01,5.66-2.5,5.69-2.51.37-.2,2.13-5.39,1.81-5.7"/>
    <path class="cls-1" d="m149.27,73.92h-3.13c-.42-.06-.6,1.36-.75,1.58-.26.52,4.06.08,4.16.22.4.09.04-1.92-.28-1.8"/>
  </g>
</svg>