<?xml version="1.0" encoding="UTF-8"?>
<svg id="Layer_1" data-name="Layer 1" xmlns="http://www.w3.org/2000/svg" viewBox="0 0 200 200">
  <defs>
    <style>
      .cls-1, .cls-2 {
        fill-rule: evenodd;
      }

      .cls-1, .cls-3 {
        fill: #397fc2;
      }

      .cls-2 {
        fill: #fff;
      }
    </style>
  </defs>
  <rect class="cls-3" width="200" height="200"/>
  <g>
    <path class="cls-2" d="m64.03,65.84c2.57,3.14,7.07,5.56,7.27,5.66.19.1.43.03.54-.17,0,0,0-.01.01-.02.05-.11,5.17-10.82,27.88-10.82s27.97,10.77,28.02,10.88c.09.2.33.29.53.19,0,0,.01,0,.02,0,.23-.12,5.74-3.04,7.68-5.84,0-.01.01-.02.02-.03.02-.04.04-.09.05-.14v-.04s0-.09-.01-.14c0,0,0,0,0,0,0,0-.01-.01-.01-.02-.01-.02-.02-.05-.03-.07-.3-.45-7.79-11.08-36.25-11.08s-35.44,10.74-35.72,11.19c0,0-.17.22.03.46h0Z"/>
    <path class="cls-1" d="m99.72,59.69c-21.1,0-27.28,8.91-28.4,10.91-.93-.53-3.54-2.09-5.57-4.07l2.48.91c.16.06.34,0,.45-.12,8.77-10.93,30.81-10.02,31.03-10.01,0,0,.01,0,.02,0,0,0,.01,0,.02,0,.22-.01,22.27-.92,31.03,10.01.11.13.28.18.44.13l3.18-1.11c-1.91,1.91-5.08,3.74-6.12,4.32-1.14-1.99-7.41-10.97-28.54-10.97h0Z"/>
    <path class="cls-2" d="m63.07,66.32c-2.56,3.65-6.84,11.63-6.84,24.04,0,10.62,5.08,23.55,16.43,28.51,11.59,5.07,24.55,4.55,27.35,4.55s15.76.52,27.35-4.55c11.35-4.97,16.43-17.9,16.43-28.51,0-12.41-4.29-20.39-6.84-24.04-.09-.12-.24-.19-.39-.16-.13-.02-.26.02-.35.11-.01.01-.29.3-.82.77-.05.03-.1.07-.13.12-1.76,1.56-5.9,4.88-12.04,7.48l-2.11.88c-4.24,1.76-8.77,3.65-12.73,6.56h0c-3.41,2.5-6.4,5.75-8.43,10.33-4.38-9.9-13.28-13.6-21.16-16.88l-2.11-.88c-8.3-3.53-12.94-8.33-12.99-8.38-.38-.35-.61.05-.61.05Z"/>
    <path class="cls-1" d="m99.57,93.57s0,0,0,0c.01.04.04.07.06.1,0,.01.01.02.02.03,0,0,.02.01.03.02.03.03.06.05.1.06h0s.04,0,.05.01c.03,0,.06.02.09.02s.06,0,.09-.02c.02,0,.04,0,.05,0,0,0,0,0,0,0,.04-.02.07-.04.1-.06.01,0,.02-.01.03-.02,0,0,.01-.02.02-.03.03-.03.05-.06.06-.1h0c1.22-3.04,2.87-5.5,4.79-7.55-.61,2.06-.62,3.51-.62,3.59,0,.22.18.4.4.39.15,0,.28-.08.35-.22.12-.24.7-.82,1.07-1.15.08-.07.12-.16.13-.26.18-2.2,2.09-5.16,2.42-5.66,1.66-1.22,3.42-2.25,5.22-3.17-2.22,1.77-4.99,4.31-6.58,7.01-.11.19-.04.43.15.54.16.09.35.06.48-.07.03-.04,3.54-3.56,12.1-5.93,1.98-.55,7.04-2.34,13.12-5.89.09-.05.15-.13.18-.23l2.39-7.36.14-.13c-.13,2.62-.65,5.16-1.26,7.35-.77.5-6.02,3.86-10.51,5.5-.93.34-2,.67-3.12,1.01-6.61,2.03-15.62,4.79-21.22,16.72-5.6-11.93-14.61-14.7-21.22-16.72-1.13-.35-2.19-.67-3.12-1.01-4.49-1.65-9.74-5-10.51-5.5-.99-2.22-1.35-4.68-1.51-6.78,2.14,8.53,11.4,11.55,15.67,12.93,6.45,2.08,10.15,4.18,10.19,4.2.19.11.43.05.54-.14.07-.11.07-.25.02-.37-.93-2.02-2.67-3.83-4.25-5.17,5.65,2.89,10.94,6.88,13.82,14.05Z"/>
    <path class="cls-1" d="m99.57,99.2s.02.03.03.05c.02.03.03.05.05.07s.05.04.07.05c.02.01.03.03.05.03,0,0,0,0,0,0,.03.01.06.01.09.02.02,0,.04.01.06.01s.04,0,.06-.01c.03,0,.06,0,.09-.02,0,0,0,0,0,0,.02,0,.03-.02.05-.03.02-.02.05-.03.07-.05s.04-.05.05-.07c.01-.02.03-.03.03-.05,5.42-12.27,14.48-15.04,21.09-17.07,1.14-.35,2.21-.68,3.17-1.03,3.78-1.39,8.08-3.96,9.89-5.09-.95,3.04-1.99,5.21-2.19,5.62-2.18,1.76-5.37,2.66-9.05,3.69-4.17,1.17-8.9,2.49-13.3,5.45-5.62,3.78-8.92,10.23-9.97,12.56-1.05-2.32-4.35-8.78-9.97-12.56-4.4-2.96-9.13-4.28-13.29-5.45-3.68-1.03-6.86-1.93-9.05-3.69-.21-.42-1.25-2.58-2.2-5.62,1.81,1.13,6.11,3.7,9.89,5.09.95.35,2.03.68,3.16,1.03,6.61,2.02,15.67,4.8,21.09,17.07h0Z"/>
    <path class="cls-1" d="m100.31,104.47c.03-.09,3.46-8.62,10.05-13.04,4.29-2.88,8.95-4.19,13.07-5.34,3.57-1,6.68-1.87,8.96-3.55.41,3.17,1.89,18.58-6.16,26.48-7.79,7.66-21.02,8.24-26.22,8.14-.13,0,.07,0,0,0,0,0,0,0,0,0s0,0,0,0c-.07,0,.13,0,0,0-5.2.1-18.43-.48-26.22-8.14-7.98-7.84-6.59-23.05-6.17-26.4,2.27,1.62,5.34,2.48,8.85,3.47,4.11,1.15,8.77,2.46,13.07,5.34,6.59,4.43,10.01,12.96,10.05,13.04,0,0,.3.88.74,0h0Z"/>
    <path class="cls-1" d="m142.99,90.36c0,10.36-5,22.81-15.95,27.79-9.88,4.49-24.9,4.59-27.03,4.59s-15.87.22-27.03-4.59c-10.51-4.52-15.45-16.21-15.91-26.25,2.38,7.11,5.93,10.15,6.58,10.67,2.8,8.31,9.97,14.11,20.76,16.75,4.46,1.09,10.75,1.43,14.29,1.52-.31.01.22.03,1.31.02,1.09.01,1.63,0,1.31-.02,3.54-.09,9.83-.42,14.29-1.52,10.84-2.66,18.03-8.49,20.8-16.87.05-.14,4.6-14.1-.63-27.89-.01-.04-.04-.07-.06-.1.55-2.08,1-4.43,1.12-6.86,2.52,3.88,6.15,11.43,6.15,22.76h0Z"/>
    <path class="cls-2" d="m136.64,136.4v9.41h-10.16s-3.29-.04-3.75-3.38c-.82,2.43-2.47,3.34-4.26,3.34h-9.37v-9.57l-11.91,9.6h-12.1s-2.09-.02-3.18-1.73v1.73h-4.34v-7.46s.26-1.71-1.8-1.71h-1.4v9.17h-4.21v-9.17h-3.13v9.17h-4.41v-13.02h14.6s4.68-.32,4.68,4.84v1.49c1.07-1.61,3.18-1.53,3.85-1.53h5.52s.28-1.31-1.71-1.31h-6.9v-3.49h8.69s3.89-.16,3.89,3.61v5.8l11.87-9.41h11.67s4.48-.16,4.48,5.75c0,.23,0,.44-.01.66,1.05-1.7,3.22-1.61,3.9-1.61h5.52s.28-1.31-1.71-1.31h-6.91v-3.49h8.69s3.89-.16,3.89,3.61h0Z"/>
    <path class="cls-2" d="m98.54,145.81l4.68-3.85h5.16v3.85h-9.84Zm7.22-13.02l-4.68,3.85h-5.16v-3.85h9.84Z"/>
    <path class="cls-1" d="m128.02,140.51h4.54v1.71h-4.62s-.95.08-.95-.85c0-.79.77-.85,1.03-.85h0Zm-41.36,0h4.54v1.71h-4.62s-.95.08-.95-.85c0-.79.77-.85,1.03-.85Zm30.61,1.45h-3.95v-5.52h3.99s1.9.16,1.9,2.6-.89,2.92-1.94,2.92Z"/>
  </g>
</svg>