<?xml version="1.0" encoding="UTF-8"?>
<svg id="Layer_1" data-name="Layer 1" xmlns="http://www.w3.org/2000/svg" viewBox="0 0 200 200">
  <defs>
    <style>
      .cls-1, .cls-2 {
        fill: #fff;
      }

      .cls-2 {
        fill-rule: evenodd;
      }
    </style>
  </defs>
  <rect width="200" height="200"/>
  <g>
    <g id="layer1-9">
      <path id="path3524" class="cls-2" d="m110.59,69.74c7.26,3.82,12.23,11.44,12.23,20.22s-4.96,16.42-12.23,20.22v-2.61c2.78-1.66,5.13-3.99,6.84-6.74l-6.84-2.78v-4.22l7.5,5.86c1.57-2.89,2.45-6.19,2.45-9.73,0-7.45-3.99-14-9.95-17.61v-2.61Zm-10.56-2.59c3.8,0,7.38.93,10.56,2.59v2.61c-2.92-1.76-6.34-2.8-9.95-2.92l2.61,18.67,7.34,5.72v4.22l-10.61-4.3-10.54,4.32v-4.2l7.38-5.77,2.59-18.67c-3.66.12-7.05,1.16-9.97,2.92v-2.61c3.16-1.66,6.77-2.59,10.59-2.59Zm10.56,43.02c-3.18,1.66-6.77,2.61-10.56,2.61s-7.43-.95-10.59-2.59v-2.63c3.09,1.87,6.72,2.94,10.59,2.94s7.45-1.07,10.56-2.94v2.61Zm-21.15.02c-7.29-3.82-12.25-11.46-12.25-20.24s4.96-16.4,12.25-20.22v2.61c-5.98,3.61-9.97,10.13-9.97,17.61,0,3.53.9,6.88,2.47,9.78l7.5-5.86v4.2l-6.81,2.8c1.71,2.73,4.04,5.03,6.81,6.69v2.63Z"/>
    </g>
    <path id="path9674" class="cls-1" d="m97.78,118.41c-1.05.28-1.99.44-3.16.57v.36c1.32,0,1.48.15,1.48,1.24v3.66c-.77-1.25-1.38-1.63-2.51-1.63-2.24,0-3.81,2.11-3.81,5.12s1.59,5.12,3.87,5.12c1.19,0,2.01-.54,2.59-1.71.08.79.09.88.29,1.67.86-.27,1.21-.36,2.45-.5l.31-.04v-.36c-1.4-.04-1.53-.15-1.53-1.42v-12.07Zm-56.43.15c-.8.08-1.21.11-1.99.11-.59,0-.9-.02-1.71-.08v.52c1.44.08,1.73.29,1.73,1.26v.13l-.44,10.27c-.04,1.13-.25,1.3-1.71,1.4v.5c1.09-.08,1.5-.1,2.09-.1s1,.02,2.07.1v-.5c-1.46-.1-1.74-.29-1.74-1.21v-.19l.42-10.85,3.43,9.26.25.73.29.82.29.82.23.67h.31l.23-.69.27-.8.29-.77.25-.69,3.45-9.33.19,10.83v.1c0,.98-.31,1.21-1.74,1.3v.5c1.32-.13,1.82-.17,2.61-.17s1.3.04,2.61.17v-.5c-1.51-.1-1.69-.27-1.72-1.4l-.23-10.27v-.15c0-.94.31-1.15,1.74-1.24v-.52c-.8.06-1.13.08-1.65.08-.63,0-1.07-.02-2.01-.11l-3.95,10.58-3.89-10.58Zm81.35.08v.52c1.51.08,1.72.25,1.72,1.38v10.14c0,1.13-.17,1.28-1.72,1.4v.5h5.29c1.55,0,2.38-.19,3.26-.73,1.05-.67,1.74-1.95,1.74-3.26,0-1.13-.48-2.15-1.3-2.78-.44-.33-.9-.52-1.65-.67,1.51-.56,2.3-1.63,2.3-3.09,0-1.09-.46-2.05-1.26-2.66-.71-.52-1.53-.75-2.89-.75h-5.5Zm3.47.65h1.78c1.76,0,2.53.86,2.53,2.8,0,.96-.23,1.65-.69,2.2-.46.52-1.03.69-2.2.69h-1.42v-5.69Zm-48.1,2.99l-.57,1.07c-.67-.65-1.23-.88-2.13-.88-2.47,0-4.14,2.13-4.14,5.25s1.65,5.1,4.08,5.1c1.88,0,3.07-1.21,3.35-3.45h-.86c-.25,1.84-1.03,2.76-2.32,2.76-1.61,0-2.42-1.48-2.42-4.41s.92-4.68,2.49-4.68c1.28,0,2.05.88,2.42,2.7h.46v-3.45h-.36Zm37.47.06l-.36.86c-.71-.48-1.32-.67-2.13-.67-1.84,0-3.14,1.13-3.14,2.78,0,1.21.48,1.8,2.01,2.51l.96.44.79.36c1.02.46,1.42.94,1.42,1.65,0,1.07-.92,1.88-2.15,1.88-1.46,0-2.34-.92-2.72-2.82l-.46.02v3.49h.38l.5-.94c.8.63,1.55.88,2.51.88,1.97,0,3.37-1.25,3.37-3.01,0-1.23-.57-1.9-2.15-2.59l-.88-.38c-1.9-.84-2.22-1.11-2.22-1.94,0-.98.86-1.74,1.96-1.74,1.32,0,2.01.8,2.2,2.47h.48v-3.24h-.38Zm30.91,0c-.83.29-1.55.46-2.76.63v.36c.1,0,.21.02.27.02,1.05,0,1.17.13,1.19.98v6.77c0,.9-.21,1.07-1.48,1.13v.42c1.09-.1,1.53-.12,2.26-.12s1.17.02,2.26.12v-.42c-1.09-.04-1.36-.25-1.36-1.09v-5.06c0-1.71.75-2.61,2.18-2.61,1.34,0,1.88.73,1.88,2.55v5.12c0,.84-.27,1.05-1.4,1.09v.42c1.09-.1,1.51-.12,2.28-.12s1.17.02,2.28.12v-.42c-1.28-.06-1.49-.23-1.49-1.13v-5.02c0-.79-.1-1.38-.31-1.88-.42-1.02-1.51-1.67-2.76-1.67s-2.07.5-2.82,1.63c-.04-.8-.1-1.34-.21-1.82Zm-80.49.04c-.86.25-1.57.38-2.76.48v.38h.27c1.09.02,1.19.13,1.21,1.03v6.84c0,.9-.23,1.07-1.51,1.13v.42c1.15-.1,1.59-.13,2.34-.13s1.17.02,2.32.13v-.42c-1.28-.06-1.48-.23-1.48-1.13v-4.37c0-2.07.69-3.39,1.78-3.39.38,0,.63.21.63.5v.19l-.04.21c-.02.08-.04.17-.04.21,0,.42.38.71.86.71.52,0,.88-.4.88-1,0-1-.77-1.69-1.82-1.69s-1.99.69-2.45,1.88v-.23c-.04-.63-.08-.96-.19-1.74Zm-7.83.08c-2.51,0-4.08,2.03-4.08,5.25s1.57,5.1,4.26,5.1c2.05,0,3.39-1.28,3.66-3.43h-.84c-.25,1.78-1.17,2.74-2.66,2.74-1.9,0-2.74-1.46-2.76-4.73h6.23c-.04-3.22-1.36-4.94-3.83-4.94Zm26.09,0c-2.51,0-4.08,2.03-4.08,5.25s1.57,5.1,4.27,5.1c2.05,0,3.39-1.28,3.66-3.43h-.84c-.25,1.78-1.17,2.74-2.66,2.74-1.9,0-2.74-1.46-2.76-4.73h6.23c-.04-3.22-1.36-4.94-3.83-4.94Zm19.95,0c-2.51,0-4.08,2.03-4.08,5.25s1.57,5.1,4.27,5.1c2.05,0,3.39-1.28,3.66-3.43h-.84c-.25,1.78-1.17,2.74-2.66,2.74-1.9,0-2.74-1.46-2.76-4.73h6.23c-.04-3.22-1.36-4.94-3.83-4.94Zm34.59,0c-2.51,0-4.08,2.03-4.08,5.25s1.57,5.1,4.27,5.1c2.05,0,3.39-1.28,3.66-3.43h-.84c-.25,1.78-1.17,2.74-2.65,2.74-1.9,0-2.74-1.46-2.76-4.73h6.23c-.04-3.22-1.36-4.94-3.83-4.94Zm16.81.25l-.48,2.72h.42c.75-1.88,1.09-2.18,2.45-2.18h2.57l-5.67,9.33h7.19l.55-3.01h-.44c-.63,1.9-1.21,2.47-2.64,2.47h-2.45l5.69-9.33h-7.19Zm-97.46.29c1.36,0,2.05,1.17,2.18,3.64h-4.52c.21-2.4,1-3.64,2.34-3.64Zm26.08,0c1.36,0,2.05,1.17,2.18,3.64h-4.52c.21-2.4,1-3.64,2.34-3.64Zm19.95,0c1.36,0,2.05,1.17,2.18,3.64h-4.52c.21-2.4,1-3.64,2.34-3.64Zm34.59,0c1.36,0,2.05,1.17,2.18,3.64h-4.52c.21-2.4,1-3.64,2.34-3.64Zm-44.97.17c1.55,0,2.34,1.59,2.34,4.66,0,2.91-.77,4.41-2.28,4.41s-2.3-1.57-2.3-4.56.73-4.52,2.24-4.52Zm32.39,2.45h1.99c1.11,0,1.73.19,2.22.67.48.48.75,1.38.75,2.38,0,2.09-1.05,3.26-2.91,3.26h-.75c-1.11,0-1.3-.17-1.3-1.09v-5.23Zm-8.39.83v1.08h4.67v-1.08h-4.67Z"/>
  </g>
</svg>