<?xml version="1.0" encoding="UTF-8"?>
<svg id="Layer_1" data-name="Layer 1" xmlns="http://www.w3.org/2000/svg" viewBox="0 0 200 200">
  <defs>
    <style>
      .cls-1 {
        fill: #fff;
      }

      .cls-2 {
        fill: #ff000d;
      }
    </style>
  </defs>
  <rect class="cls-2" width="200" height="200"/>
  <g>
    <g>
      <path class="cls-1" d="m127.3,99.58c-.66.05-1.19.12-1.73.12-1.73-.01-3.45-.08-5.18-.06-1.5.02-3.01.17-4.51.18-1.86.01-3.72-.06-5.58-.1-.22,0-.45-.03-.66.02-.71.15-1.14-.16-1.48-.76-1.48-2.63-2.99-5.25-4.49-7.86-1.11-1.93-2.24-3.85-3.36-5.77-.15-.25-.26-.53-.43-.88.31,0,.51,0,.7,0,5.47,0,10.94.01,16.41-.02.72,0,1.05.26,1.39.86.93,1.66,1.97,3.26,2.97,4.88,1.46,2.35,2.92,4.7,4.39,7.04.37.59.78,1.14,1.17,1.71.12.18.22.37.38.64Z"/>
      <path class="cls-1" d="m99.24,84.36c-.05.13-.08.23-.13.31-1.62,2.69-3.24,5.37-4.85,8.05-1.31,2.18-2.6,4.37-3.88,6.57-.26.44-.57.6-1.06.6-4.45,0-8.91,0-13.36.01-.95,0-1.9.02-2.84.02-.14,0-.28-.04-.43-.05.04-.17.04-.37.12-.51.44-.74.93-1.45,1.37-2.19,1.09-1.84,2.17-3.69,3.26-5.54,1.34-2.26,2.7-4.52,4.03-6.78.24-.4.58-.48.98-.48,2.81,0,5.62.01,8.43.03,2.49.01,4.98.04,7.47.05.28,0,.56-.06.89-.09Z"/>
      <path class="cls-1" d="m99.62,54.47c.52.82.99,1.59,1.49,2.34,2.42,3.62,4.84,7.23,7.28,10.83.34.5.37.92.05,1.43-1.36,2.19-2.71,4.39-4.04,6.6-.94,1.58-1.84,3.18-2.76,4.77-.5.86-1.03,1.7-1.53,2.56-.21.37-.37.77-.52,1.09-1.01-1.78-2.01-3.57-3.03-5.34-1.61-2.79-3.23-5.57-4.84-8.36-.29-.51-.59-1.02-.85-1.55-.06-.13-.04-.37.05-.5.96-1.53,1.95-3.03,2.91-4.56,1.13-1.8,2.24-3.61,3.36-5.41.79-1.27,1.58-2.55,2.42-3.9Z"/>
    </g>
    <g>
      <path class="cls-1" d="m50.63,111.16c0,.66,0,1.28,0,1.91,0,5.54,0,11.07,0,16.61,0,.45,0,.46-.44.46-1.27,0-2.53,0-3.8-.01-.15,0-.3,0-.53,0,.14-4.24.2-8.44.12-12.64-.03,0-.06-.01-.09-.02-.18.55-.38,1.09-.55,1.64-.99,3.36-1.97,6.73-2.95,10.09-.04.15-.1.29-.14.44-.15.47-.15.48-.66.48-.91,0-1.83,0-2.74,0-.2,0-.29-.07-.35-.26-1.21-3.76-2.42-7.52-3.63-11.28-.12-.38-.29-.74-.51-1.11-.02.33-.05.66-.05.99,0,3.63,0,7.25,0,10.88,0,.77,0,.77-.78.78-1.05,0-2.1,0-3.14,0-.22,0-.31-.04-.31-.29,0-5.44.01-10.89.01-16.33,0-.77,0-1.55,0-2.36.1,0,.2-.02.3-.02,2.18,0,4.36,0,6.54,0,.18,0,.27.04.33.24.94,2.96,1.89,5.91,2.85,8.86.09.27.2.53.3.8.03,0,.07,0,.1.01.16-.5.34-1.01.49-1.51.79-2.6,1.58-5.21,2.36-7.82.18-.58.17-.58.81-.58,2.04,0,4.09,0,6.13,0,.1,0,.2.01.33.02Z"/>
      <path class="cls-1" d="m107.68,111.04c.18,0,.34-.02.5-.02,3.28,0,6.56-.01,9.83.01,2.34.02,4.1,1.13,5.42,3,.43.61.39,1.28.35,1.98-.11,2.02-1.25,3.3-2.93,4.21-.04.02-.07.04-.19.12.26.13.46.26.67.34.59.21,1.11.5,1.53.96,1.02,1.12,1.38,2.44,1.25,3.92-.07.81-.29,1.58-.7,2.29-.47.82-1.16,1.35-2.04,1.69-1.65.64-3.37.93-5.14.94-2.74.01-5.48,0-8.22,0h-.36v-19.44Zm5.55,15.48c.12,0,.23,0,.34,0,1.03,0,2.05.02,3.08,0,.33,0,.68-.08.99-.2.7-.27,1.21-1.18,1.14-1.93-.08-.83-.58-1.34-1.48-1.52-.18-.04-.37-.05-.55-.05-1.07,0-2.14,0-3.2,0-.1,0-.2,0-.32.02v3.7Zm-.02-11.8c0,1.17,0,2.28,0,3.4,0,.19.02.31.26.31,1.04-.01,2.07.02,3.11-.03.76-.03,1.35-.43,1.58-1.15.22-.69.23-1.4-.34-2-.4-.42-.91-.56-1.46-.56-.89,0-1.78.02-2.67.03-.14,0-.28,0-.47,0Z"/>
      <path class="cls-1" d="m147.03,111.15c.11,0,.2-.02.29-.02,1.55.04,3.11.08,4.66.1.26,0,.31.1.3.33,0,1.94-.01,3.88-.01,5.82,0,.13,0,.27,0,.43h5.29s.03-.11.03-.18c0-2,0-4.01-.01-6.01,0-.41.01-.42.41-.42,1.6,0,3.2,0,4.79,0,.04,0,.08,0,.15.01,0,.12.02.23.02.34,0,6.13,0,12.25,0,18.38,0,.32-.11.41-.41.41-1.56,0-3.11,0-4.67,0-.22,0-.31-.05-.31-.3.01-2.41,0-4.81.01-7.22,0-.1,0-.2,0-.34h-5.32c0,1.35,0,2.67,0,3.99,0,1.17.01,2.33.03,3.5,0,.25-.05.35-.33.35-1.56,0-3.11,0-4.67,0-.2,0-.3-.04-.3-.27,0-6.27,0-12.54,0-18.81,0-.03,0-.06.02-.12Z"/>
      <path class="cls-1" d="m89.08,112.13c-.66,1.22-1.32,2.41-1.93,3.54-.73-.36-1.38-.73-2.08-1-.49-.19-1.03-.31-1.56-.36-.71-.07-1.39.12-1.92.63-.67.65-.56,1.67.21,2.19.61.4,1.31.48,2.01.59,1.47.24,2.89.64,4.15,1.49,1.4.95,2.1,2.29,2.2,3.96.07,1.24-.08,2.43-.72,3.53-.96,1.65-2.43,2.64-4.24,3.17-1.2.35-2.43.53-3.68.43-2.48-.2-4.8-.86-6.85-2.33-.23-.16-.28-.27-.12-.53.68-1.07,1.33-2.17,1.97-3.26.12-.21.21-.12.34-.03.74.57,1.52,1.07,2.41,1.4,1.07.4,2.15.64,3.28.34,1.62-.41,1.78-1.92,1.17-2.82-.38-.55-.97-.74-1.58-.9-1.12-.29-2.26-.53-3.36-.88-1.13-.35-2.12-.98-2.78-1.98-1.08-1.64-1.05-3.37-.29-5.11.75-1.71,2.16-2.73,3.87-3.37.39-.15.82-.2,1.23-.33,1-.32,2.04-.24,3.05-.14,1.87.18,3.65.73,5.25,1.76Z"/>
      <path class="cls-1" d="m132.89,124.17c.24.18.48.35.71.51,1.17.8,2.45,1.35,3.87,1.48.72.06,1.42-.06,2.04-.49.53-.37.79-.87.75-1.51-.04-.72-.39-1.31-1.06-1.54-.89-.31-1.83-.53-2.75-.75-1.33-.32-2.62-.74-3.63-1.71-1.27-1.22-1.68-2.71-1.35-4.41.52-2.65,2.26-4.18,4.76-4.91,2.49-.72,4.94-.43,7.33.51.53.21,1.03.48,1.54.73.15.07.24.17.12.37-.59,1.05-1.17,2.11-1.75,3.17-.04.08-.1.16-.14.24-1.04-.72-2.15-1.23-3.4-1.4-.72-.1-1.38.03-1.96.49-.47.37-.62.86-.58,1.43.03.37.25.62.54.82.61.42,1.32.52,2.03.63,1.17.19,2.31.49,3.38,1,1.66.78,2.64,2.06,2.99,3.85.4,2.06-.52,5-2.87,6.4-1.25.74-2.58,1.15-4.02,1.26-2.2.18-4.33-.13-6.35-1.01-.8-.35-1.53-.86-2.29-1.3-.14-.08-.23-.17-.1-.37.73-1.15,1.44-2.31,2.18-3.49Z"/>
      <path class="cls-1" d="m106.67,111.15v.4c0,3.8.03,7.6,0,11.4-.03,3.13-1.55,5.35-4.36,6.73-1.44.7-2.97.97-4.53.78-3.16-.38-5.89-2.49-6.5-5.65-.2-1.03-.19-2.12-.19-3.18-.02-3.4,0-6.8-.02-10.19,0-.26.08-.32.31-.32,1.67.01,3.34.02,5.01.03.02,0,.04.02.08.04,0,.11,0,.23,0,.35,0,3.92,0,7.85,0,11.77,0,.83.27,1.58.75,2.25.88,1.22,2.4,1.3,3.51.45.99-.76,1.42-1.82,1.41-3.06,0-.84-.03-1.67-.03-2.51.02-2.96.05-5.93.07-8.89,0-.12,0-.25,0-.41h4.48Z"/>
      <path class="cls-1" d="m74.54,111.15v3.71h-5.09v15.36h-5.29c-.03-5.11-.06-10.2.11-15.34h-5.45c-.02-.38-.05-.73-.05-1.08,0-.76.02-1.53,0-2.29,0-.3.1-.39.39-.39,2.96,0,5.91,0,8.87,0,2.06,0,4.13.01,6.19.02.09,0,.18,0,.31.02Z"/>
      <path class="cls-1" d="m52.23,111.15h5.32c0,.18,0,.34,0,.5,0,6.04,0,12.08,0,18.13,0,.46,0,.46-.46.46-1.48,0-2.97,0-4.45,0-.12,0-.24,0-.4,0v-19.09Z"/>
      <path class="cls-1" d="m129.92,111.24c0,.52,0,1.03,0,1.54,0,5.12,0,10.25,0,15.37,0,.62,0,1.24,0,1.86,0,.25-.06.34-.33.34-1.53-.01-3.05-.01-4.58,0-.25,0-.33-.07-.33-.34,0-4.43,0-8.86-.01-13.29,0-1.62,0-3.24,0-4.86,0-.22,0-.43,0-.7,1.73.03,3.47.07,5.24.1Z"/>
      <path class="cls-1" d="m164.71,130.24v-19h5.15c0,.24,0,.46,0,.68.02,5.21.04,10.43.06,15.64,0,.76-.04,1.53-.05,2.29,0,.28-.1.39-.41.39-1.48-.02-2.97,0-4.45,0h-.3Z"/>
    </g>
  </g>
</svg>