<?xml version="1.0" encoding="utf-8"?>
<!-- Generator: Adobe Illustrator 27.9.0, SVG Export Plug-In . SVG Version: 6.00 Build 0)  -->
<svg version="1.1" id="Layer_1" xmlns="http://www.w3.org/2000/svg" xmlns:xlink="http://www.w3.org/1999/xlink" x="0px" y="0px"
	 viewBox="0 0 200 200" style="enable-background:new 0 0 200 200;" xml:space="preserve">
<style type="text/css">
	.st0{fill:#00519C;}
	.st1{fill-rule:evenodd;clip-rule:evenodd;fill:#FFFFFF;}
</style>
<rect y="0" class="st0" width="200" height="200"/>
<g id="logo" transform="translate(-8.851563,-53.136719)">
	<path id="rect1" class="st1" d="M160.9,137.8h-104v-1.9h104V137.8"/>
	<path id="rect2" class="st1" d="M160.9,141.6h-104v-1.9h104V141.6"/>
	<path id="rect3" class="st1" d="M160.9,145.4h-104v-1.9h104V145.4"/>
	<path id="M1" class="st1" d="M56.9,147.5h12.1l3.8,11.3l3.8-11.3h11.7v22.8h-7.8v-12.4l-3.7,12.4h-8.2l-3.7-12.4v12.4h-8V147.5"/>
	<path id="M2" class="st1" d="M129.4,147.5h12.1l3.8,11.3l3.8-11.3h11.7v22.8H153v-12.4l-3.7,12.4h-8.2l-3.7-12.4v12.4h-8V147.5"/>
	<path id="W" class="st1" d="M89.7,147.5h9.2l2,10.5l3.2-10.5h9.6l3.3,10.5l2.2-10.5h9.2l-4.5,22.8H113l-4.1-13.1l-4.4,13.1H93.9
		L89.7,147.5"/>
</g>
</svg>
