<?xml version="1.0" encoding="UTF-8"?>
<svg id="Layer_1" data-name="Layer 1" xmlns="http://www.w3.org/2000/svg" viewBox="0 0 200 200">
  <defs>
    <style>
      .cls-1 {
        fill: #fcc81e;
      }

      .cls-2 {
        fill: #254098;
      }
    </style>
  </defs>
  <rect class="cls-1" width="200" height="200"/>
  <path class="cls-2" d="m96.2,79.76h11.21c.15,0,.3.07.45.07h10.54c.67.07,1.41,0,2.08,0,2.6,0,5.12.07,7.72.15,6.24.15,12.55.3,18.79.59,1.56.07,3.19.15,4.75.45.97.15,2,.45,2.9.82.45.22.89.37,1.19.74.45.45.82,1.04,1.11,1.63.52.97.82,2,1.11,3.04.74,2.82,1.04,5.79,1.19,8.76.07,3.12-.07,6.16-.59,9.21-12.03-1.19-24.13-1.93-36.23-2.3-6.53-.22-12.99-.3-19.53-.3-11.73,0-23.46.22-35.12.89-7.57.45-15.22,1.04-22.8,1.78v.07c-.37-2.52-.59-5.05-.59-7.57,0-3.04.22-6.09.82-9.13.3-1.41.67-2.9,1.34-4.23.37-.74.82-1.49,1.41-2,.45-.3.97-.45,1.41-.67,1.56-.59,3.19-.82,4.75-.97,3.27-.22,6.53-.37,9.8-.52,5.94-.22,11.88-.3,17.82-.37h4.9c.97-.07,1.86,0,2.82-.07h6.39c.15,0,.22-.07.37-.07Zm-36.38,5.64c-.89.07-1.71.3-2.52.67-.15.07-.37.15-.45.37-.07.15,0,.3.07.37,1.19,1.11,2.3,2.23,3.49,3.34.07.07.22.15.3.07.15-.07.15-.22.15-.37,0-1.34,0-2.75-.15-4.08,0-.15-.07-.3-.22-.37-.15-.15-.37-.07-.67,0Zm2.3,0c-.15.07-.22.22-.22.37-.07,1.34-.07,2.75-.07,4.08,0,.15.07.37.3.3.22-.15.3-.3.52-.45,1.04-.97,2.08-2,3.12-2.97.07-.07.22-.22.15-.37-.07-.22-.3-.3-.52-.37-.89-.37-1.78-.59-2.75-.67-.22,0-.37,0-.52.07Zm-6.16,1.78c-.22.07-.3.3-.45.45-.3.52-.59,1.04-.74,1.63-.07.3-.15.59,0,.82.07.22.22.37.37.52,1.78,1.71,3.56,3.42,5.35,5.12.07.15.37.07.37-.07v-1.34c0-.82-.22-1.63-.59-2.38-.37-.89-.97-1.63-1.56-2.3-.74-.74-1.56-1.49-2.3-2.23-.15-.22-.3-.3-.45-.22Zm10.54,0c-.15.07-.22.22-.37.3-.52.52-1.04,1.04-1.56,1.56-.52.52-1.04,1.04-1.49,1.63-.52.74-.89,1.56-1.04,2.45-.15.67-.15,1.41-.15,2.15v.37c.07.15.22.15.37.07,1.86-1.78,3.64-3.49,5.49-5.27.15-.15.3-.37.3-.59,0-.37-.07-.74-.22-1.11-.15-.52-.37-.97-.74-1.34-.15-.22-.37-.37-.59-.22Zm5.49,2.23c-.15,0-.15.15-.15.22v7.65c0,.07,0,.22.07.22h2.3c.07,0,.15-.07.15-.15v-3.86c.52.89,1.04,1.71,1.49,2.6.3.45.52.97.89,1.49h2c.07,0,.15-.07.15-.15v-7.72c0-.07,0-.22-.07-.22h-2.3c-.07,0-.22.07-.15.15v3.86c-.74-1.34-1.56-2.6-2.3-3.94-.07-.15-.22-.07-.3-.07-.52-.07-1.11-.15-1.78-.07Zm8.54.52c-.45.52-.59,1.26-.67,1.93-.07.97-.07,1.93,0,2.9.07.67.22,1.41.67,2,.3.45.82.59,1.34.59h3.86c.07,0,.22,0,.22-.15v-1.26c0-.07-.15-.15-.22-.15h-2.67c-.22,0-.37-.22-.45-.37-.15-.45-.22-.97-.22-1.49h3.04c.07,0,.22,0,.22-.07v-1.19c0-.07,0-.22-.07-.22h-3.12c0-.52.07-1.04.22-1.49.07-.15.22-.37.45-.37h2.75c.07,0,.15-.07.15-.15-.07-.3-.15-.67-.15-.97,0-.07,0-.22-.15-.22h-3.79c-.59.07-1.04.22-1.41.67Zm5.94-.37c.45,2.52.89,5.12,1.34,7.65,0,.07.07.22.15.15h2.45c.07,0,.3,0,.3-.15.3-1.56.59-3.19.89-4.75.3,1.56.59,3.19.89,4.75,0,.15.15.15.22.15h2.52c.07,0,.15-.15.15-.22.45-2.38.89-4.83,1.26-7.2,0-.22.07-.37.07-.59-.07-.07-.15-.07-.3-.07h-2c-.07,0-.15.07-.15.15-.3,1.56-.52,3.12-.74,4.68-.3-1.56-.52-3.04-.82-4.6,0-.07,0-.22-.15-.15h-2.08c-.07.07,0,.22-.07.37-.3,1.49-.52,2.97-.82,4.46,0-.15,0-.3-.07-.45-.22-1.41-.45-2.82-.74-4.31,0-.07-.07-.15-.15-.15h-2.08c-.07.07-.07.22-.07.3h0Zm13.37,0v7.72c0,.07,0,.22.15.15h2.15c.07,0,.3,0,.3-.15v-3.19h2.08v3.19c0,.15.15.15.22.15h2.15c.07,0,.22,0,.15-.15v-7.8c0-.07-.07-.15-.15-.15h-2.23c-.15,0-.15.07-.15.22v3.04h-2.08v-3.04c0-.15-.15-.15-.22-.15h-2.23c-.15-.07-.15.07-.15.15Zm9.5-.15c-.52.07-.89.45-1.11.97-.37.74-.45,1.56-.45,2.38,0,.97,0,1.93.15,2.9.15.52.3,1.11.74,1.49.37.3.82.37,1.26.37h2.38c.45,0,.82,0,1.26-.07s.89-.45,1.11-.82c.37-.67.45-1.41.52-2.08.07-.97.07-1.86-.07-2.82-.07-.59-.22-1.26-.67-1.71-.3-.37-.82-.52-1.26-.52h-3.19c-.3-.15-.45-.15-.67-.07h0Zm6.68.15v7.72c0,.15.07.22.22.22h4.23c.07,0,.22,0,.22-.15v-1.34l-.07-.07h-2v-6.39c0-.07-.07-.22-.15-.22h-2.3c-.15,0-.15.07-.15.22Zm5.35,0v7.72c0,.07.07.22.15.15h3.86c.07,0,.22,0,.22-.07.15-.45.22-.82.3-1.26l-.07-.07h-2v-6.46c0-.15-.15-.15-.3-.15h-2.15c0-.07,0,.07,0,.15Zm6.91-.07c-.67,2.52-1.34,5.05-2,7.57,0,.07-.07.15,0,.22.07.07.22.07.3.07h2c.07,0,.15-.15.15-.22.15-.52.22-.97.37-1.49h2.15c.15.52.22,1.04.37,1.56,0,.15.15.15.22.15h2.15c.07-.07,0-.22,0-.3-.59-2.08-1.11-4.23-1.71-6.31-.15-.45-.22-.97-.37-1.41h-3.49c-.07,0-.07.07-.15.15Zm6.24.07v7.72c0,.07.07.22.15.15h2.15c.07,0,.22,0,.22-.15v-3.94c.82,1.26,1.56,2.6,2.3,3.94.07.07.07.15.22.15h1.93l.07-.07v-7.72c0-.07,0-.3-.15-.22h-2.3l-.07.07v4.01c-.82-1.34-1.56-2.67-2.3-3.94-.07-.15-.22-.07-.3-.07h-1.78c-.15-.15-.15,0-.15.07h0Zm8.24-.22c-.07.07-.07.15-.07.22v7.57c0,.07,0,.15.07.22h3.64c.52,0,1.04,0,1.49-.07.45-.15.89-.37,1.19-.74.37-.45.59-1.04.67-1.63.15-.67.15-1.41.15-2.08-.07-.67-.15-1.34-.37-1.93-.22-.45-.52-.89-.89-1.19-.37-.22-.82-.37-1.26-.37h-3.56c-.3,0-.67,0-1.04,0Zm-88.06,2.08c-.07,0-.15.15-.15.22-.07,1.11-.07,2.23.07,3.27.15,1.11.59,2.23,1.41,3.04.97.97,2.3,1.41,3.64,1.63.3,0,.67.15.97.07.22-.07.3-.3.22-.52-.15-1.19-.74-2.23-1.41-3.12-.59-.82-1.34-1.41-2-2.08-.82-.82-1.63-1.56-2.45-2.38-.07-.15-.22-.22-.3-.15Zm13.14,0c-.15.07-.22.22-.3.3-1.04.97-2,1.93-3.04,2.9-.67.67-1.26,1.41-1.78,2.15-.45.74-.89,1.63-.89,2.52,0,.3.37.37.59.3,1.04-.07,2-.3,2.97-.74s1.71-1.19,2.23-2.15c.45-.82.52-1.78.59-2.67.07-.82.07-1.63,0-2.52-.07-.07-.22-.15-.37-.07Zm42.99-.74c.15-.07.37,0,.52-.07h.74c.22.07.3.37.37.59.15.67.15,1.34.15,2.08,0,.67,0,1.41-.22,2.08-.07.22-.22.52-.45.52h-.97c-.3,0-.37-.3-.45-.52-.15-.59-.22-1.19-.22-1.86,0-.74,0-1.56.15-2.3.07-.07.15-.37.37-.52Zm34.45.07h1.26c.3,0,.45.3.59.52.22.52.3,1.11.3,1.71,0,.67-.07,1.34-.3,1.93-.15.37-.45.74-.82.97-.3.15-.67.15-1.04.15v-5.27Zm-15.82,3.42c.22-1.04.45-2,.74-3.04.22,1.04.45,2,.74,3.04h-1.49Z"/>
  <path class="cls-2" d="m67.81,104.85c11.73-.59,23.39-.89,35.12-.89,6.53,0,12.99.07,19.53.3,12.1.37,24.13,1.04,36.23,2.3-.3,1.78-.74,3.64-1.49,5.27-.45.89-.97,1.86-1.86,2.3-1.04.52-2.15.89-3.27,1.11-1.63.3-3.27.45-4.9.52-4.68.3-9.43.37-14.11.52-4.16.07-8.24.15-12.4.22-.82,0-1.56.07-2.38,0-.74.07-1.41,0-2.15,0-.82.07-1.63,0-2.45,0-.82.07-1.63,0-2.52,0-.59,0-1.26.07-1.86,0h-9.88c-1.93-.07-3.94,0-5.87,0-1.11-.07-2.15,0-3.27,0h-4.38c-.67-.07-1.26,0-1.93,0-.59-.07-1.26,0-1.86,0-3.71-.07-7.43-.15-11.14-.22-5.12-.15-10.25-.22-15.3-.59-1.41-.07-2.9-.22-4.31-.52-1.11-.22-2.15-.52-3.12-1.04-.45-.22-.82-.67-1.11-1.04-.45-.59-.74-1.34-1.04-2-.59-1.41-.89-2.97-1.19-4.46v-.07c7.65-.74,15.3-1.34,22.87-1.71Zm10.99,2.97c-.59.37-.97.89-1.19,1.56-.3.89-.15,1.93.37,2.75.52.67,1.34,1.11,2.15,1.19.97.07,1.86-.07,2.75-.45v-2.52h-2v.74h1.11v1.26c-.97.37-2.15.37-2.97-.3-.97-.74-1.04-2.38-.22-3.27.37-.45,1.04-.74,1.63-.74.82,0,1.56.22,2.23.59v-.82c-.37-.15-.82-.3-1.26-.45-.82-.22-1.78-.07-2.6.45Zm15.07.07c-.67.52-1.11,1.26-1.26,2.15-.07.67.07,1.41.52,2,.45.67,1.26,1.19,2.08,1.26.97.15,1.93,0,2.75-.52v-.89c-.59.37-1.34.67-2.08.67-.59,0-1.26-.15-1.71-.59-.89-.82-.97-2.45,0-3.27.37-.45.97-.59,1.56-.67.82-.07,1.56.22,2.23.59v-.89c-.37-.15-.82-.3-1.19-.37-1.04-.22-2.08-.07-2.9.52Zm-20.12-.52c-.82,2-1.71,3.94-2.52,5.94h.82c.22-.59.52-1.19.74-1.78h2.52c.22.52.45,1.04.74,1.56,0,.07.07.15.15.15h.82c-.89-2-1.78-3.94-2.67-5.94-.22.07-.37.07-.59.07Zm10.84,0v5.94h.82v-2.6c.3,0,.67,0,.97.15.3.22.52.45.67.74.37.52.74,1.11,1.11,1.71h.97c-.22-.3-.45-.59-.67-.89-.45-.67-.82-1.41-1.49-1.93.3-.15.52-.3.74-.52.37-.52.37-1.34,0-1.86-.3-.37-.74-.59-1.19-.67-.67-.15-1.34-.07-1.93-.07Zm5.64,0v5.94h.82v-5.94h-.82Zm9.13,0v3.27c0,.37,0,.74.07,1.11.15.52.52,1.04,1.04,1.26.67.37,1.41.37,2.08.3.59-.07,1.11-.37,1.49-.89.3-.45.45-1.04.45-1.56v-3.49h-.82v3.64c0,.45-.07.89-.37,1.19-.37.37-.89.45-1.41.45s-1.11-.22-1.41-.67c-.22-.3-.22-.67-.22-.97v-3.64h-.89Zm6.68,0v5.94h3.56v-.74h-2.67v-5.2h-.89Zm3.27,0v.74h2v5.2h.82v-5.2h2.08v-.74h-4.9Zm6.09,0v3.79c0,.52.22,1.11.59,1.49.45.45.97.67,1.56.67.59.07,1.26,0,1.78-.3.52-.22.89-.74,1.04-1.26.15-.52.07-1.11.15-1.71v-2.75h-.82v3.12c0,.45.07.89-.15,1.34-.15.37-.59.59-1.04.74-.59.15-1.26.07-1.71-.3-.22-.15-.45-.45-.45-.67-.07-.37-.07-.82-.07-1.19v-3.04c-.37.07-.67.07-.89.07Zm6.68,0v5.94h.82v-2.6c.22,0,.52,0,.74.07.37.15.67.52.89.89.37.52.74,1.11,1.11,1.63h.97c-.3-.45-.67-.89-.89-1.34-.3-.52-.67-1.11-1.19-1.49.22-.07.45-.22.59-.37.59-.59.52-1.71-.15-2.23-.45-.37-.97-.45-1.56-.45-.37-.07-.82-.07-1.34-.07Zm5.72,0v5.94h3.42v-.74h-2.6v-1.86h2.45v-.74h-2.45v-1.78h2.52v-.74c-1.11-.07-2.23-.07-3.34-.07Zm-42.4.74c.45,0,.97-.07,1.41.22.45.37.45,1.26-.15,1.49-.37.22-.89.15-1.26.15v-1.86Zm37.57,0c.45,0,.89-.07,1.26.15.52.22.59,1.11.15,1.49-.37.37-.97.22-1.49.3v-1.93h.07Zm-49.15.89c.07-.15.07-.22.15-.37.3.74.67,1.41.97,2.15h-1.86c.3-.59.52-1.19.74-1.78Z"/>
</svg>