<?xml version="1.0" encoding="UTF-8"?>
<svg xmlns="http://www.w3.org/2000/svg" version="1.1" xmlns:xlink="http://www.w3.org/1999/xlink" viewBox="0 0 200 200">
  <defs>
    <style>
      .cls-1 {
        fill: url(#linear-gradient-2);
      }

      .cls-2, .cls-3 {
        fill: #fff;
      }

      .cls-3 {
        fill-rule: evenodd;
      }

      .cls-4 {
        fill: url(#linear-gradient-3);
      }

      .cls-5 {
        fill: url(#linear-gradient);
      }
    </style>
    <linearGradient id="linear-gradient" x1="100" y1="87.8" x2="100" y2="120.3" gradientTransform="translate(0 197.7) scale(1 -1)" gradientUnits="userSpaceOnUse">
      <stop offset="0" stop-color="#fab20b"/>
      <stop offset=".1" stop-color="#fab20b"/>
      <stop offset=".6" stop-color="#fffccc"/>
      <stop offset="1" stop-color="#fff200"/>
    </linearGradient>
    <linearGradient id="linear-gradient-2" x1="180.2" y1="66.6" x2="129.4" y2="77.2" gradientTransform="translate(0 197.7) scale(1 -1)" gradientUnits="userSpaceOnUse">
      <stop offset="0" stop-color="#676767"/>
      <stop offset="1" stop-color="#000"/>
    </linearGradient>
    <linearGradient id="linear-gradient-3" x1="100.5" y1="113.2" x2="100.5" y2="95.1" gradientTransform="translate(0 197.7) scale(1 -1)" gradientUnits="userSpaceOnUse">
      <stop offset="0" stop-color="#585858"/>
      <stop offset="1" stop-color="#000"/>
    </linearGradient>
  </defs>
  <!-- Generator: Adobe Illustrator 28.7.3, SVG Export Plug-In . SVG Version: 1.2.0 Build 164)  -->
  <g>
    <g id="Layer_1">
      <rect y="0" width="200" height="200"/>
      <g>
        <path class="cls-5" d="M92.9,77.4c-.2,0-.3,0-.5,0-.8,0-1.6,0-2.3,0-.7,0-1.4,0-2.1,0-.8,0-1.6,0-2.3,0-.4,0-.9,0-1.3,0-.6,0-1.2,0-1.8,0-.6,0-1.2,0-1.8,0-.7,0-1.4,0-2.1,0-.6,0-1.3,0-1.9,0-.4,0-.8,0-1.2,0-.4,0-.7,0-1.1,0-7.5,0-15,.2-22.5.5-4.1.2-8.3.3-12.4.6-2.1.2-4.1.5-6.1,1.2-.6.2-1.2.5-1.7.9-.8.7-1.4,1.6-1.8,2.5-.8,1.7-1.3,3.5-1.7,5.3-.8,3.8-1.1,7.7-1.1,11.6,0,3.2.3,6.4.8,9.6h0c9.6-1.1,19.2-1.8,28.9-2.3,14.8-.8,29.7-1.1,44.5-1.1,8.3,0,16.5.1,24.8.4,15.3.5,30.6,1.3,45.9,2.9.7-3.9.9-7.8.8-11.7-.1-3.7-.5-7.5-1.5-11.1-.4-1.3-.8-2.6-1.4-3.9-.4-.8-.8-1.5-1.4-2.1-.4-.4-1-.7-1.6-.9-1.2-.5-2.4-.8-3.7-1-2-.4-4-.5-6-.6-7.9-.4-15.9-.6-23.8-.8-3.2,0-6.5-.1-9.7-.1-.4,0-.8,0-1.3,0-.5,0-.9,0-1.4,0-.7,0-1.3,0-2,0-.6,0-1.2,0-1.8,0-.5,0-.9,0-1.4,0-.5,0-1,0-1.5,0-.6,0-1.2,0-1.8,0-.6,0-1.1,0-1.7,0-.5,0-1,0-1.6,0-.6,0-1.2,0-1.8,0-.2,0-.3,0-.5,0h-14.2ZM47.6,90.5c-1.5-1.4-2.9-2.8-4.4-4.2-.1-.1-.2-.3-.1-.4.1-.2.4-.3.6-.5,1-.4,2.1-.7,3.2-.8.3,0,.6-.1.9,0,.2,0,.3.3.3.5.1,1.7.1,3.4.1,5.2,0,.2,0,.4-.2.4,0,0,0,0,0,0-.1,0-.2,0-.3-.1ZM49.3,90.3c0-1.7,0-3.5.1-5.2,0-.2,0-.4.2-.5.2,0,.4,0,.6,0,1.2.1,2.4.4,3.5.8.2.1.5.2.6.5,0,.2,0,.4-.2.5-1.3,1.3-2.6,2.5-3.9,3.8-.2.2-.4.4-.6.6,0,0,0,0,0,0-.2,0-.3-.2-.3-.4ZM47.6,97.6c-2.2-2.2-4.5-4.3-6.7-6.5-.2-.2-.4-.4-.5-.6-.1-.3,0-.7,0-1,.2-.7.5-1.5.9-2.1.2-.2.3-.4.6-.6.2,0,.4,0,.6.2,1,1,2,1.9,2.9,2.9.8.9,1.6,1.8,2,2.9.4,1,.7,2,.7,3,0,.6,0,1.2,0,1.7,0,.1-.1.2-.3.2s-.2,0-.2-.1ZM49.4,97.6c0-.2,0-.3,0-.5,0-.9,0-1.8.2-2.7.3-1.1.7-2.2,1.4-3.1.5-.8,1.2-1.5,1.9-2.1.7-.6,1.3-1.3,2-1.9.1-.1.3-.3.4-.4.3-.1.6,0,.7.3.4.5.7,1.1.9,1.7.2.5.3.9.3,1.4,0,.3-.2.5-.4.7-2.3,2.2-4.6,4.4-6.9,6.6,0,0-.1,0-.2,0s-.2,0-.2-.1ZM100.4,89.6c.1,0,.3,0,.3.2,0,1.3,0,2.6,0,3.9h2.6c0-1.3,0-2.5,0-3.8,0-.1,0-.3.2-.2.9,0,1.9,0,2.8,0,.1,0,.2,0,.2.2,0,3.3,0,6.6,0,9.9,0,.1-.1.2-.2.2-.9,0-1.8,0-2.7,0-.1,0-.3,0-.3-.2,0-1.3,0-2.7,0-4-.9,0-1.7,0-2.6,0,0,1.3,0,2.7,0,4,0,.2-.2.2-.3.2,0,0,0,0,0,0-.4,0-.8,0-1.2,0-.5,0-1,0-1.6,0-.1,0-.2-.1-.2-.2,0-3.2,0-6.5,0-9.7,0,0,0-.3.1-.2.5,0,1.1,0,1.6,0,.2,0,.4,0,.6,0s.4,0,.6,0ZM151.9,99.8c0,0,0-.2,0-.3,0-3.2,0-6.4,0-9.6,0,0,0-.2,0-.3.3,0,.6,0,.8,0,.2,0,.4,0,.5,0,1.5,0,3,0,4.5,0,.6,0,1.1.1,1.6.5.5.4.9.9,1.2,1.5.3.8.4,1.6.5,2.4,0,.9,0,1.8-.1,2.7-.1.7-.4,1.5-.9,2.1-.4.5-.9.8-1.5,1-.5.1-1,.1-1.5.1-.1,0-.3,0-.4,0h-4.2s0,0-.1,0c0,0,0,0,0,0,0,0-.2,0-.3,0ZM147.2,89.7s0,0,0,0c1,0,2,0,2.9,0,.2,0,.2.2.2.3,0,3.3,0,6.5,0,9.8,0,0,0,0,0,0-.5,0-1.1,0-1.6,0-.3,0-.6,0-.9,0-.1,0-.2,0-.3-.2-1-1.6-1.9-3.3-2.9-4.9,0,1.6,0,3.3,0,4.9,0,.2-.2.2-.3.2-.4,0-.8,0-1.3,0-.5,0-1,0-1.5,0-.1,0-.2,0-.2-.2v-9.7c0,0,0-.2.1-.2.4,0,.9,0,1.3,0,.3,0,.6,0,1,0,0,0,0,0,.1,0,.1,0,.3,0,.3.1,1,1.7,2,3.3,2.9,5,0-1.7,0-3.4,0-5ZM85.5,90c0-.2,0-.3.1-.5.6,0,1.2,0,1.8,0,.3,0,.6,0,.9,0,.1,0,.2.1.2.2.3,1.9.7,3.9,1,5.8.4-2,.6-3.9,1-5.9,0,0,0-.2.2-.2.4,0,.8,0,1.3,0,.4,0,.8,0,1.2,0,0,0,0,0,0,0,0,0,.2,0,.2,0,0,.3,0,.5-.1.8-.5,3-1.1,6.1-1.6,9.1,0,0,0,.3-.2.2-.7,0-1.4,0-2,0-.4,0-.8,0-1.1,0-.1,0-.3,0-.3-.2-.4-2-.7-4-1.1-6.1-.4,2-.7,4-1.1,6.1,0,.2-.2.2-.3.2,0,0,0,0,0,0-.4,0-.9,0-1.3,0-.6,0-1.2,0-1.8,0-.1,0-.2-.1-.2-.2-.6-3.2-1.1-6.4-1.7-9.7,0-.1,0-.3.1-.3.9,0,1.8,0,2.7,0,.1,0,.2,0,.2.2.3,1.8.6,3.6.9,5.4,0,.2,0,.4,0,.5.4-1.9.7-3.8,1-5.6ZM137.6,89.6s0,0,.1,0c.1,0,.3,0,.4,0,.2.6.3,1.2.5,1.8.7,2.7,1.4,5.4,2.1,8,0,.1,0,.3,0,.4,0,0-.2,0-.2,0,0,0,0,0-.1,0-.8,0-1.6,0-2.3,0-.1,0-.3,0-.3-.2-.2-.6-.3-1.3-.5-1.9-.4,0-.9,0-1.3,0-.5,0-.9,0-1.4,0-.2.6-.3,1.2-.4,1.9,0,0,0,.3-.2.2-.5,0-1,0-1.5,0-.4,0-.7,0-1.1,0,0,0,0,0-.1,0-.1,0-.2,0-.3,0,0-.1,0-.2,0-.3.8-3.2,1.7-6.4,2.5-9.6,0,0,0-.2.2-.2.7,0,1.3,0,2,0,.3,0,.5,0,.8,0s.7,0,1.1,0ZM127.6,89.6s0,0,0,0c.1,0,.3,0,.3.2,0,2.7,0,5.4,0,8.2.3,0,.7,0,1,0,.5,0,1,0,1.6,0,0,0,0,0,0,.1-.1.5-.3,1.1-.4,1.6,0,.2-.2.1-.3.1-.8,0-1.5,0-2.3,0-.9,0-1.8,0-2.6,0-.1,0-.2,0-.2-.2,0-3.2,0-6.5,0-9.7,0,0,0-.2.1-.2.5,0,1,0,1.6,0,.2,0,.4,0,.6,0s.4,0,.6,0ZM108.7,99.3c-.6-.5-.8-1.2-1-1.9-.3-1.2-.3-2.4-.2-3.6,0-1,.1-2.1.6-3,.3-.6.8-1.1,1.4-1.2.2,0,.5,0,.7,0,1.4,0,2.7,0,4.1,0,.6,0,1.2.2,1.6.7.5.6.7,1.4.9,2.2.2,1.2.2,2.4,0,3.6,0,.9-.2,1.9-.7,2.7-.3.5-.8.9-1.4,1-.4,0-.8,0-1.1,0-.2,0-.3,0-.5,0h-3s0,0,0,0c-.5,0-1.1-.1-1.5-.5ZM76.7,89.6c.9,0,1.9,0,2.8,0,.1,0,.1.2.2.2,0,.4.2.8.2,1.2,0,0,0,.2-.1.2-.6,0-1.2,0-1.8,0-.6,0-1.1,0-1.7,0-.3,0-.5.3-.6.5-.2.6-.3,1.3-.3,1.9.6,0,1.1,0,1.7,0,.8,0,1.5,0,2.3,0,.1,0,.1.2.1.2,0,.5,0,1,0,1.5,0,.1-.2.1-.3.1-1.3,0-2.5,0-3.8,0,0,.6,0,1.3.3,1.9,0,.2.3.5.6.5.7,0,1.3,0,2,0,.5,0,.9,0,1.4,0,.1,0,.3,0,.3.1,0,.5,0,1.1,0,1.6,0,.2-.2.2-.3.2-1.6,0-3.3,0-4.9,0-.6,0-1.3-.2-1.7-.8-.6-.7-.7-1.7-.8-2.6-.1-1.2-.1-2.5,0-3.7.1-.9.3-1.8.9-2.5.4-.5,1.1-.7,1.7-.7.3,0,.6,0,.9,0s.7,0,1,0ZM121.2,89.8c0,2.7,0,5.4,0,8.1.3,0,.6,0,1,0,.5,0,1.1,0,1.6,0,0,0,0,0,0,0,0,.6,0,1.1,0,1.7,0,.2-.2.2-.3.2-1.8,0-3.6,0-5.4,0-.1,0-.3,0-.2-.2,0-3.2,0-6.5,0-9.7,0,0,0-.3.2-.2,1,0,1.9,0,2.9,0,.1,0,.2.1.2.2ZM67.9,89.8c0-.1.1-.2.2-.2.3,0,.7,0,1,0,.6,0,1.2,0,1.8,0,.1,0,.1.2.1.3,0,3.2,0,6.5,0,9.7,0,.1,0,.2-.2.2-.3,0-.6,0-.9,0-.5,0-1.1,0-1.6,0-.4-.6-.7-1.2-1.1-1.8-.6-1.1-1.3-2.2-1.9-3.3,0,1.6,0,3.3,0,4.9,0,.1,0,.2-.2.2-1,0-1.9,0-2.9,0-.1,0-.1-.2-.1-.3,0-3.2,0-6.4,0-9.7s0-.3.1-.3c.4,0,.9,0,1.3,0,.3,0,.7,0,1,0,0,0,0,0,0,0,.1,0,.3,0,.3.1,1,1.7,2,3.3,2.9,5,0-1.6,0-3.3,0-4.9ZM46.5,102.5c-1.7-.2-3.4-.8-4.6-2-1-1-1.6-2.4-1.8-3.8-.2-1.4-.2-2.8-.1-4.2,0-.1,0-.3.2-.3.1,0,.3,0,.4.1,1,1,2.1,2,3.1,3,.9.9,1.8,1.7,2.5,2.7.9,1.2,1.7,2.5,1.8,4,0,.2,0,.5-.3.6-.1,0-.3,0-.4,0-.3,0-.6,0-.9,0ZM49.3,102.2c0-1.1.5-2.2,1.1-3.2.6-1,1.4-1.9,2.3-2.8,1.3-1.2,2.6-2.5,3.8-3.7.1-.1.2-.3.4-.4.1-.1.4,0,.4.2.1,1,0,2.1,0,3.2,0,1.2-.2,2.4-.8,3.4-.6,1.2-1.6,2.2-2.8,2.7-1.2.6-2.4.8-3.7.9,0,0,0,0-.1,0-.3,0-.6-.1-.6-.4ZM112.4,91.2c-.1,0-.2,0-.3,0,0,0-.1,0-.2,0-.2,0-.3,0-.4,0-.3.2-.4.5-.5.8-.2.9-.2,1.9-.2,2.9,0,.8,0,1.6.3,2.3,0,.3.3.6.6.6.4,0,.8,0,1.2,0,.3,0,.5-.4.6-.6.3-.9.2-1.7.3-2.6,0-.9,0-1.8-.2-2.6,0-.3-.2-.6-.5-.8-.1,0-.3,0-.4,0s-.1,0-.2,0ZM155,98c.4,0,.9,0,1.3-.1.5-.2.9-.7,1.1-1.2.3-.8.4-1.6.4-2.5,0-.7,0-1.5-.4-2.2-.1-.3-.4-.6-.8-.6-.3,0-.6,0-.9,0-.2,0-.5,0-.7,0,0,2.2,0,4.4,0,6.7ZM135,95.7c.4,0,.8,0,1.2,0,.2,0,.4,0,.7,0-.3-1.3-.6-2.6-.9-3.9-.3,1.3-.6,2.6-.9,3.9Z"/>
        <path class="cls-1" d="M56.9,107.6c-9.6.5-19.3,1.2-28.9,2.2h0c.3,2,.8,3.9,1.5,5.8.4.9.8,1.8,1.3,2.5.4.5.8,1,1.4,1.4,1.2.7,2.6,1.1,4,1.3,1.8.4,3.6.5,5.4.6,6.5.4,19.4.7,19.4.7,0,0,9.4.2,14.1.2.4,0,.7,0,1.1,0,.4,0,.8,0,1.2,0,.3,0,.6,0,.8,0,.5,0,1.1,0,1.6,0,.7,0,1.4,0,2.1,0,.6,0,1.2,0,1.8,0,.1,0,.3,0,.4,0,.4,0,.8,0,1.2,0,.6,0,1.1,0,1.7,0,.8,0,1.7,0,2.5,0,.9,0,1.7,0,2.6,0,1.6,0,3.3,0,4.9,0,2,0,3.9,0,5.9,0,1.5,0,3,0,4.4,0,.7,0,1.4,0,2.1,0,.4,0,.8,0,1.2,0,.4,0,.8,0,1.2,0,.4,0,.8,0,1.1,0,.7,0,1.4,0,2,0,.4,0,.8,0,1.1,0,.7,0,1.3,0,2,0,.3,0,.6,0,.9,0,.6,0,1.2,0,1.9,0,.6,0,1.1,0,1.7,0,.4,0,.9,0,1.3,0,5.2,0,10.5-.2,15.7-.3,6-.2,11.9-.3,17.9-.7,2.1-.1,4.2-.2,6.2-.6,1.4-.3,2.8-.7,4.1-1.4,1.1-.6,1.8-1.8,2.3-2.9,1-2.1,1.5-4.4,1.9-6.7-15.2-1.5-30.6-2.4-45.9-2.9-8.2-.3-16.5-.4-24.8-.4-.6,0-1.2,0-1.8,0-14.2,0-28.5.3-42.7,1.1Z"/>
        <path class="cls-4" d="M46.8,84.5c-1.1.1-2.2.4-3.2.8-.2.1-.5.2-.6.5,0,.2,0,.3.1.4,1.5,1.4,2.9,2.8,4.4,4.2,0,.1.2.2.4.1.2,0,.2-.3.2-.4,0-1.7,0-3.4-.1-5.2,0-.2,0-.4-.3-.5-.1,0-.2,0-.3,0-.2,0-.4,0-.5,0ZM49.7,84.6c-.2,0-.2.3-.2.5-.1,1.7-.1,3.5-.1,5.2,0,.2.1.4.4.4.2-.1.4-.4.6-.6,1.3-1.3,2.6-2.5,3.9-3.8.1-.1.2-.3.2-.5-.1-.2-.4-.4-.6-.5-1.1-.5-2.3-.7-3.5-.8,0,0-.2,0-.2,0s-.2,0-.3,0ZM41.9,86.8c-.3.1-.4.3-.6.6-.4.6-.7,1.4-.9,2.1,0,.3-.1.7,0,1,0,.3.3.4.5.6,2.2,2.2,4.5,4.3,6.7,6.5.1.2.4.1.5,0,0-.6,0-1.2,0-1.7,0-1-.3-2.1-.7-3-.5-1.1-1.2-2.1-2-2.9-1-1-2-1.9-2.9-2.9-.1-.1-.3-.2-.4-.2s-.1,0-.2,0ZM55.2,86.8c-.2,0-.3.2-.4.4-.7.6-1.3,1.3-2,1.9-.7.6-1.3,1.3-1.9,2.1-.7.9-1.1,2-1.4,3.1-.2.9-.2,1.8-.2,2.7,0,.2,0,.3,0,.5,0,.2.3.2.4,0,2.3-2.2,4.6-4.4,6.9-6.6.2-.2.4-.4.4-.7,0-.5-.1-1-.3-1.4-.2-.6-.5-1.2-.9-1.7-.1-.2-.3-.3-.5-.3s-.1,0-.2,0ZM100.4,89.6c-.4,0-.8,0-1.2,0-.5,0-1.1,0-1.6,0-.1,0-.2.1-.1.2,0,3.2,0,6.5,0,9.7,0,.1,0,.2.2.2.5,0,1,0,1.6,0,.4,0,.8,0,1.2,0,0,0,0,0,0,0,.1,0,.3,0,.3-.2,0-1.3,0-2.7,0-4,.9,0,1.7,0,2.6,0,0,1.3,0,2.7,0,4,0,.1.2.2.3.2.9,0,1.8,0,2.7,0,0,0,.2,0,.2-.2,0-3.3,0-6.6,0-9.9,0-.1-.1-.2-.2-.2-.9,0-1.9,0-2.8,0-.1,0-.2.1-.2.2,0,1.3,0,2.5,0,3.8h-2.6c0-1.3,0-2.6,0-3.9,0-.1-.1-.2-.2-.2s0,0,0,0ZM151.9,89.6c0,0,0,.2,0,.3,0,3.2,0,6.4,0,9.6,0,.1,0,.2,0,.3.1,0,.3,0,.4,0,0,0,0,0,.1,0h4.2c.1,0,.3,0,.4,0,.5,0,1,0,1.5-.1.6-.2,1.1-.5,1.5-1,.5-.6.7-1.3.9-2.1.2-.9.2-1.8.1-2.7,0-.8-.2-1.7-.5-2.4-.2-.6-.6-1.1-1.2-1.5-.5-.3-1-.5-1.6-.5-1.5,0-3,0-4.5,0-.2,0-.4,0-.5,0-.1,0-.2,0-.3,0-.2,0-.4,0-.5,0ZM155,98c0-2.2,0-4.4,0-6.7.2,0,.5,0,.7,0,.3,0,.6,0,.9,0,.4,0,.6.3.8.6.3.7.4,1.5.4,2.2,0,.8,0,1.7-.4,2.5-.2.5-.5,1-1.1,1.2-.3.1-.6.1-1,.1s-.2,0-.3,0ZM147.3,89.6s0,0,0,0c0,1.7,0,3.4,0,5-1-1.7-2-3.3-2.9-5,0-.1-.2-.1-.3-.1,0,0,0,0-.1,0-.3,0-.6,0-1,0-.4,0-.9,0-1.3,0-.1,0-.1.1-.1.2v9.7c0,.1,0,.3.2.2.5,0,1,0,1.5,0,.4,0,.8,0,1.3,0,.1,0,.3,0,.3-.2,0-1.6,0-3.3,0-4.9,1,1.6,1.9,3.3,2.9,4.9,0,.1.1.2.3.2.3,0,.6,0,.9,0,.5,0,1.1,0,1.6,0,0,0,0,0,0,0,0-3.3,0-6.5,0-9.8,0-.1,0-.3-.2-.3-.6,0-1.1,0-1.7,0s-.9,0-1.3,0ZM85.7,89.6c-.1.1,0,.3-.1.5-.3,1.9-.7,3.8-1,5.6,0-.2,0-.4,0-.5-.3-1.8-.6-3.6-.9-5.4,0-.1,0-.2-.2-.2-.9,0-1.8,0-2.7,0-.2,0-.2.2-.1.3.6,3.2,1.2,6.4,1.7,9.7,0,.1,0,.3.2.2.6,0,1.2,0,1.8,0,.4,0,.9,0,1.3,0,0,0,0,0,0,0,.1,0,.3,0,.3-.2.4-2,.7-4.1,1.1-6.1.4,2,.7,4,1.1,6.1,0,.2.2.2.3.2.4,0,.8,0,1.1,0,.7,0,1.4,0,2,0,.1,0,.2-.1.2-.2.5-3,1.1-6.1,1.6-9.1,0-.3.1-.5.1-.8,0,0-.1,0-.2,0,0,0,0,0,0,0-.4,0-.8,0-1.2,0-.4,0-.8,0-1.3,0-.1,0-.2,0-.2.2-.3,2-.6,3.9-1,5.9-.4-1.9-.7-3.9-1-5.8,0-.1,0-.3-.2-.2-.3,0-.6,0-.9,0-.2,0-.4,0-.7,0-.4,0-.7,0-1.1,0ZM135.7,89.6c-.7,0-1.3,0-2,0-.1,0-.2,0-.2.2-.8,3.2-1.7,6.4-2.5,9.6,0,.1,0,.2,0,.3,0,.1.2.1.3,0,0,0,0,0,.1,0,.4,0,.7,0,1.1,0,.5,0,1,0,1.5,0,.1,0,.1-.1.2-.2.1-.6.3-1.2.4-1.9.5,0,.9,0,1.4,0,.4,0,.9,0,1.3,0,.2.6.3,1.3.5,1.9,0,.2.2.1.3.2.8,0,1.6,0,2.3,0,0,0,0,0,.1,0,0,0,.2,0,.2,0,.1,0,0-.2,0-.4-.7-2.7-1.4-5.4-2.1-8-.2-.6-.3-1.2-.5-1.8-.1,0-.3,0-.4,0,0,0,0,0-.1,0-.6,0-1.3,0-1.9,0ZM135.9,91.8c.3,1.3.6,2.6.9,3.9-.2,0-.4,0-.7,0-.4,0-.8,0-1.2,0,.3-1.3.6-2.6.9-3.9ZM126.4,89.6c-.5,0-1,0-1.5,0-.1,0-.1.1-.1.2,0,3.2,0,6.5,0,9.7,0,.1,0,.3.2.2.9,0,1.8,0,2.6,0,.8,0,1.5,0,2.3,0,.1,0,.3,0,.3-.1.1-.5.3-1.1.4-1.6,0,0,0,0,0-.1-.5,0-1,0-1.6,0-.3,0-.7,0-1,0,0-2.7,0-5.4,0-8.2,0-.2-.2-.2-.3-.2,0,0,0,0,0,0-.4,0-.8,0-1.2,0ZM109.6,89.6c-.6.1-1.2.6-1.4,1.2-.4.9-.5,2-.6,3,0,1.2,0,2.4.2,3.6.2.7.4,1.4,1,1.9.4.4,1,.5,1.6.5h3c.2,0,.3,0,.5,0,.4,0,.8,0,1.1,0,.6-.1,1.1-.5,1.4-1,.5-.8.6-1.8.7-2.7,0-1.2,0-2.4,0-3.6-.1-.8-.3-1.6-.9-2.2-.4-.5-1-.7-1.6-.7-1.4,0-2.7,0-4.1,0-.2,0-.5,0-.7,0ZM112.4,91.2c.2,0,.4,0,.6,0,.3.1.4.5.5.8.2.8.2,1.7.2,2.6,0,.9,0,1.8-.3,2.6,0,.3-.3.6-.6.6-.4,0-.8,0-1.2,0-.3,0-.5-.4-.6-.6-.2-.8-.3-1.5-.3-2.3,0-1,0-1.9.2-2.9,0-.3.2-.6.5-.8.1,0,.3,0,.4,0,0,0,.1,0,.2,0,0,0,0,0,.1,0,0,0,.1,0,.2,0ZM76.7,89.6c-.7,0-1.3,0-2,0-.6,0-1.3.2-1.7.7-.6.7-.7,1.6-.9,2.5-.1,1.2-.1,2.5,0,3.7.1.9.3,1.8.8,2.6.4.5,1.1.8,1.7.8,1.6,0,3.3,0,4.9,0,.1,0,.3,0,.3-.2,0-.5,0-1,0-1.6,0-.1-.2-.1-.3-.1-.5,0-.9,0-1.4,0-.7,0-1.3,0-2,0-.3,0-.5-.3-.6-.5-.2-.6-.3-1.3-.3-1.9,1.3,0,2.5,0,3.8,0,0,0,.3,0,.3-.1,0-.5,0-1,0-1.5,0,0,0-.3-.1-.2-.8,0-1.5,0-2.3,0-.6,0-1.1,0-1.7,0,0-.6,0-1.3.3-1.9,0-.2.3-.5.6-.5.6,0,1.1,0,1.7,0,.6,0,1.2,0,1.8,0,.1,0,.2-.1.1-.2,0-.4-.1-.8-.2-1.2,0,0,0-.3-.2-.2-.6,0-1.1,0-1.7,0s-.7,0-1.1,0ZM121,89.6c-1,0-1.9,0-2.9,0-.1,0-.2.1-.2.2,0,3.2,0,6.5,0,9.7,0,.1,0,.3.2.2,1.8,0,3.6,0,5.4,0,.1,0,.3,0,.3-.2,0-.6,0-1.1,0-1.7,0,0,0,0,0,0-.5,0-1.1,0-1.6,0-.3,0-.6,0-1,0,0-2.7,0-5.4,0-8.1,0-.1,0-.2-.2-.2s0,0,0,0ZM67.9,89.8c0,1.6,0,3.3,0,4.9-1-1.7-2-3.3-2.9-5,0-.1-.2-.1-.3-.1,0,0,0,0,0,0-.3,0-.7,0-1,0-.4,0-.9,0-1.3,0-.1,0-.1.2-.1.3,0,3.2,0,6.4,0,9.7,0,0,0,.3.1.3,1,0,1.9,0,2.9,0,.1,0,.2,0,.2-.2,0-1.6,0-3.3,0-4.9.6,1.1,1.3,2.2,1.9,3.3.4.6.7,1.3,1.1,1.8.5,0,1.1,0,1.6,0,.3,0,.6,0,.9,0,.1,0,.2,0,.2-.2,0-3.2,0-6.5,0-9.7,0,0,0-.3-.1-.3-.6,0-1.2,0-1.8,0-.3,0-.7,0-1,0,0,0,0,0,0,0-.1,0-.2,0-.2.2ZM40.3,92.2c-.1,0-.2.2-.2.3-.1,1.4,0,2.8.1,4.2.2,1.4.7,2.8,1.8,3.8,1.2,1.2,2.9,1.8,4.6,2,.4,0,.9.2,1.3,0,.3,0,.3-.4.3-.6-.2-1.5-1-2.8-1.8-4-.7-1-1.6-1.8-2.5-2.7-1-1-2.1-2-3.1-3,0,0-.2-.2-.3-.2s0,0,0,0ZM57,92.2c-.1.1-.3.2-.4.4-1.3,1.2-2.6,2.5-3.8,3.7-.9.8-1.6,1.8-2.3,2.8-.6,1-1.1,2-1.1,3.2,0,.4.4.5.7.4,1.3-.1,2.6-.4,3.7-.9,1.2-.6,2.2-1.5,2.8-2.7.5-1.1.7-2.2.8-3.4,0-1.1.1-2.1,0-3.2,0-.1-.1-.2-.2-.2s0,0-.1,0Z"/>
        <path class="cls-3" d="M95.1,111.6c.5,0,1.1,0,1.6.2.7.3.7,1.4.2,1.9-.5.4-1.2.3-1.9.3v-2.4ZM94,110.6c0,2.5,0,5,0,7.6h1.1v-3.3c.3,0,.7,0,1,.1.5.2.8.7,1.1,1.1.5.7.9,1.4,1.4,2.1.4,0,.8,0,1.3,0-.4-.6-.8-1.1-1.2-1.7-.4-.7-.9-1.4-1.6-1.9.3-.1.5-.3.8-.5.7-.8.7-2.2-.2-2.9-.5-.5-1.3-.6-2-.6-.6,0-1.2,0-1.8,0Z"/>
        <path class="cls-2" d="M122.9,118.2c0-2.5,0-5,0-7.6.4,0,.7,0,1.1,0,0,2.5,0,5,0,7.6-.4,0-.7,0-1.1,0Z"/>
        <path class="cls-2" d="M86.4,111.6c0-.3,0-.6,0-1,2.1,0,4.2,0,6.3,0,0,.3,0,.6,0,1-.9,0-1.7,0-2.6,0,0,2.2,0,4.4,0,6.6h-1.1v-6.6h-2.6Z"/>
        <path class="cls-2" d="M115.6,111.6c0-.3,0-.6,0-1,2.1,0,4.2,0,6.3,0,0,.3,0,.6,0,1-.9,0-1.7,0-2.6,0,0,2.2,0,4.4,0,6.6h-1.1v-6.6h-2.6Z"/>
        <path class="cls-2" d="M56.1,114c.1-1,.7-2,1.5-2.6,1-.7,2.3-.9,3.5-.6.5.1,1,.3,1.5.5,0,.4,0,.7,0,1.1-.8-.5-1.8-.8-2.8-.8-.7,0-1.4.3-1.9.8-1.1,1-1.1,3.1,0,4.1.6.5,1.4.8,2.2.7.9,0,1.8-.3,2.6-.8,0,.4,0,.7,0,1.1-1,.6-2.3.8-3.5.6-1-.1-2-.7-2.6-1.6-.5-.7-.7-1.6-.6-2.5Z"/>
        <path class="cls-2" d="M108.3,114c.1-1,.7-2,1.5-2.6,1-.7,2.3-.9,3.5-.6.5.1,1,.3,1.5.5,0,.4,0,.7,0,1.1-.8-.5-1.8-.8-2.8-.8-.7,0-1.4.3-1.9.8-1.1,1-1.1,3.1,0,4.1.6.5,1.4.8,2.2.7.9,0,1.8-.3,2.6-.8,0,.4,0,.7,0,1.1-1,.6-2.3.8-3.5.6-1-.1-2-.7-2.6-1.6-.5-.7-.7-1.6-.6-2.5Z"/>
        <path class="cls-2" d="M100.4,114.7c0-1.4,0-2.7,0-4.1.3,0,.7,0,1,0,0,1.5,0,3,0,4.5,0,.4,0,.9.3,1.2.4.6,1.1.9,1.8.8.6,0,1.3-.2,1.8-.6.4-.4.5-.9.5-1.5,0-1.4,0-2.9,0-4.3,0,0,0-.1,0-.2.3,0,.7,0,1,0,0,1.5,0,2.9,0,4.4,0,.7-.1,1.4-.5,2-.4.6-1.1,1-1.9,1.1-.9.2-1.8,0-2.6-.3-.6-.3-1.1-.9-1.3-1.6-.1-.5,0-1,0-1.4Z"/>
        <path class="cls-2" d="M73.6,118.2h.9v-6l5.1,6h.9v-7.6h-.9v6l-5.1-6h-.9v7.6Z"/>
        <path class="cls-2" d="M135.2,118.2h.9v-6l5.1,6h.9v-7.6h-.9v6l-5.1-6h-.9v7.6Z"/>
        <path class="cls-2" d="M82.3,116.8c.5.4,1,.6,1.7.6s.6-.1.8-.4c.2-.2.3-.6.3-.9s-.1-.7-.3-.9c-.2-.2-.4-.4-.7-.5h-.3c-.5-.3-.9-.5-1.1-.7-.2-.2-.3-.3-.4-.4-.2-.3-.3-.7-.3-1.1s.2-1.1.6-1.4c.4-.3.9-.5,1.5-.5s1.3.2,1.8.5l-.3.7c-.4-.3-.9-.5-1.4-.5s-.6.1-.8.3c-.2.2-.3.5-.3.9s.2.7.6.9c.1,0,.4.2.6.3.3.1.6.3.9.4.3.2.5.4.7.7s.3.6.3,1.1c0,.7-.2,1.2-.6,1.6-.4.4-.9.5-1.5.5s-1.5-.2-2-.6l.3-.8Z"/>
        <path class="cls-3" d="M68,118.2c2.1,0,3.8-1.7,3.8-3.8s-1.7-3.8-3.8-3.8-3.8,1.7-3.8,3.8,1.7,3.8,3.8,3.8ZM68,117.3c1.6,0,2.9-1.3,2.9-2.9s-1.3-2.9-2.9-2.9-2.9,1.3-2.9,2.9,1.3,2.9,2.9,2.9Z"/>
        <path class="cls-3" d="M129.6,118.2c2.1,0,3.8-1.7,3.8-3.8s-1.7-3.8-3.8-3.8-3.8,1.7-3.8,3.8,1.7,3.8,3.8,3.8ZM129.6,117.3c1.6,0,2.9-1.3,2.9-2.9s-1.3-2.9-2.9-2.9-2.9,1.3-2.9,2.9,1.3,2.9,2.9,2.9Z"/>
      </g>
    </g>
  </g>
</svg>