<?xml version="1.0" encoding="UTF-8"?>
<svg xmlns="http://www.w3.org/2000/svg" version="1.1" xmlns:xlink="http://www.w3.org/1999/xlink" viewBox="0 0 200 200">
  <defs>
    <style>
      .cls-1 {
        fill: url(#linear-gradient-2);
      }

      .cls-2 {
        fill: #fff;
        fill-rule: evenodd;
      }

      .cls-3 {
        fill: url(#linear-gradient-3);
      }

      .cls-4 {
        fill: url(#linear-gradient);
      }

      .cls-5 {
        fill: #0050c4;
      }
    </style>
    <linearGradient id="linear-gradient" x1="102.7" y1="92.4" x2="102.7" y2="124.5" gradientTransform="translate(0 197.7) scale(1 -1)" gradientUnits="userSpaceOnUse">
      <stop offset="0" stop-color="#fab20b"/>
      <stop offset=".1" stop-color="#fab20b"/>
      <stop offset=".6" stop-color="#fffccc"/>
      <stop offset="1" stop-color="#fff200"/>
    </linearGradient>
    <linearGradient id="linear-gradient-2" x1="102.7" y1="79.9" x2="102.7" y2="95.7" gradientTransform="translate(0 197.7) scale(1 -1)" gradientUnits="userSpaceOnUse">
      <stop offset="0" stop-color="#0e3463"/>
      <stop offset="0" stop-color="#0e3463"/>
      <stop offset=".3" stop-color="#1d4e9e"/>
      <stop offset="1" stop-color="#1d4e9e"/>
    </linearGradient>
    <linearGradient id="linear-gradient-3" x1="103.2" y1="117.5" x2="103.2" y2="99.6" gradientTransform="translate(0 197.7) scale(1 -1)" gradientUnits="userSpaceOnUse">
      <stop offset="0" stop-color="#1c63b7"/>
      <stop offset="1" stop-color="#1d4e9e"/>
    </linearGradient>
  </defs>
  <!-- Generator: Adobe Illustrator 28.7.3, SVG Export Plug-In . SVG Version: 1.2.0 Build 164)  -->
  <g>
    <g id="Layer_1">
      <rect class="cls-5" y="0" width="200" height="200"/>
      <path class="cls-4" d="M95.6,73.3c-.2,0-.3,0-.5,0-.8,0-1.6,0-2.3,0-.7,0-1.4,0-2.1,0-.8,0-1.6,0-2.3,0-.4,0-.8,0-1.3,0-.6,0-1.2,0-1.7,0-.6,0-1.2,0-1.8,0-.7,0-1.4,0-2.1,0-.6,0-1.3,0-1.9,0-.4,0-.8,0-1.2,0-.4,0-.7,0-1.1,0-7.5,0-14.9.2-22.4.5-4.1.1-8.2.3-12.3.6-2,.2-4.1.5-6,1.2-.6.2-1.2.5-1.7.9-.8.7-1.4,1.6-1.8,2.5-.8,1.7-1.3,3.5-1.7,5.3-.8,3.8-1.1,7.6-1.1,11.4,0,3.2.2,6.3.8,9.5h0c9.5-1,19.1-1.7,28.7-2.2,14.7-.8,29.5-1.1,44.3-1.1,8.2,0,16.4.1,24.6.4,15.2.5,30.4,1.3,45.6,2.8.7-3.8.9-7.7.8-11.6-.1-3.7-.5-7.4-1.5-10.9-.4-1.3-.8-2.6-1.4-3.8-.4-.7-.8-1.5-1.4-2.1-.4-.4-1-.7-1.5-.9-1.2-.5-2.4-.8-3.6-1-2-.4-4-.5-6-.6-7.9-.4-15.8-.6-23.7-.8-3.2,0-6.5-.1-9.7-.1-.4,0-.8,0-1.3,0-.5,0-.9,0-1.4,0-.7,0-1.3,0-2,0-.6,0-1.2,0-1.8,0-.5,0-.9,0-1.4,0-.5,0-1,0-1.5,0-.6,0-1.2,0-1.8,0-.6,0-1.1,0-1.7,0-.5,0-1,0-1.5,0-.6,0-1.2,0-1.8,0-.2,0-.3,0-.5,0h-14.1ZM50.5,86.2c-1.5-1.4-2.9-2.8-4.4-4.2-.1-.1-.2-.3-.1-.4.1-.2.4-.3.6-.4,1-.4,2.1-.7,3.2-.8.3,0,.6-.1.9,0,.2,0,.3.3.3.5.1,1.7.1,3.4.1,5.1,0,.2,0,.4-.2.4,0,0,0,0,0,0-.1,0-.2,0-.3-.1ZM52.3,85.9c0-1.7,0-3.4.1-5.2,0-.2,0-.4.2-.5.2,0,.4,0,.6,0,1.2.1,2.4.4,3.5.8.2.1.5.2.6.5,0,.2,0,.4-.2.5-1.3,1.2-2.6,2.5-3.9,3.7-.2.2-.4.4-.6.6,0,0,0,0,0,0-.2,0-.3-.2-.3-.4h0ZM50.6,93.2c-2.2-2.1-4.5-4.3-6.7-6.4-.2-.2-.4-.4-.5-.6-.1-.3,0-.7,0-1,.2-.7.5-1.4.9-2.1.1-.2.3-.4.6-.5.2,0,.4,0,.6.2,1,.9,2,1.9,2.9,2.8.8.8,1.5,1.8,2,2.9.4.9.7,2,.7,3,0,.6,0,1.1,0,1.7,0,.1-.1.2-.3.2s-.2,0-.2-.1ZM52.3,93.2c0-.2,0-.3,0-.5,0-.9,0-1.8.2-2.7.3-1.1.7-2.1,1.4-3,.5-.8,1.2-1.4,1.9-2.1.7-.6,1.3-1.3,2-1.9.1-.1.3-.3.4-.4.3-.1.5,0,.7.3.4.5.7,1.1.9,1.7.2.5.3.9.3,1.4,0,.3-.2.5-.4.7-2.3,2.2-4.6,4.4-6.9,6.6,0,0-.1,0-.2,0s-.2,0-.2-.1h0ZM103,85.2c.1,0,.3,0,.3.2,0,1.3,0,2.6,0,3.8h2.6c0-1.3,0-2.5,0-3.8,0-.1,0-.3.2-.2.9,0,1.9,0,2.8,0,.1,0,.2,0,.2.2,0,3.3,0,6.5,0,9.8,0,.1-.1.2-.2.2-.9,0-1.8,0-2.7,0-.1,0-.3,0-.3-.2,0-1.3,0-2.6,0-4-.9,0-1.7,0-2.6,0,0,1.3,0,2.6,0,4,0,.2-.2.2-.3.2,0,0,0,0,0,0-.4,0-.8,0-1.1,0-.5,0-1,0-1.5,0-.1,0-.2-.1-.2-.2,0-3.2,0-6.4,0-9.6,0,0,0-.2.1-.2.5,0,1.1,0,1.6,0,.2,0,.4,0,.6,0s.4,0,.6,0ZM154.2,95.3c0,0,0-.2,0-.3,0-3.2,0-6.3,0-9.5,0,0,0-.2,0-.3.3,0,.5,0,.8,0,.2,0,.3,0,.5,0,1.5,0,3,0,4.5,0,.6,0,1.1.1,1.6.5.5.4.9.9,1.1,1.5.3.8.4,1.6.5,2.4,0,.9,0,1.8-.1,2.6-.1.7-.4,1.5-.9,2-.4.5-.9.8-1.5,1-.5.1-1,.1-1.5.1-.1,0-.3,0-.4,0h-4.1s0,0-.1,0c0,0,0,0,0,0,0,0-.2,0-.3,0ZM149.6,85.3s0,0,0,0c1,0,2,0,2.9,0,.2,0,.2.2.2.3,0,3.2,0,6.5,0,9.7,0,0,0,0,0,0-.5,0-1,0-1.6,0-.3,0-.6,0-.9,0-.1,0-.2,0-.3-.1-1-1.6-1.9-3.3-2.9-4.9,0,1.6,0,3.3,0,4.9,0,.2-.2.2-.3.2-.4,0-.8,0-1.2,0-.5,0-1,0-1.5,0-.1,0-.2,0-.2-.2v-9.6c0,0,0-.2.1-.2.4,0,.9,0,1.3,0,.3,0,.6,0,1,0,0,0,0,0,.1,0,.1,0,.3,0,.3.1,1,1.6,1.9,3.3,2.9,5,0-1.7,0-3.3,0-5h0ZM88.3,85.7c0-.2,0-.3.1-.5.6,0,1.2,0,1.7,0,.3,0,.6,0,.9,0,.1,0,.2.1.2.2.3,1.9.7,3.8,1,5.8.4-1.9.6-3.9,1-5.8,0,0,0-.2.2-.2.4,0,.8,0,1.2,0,.4,0,.8,0,1.2,0,0,0,0,0,0,0,0,0,.2,0,.2,0,0,.3,0,.5-.1.7-.5,3-1.1,6-1.6,9,0,0,0,.3-.2.2-.7,0-1.4,0-2,0-.4,0-.7,0-1.1,0-.1,0-.3,0-.3-.2-.4-2-.7-4-1.1-6-.4,2-.7,4-1.1,6,0,.2-.2.2-.3.2,0,0,0,0,0,0-.4,0-.9,0-1.3,0-.6,0-1.2,0-1.8,0-.1,0-.2-.1-.2-.2-.6-3.2-1.1-6.4-1.7-9.6,0-.1,0-.3.1-.3.9,0,1.8,0,2.6,0,.1,0,.2,0,.2.2.3,1.8.6,3.6.9,5.4,0,.2,0,.4,0,.5.4-1.9.7-3.7,1-5.6h0ZM140,85.2s0,0,.1,0c.1,0,.3,0,.4,0,.2.6.3,1.2.5,1.8.7,2.6,1.4,5.3,2.1,7.9,0,.1,0,.3,0,.3,0,0-.2,0-.2,0,0,0,0,0-.1,0-.8,0-1.6,0-2.3,0-.1,0-.3,0-.3-.2-.2-.6-.3-1.3-.5-1.9-.4,0-.9,0-1.3,0-.5,0-.9,0-1.4,0-.2.6-.3,1.2-.4,1.8,0,0,0,.2-.2.2-.5,0-1,0-1.5,0-.4,0-.7,0-1.1,0,0,0,0,0-.1,0-.1,0-.2,0-.3,0,0-.1,0-.2,0-.3.8-3.2,1.7-6.4,2.5-9.5,0,0,0-.2.2-.2.7,0,1.3,0,2,0,.3,0,.5,0,.8,0s.7,0,1.1,0h0ZM130.1,85.2s0,0,0,0c.1,0,.3,0,.3.2,0,2.7,0,5.4,0,8.1.3,0,.6,0,1,0,.5,0,1,0,1.6,0,0,0,0,0,0,.1-.1.5-.3,1.1-.4,1.6,0,.2-.2.1-.3.1-.7,0-1.5,0-2.2,0-.9,0-1.8,0-2.6,0-.1,0-.2,0-.2-.2,0-3.2,0-6.4,0-9.6,0,0,0-.2.1-.2.5,0,1,0,1.6,0,.2,0,.4,0,.6,0s.4,0,.6,0h0ZM111.3,94.9c-.6-.5-.8-1.2-1-1.9-.3-1.2-.3-2.4-.2-3.6,0-1,.1-2,.6-2.9.3-.6.8-1,1.4-1.2.2,0,.5,0,.7,0,1.4,0,2.7,0,4.1,0,.6,0,1.2.2,1.6.7.5.6.7,1.4.9,2.2.2,1.2.2,2.3,0,3.5,0,.9-.2,1.8-.6,2.6-.3.5-.8.9-1.4,1-.4,0-.8,0-1.1,0-.2,0-.3,0-.5,0h-3s0,0,0,0c-.5,0-1.1-.1-1.5-.5h0ZM79.5,85.2c.9,0,1.9,0,2.8,0,.1,0,.1.2.2.2,0,.4.1.8.2,1.2,0,0,0,.2-.1.2-.6,0-1.2,0-1.8,0-.6,0-1.1,0-1.7,0-.3,0-.5.2-.6.5-.2.6-.3,1.2-.3,1.9.6,0,1.1,0,1.7,0,.7,0,1.5,0,2.2,0,.1,0,.1.2.1.2,0,.5,0,1,0,1.5,0,.1-.2.1-.3.1-1.3,0-2.5,0-3.8,0,0,.6,0,1.3.3,1.9,0,.2.3.5.6.5.7,0,1.3,0,2,0,.5,0,.9,0,1.4,0,.1,0,.3,0,.3.1,0,.5,0,1,0,1.6,0,.2-.2.2-.3.2-1.6,0-3.2,0-4.9,0-.6,0-1.3-.2-1.7-.8-.6-.7-.7-1.6-.8-2.5-.1-1.2-.1-2.4,0-3.6.1-.9.3-1.8.8-2.5.4-.5,1.1-.7,1.7-.7.3,0,.6,0,.9,0s.7,0,1,0h0ZM123.7,85.5c0,2.7,0,5.3,0,8,.3,0,.6,0,1,0,.5,0,1.1,0,1.6,0,0,0,0,0,0,0,0,.5,0,1.1,0,1.6,0,.2-.2.2-.3.2-1.8,0-3.5,0-5.3,0-.1,0-.3,0-.2-.2,0-3.2,0-6.4,0-9.6,0,0,0-.2.2-.2,1,0,1.9,0,2.9,0,.1,0,.2.1.2.2h0ZM70.7,85.5c0-.1.1-.2.2-.2.3,0,.7,0,1,0,.6,0,1.2,0,1.8,0,.1,0,.1.2.1.3,0,3.2,0,6.4,0,9.6,0,.1,0,.2-.2.2-.3,0-.6,0-.9,0-.5,0-1.1,0-1.6,0-.4-.6-.7-1.2-1.1-1.8-.6-1.1-1.3-2.2-1.9-3.2,0,1.6,0,3.2,0,4.9,0,.1,0,.2-.2.2-1,0-1.9,0-2.9,0-.1,0-.1-.2-.1-.3,0-3.2,0-6.4,0-9.5s0-.3.1-.3c.4,0,.9,0,1.3,0,.3,0,.7,0,1,0,0,0,0,0,0,0,.1,0,.3,0,.3.1,1,1.6,1.9,3.3,2.9,4.9,0-1.6,0-3.2,0-4.9h0ZM49.5,98c-1.7-.2-3.3-.8-4.5-2-1-1-1.6-2.4-1.7-3.8-.1-1.4-.2-2.8-.1-4.1,0-.1,0-.2.2-.3.1,0,.3,0,.4.1,1,1,2.1,2,3.1,3,.9.8,1.8,1.7,2.5,2.6.9,1.2,1.7,2.5,1.8,3.9,0,.2,0,.5-.3.6-.1,0-.3,0-.4,0-.3,0-.6,0-.9,0h0ZM52.3,97.7c0-1.1.5-2.2,1.1-3.1.6-1,1.4-1.9,2.3-2.7,1.3-1.2,2.5-2.4,3.8-3.7.1-.1.2-.3.4-.4.1-.1.4,0,.4.2.1,1,0,2.1,0,3.1,0,1.2-.2,2.3-.8,3.4-.6,1.2-1.6,2.1-2.8,2.7-1.2.6-2.4.8-3.7.9,0,0,0,0-.1,0-.3,0-.6-.1-.6-.4h0ZM115,86.9c-.1,0-.2,0-.3,0,0,0-.1,0-.2,0-.1,0-.3,0-.4,0-.3.2-.4.5-.5.8-.2.9-.2,1.9-.2,2.8,0,.8,0,1.6.3,2.3,0,.3.3.6.6.6.4,0,.8,0,1.2,0,.3,0,.5-.4.6-.6.3-.8.2-1.7.3-2.6,0-.9,0-1.7-.2-2.6,0-.3-.2-.6-.5-.8-.1,0-.3,0-.4,0s-.1,0-.2,0h0ZM157.4,93.6c.4,0,.9,0,1.3-.1.5-.2.9-.7,1.1-1.2.3-.8.4-1.6.4-2.4,0-.7,0-1.5-.4-2.2-.1-.3-.4-.6-.8-.6-.3,0-.6,0-.9,0-.2,0-.5,0-.7,0,0,2.2,0,4.4,0,6.6h0ZM137.4,91.3c.4,0,.8,0,1.1,0,.2,0,.4,0,.7,0-.3-1.3-.6-2.5-.9-3.8-.3,1.3-.6,2.5-.9,3.8"/>
      <path class="cls-1" d="M59.8,103.1c-9.6.5-19.1,1.2-28.7,2.1h0c.3,2,.8,3.9,1.5,5.7.3.9.8,1.7,1.3,2.5.4.5.8,1,1.4,1.3,1.2.7,2.6,1,4,1.3,1.8.4,3.6.5,5.4.6,6.4.4,12.9.6,19.3.7,4.7,0,9.4.2,14,.2.4,0,.7,0,1.1,0,.4,0,.8,0,1.2,0,.3,0,.6,0,.8,0,.5,0,1,0,1.6,0,.7,0,1.4,0,2.1,0,.6,0,1.2,0,1.8,0,.1,0,.3,0,.4,0,.4,0,.8,0,1.2,0,.6,0,1.1,0,1.7,0,.8,0,1.6,0,2.5,0,.9,0,1.7,0,2.6,0,1.6,0,3.2,0,4.9,0,2,0,3.9,0,5.9,0,1.5,0,2.9,0,4.4,0,.7,0,1.4,0,2.1,0,.4,0,.8,0,1.2,0,.4,0,.8,0,1.1,0,.4,0,.7,0,1.1,0,.7,0,1.3,0,2,0,.4,0,.8,0,1.1,0,.6,0,1.3,0,1.9,0,.3,0,.6,0,.8,0,.6,0,1.2,0,1.9,0,.6,0,1.1,0,1.7,0,.4,0,.9,0,1.3,0,5.2,0,10.4-.2,15.6-.3,5.9-.1,11.9-.3,17.8-.7,2.1-.1,4.1-.2,6.2-.6,1.4-.3,2.8-.7,4.1-1.4,1.1-.6,1.8-1.8,2.3-2.9,1-2.1,1.5-4.4,1.9-6.6-15.2-1.5-30.4-2.4-45.6-2.8-8.2-.2-16.4-.4-24.6-.4-.6,0-1.2,0-1.8,0-14.2,0-28.3.3-42.5,1.1h0ZM75.3,113.7c-1.1-.1-2.1-.7-2.7-1.5-.7-1-.9-2.3-.5-3.4.3-.8.8-1.5,1.5-1.9,1-.7,2.3-.8,3.4-.6.5.1,1,.3,1.6.5,0,.4,0,.7,0,1.1-.9-.5-1.8-.8-2.8-.7-.8,0-1.5.4-2,.9-1,1.1-1,3.1.2,4,1,.9,2.5.8,3.7.4,0-.5,0-1,0-1.6-.5,0-.9,0-1.4,0,0-.3,0-.6,0-.9.8,0,1.7,0,2.5,0,0,1,0,2.1,0,3.1-.9.4-1.8.6-2.8.6s-.4,0-.7,0h0ZM94.3,113.7c-1-.1-2-.7-2.6-1.6-.5-.7-.8-1.6-.6-2.5.1-1.1.7-2.1,1.5-2.7,1-.7,2.4-.9,3.6-.7.5.1,1,.3,1.5.5,0,.4,0,.8,0,1.1-.9-.5-1.8-.8-2.8-.8-.7,0-1.4.3-1.9.8-1.1,1.1-1.1,3.1,0,4.1.6.5,1.4.8,2.2.8.9,0,1.8-.3,2.6-.8,0,.4,0,.8,0,1.1-.8.5-1.7.7-2.7.7s-.6,0-.8,0h0ZM67.2,106.2c.3,0,.5,0,.8,0,1.1,2.5,2.2,5,3.3,7.4-.1,0-.2,0-.4,0-.2,0-.5,0-.7,0,0,0,0-.2-.1-.2-.3-.7-.6-1.3-.9-2-1.1,0-2.1,0-3.2,0-.3.7-.6,1.5-.9,2.2h-1.1c1.1-2.5,2.1-5,3.2-7.4h0ZM81.7,106.2c.5,0,1.1,0,1.6,0,.6,0,1.2.3,1.5.8.5.7.5,1.6,0,2.3-.2.3-.6.5-.9.7.9.6,1.3,1.6,1.9,2.4.3.4.5.8.8,1.1h-1.3c-.5-.7-.9-1.4-1.4-2.1-.2-.3-.5-.7-.9-.9-.3-.2-.8-.2-1.2-.2,0,1.1,0,2.2,0,3.2h-1.1c0-2.5,0-5,0-7.4.1,0,.3,0,.4,0s.3,0,.5,0h0ZM104.4,112.2c.4-.4.5-.9.5-1.5,0-1.4,0-2.9,0-4.3,0,0,0-.1,0-.2.2,0,.4,0,.6,0,.1,0,.3,0,.4,0,0,1.5,0,2.9,0,4.4,0,.7-.1,1.4-.5,2-.4.6-1.1,1-1.9,1.1-.9.2-1.8,0-2.6-.3-.6-.3-1.1-.9-1.3-1.6-.1-.5,0-1,0-1.4,0-1.4,0-2.7,0-4.1.3,0,.7,0,1,0,0,1.5,0,3,0,4.5,0,.4,0,.9.3,1.2.4.6,1.1.9,1.8.8h0c.6,0,1.3-.2,1.7-.6h0ZM123.6,112.7c.5-.1,1-.4,1.3-.9.3-.5.2-1.1.2-1.7,0-1.3,0-2.6,0-3.9.1,0,.3,0,.4,0,.2,0,.5,0,.7,0,0,1.2,0,2.3,0,3.5,0,.7,0,1.4-.2,2.1-.2.7-.7,1.2-1.3,1.6-.7.3-1.5.4-2.2.4-.7,0-1.5-.3-2-.9-.5-.5-.7-1.2-.7-1.9,0-1.6,0-3.2,0-4.7.3,0,.7,0,1,0v3.8c0,.5,0,1,0,1.5,0,.4.3.7.6.9.4.3.9.4,1.4.4s.5,0,.7,0h0ZM112,106.2c1.2,0,2.4,0,3.6,0,.9,0,1.7,0,2.6,0,0,.3,0,.6,0,.9-.5,0-1,0-1.5,0-.4,0-.7,0-1.1,0,0,2.2,0,4.3,0,6.5h-1.1v-6.5h-2.6c0-.3,0-.6,0-.9ZM109,106.2c0,2.2,0,4.3,0,6.5,1.1,0,2.3,0,3.4,0v.9h-4.5c0-2.5,0-5,0-7.4.2,0,.3,0,.5,0s.3,0,.5,0ZM128.2,106.3c.4,0,.7,0,1.1,0,.2,0,.4,0,.7,0,.7,0,1.4.1,1.9.6.8.7.9,2.1.2,2.8-.2.2-.5.4-.7.5.7.5,1.1,1.2,1.5,1.9.3.6.7,1.1,1.1,1.7-.4,0-.8,0-1.2,0-.5-.7-.9-1.4-1.4-2.1-.3-.4-.6-.9-1.1-1.1-.3-.1-.6-.1-1-.1v3.2h-1.1c0-2.5,0-4.9,0-7.4h0ZM135.3,113.7c0-2.5,0-5,0-7.4,1.4,0,2.8,0,4.2,0,0,.3,0,.6,0,.9h-3.2c0,.8,0,1.5,0,2.3,1,0,2.1,0,3.1,0,0,.3,0,.6,0,1h-3.1c0,.8,0,1.5,0,2.3,1.1,0,2.2,0,3.3,0v.9c-.8,0-1.6,0-2.4,0s-1.3,0-1.9,0h0ZM88,113.7c0-2.5,0-4.9,0-7.4.3,0,.7,0,1,0,0,2.5,0,5,0,7.4-.2,0-.3,0-.5,0s-.4,0-.5,0ZM129.7,107.2c-.1,0-.3,0-.4,0v2.3c.1,0,.2,0,.4,0,.5,0,1.1,0,1.5-.3.5-.5.5-1.5-.2-1.9-.3-.1-.6-.2-.9-.2s-.2,0-.3,0ZM82.3,107.2c-.1,0-.3,0-.4,0,0,.8,0,1.6,0,2.3.1,0,.3,0,.4,0,.4,0,.9,0,1.2-.2.7-.4.7-1.4.1-1.9-.3-.2-.7-.3-1.1-.3s-.2,0-.3,0h0ZM67.4,108.3c-.3.7-.6,1.5-.9,2.2.8,0,1.6,0,2.4,0-.4-.9-.8-1.8-1.2-2.7,0,.2-.2.3-.2.5"/>
      <path class="cls-3" d="M49.8,80.3c-1.1.1-2.2.4-3.2.8-.2.1-.5.2-.6.4,0,.2,0,.3.1.4,1.5,1.4,2.9,2.8,4.4,4.2,0,.1.2.2.4.1.2,0,.2-.3.2-.4,0-1.7,0-3.4-.1-5.1,0-.2,0-.4-.3-.5-.1,0-.2,0-.3,0-.2,0-.4,0-.5,0ZM52.7,80.3c-.2,0-.2.3-.2.5-.1,1.7-.1,3.4-.1,5.2,0,.2.1.4.4.4.2-.1.4-.4.6-.6,1.3-1.2,2.6-2.5,3.9-3.7.1-.1.2-.3.2-.5-.1-.2-.4-.3-.6-.5-1.1-.5-2.3-.7-3.5-.8,0,0-.2,0-.2,0s-.2,0-.3,0ZM44.8,82.5c-.3.1-.4.3-.6.5-.4.6-.7,1.3-.9,2.1,0,.3-.1.7,0,1,0,.3.3.4.5.6,2.2,2.1,4.5,4.3,6.7,6.4.1.2.4.1.5,0,0-.6,0-1.1,0-1.7,0-1-.3-2-.7-3-.5-1.1-1.2-2-2-2.9-1-.9-2-1.9-2.9-2.8-.1-.1-.2-.2-.4-.2s-.1,0-.2,0h0ZM58.1,82.5c-.2,0-.3.2-.4.4-.7.6-1.3,1.3-2,1.9-.7.6-1.3,1.3-1.9,2.1-.7.9-1.1,2-1.4,3-.2.9-.2,1.8-.2,2.7,0,.2,0,.3,0,.5,0,.2.3.2.4,0,2.3-2.2,4.6-4.4,6.9-6.6.2-.2.4-.4.4-.7,0-.5-.1-1-.3-1.4-.2-.6-.5-1.2-.9-1.7-.1-.2-.3-.3-.5-.3s-.1,0-.2,0h0ZM103,85.2c-.4,0-.8,0-1.2,0-.5,0-1.1,0-1.6,0-.1,0-.2.1-.1.2,0,3.2,0,6.4,0,9.6,0,0,0,.2.2.2.5,0,1,0,1.5,0,.4,0,.8,0,1.1,0,0,0,0,0,0,0,.1,0,.3,0,.3-.2,0-1.3,0-2.6,0-4,.9,0,1.7,0,2.6,0,0,1.3,0,2.6,0,4,0,.1.1.2.3.2.9,0,1.8,0,2.7,0,0,0,.2,0,.2-.2,0-3.3,0-6.5,0-9.8,0-.1-.1-.2-.2-.2-.9,0-1.9,0-2.8,0-.1,0-.2.1-.2.2,0,1.3,0,2.5,0,3.8h-2.6c0-1.3,0-2.6,0-3.8,0-.1-.1-.2-.2-.2s0,0,0,0h0ZM154.2,85.3c0,0,0,.2,0,.3,0,3.2,0,6.3,0,9.5,0,0,0,.2,0,.3.1,0,.3,0,.4,0,0,0,0,0,.1,0h4.1c.1,0,.3,0,.4,0,.5,0,1,0,1.5-.1.6-.2,1.1-.5,1.5-1,.5-.6.7-1.3.9-2,.2-.9.2-1.7.1-2.6,0-.8-.2-1.6-.5-2.4-.2-.6-.6-1.1-1.1-1.5-.5-.3-1-.5-1.6-.5-1.5,0-3,0-4.5,0-.2,0-.3,0-.5,0,0,0-.2,0-.3,0-.2,0-.4,0-.5,0ZM157.4,93.6c0-2.2,0-4.4,0-6.6.2,0,.5,0,.7,0,.3,0,.6,0,.9,0,.4,0,.6.3.8.6.3.7.4,1.4.4,2.2,0,.8,0,1.7-.4,2.4-.2.5-.5,1-1.1,1.2-.3.1-.6.1-1,.1s-.2,0-.3,0h0ZM149.6,85.3s0,0,0,0c0,1.7,0,3.3,0,5-1-1.6-1.9-3.3-2.9-5,0-.1-.2-.1-.3-.1,0,0,0,0-.1,0-.3,0-.6,0-1,0-.4,0-.9,0-1.3,0-.1,0-.1.1-.1.2v9.6c0,.1,0,.3.2.2.5,0,1,0,1.5,0,.4,0,.8,0,1.2,0,.1,0,.3,0,.3-.2,0-1.6,0-3.3,0-4.9,1,1.6,1.9,3.3,2.9,4.9,0,.1.1.2.3.1.3,0,.6,0,.9,0,.5,0,1,0,1.6,0,0,0,0,0,0,0,0-3.2,0-6.5,0-9.7,0-.1,0-.3-.2-.3-.6,0-1.1,0-1.7,0s-.9,0-1.3,0ZM88.4,85.3c-.1.1,0,.3-.1.5-.3,1.9-.7,3.7-1,5.6,0-.2,0-.4,0-.5-.3-1.8-.6-3.6-.9-5.4,0-.1,0-.2-.2-.2-.9,0-1.8,0-2.6,0-.2,0-.1.2-.1.3.6,3.2,1.1,6.4,1.7,9.6,0,.1,0,.2.2.2.6,0,1.2,0,1.8,0,.4,0,.9,0,1.3,0,0,0,0,0,0,0,.1,0,.3,0,.3-.2.4-2,.7-4,1.1-6,.4,2,.7,4,1.1,6,0,.2.2.2.3.2.4,0,.7,0,1.1,0,.7,0,1.4,0,2,0,.1,0,.2-.1.2-.2.5-3,1.1-6,1.6-9,0-.2.1-.5.1-.7,0,0-.1,0-.2,0,0,0,0,0,0,0-.4,0-.8,0-1.2,0-.4,0-.8,0-1.2,0-.1,0-.2,0-.2.2-.3,1.9-.6,3.9-1,5.8-.3-1.9-.7-3.8-1-5.8,0-.1,0-.3-.2-.2-.3,0-.6,0-.9,0-.2,0-.4,0-.7,0-.4,0-.7,0-1.1,0h0ZM138.2,85.2c-.7,0-1.3,0-2,0-.1,0-.2,0-.2.2-.8,3.2-1.7,6.4-2.5,9.5,0,0,0,.2,0,.3,0,.1.2,0,.3,0,0,0,0,0,.1,0,.4,0,.7,0,1.1,0,.5,0,1,0,1.5,0,.1,0,.1-.1.2-.2.1-.6.3-1.2.4-1.8.5,0,.9,0,1.4,0,.4,0,.9,0,1.3,0,.2.6.3,1.3.5,1.9,0,.2.2.1.3.2.8,0,1.6,0,2.3,0,0,0,0,0,.1,0,0,0,.2,0,.2,0,.1,0,0-.2,0-.3-.7-2.6-1.4-5.3-2.1-7.9-.2-.6-.3-1.2-.5-1.8-.1,0-.3,0-.4,0,0,0,0,0-.1,0-.6,0-1.2,0-1.9,0h0ZM138.3,87.5c.3,1.3.6,2.5.9,3.8-.2,0-.4,0-.7,0-.4,0-.8,0-1.1,0,.3-1.3.6-2.5.9-3.8h0ZM128.9,85.2c-.5,0-1,0-1.5,0-.1,0-.1.1-.1.2,0,3.2,0,6.4,0,9.6,0,.1,0,.3.2.2.9,0,1.8,0,2.6,0,.7,0,1.5,0,2.2,0,.1,0,.3,0,.3-.1.1-.5.3-1.1.4-1.6,0,0,0,0,0-.1-.5,0-1,0-1.6,0-.3,0-.7,0-1,0,0-2.7,0-5.4,0-8.1,0-.2-.2-.2-.3-.2,0,0,0,0,0,0-.4,0-.8,0-1.2,0h0ZM112.2,85.3c-.6.1-1.2.6-1.4,1.2-.4.9-.5,1.9-.6,2.9,0,1.2,0,2.4.2,3.6.2.7.4,1.4,1,1.9.4.4,1,.5,1.5.5h3c.2,0,.3,0,.5,0,.4,0,.8,0,1.1,0,.6-.1,1.1-.5,1.4-1,.4-.8.6-1.7.6-2.6,0-1.2,0-2.4,0-3.5-.1-.8-.3-1.6-.9-2.2-.4-.5-1-.7-1.6-.7-1.4,0-2.7,0-4.1,0-.2,0-.5,0-.7,0h0ZM115,86.9c.2,0,.4,0,.6,0,.3.1.4.5.5.8.2.8.2,1.7.2,2.6,0,.9,0,1.8-.3,2.6,0,.3-.2.6-.6.6-.4,0-.8,0-1.2,0-.3,0-.5-.3-.6-.6-.2-.7-.3-1.5-.3-2.3,0-.9,0-1.9.2-2.8,0-.3.2-.6.5-.8.1,0,.3,0,.4,0,0,0,.1,0,.2,0,0,0,0,0,.1,0,0,0,.1,0,.2,0h0ZM79.5,85.2c-.7,0-1.3,0-2,0-.6,0-1.3.2-1.7.7-.6.7-.7,1.6-.8,2.5-.1,1.2-.1,2.4,0,3.6.1.9.3,1.8.8,2.5.4.5,1.1.8,1.7.8,1.6,0,3.3,0,4.9,0,.1,0,.3,0,.3-.2,0-.5,0-1,0-1.6,0-.1-.2-.1-.3-.1-.5,0-.9,0-1.4,0-.7,0-1.3,0-2,0-.3,0-.5-.2-.6-.5-.2-.6-.3-1.2-.3-1.9,1.3,0,2.5,0,3.8,0,0,0,.3,0,.3-.1,0-.5,0-1,0-1.5,0,0,0-.3-.1-.2-.7,0-1.5,0-2.2,0-.6,0-1.1,0-1.7,0,0-.6,0-1.3.3-1.9,0-.2.3-.5.6-.5.5,0,1.1,0,1.7,0,.6,0,1.2,0,1.8,0,.1,0,.2-.1.1-.2,0-.4-.1-.8-.2-1.2,0,0,0-.3-.2-.2-.6,0-1.1,0-1.7,0s-.7,0-1.1,0h0ZM123.5,85.2c-1,0-1.9,0-2.9,0-.1,0-.2.1-.2.2,0,3.2,0,6.4,0,9.6,0,.1,0,.3.2.2,1.8,0,3.5,0,5.3,0,.1,0,.3,0,.3-.2,0-.5,0-1.1,0-1.6,0,0,0,0,0,0-.5,0-1.1,0-1.6,0-.3,0-.6,0-1,0,0-2.7,0-5.3,0-8,0-.1,0-.2-.2-.2s0,0,0,0h0ZM70.7,85.5c0,1.6,0,3.2,0,4.9-1-1.6-1.9-3.3-2.9-4.9,0-.1-.2-.1-.3-.1,0,0,0,0,0,0-.3,0-.7,0-1,0-.4,0-.9,0-1.3,0-.1,0-.1.2-.1.3,0,3.2,0,6.4,0,9.5,0,0,0,.3.1.3,1,0,1.9,0,2.9,0,.1,0,.2,0,.2-.2,0-1.6,0-3.2,0-4.9.6,1.1,1.3,2.2,1.9,3.2.4.6.7,1.2,1.1,1.8.5,0,1.1,0,1.6,0,.3,0,.6,0,.9,0,.1,0,.2,0,.2-.2,0-3.2,0-6.4,0-9.6,0,0,0-.3-.1-.3-.6,0-1.2,0-1.8,0-.3,0-.7,0-1,0,0,0,0,0,0,0-.1,0-.2,0-.2.2h0ZM43.3,87.8c-.1,0-.2.2-.2.3-.1,1.4,0,2.8.1,4.1.2,1.4.7,2.8,1.7,3.8,1.2,1.2,2.9,1.8,4.5,2,.4,0,.8.2,1.3,0,.3,0,.3-.4.3-.6-.2-1.5-.9-2.8-1.8-3.9-.7-1-1.6-1.8-2.5-2.6-1-1-2.1-2-3.1-3,0,0-.2-.2-.3-.2s0,0,0,0h0ZM59.9,87.8c-.1,0-.3.2-.4.4-1.3,1.2-2.6,2.4-3.8,3.7-.9.8-1.6,1.7-2.3,2.7-.6,1-1.1,2-1.1,3.1,0,.4.4.5.7.4,1.3-.1,2.6-.4,3.7-.9,1.2-.6,2.2-1.5,2.8-2.7.5-1,.7-2.2.8-3.4,0-1,.1-2.1,0-3.1,0-.1-.1-.2-.2-.2s0,0-.1,0"/>
      <path class="cls-2" d="M67.4,108.3c0-.2.1-.3.2-.5.4.9.8,1.8,1.2,2.7-.8,0-1.6,0-2.4,0,.3-.7.6-1.5.9-2.2ZM129.2,107.2c.5,0,1.1,0,1.6.2.7.3.7,1.4.2,1.9-.5.4-1.2.3-1.8.3v-2.3ZM81.9,107.2c.6,0,1.3-.1,1.8.3.6.5.5,1.5-.1,1.9-.5.3-1.1.2-1.6.2,0-.8,0-1.6,0-2.3h0ZM135.3,106.2c0,2.5,0,5,0,7.4,1.4,0,2.9,0,4.3,0v-.9c-1.1,0-2.2,0-3.3,0,0-.8,0-1.5,0-2.3h3.1c0-.3,0-.6,0-1-1,0-2,0-3.1,0,0-.8,0-1.5,0-2.3h3.2c0-.3,0-.6,0-.9-1.4,0-2.8,0-4.2,0h0ZM128.2,106.3c0,2.5,0,4.9,0,7.4h1.1v-3.2c.3,0,.7,0,1,.1.5.2.8.7,1.1,1.1.5.7.9,1.4,1.4,2.1.4,0,.8,0,1.2,0-.4-.5-.8-1.1-1.1-1.7-.4-.7-.9-1.4-1.5-1.9.3-.1.5-.3.7-.5.7-.8.7-2.1-.2-2.8-.5-.5-1.3-.6-1.9-.6-.6,0-1.2,0-1.8,0h0ZM119.7,106.3c0,1.6,0,3.2,0,4.7,0,.7.3,1.4.7,1.9.5.5,1.3.8,2,.9.8,0,1.6,0,2.2-.4.6-.3,1.1-.9,1.3-1.6.2-.7.1-1.4.2-2.1,0-1.2,0-2.3,0-3.5-.4,0-.7,0-1.1,0,0,1.3,0,2.6,0,3.9,0,.6,0,1.1-.2,1.7-.2.5-.8.8-1.3.9-.7.2-1.6.1-2.2-.4-.3-.2-.5-.5-.6-.9,0-.5,0-1,0-1.5v-3.8c-.3,0-.7,0-1,0h0ZM112,106.2c0,.3,0,.6,0,.9h2.6v6.5h1.1c0-2.2,0-4.3,0-6.5.9,0,1.7,0,2.6,0,0-.3,0-.6,0-.9-2.1,0-4.1,0-6.2,0h0ZM107.9,106.2c0,2.5,0,5,0,7.4h4.5v-.9c-1.1,0-2.3,0-3.4,0,0-2.2,0-4.3,0-6.5-.3,0-.7,0-1,0h0ZM99.5,106.2c0,1.4,0,2.7,0,4.1,0,.5,0,1,0,1.4.2.7.6,1.3,1.3,1.6.8.4,1.8.5,2.6.3.7-.1,1.4-.5,1.9-1.1.4-.6.5-1.3.5-2,0-1.5,0-2.9,0-4.4-.3,0-.7,0-1,0,0,0,0,.1,0,.2,0,1.4,0,2.9,0,4.3,0,.5,0,1.1-.5,1.5-.5.4-1.1.6-1.8.6-.7,0-1.4-.3-1.8-.8-.2-.3-.3-.8-.3-1.2,0-1.5,0-3,0-4.5-.3,0-.7,0-1,0h0ZM88,106.3c0,2.5,0,4.9,0,7.4.3,0,.7,0,1,0,0-2.5,0-5,0-7.4-.3,0-.7,0-1,0ZM80.8,106.2c0,2.5,0,5,0,7.4h1.1c0-1.1,0-2.2,0-3.2.4,0,.8,0,1.2.2.3.2.6.6.9.9.5.7.9,1.4,1.4,2.1h1.3c-.3-.4-.5-.7-.8-1.1-.6-.8-1-1.8-1.9-2.4.4-.2.7-.4.9-.7.5-.7.5-1.7,0-2.3-.3-.5-.9-.7-1.5-.8-.8-.1-1.7,0-2.5,0h0ZM67.2,106.2c-1,2.5-2.1,5-3.2,7.4h1.1c.3-.7.6-1.5.9-2.2,1.1,0,2.1,0,3.2,0,.3.6.6,1.3.9,2,0,0,0,.2.1.2.3,0,.7,0,1,0-1.1-2.5-2.2-5-3.3-7.4-.3,0-.5,0-.8,0ZM92.6,106.9c-.9.6-1.4,1.6-1.5,2.7-.1.9.1,1.8.6,2.5.6.9,1.6,1.5,2.6,1.6,1.2.2,2.4,0,3.5-.6,0-.4,0-.7,0-1.1-.8.5-1.7.8-2.6.8-.8,0-1.6-.2-2.2-.8-1.2-1-1.2-3.1,0-4.1.5-.5,1.2-.8,1.9-.8,1,0,2,.3,2.8.8,0-.4,0-.8,0-1.1-.5-.2-1-.4-1.5-.5-1.2-.3-2.5,0-3.6.7h0ZM73.6,106.8c-.7.5-1.2,1.2-1.5,1.9-.4,1.1-.2,2.5.5,3.4.6.9,1.6,1.4,2.7,1.5,1.2.1,2.4,0,3.4-.6,0-1,0-2.1,0-3.1-.8,0-1.7,0-2.5,0,0,.3,0,.6,0,.9.5,0,.9,0,1.4,0,0,.5,0,1,0,1.6-1.2.4-2.7.5-3.7-.4-1.2-1-1.3-2.9-.2-4.1.5-.6,1.3-.9,2-.9,1,0,2,.3,2.8.7,0-.4,0-.7,0-1.1-.5-.2-1-.4-1.6-.5-1.2-.2-2.4-.1-3.4.6Z"/>
    </g>
  </g>
</svg>