<?xml version="1.0" encoding="UTF-8"?>
<svg id="Layer_1" data-name="Layer 1" xmlns="http://www.w3.org/2000/svg" viewBox="0 0 200 200">
  <defs>
    <style>
      .cls-1, .cls-2 {
        fill: #fff;
      }

      .cls-2 {
        fill-rule: evenodd;
      }
    </style>
  </defs>
  <rect width="200" height="200"/>
  <g>
    <path class="cls-1" d="m114.82,99.84h-2.91c.49-1.15.97-2.29,1.45-3.43.48,1.14.97,2.28,1.45,3.43Z"/>
    <path class="cls-2" d="m143.56,93.43c-.05-2.77-2.17-2.82-2.17-2.82-1.25-.19-2.51-.37-3.79-.54-4.55-15.75-19.65-27.32-37.58-27.32s-32.79,11.39-37.47,26.95c-1.04.2-1.99.4-2.96.6-2.75.5-2.94,2.44-2.94,2.57-.63,2.5-.25,10.83,0,13.64.19,3,2.63,2.75,2.75,2.82.91.2,1.93.38,3.02.55,4.53,15.78,19.64,27.38,37.6,27.38s32.96-11.52,37.55-27.21c2.35-.3,3.65-.51,3.65-.51,2.22-.19,2.27-2.84,2.27-2.86.41-3.86.1-13.24.07-13.24h0Zm-43.54-21.6c12.17,0,22.62,7.05,27.12,17.11-21.41-1.8-44.03-1.02-53.99-.52,4.62-9.78,14.91-16.59,26.87-16.59h0Zm19.64,32.2h-2.99l-.9-1.66h-4.78l-.75,1.66h-2.99l4.19-9.34h3.74l4.48,9.34h0Zm-20.33-3.46s-1.79-.15-2.09-2.41v-.45s-.15-2.41,2.39-3.01h6.73v2.41h-6.13v1.36h5.08s1.79.6,1.79,2.41v.45s.15,1.96-1.64,2.71h-8.07v-2.26h7.03v-1.2h-5.08Zm-10.76,0s-1.79-.15-2.09-2.41v-.45s-.15-2.41,2.39-3.01h6.73v2.41h-6.13v1.36h5.08s1.79.6,1.79,2.41v.45s.15,1.96-1.64,2.71h-8.07v-2.26h7.03v-1.2h-5.08,0Zm-3.89-5.88v9.34h-3.29v-9.34h3.29,0Zm-13.16,3.16v6.18h-2.84v-9.34h4.78l3.44,6.63v-6.63h2.39v9.34h-4.34l-3.44-6.18h0Zm28.5,30.31c-12.2,0-22.67-7.08-27.15-17.17,12.78.96,27.52,1.03,27.52,1.03,10.37.17,19.64-.31,26.71-.9-4.51,10.02-14.94,17.04-27.09,17.04h0Zm31.3-24.13h-4.48l-3.59-6.33v6.33h-2.84v-9.34h4.93l3.14,6.48v-6.48h2.84v9.34Z"/>
  </g>
</svg>