<?xml version="1.0" encoding="UTF-8"?>
<svg id="Layer_1" data-name="Layer 1" xmlns="http://www.w3.org/2000/svg" viewBox="0 0 200 200">
  <defs>
    <style>
      .cls-1 {
        fill: #fff;
      }

      .cls-2 {
        fill: #004a93;
      }
    </style>
  </defs>
  <rect class="cls-2" width="200" height="200"/>
  <g>
    <path class="cls-1" d="m53.57,99.99c-.44.41-.89.82-1.33,1.24-.31.29-.6.61-.91.9-.14.13-.14.21-.01.35,2.18,2.38,2.18,6.15-.07,8.62-.96,1.06-2.13,1.73-3.5,1.99-2.02.38-3.9,0-5.45-1.45-.21-.2-.34-.18-.53.02-.68.71-1.39,1.4-2.1,2.12-.09-.08-.17-.14-.25-.21-.65-.64-1.3-1.27-1.94-1.93-.19-.2-.31-.18-.51-.01-1.99,1.72-4.97,2.13-7.24.86-1.98-1.11-3.2-2.8-3.44-5.12-.19-1.86.38-3.45,1.56-4.86.13-.15.14-.25-.01-.4-.67-.65-1.32-1.31-1.98-1.96-.17-.16-.16-.27.01-.44.67-.63,1.32-1.29,1.98-1.92.17-.16.2-.26.03-.46-3.19-3.57-1.36-9.34,3.31-10.43,2.16-.51,4.1-.02,5.78,1.43.2.17.32.19.51-.01.63-.67,1.29-1.32,1.92-1.98.17-.18.29-.17.46,0,.65.67,1.31,1.32,1.96,1.99.15.15.26.14.41,0,1.17-1.05,2.56-1.6,4.12-1.63,1.58-.02,3.03.45,4.25,1.5,1.82,1.56,2.54,3.55,2.26,5.89-.15,1.2-.69,2.28-1.49,3.2-.17.2-.16.31.03.48.68.65,1.34,1.32,2.01,1.98.04.04.07.09.1.13.02.03.04.05.06.08Zm-13.89-10.72c-.32.3-.63.59-.94.86-.19.16-.21.32-.1.54.33.69.51,1.43.54,2.19.11,2.35-.85,4.24-2.73,5.57-1.92,1.36-4.06,1.54-6.25.64-.21-.09-.35-.07-.5.1-.16.18-.33.34-.51.49-.18.15-.2.27-.02.43.18.16.37.34.51.53.17.22.34.24.59.15,1.04-.39,2.1-.65,3.23-.5,2.09.27,3.73,1.3,4.79,3.07,1.11,1.85,1.27,3.86.41,5.89-.07.16-.07.29.06.41.25.25.49.5.74.75.12.13.22.11.33,0,.18-.19.36-.39.56-.56.21-.18.22-.36.13-.6-.44-1.19-.61-2.4-.4-3.68.42-2.53,2.74-5.18,6.1-5.31,1.01-.04,1.95.21,2.87.6.11.05.3.05.38-.01.27-.23.51-.5.77-.76.12-.12.11-.22-.02-.33-.24-.23-.48-.46-.71-.7-.11-.12-.22-.12-.35-.05-.59.3-1.21.5-1.87.57-1.69.18-3.24-.12-4.61-1.19-.73-.58-1.36-1.23-1.84-2.04-.67-1.13-.89-2.36-.79-3.65.06-.72.27-1.41.57-2.07.04-.08.06-.23.02-.28-.32-.37-.66-.73-.96-1.05Zm-4.18,1.1v-.14c-.08-.05-.17-.08-.24-.14-1.54-1.23-3.78-1.13-5.19.11-1.55,1.36-1.85,3.67-.64,5.31.27.37.29.37.62.06,1.53-1.47,3.06-2.94,4.6-4.41.28-.27.58-.52.86-.78Zm-5.73,13.62c-.1.11-.17.19-.24.28-.52.66-.68,1.44-.74,2.25-.15,2.03,1.69,4.2,3.77,4.2.99,0,1.87-.24,2.62-.9.16-.14.18-.24.01-.41-1.67-1.65-3.32-3.3-4.98-4.96-.15-.15-.28-.3-.44-.47Zm19.69.17c-1.9,1.83-3.79,3.65-5.68,5.47,1.28,1.3,3.75,1.58,5.41-.03,1.53-1.48,1.65-4.16.26-5.45Zm-.04-8.38c.05-.02.08-.03.1-.05.04-.03.07-.07.1-.1.76-.9,1-1.96.81-3.09-.54-3.15-4.2-4.29-6.34-2.52-.22.18-.21.27-.02.45,1.57,1.55,3.12,3.11,4.68,4.66.22.22.45.43.67.64Zm-2.01,1.28c-1.59-1.59-3.19-3.19-4.83-4.84-.3,1.4-.03,2.57.86,3.58,1.05,1.19,2.41,1.48,3.97,1.25Zm-10.73-4.73s-.06-.03-.09-.05c-1.59,1.6-3.18,3.19-4.82,4.84,1.66.16,3.06-.16,4.12-1.41.84-.99,1.05-2.14.79-3.38Zm10.69,10.49c-1.57-.25-2.86.11-3.89,1.24-.91,1-1.11,2.18-.92,3.46,1.6-1.57,3.18-3.11,4.81-4.71Zm-10.75,4.56c.21-1.34-.1-2.51-1.06-3.49-.99-1.01-2.21-1.26-3.66-1.1,1.6,1.56,3.15,3.06,4.72,4.59Z"/>
    <path class="cls-1" d="m64.91,103.4v8.86h-5.2v-24.69c.52,0,1.03,0,1.54,0,3.06,0,6.12-.01,9.18,0,1.3,0,2.58.17,3.8.65,1.94.77,3.31,2.14,3.99,4.11.83,2.41.79,4.8-.35,7.12-.81,1.64-2.12,2.74-3.82,3.39-1.03.39-2.1.57-3.2.56-1.86,0-3.73,0-5.59,0-.09,0-.19,0-.34,0Zm.02-4.2c.08,0,.12.01.17.01,1.34,0,2.68.02,4.02-.02.59-.02,1.19-.1,1.77-.22,1.21-.26,2.08-.94,2.4-2.19.24-.93.23-1.86-.05-2.78-.25-.81-.76-1.44-1.56-1.73-.56-.21-1.17-.38-1.76-.41-1.61-.07-3.23-.06-4.84-.07-.05,0-.09.01-.15.02v7.39Z"/>
    <path class="cls-1" d="m117.32,100.45c.11-.09.17-.15.23-.21,1.91-2,3.83-4.01,5.75-6.01.1-.1.27-.19.41-.19,1.79,0,3.57,0,5.36,0,.02,0,.04,0,.08.02-.03.05-.04.1-.08.13-2.13,2.14-4.26,4.27-6.4,6.4-.17.17-.16.27-.03.47.9,1.29,1.77,2.6,2.66,3.9,1.47,2.17,2.93,4.33,4.4,6.5.17.25.33.5.52.8-.12,0-.18.01-.24.01-1.73,0-3.46-.01-5.19-.01-.24,0-.37-.08-.5-.28-1.04-1.59-2.1-3.18-3.16-4.76-.67-1-1.34-2-2.02-3-.21-.31-.22-.31-.49-.04-.36.36-.72.73-1.09,1.08-.17.16-.24.35-.24.58.02,2.03.02,4.06.04,6.09,0,.25-.07.33-.32.32-1.35,0-2.7,0-4.05,0-.22,0-.29-.05-.29-.28,0-7.83,0-15.66,0-23.49,0-.24,0-.47,0-.71,0-.16.07-.23.21-.23.16,0,.32,0,.48,0,1.21,0,2.41.01,3.62,0,.26,0,.34.08.34.34,0,3.84,0,7.68,0,11.52,0,.32,0,.64,0,1.02Z"/>
    <path class="cls-1" d="m96.39,106.77c-.18.42-.34.85-.53,1.25-.46.96-1.06,1.81-1.83,2.55-1.15,1.1-2.55,1.71-4.09,1.96-1.84.31-3.69.25-5.45-.39-2.1-.77-3.63-2.22-4.66-4.2-.55-1.05-.8-2.17-.92-3.34-.19-1.85-.04-3.66.7-5.37,1.34-3.08,3.66-4.92,7.04-5.37,1.49-.2,2.96-.1,4.38.4,1.83.65,3.19,1.88,4.16,3.54.81,1.4,1.21,2.93,1.4,4.52.08.64.11,1.28.17,1.92.02.21-.05.28-.27.28-4.08,0-8.16,0-12.23,0-.46,0-.48,0-.41.45.08.52.13,1.06.3,1.56.39,1.18,1.21,1.95,2.43,2.26,1.56.41,3.03.24,4.37-.7.45-.31.79-.7,1.01-1.21.03-.07.14-.16.22-.16,1.37,0,2.74,0,4.11,0,.03,0,.05.01.13.04Zm-4.67-5.34c-.24-1.06-.56-2.05-1.34-2.83-.16-.16-.33-.32-.53-.42-1.49-.79-2.97-.75-4.37.17-.99.65-1.55,1.61-1.64,2.82-.01.21.06.26.25.26,2.53,0,5.05,0,7.62,0Z"/>
    <path class="cls-1" d="m155.7,112.28c-.2,0-.37,0-.53,0-1.31,0-2.62,0-3.94,0-.39,0-.39,0-.39-.38,0-3.11.02-6.22,0-9.33,0-.78-.08-1.57-.23-2.34-.25-1.36-1.11-2.13-2.51-2.28-.47-.05-.97-.06-1.44.03-1.37.25-2.3,1.21-2.55,2.64-.14.8-.23,1.62-.24,2.42-.03,2.95-.01,5.9-.01,8.84,0,.12,0,.24,0,.38-.09,0-.14.02-.19.02-1.44,0-2.89,0-4.33,0-.23,0-.3-.06-.3-.3,0-5.85,0-11.7,0-17.55,0-.12,0-.24,0-.38h4.61v2.94s.05.03.08.04c.08-.09.17-.17.24-.28.95-1.53,2.28-2.54,4.06-2.86,1.61-.28,3.18-.07,4.68.6,1.12.5,1.91,1.34,2.32,2.49.21.59.39,1.21.46,1.84.13,1.1.22,2.21.23,3.31.03,3.23.01,6.46,0,9.7,0,.14-.01.28-.02.44Z"/>
    <path class="cls-1" d="m173.85,99.6c-.33,0-.59,0-.86,0-1.15,0-2.3.02-3.45.03-.16,0-.22-.05-.23-.21-.1-1.08-.73-1.69-1.74-1.95-1.12-.29-2.25-.37-3.36.02-.7.24-1.04.77-1.01,1.45.02.41.21.74.51,1.01.62.56,1.4.78,2.19.97,1.31.31,2.63.58,3.93.92.64.17,1.26.42,1.86.7,1.51.71,2.43,1.88,2.55,3.56.15,2.02-.48,3.77-2.16,5.01-1.13.83-2.42,1.31-3.82,1.43-1.09.09-2.18.16-3.27.11-1.96-.09-3.81-.56-5.34-1.89-1.08-.94-1.64-2.13-1.79-3.53-.02-.23-.04-.47-.07-.78.53,0,1.03,0,1.53,0,.88,0,1.77,0,2.65,0,.15,0,.28,0,.31.2.14,1.08.81,1.77,1.7,2.28.8.46,1.69.57,2.59.49.55-.05,1.11-.15,1.64-.32.89-.29,1.38-1.04,1.33-1.93-.01-.24-.1-.53-.27-.69-.32-.31-.69-.6-1.09-.8-.97-.51-2.05-.72-3.11-.98-1.19-.29-2.38-.56-3.55-.92-1.01-.31-1.89-.89-2.55-1.74-.71-.91-.88-1.96-.75-3.06.06-.48.16-.97.33-1.43.49-1.38,1.5-2.24,2.83-2.78,1.23-.5,2.52-.69,3.83-.75,1.55-.07,3.09.05,4.6.47,1.07.3,2.03.79,2.8,1.61.68.71.97,1.59,1.13,2.53.05.3.07.61.1.96Z"/>
    <path class="cls-1" d="m103.68,97.16c.05-.07.1-.15.15-.22.33-.45.64-.91.99-1.35.8-1.03,1.91-1.49,3.17-1.65.79-.1,1.58-.21,2.38-.07.23.04.34.13.34.39-.01,1.32,0,2.64,0,3.95,0,.19-.05.26-.27.23-1.5-.21-2.98-.21-4.34.59-.93.55-1.57,1.35-1.88,2.4-.28.96-.4,1.94-.4,2.94,0,2.52,0,5.04,0,7.57,0,.27-.07.35-.35.35-1.36-.01-2.72-.01-4.08,0-.27,0-.35-.08-.35-.35,0-5.84,0-11.68,0-17.52,0-.23.06-.32.3-.31,1.32.01,2.64.01,3.96,0,.21,0,.29.06.28.28-.02.77-.03,1.53-.04,2.3,0,.15.02.31.03.46.03,0,.07.01.1.02Z"/>
    <path class="cls-1" d="m131.58,94.07h4.92v.28c0,5.82,0,11.64,0,17.46,0,.02,0,.04,0,.06q0,.41-.4.41c-1.39,0-2.78,0-4.16,0-.11,0-.22,0-.35,0v-18.21Z"/>
    <path class="cls-1" d="m134.12,87.1c1.45,0,2.66,1.22,2.66,2.67,0,1.44-1.25,2.71-2.67,2.71-1.5,0-2.7-1.23-2.69-2.76.01-1.46,1.21-2.62,2.7-2.62Z"/>
  </g>
</svg>