<?xml version="1.0" encoding="UTF-8"?>
<svg id="Layer_1" data-name="Layer 1" xmlns="http://www.w3.org/2000/svg" viewBox="0 0 200 200">
  <defs>
    <style>
      .cls-1, .cls-2 {
        stroke-width: 0px;
      }

      .cls-3 {
        fill: none;
        stroke: #e8b34b;
        stroke-miterlimit: 10;
        stroke-width: .75px;
      }

      .cls-2 {
        fill: #e8b34b;
      }
    </style>
  </defs>
  <rect class="cls-1" width="200" height="200"/>
  <g>
    <g>
      <path class="cls-2" d="m58.62,109.27c-.41-.81-1.22-1.62-2.03-2.03s-1.83-.61-2.84-.61c-1.22,0-2.23.2-3.25.81s-1.62,1.42-2.23,2.43c-.61,1.01-.81,2.23-.81,3.65s.2,2.64.81,3.65,1.22,1.83,2.23,2.43,2.03.81,3.45.81c1.62,0,2.84-.41,3.85-1.22s1.62-2.03,2.03-3.45h-7.1v-3.25h11.16v3.65c-.2,1.42-.81,2.84-1.83,4.06s-2.03,2.23-3.45,3.04-3.04,1.01-4.87,1.01c-2.03,0-3.85-.41-5.48-1.42-1.62-.81-2.84-2.23-3.85-3.85s-1.42-3.45-1.42-5.48.41-3.85,1.42-5.48,2.23-2.84,3.85-3.85c1.62-.81,3.45-1.42,5.48-1.42,2.43,0,4.46.61,6.09,1.62,1.83,1.22,2.84,2.84,3.65,4.87,0,0-4.87,0-4.87,0Z"/>
      <path class="cls-2" d="m71.2,106.43v5.07h7.1v3.25h-7.1v5.48h7.91v3.45h-11.97v-20.69h11.97v3.45h-7.91Z"/>
      <path class="cls-2" d="m86,123.27c-1.22-.41-2.03-1.22-2.84-2.23-.61-1.01-1.01-2.03-1.01-3.25h4.46c0,.81.41,1.62.81,2.03.61.41,1.22.81,2.23.81s1.83-.2,2.23-.61c.61-.41.81-1.01.81-1.83,0-.61-.2-1.22-.61-1.42-.41-.41-.81-.81-1.42-1.01s-1.42-.41-2.43-.81c-1.42-.41-2.43-.81-3.25-1.22s-1.62-1.01-2.23-1.83-.81-1.83-.81-3.04.41-2.23,1.01-3.25,1.42-1.62,2.64-2.03c1.01-.41,2.43-.81,3.85-.81,2.23,0,3.85.61,5.27,1.62s2.03,2.43,2.23,4.26h-4.67c0-.81-.41-1.22-.81-1.83-.61-.41-1.22-.61-2.23-.61-.81,0-1.42.2-2.03.61-.41.41-.81,1.01-.81,1.83,0,.61.2,1.01.61,1.42s.81.61,1.42.81,1.22.41,2.23.81c1.42.41,2.43.81,3.25,1.22.81.41,1.62,1.01,2.23,1.83s1.01,1.83,1.01,3.04c0,1.01-.2,2.23-.81,3.04s-1.42,1.62-2.43,2.23-2.43.81-4.06.81c-1.22.2-2.64-.2-3.85-.61Z"/>
      <path class="cls-2" d="m115.01,102.98v3.45h-5.48v17.44h-4.26v-17.44h-5.48v-3.45s15.21,0,15.21,0Z"/>
      <path class="cls-2" d="m122.52,122.66c-1.62-1.01-2.84-2.23-3.85-3.85-1.01-1.62-1.42-3.45-1.42-5.48s.41-3.85,1.42-5.48c1.01-1.62,2.23-2.84,3.85-3.85,1.62-1.01,3.45-1.42,5.27-1.42,2.03,0,3.85.41,5.27,1.42s2.84,2.23,3.85,3.85,1.42,3.45,1.42,5.48-.41,3.85-1.42,5.48c-1.01,1.62-2.23,2.84-3.85,3.85s-3.45,1.42-5.27,1.42-3.65-.61-5.27-1.42Zm8.52-3.25c1.01-.61,1.62-1.42,2.23-2.43.61-1.01.81-2.23.81-3.65s-.2-2.64-.81-3.65-1.22-1.83-2.23-2.43-2.03-.81-3.25-.81-2.43.2-3.25.81-1.62,1.42-2.23,2.43-.81,2.23-.81,3.65.2,2.64.81,3.65c.61,1.01,1.22,1.83,2.23,2.43s2.03.81,3.25.81,2.43-.2,3.25-.81Z"/>
      <path class="cls-2" d="m152.33,123.88l-4.67-8.11h-2.03v8.11h-4.26v-20.89h7.71c1.62,0,3.04.2,4.06.81s2.03,1.42,2.64,2.23c.61,1.01.81,2.03.81,3.25,0,1.42-.41,2.64-1.22,3.65s-2.03,1.83-3.45,2.23l5.07,8.52h-4.67v.2Zm-6.69-11.36h3.45c1.22,0,2.03-.2,2.43-.81.61-.61.81-1.22.81-2.23s-.2-1.62-.81-2.23c-.61-.61-1.42-.81-2.43-.81h-3.45v6.09Z"/>
    </g>
    <g>
      <path class="cls-2" d="m48.48,127.32v6.69h-.81v-6.69h.81Z"/>
      <path class="cls-2" d="m58.82,129.35c.41.41.61,1.01.61,1.62v3.04h-.81v-3.04c0-.61-.2-1.01-.41-1.22s-.61-.41-1.01-.41-.81.2-1.01.41-.41.61-.41,1.22v2.84h-.81v-5.27h.81v.81c.2-.2.41-.41.61-.61.2-.2.61-.2,1.01-.2.61.2,1.01.41,1.42.81Z"/>
      <path class="cls-2" d="m73.02,128.95c.41.2.61.41.81.81.2.41.2.81.2,1.22v3.04h-.81v-3.04c0-.61-.2-1.01-.41-1.22-.2-.2-.61-.41-1.01-.41s-.81.2-1.01.41c-.2.2-.41.61-.41,1.22v2.84h-.81v-3.04c0-.61-.2-1.01-.41-1.22-.2-.2-.61-.41-1.01-.41s-.81.2-1.01.41c-.2.2-.41.61-.41,1.22v2.84h-.81v-5.27h.81v.81l.61-.61c.2-.2.61-.2,1.01-.2s.81,0,1.22.2c.41.2.61.41.81.81.2-.41.41-.61.81-.81s.81-.41,1.22-.41c0,.61.41.61.61.81Z"/>
      <path class="cls-2" d="m81.34,133.82c-.41-.2-.81-.61-1.01-1.01s-.41-.81-.41-1.42.2-1.01.41-1.42c.2-.41.61-.81,1.01-1.01s.81-.41,1.42-.41c.41,0,1.01.2,1.42.41s.81.61,1.01,1.01.41.81.41,1.42-.2,1.01-.41,1.42c-.2.41-.61.81-1.01,1.01s-.81.41-1.42.41-1.01-.2-1.42-.41Zm2.23-.61l.61-.61c.2-.2.2-.61.2-1.01s0-.81-.2-1.01-.41-.61-.61-.61c-.2-.2-.61-.2-.81-.2-.41,0-.61,0-.81.2l-.61.61c-.41,0-.41.41-.41.81s0,.81.2,1.01.41.61.61.61c.2.2.61.2.81.2.41.2.61.2,1.01,0Z"/>
      <path class="cls-2" d="m92.9,128.95c.41-.2.81-.2,1.22-.2s.81.2,1.22.41c.41.2.61.61.81,1.01.2.41.41.81.41,1.42s-.2,1.01-.41,1.42c-.2.41-.61.81-.81,1.01-.41.2-.81.41-1.22.41s-.81,0-1.22-.2c-.41-.2-.61-.41-.81-.81v1.01h-.81v-7.1h.81v2.43c.2-.2.41-.61.81-.81Zm2.43,1.42c-.2-.2-.41-.61-.61-.61-.2-.2-.61-.2-.81-.2-.41,0-.61,0-.81.2l-.61.61c-.2.2-.2.61-.2,1.01s0,.81.2,1.01.41.61.61.61.61.2.81.2c.41,0,.61,0,.81-.2l.61-.61c.2-.2.2-.61.2-1.01.2-.41,0-.61-.2-1.01Z"/>
      <path class="cls-2" d="m102.43,127.73q-.2-.2-.2-.41c0-.2,0-.41.2-.41s.2-.2.41-.2.2,0,.41.2q.2.2.2.41c0,.2,0,.41-.2.41q-.2.2-.41.2s-.2,0-.41-.2Zm1.01,1.01v5.27h-.81v-5.27h.81Z"/>
      <path class="cls-2" d="m110.55,126.92v7.1h-.81v-7.1h.81Z"/>
      <path class="cls-2" d="m116.84,127.73q-.2-.2-.2-.41c0-.2,0-.41.2-.41s.2-.2.41-.2.2,0,.41.2q.2.2.2.41c0,.2,0,.41-.2.41q-.2.2-.41.2c-.2,0-.41,0-.41-.2Zm.81,1.01v5.27h-.81v-5.27h.81Z"/>
      <path class="cls-2" d="m123.94,129.96c.2-.41.61-.81.81-1.01.41-.2.81-.41,1.22-.41s.81,0,1.22.2c.41.2.61.41.81.81v-1.01h.81v5.27h-.81v-1.01c-.2.41-.41.61-.81.81-.41.2-.81.2-1.22.2s-.81-.2-1.22-.41-.61-.61-.81-1.01c-.2-.41-.41-.81-.41-1.42,0,0,.2-.61.41-1.01Zm3.85.41c-.2-.2-.41-.61-.61-.61-.2-.2-.61-.2-.81-.2-.41,0-.61,0-.81.2l-.61.61c-.2.2-.2.61-.2,1.01s0,.81.2,1.01.41.61.61.61c.2.2.61.2.81.2.41,0,.61,0,.81-.2s.41-.41.61-.61.2-.61.2-1.01,0-.61-.2-1.01Z"/>
      <path class="cls-2" d="m136.72,128.95c.2-.2.61-.2,1.01-.2v.81h-.2c-1.01,0-1.42.61-1.42,1.62v2.84h-.81v-5.27h.81v1.01c0-.41.2-.61.61-.81Z"/>
      <path class="cls-2" d="m143.61,127.73q-.2-.2-.2-.41c0-.2,0-.41.2-.41s.2-.2.41-.2.2,0,.41.2.2.2.2.41,0,.41-.2.41q-.2.2-.41.2c-.2,0-.41,0-.41-.2Zm.81,1.01v5.27h-.81v-5.27h.81Z"/>
      <path class="cls-2" d="m151.52,133.82c-.41-.2-.81-.61-1.01-1.01s-.41-.81-.41-1.42.2-1.01.41-1.42.61-.81,1.01-1.01.81-.41,1.42-.41c.41,0,1.01.2,1.42.41s.81.61,1.01,1.01.41.81.41,1.42-.2,1.01-.41,1.42-.61.81-1.01,1.01-.81.41-1.42.41-1.01-.2-1.42-.41Zm2.23-.61c.2-.2.41-.41.61-.61.2-.2.2-.61.2-1.01s0-.81-.2-1.01-.41-.61-.61-.61c-.2-.2-.61-.2-.81-.2-.41,0-.61,0-.81.2s-.41.41-.61.61c-.2.2-.2.61-.2,1.01s0,.81.2,1.01.41.61.61.61c.2.2.61.2.81.2s.61,0,.81-.2Z"/>
    </g>
    <path class="cls-2" d="m110.75,70.32h-7.91v-3.65c0-.41-.2-.81-.41-1.01-.2-.2-.81,0-1.01.2-3.65,2.43-7.3,4.87-10.95,7.51-.41.2-.61,1.01-.81,1.42v7.3c0,1.01-.41,1.42-1.42,1.83-3.45,1.01-6.9,2.03-10.35,3.04-.81.2-1.22.61-1.22,1.62v6.29c0,1.01.41,1.42,1.42,1.42h32.46q1.42,0,1.42-1.42v-22.72q.2-1.83-1.22-1.83Zm-21.1,24.34h-11.36v-5.88c0-.2.2-.61.41-.61,3.65-1.01,7.1-2.23,10.75-3.25h.2v9.74Zm11.97,0h-10.55v-9.53c0-.41.2-.81.41-.81,3.25-1.01,6.49-2.03,9.94-3.04v13.39h.2Zm-1.01-14.6c-3.25,1.01-6.29,1.83-9.53,2.84v-8.11c0-.2.2-.41.2-.61,3.25-2.23,6.69-4.46,10.14-6.9v11.36c.2.81,0,1.22-.81,1.42Zm6.69,14.6h-4.26v-13.19c0-.41.2-.81.41-.81,1.22-.41,2.43-.81,3.85-1.22,0,0,0,15.21,0,15.21Zm3.45,0h-2.03v-15.42c0-1.42-.2-1.62-1.62-1.22s-2.84.81-4.26,1.22v-7.51h7.91s0,22.92,0,22.92Z"/>
    <path class="cls-3" d="m113.19,95.07v-9.33c0-.2.2-.41.41-.2l16.84,4.87c.2,0,.2.2.2.2v4.46c0,.2-.2.2-.2.2h-16.84c-.2,0-.41,0-.41-.2Z"/>
  </g>
</svg>