<?xml version="1.0" encoding="UTF-8"?>
<svg id="Layer_1" data-name="Layer 1" xmlns="http://www.w3.org/2000/svg" viewBox="0 0 200 200">
  <defs>
    <style>
      .cls-1 {
        fill: #fff;
      }

      .cls-2 {
        fill: #034ea2;
      }
    </style>
  </defs>
  <rect class="cls-2" width="200" height="200"/>
  <g>
    <path id="path10" class="cls-1" d="m176.13,86.74c2.08,11.9-30.32,27.49-72.37,34.81-42.05,7.32-77.81,3.61-79.89-8.3-2.07-11.9,30.34-27.48,72.38-34.81,42.05-7.33,77.81-3.61,79.88,8.29Z"/>
    <g id="g8872">
      <polygon id="polygon16" class="cls-2" points="136.56 104.41 136.34 92.04 140.24 92.04 140.24 107.63 134.63 107.63 130.74 94.83 130.65 94.83 130.87 107.63 126.99 107.63 126.99 92.04 132.85 92.04 136.47 104.41 136.56 104.41"/>
      <polygon id="polygon18" class="cls-2" points="65.62 93.5 63.47 107.8 59.21 107.8 62.13 92.04 69.14 92.04 72.05 107.8 67.81 107.8 65.71 93.5 65.62 93.5"/>
      <polygon id="polygon20" class="cls-2" points="81.96 107.8 79.33 93.63 79.24 93.63 79.14 107.8 75.2 107.8 75.54 92.04 81.98 92.04 83.92 104.08 84 104.08 85.95 92.04 92.38 92.04 92.72 107.8 88.78 107.8 88.68 93.63 88.6 93.63 85.96 107.8 81.96 107.8"/>
      <path id="path22" class="cls-2" d="m52.57,103.35c.15.38.11.87.04,1.17-.13.52-.49,1.06-1.54,1.06-.99,0-1.59-.57-1.59-1.43v-1.53h-4.23v1.22c0,3.51,2.76,4.57,5.73,4.57s5.2-.97,5.57-3.6c.19-1.36.05-2.25-.02-2.59-.66-3.3-6.65-4.28-7.09-6.13-.08-.32-.05-.65-.02-.83.11-.5.45-1.06,1.44-1.06.92,0,1.47.57,1.47,1.43v.97h3.93v-1.11c0-3.43-3.08-3.97-5.31-3.97-2.8,0-5.09.93-5.51,3.49-.11.71-.13,1.34.04,2.13.69,3.22,6.29,4.15,7.1,6.19h0Z"/>
      <path id="path24" class="cls-2" d="m103.82,103.32c.16.38.11.86.04,1.15-.13.52-.48,1.05-1.52,1.05-.97,0-1.57-.57-1.57-1.41v-1.51h-4.19v1.2c0,3.48,2.74,4.53,5.67,4.53s5.15-.96,5.51-3.56c.19-1.35.06-2.23-.01-2.56-.66-3.27-6.58-4.24-7.02-6.07-.08-.31-.05-.65-.02-.82.11-.51.45-1.05,1.43-1.05.91,0,1.45.56,1.45,1.41v.96h3.9v-1.1c0-3.4-3.06-3.93-5.27-3.93-2.77,0-5.04.91-5.45,3.46-.11.7-.13,1.32.04,2.11.68,3.19,6.22,4.11,7.02,6.13h0Z"/>
      <path id="path26" class="cls-2" d="m117.06,105.44c1.09,0,1.44-.76,1.51-1.14.03-.17.04-.4.04-.6v-11.66h3.99v11.31c0,.29-.02.89-.03,1.04-.28,2.94-2.61,3.9-5.5,3.9s-5.23-.95-5.5-3.9c-.01-.15-.04-.75-.03-1.04v-11.31h3.98v11.66c0,.2,0,.43.04.6.09.39.42,1.14,1.52,1.14Z"/>
      <path id="path28" class="cls-2" d="m149.94,105.27c1.14,0,1.54-.72,1.61-1.14.03-.18.04-.4.04-.6v-2.29h-1.62v-2.3h5.59v4.23c0,.29-.01.51-.06,1.04-.26,2.87-2.75,3.89-5.54,3.89s-5.28-1.02-5.55-3.89c-.05-.53-.05-.74-.06-1.04v-6.64c0-.28.04-.78.07-1.04.35-2.95,2.74-3.89,5.54-3.89s5.24.94,5.53,3.89c.05.5.04,1.04.04,1.04v.53h-3.97v-.88s0-.38-.05-.6c-.07-.35-.37-1.15-1.57-1.15s-1.49.76-1.57,1.15c-.05.21-.07.49-.07.74v7.21c0,.2,0,.42.04.6.07.42.47,1.14,1.61,1.14Z"/>
    </g>
  </g>
</svg>