<?xml version="1.0" encoding="UTF-8"?>
<svg id="Layer_1" data-name="Layer 1" xmlns="http://www.w3.org/2000/svg" viewBox="0 0 200 200">
  <defs>
    <style>
      .cls-1 {
        fill: #fff;
      }

      .cls-2 {
        fill: #ea0000;
      }
    </style>
  </defs>
  <rect class="cls-2" width="200" height="200"/>
  <g>
    <path class="cls-1" d="m76.53,109.16c0-.12,0-.18,0-.24,0-1.54,0-3.07,0-4.61,0-.37,0-.37.37-.37,3.65,0,7.3,0,10.95,0,1.02,0,2.04,0,3.07,0,.13,0,.26,0,.39-.02.42-.06.54-.19.66-.65.04-.18-.16-.59-.39-.69-.2-.09-.43-.18-.64-.18-2.52.03-5.04.08-7.57.12-.74.01-1.49.06-2.22-.02-.78-.09-1.56-.26-2.21-.79-.27-.22-.58-.37-.85-.59-.46-.37-.81-.83-1.17-1.28-.48-.6-.66-1.32-.91-2-.17-.46-.15-.99-.17-1.5-.01-.38.02-.77.08-1.15.04-.25.15-.5.25-.74.13-.3.26-.61.44-.89.28-.42.58-.82.95-1.19.4-.4.89-.66,1.33-1.01.1-.08.23-.13.35-.18.27-.11.54-.19.8-.31.46-.22.93-.34,1.44-.33.34,0,.68-.01,1.02-.01,4.46,0,8.93,0,13.39,0,.17,0,.35,0,.54,0v5.26c-.08,0-.17,0-.26,0-4.53,0-9.06,0-13.6,0-.25,0-.51,0-.76.05-.59.12-.85.71-.53,1.14.15.21.37.26.6.27.22.01.44,0,.65,0,2.98,0,5.96-.01,8.93.01.48,0,.95.17,1.42.29.36.09.71.22,1.07.33.04.01.09.02.12.04.51.42,1.03.82,1.51,1.27.54.5.84,1.17,1.06,1.86.03.09.07.18.1.27.47,1.2.5,2.42.12,3.63-.2.64-.53,1.25-.85,1.84-.17.3-.46.53-.71.79-.17.17-.36.32-.53.49-.02.02-.04.03-.06.05-.77.43-1.56.8-2.44.93-.29.04-.59.07-.89.07-4.69,0-9.38,0-14.07,0-.24,0-.49,0-.76,0Z"/>
    <path class="cls-1" d="m137.35,102.93c-.08-4.12-.15-8.22-.23-12.33h5.02c0,.16,0,.33,0,.49,0,5.83,0,11.67,0,17.5,0,.56,0,.57-.58.57-1.7,0-3.41-.02-5.11.01-.64.01-.97-.3-1.27-.8-.31-.52-.71-.98-1.06-1.48-.11-.15-.19-.33-.3-.49-.35-.49-.72-.95-1.06-1.45-.42-.61-.81-1.25-1.24-1.87-.3-.43-.64-.84-.94-1.27-.32-.45-.6-.93-.91-1.38-.27-.39-.57-.77-.86-1.15-.1-.14-.2-.28-.3-.43-.46-.65-.92-1.3-1.38-1.95-.03-.04-.07-.07-.15-.14-.02.13-.04.22-.04.31,0,3.94,0,7.88.02,11.81,0,.2-.06.25-.25.25-1.42,0-2.85.01-4.27.02-.13,0-.26-.01-.41-.02,0-.12,0-.21,0-.31,0-3.41,0-6.83,0-10.24,0-1.91.03-3.82.05-5.73,0-.7.03-1.4.03-2.09,0-.23.13-.21.27-.21.72,0,1.43.02,2.15.02,1.22,0,2.44.01,3.67,0,.25,0,.4.09.54.29.24.35.51.68.75,1.03.29.43.56.88.85,1.31.29.42.61.82.89,1.25.28.41.52.85.8,1.25.31.44.65.85.96,1.29.28.39.54.81.8,1.21.02.04.04.08.06.12.31.41.62.81.92,1.23.57.82,1.13,1.65,1.69,2.47.04.06.09.11.13.16.12.17.24.33.35.5.09.13.13.32.41.25Z"/>
    <path class="cls-1" d="m112.3,90.58c.12.32.21.59.32.85.16.36.32.71.5,1.05.11.22.26.41.36.63.12.27.2.57.33.84.29.63.6,1.25.9,1.87.07.15.13.31.2.45.12.25.25.5.36.75.11.24.22.49.32.74.06.15.09.34.19.45.34.34.34.84.57,1.21.3.47.46.99.68,1.49.15.34.32.67.48,1.01.27.57.55,1.14.82,1.7.03.05.05.11.08.17.19.43.38.85.57,1.28.26.6.53,1.19.79,1.79.06.14.12.27.18.41.17.38.34.76.52,1.13.14.28.31.54.48.84-.08,0-.16.03-.23.03-1.97,0-3.95,0-5.92,0-.2,0-.31-.07-.39-.27-.12-.29-.27-.56-.41-.84-.03-.06-.07-.12-.1-.18-.24-.57-.47-1.14-.71-1.71-.05-.13-.11-.18-.27-.16-.36.03-.71.02-1.07.02-2.26,0-4.52,0-6.78,0-.27,0-.41.13-.49.35-.28.73-.54,1.46-.82,2.18-.07.18-.18.36-.29.52-.03.05-.11.08-.17.08-2.06-.01-4.12-.03-6.18-.05-.02,0-.05-.01-.11-.04.21-.46.41-.9.61-1.35.1-.23.21-.46.31-.69.02-.05.03-.1.06-.15.31-.61.62-1.22.93-1.84.02-.04.05-.08.06-.12.16-.48.39-.92.63-1.37.47-.89.9-1.81,1.33-2.72.34-.72.64-1.45.97-2.16.26-.56.56-1.1.82-1.65.31-.66.59-1.33.89-1.99.24-.51.49-1.02.73-1.52,0-.02.02-.03.03-.05.29-.65.57-1.3.87-1.95.1-.21.22-.41.33-.61.02-.03.06-.05.06-.08.06-.39.35-.38.64-.38,1.94,0,3.88,0,5.81,0,.09,0,.17.02.22.02Zm-3.37,5.69c-.04.19-.05.32-.1.44-.25.62-.5,1.24-.76,1.85-.35.81-.71,1.62-1.05,2.43-.15.35-.12.39.26.38,1.19,0,2.37,0,3.56,0,.31,0,.37-.09.24-.37-.11-.23-.25-.46-.34-.7-.2-.54-.38-1.08-.58-1.62-.03-.09-.08-.17-.12-.26-.15-.34-.31-.68-.44-1.03-.14-.4-.32-.77-.67-1.12Z"/>
    <path class="cls-1" d="m143.13,90.56c.26,0,.43,0,.61,0,1.82,0,3.65,0,5.47,0,.25,0,.45.04.48.35.01.1.11.19.18.28.21.3.41.6.62.9.05.08.12.15.18.22.1.15.21.29.31.44.02.04.03.08.06.12.34.45.68.9,1.01,1.36.15.2.27.43.41.64.5.72,1.01,1.43,1.52,2.15.26.37.52.74.79,1.1.11.14.25.26.36.39.05-.02.07-.02.08-.03.26-.38.51-.77.79-1.14.31-.42.64-.82.95-1.23.14-.19.25-.4.39-.59.32-.43.65-.86.96-1.3.24-.33.45-.68.69-1.01.18-.26.37-.51.55-.76.09-.13.16-.28.24-.42.04-.07.08-.13.12-.19.05-.06.12-.11.16-.17.22-.31.42-.63.65-.93.07-.09.23-.16.35-.17.71-.01,1.41,0,2.12,0,1.24,0,2.48,0,3.72.01.09,0,.19,0,.37,0-.14.18-.23.29-.31.41-.1.14-.19.28-.28.43-.05.08-.11.15-.16.23-.09.14-.18.29-.26.43-.03.05-.04.12-.08.16-.52.39-.79.99-1.19,1.47-.13.16-.26.32-.39.49-.04.05-.11.1-.13.16-.2.54-.65.89-.96,1.35-.55.8-1.16,1.56-1.74,2.34-.09.12-.19.22-.29.34-.05.06-.13.11-.15.18-.17.51-.64.81-.9,1.27-.26.47-.6.89-.9,1.34-.07.1-.16.18-.23.28-.12.17-.24.35-.36.53-.05.07-.08.16-.15.21-.35.29-.47.67-.47,1.11.01,1.46,0,2.92,0,4.37,0,.45,0,.89,0,1.34,0,.14-.02.23-.2.23-2.01,0-4.02,0-6.02,0-.02,0-.03,0-.08-.03,0-.08,0-.17,0-.27,0-1.86,0-3.72,0-5.58,0-.5-.22-.89-.52-1.27-.39-.49-.73-1.02-1.1-1.52-.23-.32-.47-.64-.71-.96-.09-.13-.2-.24-.29-.37-.3-.45-.6-.9-.9-1.34-.05-.07-.12-.12-.18-.18-.07-.07-.15-.12-.2-.2-.2-.28-.4-.56-.6-.84-.64-.92-1.28-1.84-1.92-2.76-.1-.14-.22-.26-.34-.39-.03-.03-.07-.05-.09-.09-.31-.46-.6-.93-.92-1.38-.28-.39-.61-.75-.91-1.13-.06-.08-.1-.19-.18-.35Z"/>
    <path class="cls-1" d="m43.76,106.15c1.48-1.71,2.93-3.39,4.39-5.08.07.25.1.47.2.65.21.4.59.63.98.79.42.17.88.28,1.32.38.76.15,1.53.26,2.29.41,1.16.22,2.32.48,3.49.67.64.1,1.26.21,1.87.43.14.05.35-.04.5-.12.05-.03.03-.24-.01-.35-.11-.29-.25-.57-.37-.86-.06-.14-.11-.29-.12-.45,0-.09.05-.26.09-.26.13,0,.3,0,.38.07.55.48,1.1.97,1.63,1.47.64.6,1.26,1.23,1.89,1.83.32.3.67.58.99.88.31.29.6.59.91.89.28.27.58.54.87.79.32.28.57.64.95.86.07.04.11.16.14.24.08.19.16.38,0,.57-.15.18-.35.19-.58.16-.74-.11-1.48-.21-2.22-.32-.71-.11-1.41-.22-2.11-.35-.6-.11-1.19-.27-1.79-.38-.56-.1-1.12-.15-1.68-.25-.29-.05-.57-.15-.86-.21-.78-.15-1.56-.27-2.34-.42-.4-.07-.8-.17-1.2-.25-.73-.13-1.46-.25-2.19-.39-.37-.07-.73-.15-1.1-.22-.68-.13-1.37-.25-2.05-.38-.61-.12-1.21-.26-1.81-.36-.63-.11-1.28-.19-1.91-.29-.17-.03-.33-.08-.55-.14Z"/>
    <path class="cls-1" d="m57.86,103.29c-2.14-.38-4.26-.76-6.44-1.15.09-.15.13-.27.21-.34.52-.42.49-.99.43-1.56-.02-.22-.12-.43-.19-.65-.16-.49-.31-.98-.48-1.46-.3-.83-.61-1.66-.91-2.5-.08-.21-.12-.44-.19-.65-.09-.29-.19-.58-.29-.87-.11-.31-.22-.62-.33-.93-.21-.57-.42-1.14-.63-1.71-.03-.08-.1-.14-.18-.24-.47.51-.91.99-1.36,1.47-.03-.01-.07-.02-.1-.03-.01-.15-.06-.3-.04-.44.1-.55.21-1.09.34-1.63.22-.93.52-1.85.65-2.79.13-.93.56-1.79.64-2.71.08-.89.47-1.67.64-2.52.03-.16.07-.35.31-.37.25-.02.48,0,.58.28.09.22.17.43.25.65.03.09.04.19.08.28.37.97.73,1.93,1.1,2.9.03.07.03.15.06.23.09.31.18.62.29.92.12.36.26.72.39,1.08.1.29.2.57.31.86.1.28.21.55.31.82.13.34.26.68.37,1.03.15.43.29.86.42,1.28.1.31.18.63.29.95.09.28.22.55.32.83.14.42.26.85.41,1.26.33.89.69,1.76,1.03,2.65.05.14.07.29.11.43.02.1.03.21.07.31.33.88.66,1.75.99,2.63.07.19.12.38.18.57.12.36.24.72.38,1.15Z"/>
    <path class="cls-1" d="m48.51,92.6c.13.4.26.8.39,1.2.08.25.12.51.22.75.2.47.33.97.47,1.46.24.8.57,1.56.78,2.37.03.13.11.24.19.42-.56-.16-.99.09-1.45.21-.39.1-.61.45-.86.74-.51.59-1.03,1.18-1.54,1.77-.22.25-.46.49-.67.75-.09.11-.11.27-.14.34-.18.14-.34.24-.47.37-.39.42-.77.84-1.13,1.27-.33.38-.63.78-.95,1.17-.07.08-.14.16-.23.21-.33.19-.4.48-.32.82.43.08.87.16,1.3.26.14.03.26.14.4.21-.1.1-.17.24-.29.3-.26.12-.53.22-.81.3-.56.17-1.12.33-1.67.49-.2.06-.4.1-.6.16-.45.13-.89.28-1.34.41-.48.13-.96.25-1.44.38-.23.06-.44.18-.66.24-1.05.28-2.1.56-3.16.81-.15.04-.37-.11-.51-.22-.05-.04.01-.28.09-.38.41-.52.83-1.03,1.26-1.53.27-.31.67-.56.82-.92.18-.44.67-.56.82-1.01.06-.19.31-.32.46-.49.6-.69,1.19-1.39,1.78-2.08.44-.52.97-.97,1.31-1.59.16-.29.45-.49.67-.75.66-.77,1.32-1.55,1.99-2.32.28-.32.58-.63.87-.94.02-.03.06-.04.07-.07.44-.72,1.13-1.24,1.62-1.92.24-.34.57-.62.86-.94.06-.06.1-.14.14-.22.04-.06.06-.13.1-.18.26-.29.57-.54.76-.87.22-.37.57-.61.88-.98Z"/>
    <path class="cls-1" d="m67.3,100.81c0,.66.04,1.33-.01,1.99-.04.5-.2.99-.31,1.48-.08.37-.16.75-.27,1.12-.16.51-.36,1.01-.53,1.52-.05.16-.1.32-.13.48-.04.23-.2.26-.39.25-.19,0-.26-.12-.23-.3.06-.41.13-.83.18-1.24.15-1.27.34-2.54.41-3.82.05-.87-.07-1.76-.15-2.63-.08-.77-.2-1.53-.35-2.29-.07-.39-.24-.76-.36-1.14-.06-.18-.11-.37-.17-.55-.12-.35-.23-.71-.38-1.05-.25-.57-.52-1.14-.82-1.69-.28-.52-.58-1.03-.92-1.5-.38-.53-.83-1.01-1.24-1.51-.07-.09-.12-.2-.2-.27-.34-.33-.69-.65-1.04-.97-.07-.06-.13-.12-.2-.19-.07-.08-.13-.19-.22-.26-.47-.36-.94-.71-1.42-1.05-.23-.16-.49-.28-.74-.42-.03-.02-.06-.03-.09-.05-.67-.55-1.44-.92-2.25-1.2-.06-.02-.12-.04-.16-.08-.31-.29-.7-.38-1.08-.5-.5-.16-.98-.35-1.48-.52-.15-.05-.3-.08-.46-.11-.21-.04-.33-.18-.32-.38.02-.22.21-.23.38-.22.86.08,1.71.18,2.52.51.33.14.7.19,1.06.29.05.01.11.02.15.04.72.35,1.44.69,2.15,1.05.49.25.98.53,1.45.82.3.18.57.4.84.62.4.32.78.66,1.17,1,.35.31.72.62,1.05.96.29.3.54.64.8.97.04.05.06.11.1.16.3.39.6.78.9,1.17.1.13.18.28.26.42.16.26.33.51.47.78.11.21.16.46.28.67.49.79.68,1.71,1.06,2.55.13.3.12.66.2.99.14.6.35,1.19.43,1.8.1.77.1,1.55.14,2.32-.02,0-.05,0-.07,0Z"/>
    <path class="cls-1" d="m32.75,100.57c.1-.75.22-1.69.35-2.62.07-.51.15-1.02.26-1.52.1-.42.24-.84.37-1.25.1-.29.22-.57.33-.85.02-.06.07-.11.08-.16.14-.7.59-1.24.89-1.86.2-.42.48-.81.77-1.18.3-.39.68-.72.96-1.13.17-.25.33-.45.57-.65.34-.28.58-.67.86-1.01.03-.04.08-.06.13-.08.07-.03.18-.05.21-.1.22-.38.63-.54.92-.84.12-.12.27-.22.41-.32.11-.08.24-.12.33-.22.36-.4.85-.62,1.3-.89.57-.34,1.2-.59,1.8-.89.17-.08.33-.19.51-.26.34-.13.68-.25,1.03-.37.41-.14.81-.31,1.23-.41.42-.1.86-.14,1.29-.21.22-.03.45-.07.67-.09.21-.03.37.06.4.28.04.23-.14.27-.32.33-.44.14-.88.31-1.32.47-.16.06-.33.11-.49.17-.34.15-.68.31-1.02.46-.11.05-.22.1-.33.15-.34.14-.72.21-.95.55-.03.04-.1.05-.16.07-.17.06-.37.08-.51.18-.8.52-1.6,1.03-2.38,1.58-.93.65-1.7,1.48-2.5,2.27-.21.21-.53.34-.51.71,0,.02-.04.07-.06.07-.27.04-.36.28-.49.47-.35.51-.72,1-1.06,1.52-.18.27-.31.58-.45.88-.28.59-.56,1.18-.84,1.77,0,0,0,.02,0,.02-.19,1.02-.74,1.93-.82,2.98-.12,1.51-.36,3.02-.18,4.54.11.96.24,1.92.39,2.87.05.3.21.57.31.86.04.11.08.22.08.33.01.13.04.3-.15.34-.18.04-.3-.02-.4-.19-.3-.51-.47-1.05-.63-1.62-.44-1.64-.73-3.29-.87-5.17Z"/>
    <path class="cls-1" d="m62.25,112.98c-.31.03-.49.17-.62.42-.07.14-.22.24-.35.34-.45.37-.89.75-1.36,1.09-.38.27-.79.5-1.2.72-.54.29-1.09.59-1.66.81-1.1.43-2.2.87-3.38,1.04-.52.08-1.04.25-1.56.3-.8.08-1.62.12-2.42.11-.72-.02-1.45-.08-2.15-.22-1.14-.23-2.29-.41-3.37-.89-.53-.24-1.11-.36-1.64-.58-.29-.12-.54-.36-.82-.49-.65-.3-1.23-.71-1.78-1.17-.5-.42-1.04-.79-1.52-1.22-.62-.56-1.24-1.13-1.68-1.85-.06-.09-.15-.17-.24-.23-.21-.13-.24-.33-.22-.55.02-.21.17-.27.33-.15.28.22.53.48.83.67.32.2.56.5.86.72.81.61,1.65,1.17,2.48,1.74.18.12.39.19.58.28.08.04.15.08.22.13.18.11.34.25.53.33.38.16.74.33,1.1.52.39.21.83.34,1.26.48.84.27,1.68.58,2.54.76.83.17,1.69.24,2.54.27,1.04.03,2.08,0,3.11-.05.65-.03,1.29-.13,1.89-.44.22-.11.49-.11.73-.17.1-.02.21-.03.31-.07.77-.32,1.53-.65,2.29-.97.16-.07.32-.13.47-.22.6-.36,1.2-.72,1.79-1.09.41-.26.8-.54,1.2-.82.05-.03.11-.06.15-.1.27-.24.55-.48.81-.73.18-.18.33-.39.59-.49.09-.04.13-.2.22-.28.14-.13.28-.28.45-.36.07-.03.23.05.3.13.04.04,0,.2-.04.27-.25.31-.51.61-.76.92-.05.07-.08.15-.14.22-.08.11-.16.22-.27.3-.2.15-.4.29-.4.59Z"/>
  </g>
</svg>