<?xml version="1.0" encoding="UTF-8"?>
<svg id="Layer_1" data-name="Layer 1" xmlns="http://www.w3.org/2000/svg" viewBox="0 0 200 200">
  <defs>
    <style>
      .cls-1 {
        fill: #fff;
      }

      .cls-2 {
        fill: red;
      }
    </style>
  </defs>
  <rect width="200" height="200"/>
  <g>
    <path class="cls-1" d="m99.08,58.12v46.39c-13.52,6.37-27.06,12.74-40.58,19.11-.04-.03-.06-.04-.06-.05,0-.01,0-.03,0-.04,13.47-21.73,26.94-43.46,40.41-65.2.05-.08.11-.14.17-.22,0,0,.03,0,.07,0Z"/>
    <path class="cls-2" d="m101.08,58.16c13.49,21.79,26.98,43.57,40.47,65.35-.02.03-.03.04-.04.05-.01,0-.03.01-.04,0-.1-.04-.2-.08-.3-.13-13.39-6.32-26.79-12.63-40.18-18.95v-46.3s.06-.02.09-.03Z"/>
    <path class="cls-1" d="m128.7,129.14v7.67c.35.1,6.52.14,7.5.04.03-.54,0-1.09.01-1.69h-3.33v-4.26h9.45c0,.18,0,.33,0,.48,0,2.76-.02,5.53,0,8.29.01,1.24-.61,1.96-1.95,1.96-5.31-.01-10.62,0-15.94,0-.12,0-.25,0-.37-.02-.87-.08-1.41-.62-1.5-1.48-.02-.15-.01-.31-.01-.46,0-4.37,0-8.74,0-13.11,0-.24.01-.5.07-.73.16-.7.65-1.11,1.36-1.19.2-.02.4-.02.6-.02,5.22,0,10.44,0,15.66,0,.31,0,.62.02.92.09.67.17,1.08.65,1.12,1.32.05,1.01.01,2.03.01,3.11h-13.61Z"/>
    <path class="cls-1" d="m76.92,129.13h-13.13c-.03.66-.01,1.29-.01,1.97.22,0,.4,0,.58,0,3.48,0,6.95,0,10.43,0,.2,0,.4,0,.6.01.85.06,1.37.52,1.52,1.35.03.17.04.34.04.51,0,2.27,0,4.54,0,6.81,0,.21-.03.43-.07.64-.16.67-.63,1.09-1.32,1.18-.23.03-.46.03-.69.03-5.04,0-10.07,0-15.11,0-.23,0-.46,0-.69-.03-.73-.09-1.31-.58-1.35-1.31-.06-1.04-.02-2.09-.02-3.19h13.13c0-.34.02-.64.02-.95,0-.31,0-.62,0-.98-.21-.01-.4-.03-.6-.03-3.48,0-6.95,0-10.43,0-.25,0-.5,0-.74-.03-.79-.09-1.32-.63-1.4-1.43-.02-.17-.02-.34-.02-.51,0-2.21,0-4.42,0-6.63,0-.19,0-.37.03-.55.1-.75.62-1.27,1.36-1.36.21-.03.43-.02.65-.02,5.07,0,10.13,0,15.2,0,.15,0,.31,0,.46,0,.87.05,1.47.51,1.54,1.37.08,1.02.02,2.06.02,3.13Z"/>
    <path class="cls-1" d="m79.84,124.62c.19,0,.34,0,.49,0,4.16,0,8.31,0,12.47,0,.76,0,1.51.05,2.25.24,2.21.55,3.56,1.96,4.06,4.17.15.64.24,1.31.25,1.97.02,1.7,0,3.4-.05,5.1-.02.76-.2,1.5-.48,2.21-.7,1.85-2.05,2.98-3.97,3.39-.66.14-1.35.21-2.02.2-4.2-.07-8.4-.16-12.6-.25-.12,0-.24-.02-.39-.03v-16.98Zm5.88,12.23c.09.02.15.03.21.03,1.82,0,3.64.02,5.47,0,1.21-.02,2.01-.79,2.05-2,.04-1.25.04-2.5,0-3.75-.04-1.14-.75-1.84-1.89-1.96-.12-.01-.25-.02-.37-.02-1.68,0-3.37,0-5.05,0-.13,0-.26.02-.41.04v7.66Z"/>
    <path class="cls-1" d="m108.06,124.65v12.23c.63,0,1.22,0,1.82,0,.6,0,1.2,0,1.81,0h9.04c.04.07.07.09.07.12,0,1.03.04,2.07,0,3.1-.03.88-.62,1.44-1.51,1.51-.2.02-.4.02-.6.02-4.85,0-9.7,0-14.54,0-.26,0-.53,0-.79-.03-.77-.1-1.29-.62-1.38-1.4-.03-.21-.03-.43-.03-.65,0-4.29,0-8.58,0-12.88,0-.2,0-.4.03-.6.09-.82.62-1.35,1.44-1.44.11-.01.22-.02.32-.02,1.34,0,2.69,0,4.03,0,.08,0,.15.01.29.03Z"/>
    <path class="cls-2" d="m87.48,135.27v-4.59c.14-.02.27-.04.4-.04.93,0,1.85,0,2.78,0,.11,0,.22,0,.32.02.52.06.88.37.89.89.03.97.03,1.94,0,2.91-.01.46-.33.75-.78.85-.05,0-.09.02-.14.02-1.12,0-2.25,0-3.37,0-.03,0-.05-.03-.1-.06Z"/>
  </g>
</svg>