<?xml version="1.0" encoding="UTF-8"?>
<svg xmlns="http://www.w3.org/2000/svg" version="1.1" viewBox="0 0 200 200">
  <defs>
    <style>
      .cls-1 {
        fill: #fff;
      }

      .cls-2 {
        fill: #211e1e;
      }

      .cls-3 {
        fill: #f35c17;
      }
    </style>
  </defs>
  <!-- Generator: Adobe Illustrator 28.7.3, SVG Export Plug-In . SVG Version: 1.2.0 Build 164)  -->
  <g>
    <g id="Layer_1">
      <rect class="cls-1" y="0" width="200" height="200"/>
      <g>
        <path class="cls-2" d="M54.2,91.1h6.7v6.2h5.9v-6.2h6.8v18.3h-6.8v-7.2h-5.9v7.2h-6.7v-18.3Z"/>
        <path class="cls-2" d="M98.4,91.1h6.2l6.9,9.1v-9.1h6.4v18.3h-6.2l-6.9-9.1v9.1h-6.4v-18.3Z"/>
        <path class="cls-2" d="M119.1,91.1h19.1v5h-6v13.3h-6.9v-13.3h-6.2v-5Z"/>
        <path class="cls-2" d="M152,91.1h6.7v10.9c0,1.1-.2,2.1-.6,3.1-.4,1-1,1.8-1.8,2.5-.8.7-1.6,1.2-2.5,1.5-1.2.4-2.7.6-4.4.6s-2.1,0-3.2-.2c-1.2-.1-2.1-.4-2.9-.7-.8-.4-1.5-.9-2.2-1.6-.6-.7-1.1-1.4-1.3-2.1-.4-1.2-.6-2.2-.6-3.1v-10.9h6.7v10.8c0,1,.3,1.9.9,2.5.5.4,1,.7,2.1.7s1.7-.3,2.1-.7c.6-.6.9-1.4.9-2.4v-10.8Z"/>
        <path class="cls-2" d="M159.8,91.1h6.8v18.3h-6.8v-18.3Z"/>
        <path class="cls-2" d="M33.3,102.9l7-.4c.1.9.3,1.7.7,2.2.7.8,1.5,1.1,2.8,1.1s2.1-.4,2.3-1.4c0-.3,0-.9-.4-1.3-.5-.4-1.3-.7-3.1-1.1-3-.6-5.1-1.4-6.4-2.4-1.3-1-2-2.5-2-4.1s.4-2.1,1.1-3c.6-.9,1.6-1.6,2.9-2.1,1.3-.5,3.1-.8,5.4-.8s4.9.5,6.4,1.4c1.5.9,2.5,2.7,2.7,5l-6.9.3c-.2-.9-.4-1.6-.9-1.9-.5-.3-1.1-.6-2-.5-.7,0-1.1.1-1.5.4-.4.3-.5.9-.1,1.2.3.3.9.5,2,.7,2.9.6,5.1,1.2,6.3,1.8,1.3.6,2.2,1.3,2.8,2.2.6.9.9,2,.9,3.1s-.4,2.4-1.2,3.5c-.8,1.1-1.9,1.9-3.2,2.4-1.4.6-3.1.8-5.2.8-3.7,0-6.3-.6-7.7-1.9-1.4-1.3-2.3-3-2.5-5.4"/>
        <path class="cls-3" d="M82.2,104.6l3.6-10.4,3.6,10.5h-7.1Z"/>
        <path class="cls-2" d="M90,91.1h-8.2l-7.7,18.3h6.9l4.8-14,3,9.2h-6.2s1.9,4.8,1.9,4.8h13.1s-7.7-18.3-7.7-18.3Z"/>
      </g>
    </g>
  </g>
</svg>