<?xml version="1.0" encoding="UTF-8"?>
<svg id="Layer_1" data-name="Layer 1" xmlns="http://www.w3.org/2000/svg" viewBox="0 0 200 200">
  <defs>
    <style>
      .cls-1 {
        fill: #fff;
      }

      .cls-2 {
        fill: #004d9c;
      }
    </style>
  </defs>
  <rect class="cls-2" width="200" height="200"/>
  <g>
    <path class="cls-1" d="m99.99,120.55c-16.58,0-33.17-.01-49.75.03-1.21,0-1.94-.39-2.59-1.36-2.89-4.33-4.37-9.13-4.92-14.25-.71-6.67-.11-13.19,2.65-19.38.75-1.69,1.84-3.22,2.77-4.83.59-1.02,1.43-1.33,2.62-1.33,30.29.03,60.58.03,90.87.03,2.67,0,5.33.03,8-.02.86-.02,1.42.28,1.93.93,3.14,4.06,4.78,8.74,5.5,13.75,1.09,7.57.43,14.94-2.89,21.94q-2.14,4.51-7.1,4.5c-15.7,0-31.39,0-47.09,0Zm.02-20.1c17.26,0,34.52,0,51.77,0,.42,0,.89.1,1.26-.04.33-.13.79-.54.79-.82-.05-6.33-1.5-12.22-5.46-17.34-.77-.99-1.64-1.36-2.91-1.36-29.95.04-59.89.06-89.84-.04-2.37,0-3.85.74-4.94,2.67-.04.07-.09.14-.14.21-2.96,4.48-4.12,9.49-4.44,14.76-.12,1.95-.13,1.95,1.87,1.95,17.34,0,34.68,0,52.03,0Zm-27.77,11.12c-.1,0-.2,0-.29.01-.45-1.44-.92-2.88-1.36-4.32q-.94-3.08-4.11-2.93c-.08,0-.2-.03-.25.01-.3.3-.84.62-.84.94-.06,3.25-.05,6.51-.02,9.76,0,.29.19.82.35.84.7.1,1.46.19,2.11,0,.26-.08.4-.91.41-1.4.04-2.02.02-4.05.02-6.07.82,2.04,1.49,4.09,2.1,6.15.26.86.48,1.5,1.64,1.51,1.13,0,1.55-.47,1.84-1.45.61-2.05,1.3-4.07,1.96-6.1.21,2.13.26,4.22.19,6.31-.04,1.13.56,1.21,1.42,1.2.87,0,1.57.02,1.53-1.22-.08-2.49.01-4.99-.03-7.48-.06-3.45.67-2.94-3.13-3.02-.86-.02-1.29.29-1.54,1.12-.61,2.06-1.31,4.09-1.97,6.14Zm61.93,2.37c-.49-.03-.91-.07-1.32-.07-1.27,0-2.54.06-3.8-.04-.48-.04-.94-.43-1.41-.66.44-.19.86-.49,1.31-.54.88-.09,1.77-.01,2.66-.03,3.36-.07,3.12.61,3.02-3.43-.04-1.5-.85-2.22-2.35-2.26-1.73-.04-3.47-.04-5.2,0-1.64.03-2.37.78-2.41,2.44-.03,1.35-.02,2.71,0,4.06.02,1.84.76,2.58,2.65,2.6,1.65.02,3.3,0,4.95,0,1.66,0,1.77-.12,1.89-2.08Zm-53.14-4.79c1.3,0,2.52-.06,3.72.03.5.04,1.38.36,1.39.58.05.96-.8.56-1.31.61-.71.06-1.44.02-2.15.02-3.26,0-3.35.1-3.14,3.35.09,1.39.83,2.22,2.23,2.26,2.15.06,4.31,0,6.46.03.69,0,1-.28,1-.98-.02-1.99.04-3.97-.04-5.96-.06-1.42-.86-2.11-2.3-2.16-1.31-.04-2.62-.02-3.93-.01-1.76,0-1.86.1-1.93,2.23Zm21.62-5.29c-2.19,0-2.81.38-2.81,1.73,0,3.08.04,6.17-.02,9.25-.02,1.15.61,1.19,1.45,1.17.79-.02,1.57.07,1.5-1.12-.06-1.05-.03-2.11,0-3.17.07-2.94-.58-2.53,2.63-2.59.92-.02,1.3.32,1.28,1.25-.04,1.56.01,3.13-.01,4.69-.01.97.64.98,1.29.91.63-.06,1.61.39,1.63-.8.04-2.07.06-4.14-.03-6.21-.06-1.33-.9-2-2.27-2.06-.8-.03-1.61-.01-2.41-.01-2.49,0-2.06.05-2.1-1.99,0-.33-.06-.66-.1-1.07Zm11.39,7.51c0,1.18.05,2.37-.01,3.54-.07,1.21.71,1.1,1.49,1.11.82.02,1.54,0,1.46-1.16-.06-.97-.03-1.94,0-2.91.08-3.27-.67-2.76,2.89-2.83.92-.02,1.3.32,1.28,1.25-.04,1.56.02,3.12-.01,4.68-.02,1.07.72.97,1.39.95.66-.02,1.54.27,1.54-.92-.01-2.03.04-4.05-.04-6.08-.05-1.28-.85-2.06-2.1-2.09-2.32-.05-4.64-.05-6.96.02-.31,0-.82.55-.85.88-.1,1.17-.04,2.36-.04,3.54Zm-18.89,4.64s0,0,0,0c.89,0,1.78-.03,2.66,0,.79.03,1.27-.13,1.28-1.09,0-.96-.45-1.15-1.26-1.09-.55.04-1.1.01-1.65,0-3.78-.06-3.24.57-3.29-3.42,0-.08,0-.17,0-.25-.03-.76.35-1.05,1.09-1.04,1.35.02,2.71-.03,4.06,0,.9.03,1.03-.46,1.04-1.19,0-.76-.29-1.06-1.05-1.05-1.94.03-3.89-.02-5.83.03-1.3.03-2.1.73-2.17,2.02-.09,1.68-.09,3.38,0,5.07.08,1.28.88,1.94,2.19,2,.97.04,1.94,0,2.92,0Zm18.08-4.5c0-1.23-.02-2.45,0-3.68.03-1.1-.75-.94-1.4-.93-.67,0-1.53-.23-1.53.94.01,2.41,0,4.82,0,7.23,0,1.17.87.92,1.54.93.67.02,1.41.13,1.38-.95-.03-1.18,0-2.37,0-3.55Zm.01-7.89c-.97.24-1.72.34-2.38.64-.27.12-.47.64-.5.99-.02.23.31.7.5.7.74.03,1.61.12,2.17-.23.33-.21.15-1.21.22-2.1Z"/>
    <path class="cls-1" d="m65.88,93.47c.12,1.22.88,1.34,1.81,1.29,1.1-.05,2.2-.03,3.29,0,.94.02,1.51-.23,1.55-1.33.04-1.04-.36-1.43-1.38-1.46-1.94-.06-3.88-.23-5.82-.32-1.22-.05-1.69-.64-1.71-1.85-.06-4.23,0-4.31,4.25-4.31,1.61,0,3.21-.02,4.82.02.49.01,1.13.06,1.42.37.42.45.95,1.44.76,1.67-.45.56-1.28.83-2.17,1.33-.08-1.69-.99-1.78-2.04-1.74-1.1.04-2.2.04-3.29.01-1.04-.03-1.14.61-1.12,1.41.02.78-.08,1.56,1.08,1.6,1.86.06,3.71.16,5.57.26,1.57.08,2.02.54,2.06,2.09.1,3.96-.07,4.14-4.06,4.14-1.65,0-3.3.04-4.94-.02-.56-.02-1.26-.14-1.63-.49-.39-.38-.61-1.09-.62-1.66,0-.25.7-.53,1.12-.74.26-.13.57-.14,1.04-.24Z"/>
    <path class="cls-1" d="m94.15,89.7c-.14-1.2.25-1.64,1.38-1.65,4.03-.03,4.15.06,4.15,4.07,0,.8.02,1.61-.01,2.41-.06,1.35-.73,2.06-2.05,2.08-2.07.04-4.15,0-6.22.02-.72.01-.97-.29-.97-.98.01-3.13-.02-6.26.01-9.39.01-1.54,1.35-1,2.38-1.48,0,1.19,0,2.18,0,3.18,0,1.95.03,3.89,0,5.84-.02.87.31,1.19,1.19,1.19,3.62-.02,3.2.16,3.21-3.09,0-2.09,0-2.09-2.09-2.14-.29,0-.58-.04-.97-.07Z"/>
    <path class="cls-1" d="m128.7,89.78c-.07-1.23.25-1.79,1.41-1.73,1.39.07,2.79,0,4.19.03,1.3.03,2.02.64,2.07,1.9.07,1.94.06,3.89,0,5.83,0,.28-.51.76-.8.77-2.15.06-4.31.07-6.47.02-1.14-.03-1.84-.72-1.89-1.84-.14-3.65-.17-3.29,2.85-3.29.97,0,1.95.06,2.92-.03.33-.03.63-.44.95-.67-.31-.33-.6-.92-.93-.94-1.38-.11-2.78-.05-4.28-.05Zm3.08,3.27h0c-.34,0-.68,0-1.01,0-.55,0-1.28-.04-1.11.77.09.44.62.99,1.05,1.09.76.18,1.61.15,2.39.01.32-.06.77-.62.77-.94,0-.32-.47-.74-.83-.89-.36-.15-.83-.03-1.25-.03Z"/>
    <path class="cls-1" d="m102.31,89.65c-.08-1.04.17-1.65,1.36-1.6,1.39.06,2.79,0,4.18.02,1.38.03,2.07.63,2.11,1.98.06,1.9.06,3.8-.03,5.7-.01.3-.56.82-.88.83-2.11.07-4.22.06-6.33.02-1.14-.02-1.76-.7-1.93-1.81-.01-.08,0-.17-.02-.25-.22-2.98-.13-3.07,2.84-3.07.93,0,1.86.06,2.78-.03.39-.04,1-.36,1.06-.65.15-.73-.39-1.03-1.09-1.03-1.14,0-2.28,0-3.42-.01-.2,0-.4-.06-.65-.1Zm3.18,5.29s0,.02,0,.04c.34,0,.67-.01,1.01,0,.65.03,1.03-.16,1.05-.91.02-.78-.32-1.05-1.06-1.02-.76.03-1.53-.06-2.27.04-.35.05-.65.43-.98.67.29.4.5.93.89,1.15.35.2.9.04,1.36.04Z"/>
    <path class="cls-1" d="m78.56,85c.03.45.07.9.07,1.35q.03,1.71,1.78,1.72c.97,0,1.95-.02,2.92,0,1.4.04,2.06.61,2.1,1.99.06,1.9,0,3.81.03,5.71.01,1.04-.72.82-1.32.86-.66.04-1.16-.05-1.15-.92.03-1.52-.02-3.05.02-4.57.02-.95-.32-1.41-1.32-1.39-3.62.07-2.98-.51-3.05,2.97-.02.93-.05,1.86,0,2.79.05.92-.37,1.14-1.21,1.14-.84,0-1.23-.21-1.21-1.13.04-2.75.01-5.5.01-8.25,0-2.07.07-2.14,2.32-2.27Z"/>
    <path class="cls-1" d="m120.43,91.87c0,.97.05,1.95-.01,2.92-.07,1.13-.72,1.8-1.87,1.83-1.78.03-3.55.02-5.33,0-1.15-.01-1.87-.62-1.91-1.77-.07-1.99-.04-3.97-.04-5.96,0-1.03.79-.75,1.38-.81.69-.06,1.01.21.99.94-.03,1.44.03,2.88-.02,4.31-.04,1.11.36,1.61,1.54,1.63,2.86.04,2.86.08,2.86-2.8,0-1.06.03-2.12,0-3.17-.04-.88.5-.94,1.15-.91.61.03,1.34-.16,1.3.87-.04.97,0,1.95,0,2.92,0,0-.01,0-.02,0Z"/>
    <path class="cls-1" d="m127.27,88.07c.11,1.39-.43,1.84-1.56,1.7-1.14-.14-1.61.37-1.56,1.53.06,1.43-.03,2.87.03,4.3.04,1-.51,1.05-1.27,1.05-.74,0-1.19-.12-1.17-1.02.05-1.81-.01-3.62.03-5.43.03-1.48.64-2.08,2.08-2.11,1.13-.03,2.26,0,3.43,0Z"/>
    <path class="cls-1" d="m89.17,92.41c0,1.06-.04,2.12.01,3.17.05.86-.32,1.11-1.12,1.06-.68-.04-1.36.1-1.34-.98.05-2.2.05-4.4,0-6.6-.03-1.06.61-.98,1.32-1.01.77-.03,1.19.17,1.14,1.05-.06,1.1-.01,2.2-.02,3.3Z"/>
    <path class="cls-1" d="m89.19,84.71c-.14.96.44,1.89-.83,1.88-.53,0-1.53-.37-1.52-.52.08-1.4,1.36-.79,2.35-1.36Z"/>
    <path class="cls-1" d="m127.75,110.6c-.31-1.02-.09-1.5.87-1.47.72.02,1.45-.07,2.14.05.33.06.6.49.9.76-.28.22-.55.61-.85.63-1,.08-2.01.03-3.06.03Z"/>
    <path class="cls-1" d="m84.31,114.25c-.69-.46-1.78-.89-1.75-1.21.1-1.13,1.18-.57,1.8-.56.64,0,1.82-.61,1.79.73,0,.32-1.07.63-1.85,1.04Z"/>
  </g>
</svg>