<?xml version="1.0" encoding="UTF-8"?>
<svg xmlns="http://www.w3.org/2000/svg" version="1.1" xmlns:xlink="http://www.w3.org/1999/xlink" viewBox="0 0 200 200">
  <defs>
    <style>
      .cls-1 {
        fill: #fff;
      }

      .cls-2 {
        fill: none;
      }

      .cls-3 {
        clip-path: url(#clippath);
      }

      .cls-4 {
        fill: #d31145;
      }
    </style>
    <clipPath id="clippath">
      <rect class="cls-2" x="16.5" y="82.3" width="167" height="35.4"/>
    </clipPath>
  </defs>
  <!-- Generator: Adobe Illustrator 28.7.3, SVG Export Plug-In . SVG Version: 1.2.0 Build 164)  -->
  <g>
    <g id="Layer_1">
      <rect class="cls-1" y="0" width="200" height="200"/>
      <g id="layer1">
        <path id="path43" class="cls-1" d="M49.1,107.2h-27.3v-23.5h27.3v23.5Z"/>
        <g class="cls-3">
          <g id="g47">
            <g id="g53">
              <path id="path55" class="cls-1" d="M22.6,83c-.9,0-1.5.7-1.5,1.6v21.6c0,.9.7,1.6,1.5,1.6h25.6c.9,0,1.5-.7,1.5-1.6v-21.6c0-.9-.7-1.6-1.5-1.6h-25.6Z"/>
            </g>
            <g id="g57">
              <path id="path59" d="M22.6,83c-.9,0-1.5.7-1.5,1.6v21.6c0,.9.7,1.6,1.5,1.6h25.6c.9,0,1.5-.7,1.5-1.6v-21.6c0-.9-.7-1.6-1.5-1.6h-25.6ZM22.2,106.2v-21.6c0-.2.2-.4.4-.4h25.6c.2,0,.4.2.4.4v21.6c0,.2-.2.4-.4.4h-25.6c-.2,0-.4-.2-.4-.4"/>
            </g>
            <g id="g61">
              <path id="path63" class="cls-4" d="M46.2,86.4l-4.8,4.8h0c-.2.2-.4.3-.6.3s-.4-.1-.6-.3l-4.8-4.8-4.8,4.8c-.2.2-.4.3-.6.3s-.5-.1-.6-.3l-4.8-4.8h0s0,18.2,0,18.2h21.6v-18.3h0ZM33.6,97.8h-7.2c-.5,0-.9-.4-.9-.9s0-.3.2-.5l3.8-3.8c.2-.1.4-.2.6-.2s.5,0,.6.3l3.7,3.7c.1.1.2.3.2.5,0,.5-.4.9-.9.9M44.4,97.9h-7.2c-.5,0-.9-.4-.9-.9s0-.4.2-.5l3.7-3.7c.2-.2.4-.3.6-.3s.4,0,.6.2l3.8,3.8c0,.1.1.3.1.5,0,.5-.4.9-.9.9"/>
            </g>
            <g id="g65">
              <path id="path67" d="M64.7,104.6v-14.4h-7.3v-3.9h19.5v3.9h-6.9v14.4h-5.3Z"/>
            </g>
            <g id="g69">
              <path id="path71" d="M79.4,104.6v-18.2h17.6v4h-12.9v3.5h12.6v3.6h-12.6v3.6h12.9v3.6h-17.6Z"/>
            </g>
            <g id="g73">
              <path id="path75" d="M123.4,104.6v-18.2h17.6v4h-12.9v3.5h12.6v3.6h-12.6v3.6h12.9v3.6h-17.6Z"/>
            </g>
            <g id="g77">
              <path id="path79" d="M165.6,104.6l-8.5-9.6,7.6-8.7h-6.4l-4.5,5-4.5-5h-6.4l7.6,8.7-8.5,9.6h6.4l5.3-5.9,5.3,6h6.4Z"/>
            </g>
            <g id="g81">
              <path id="path83" d="M105.2,90.1h8.5c2.8,0,2.9,3.7.1,3.7h-8.6v-3.7ZM100.4,86.3v18.2h4.8v-6.9h4.7l5.3,6.9h5.8s-5.3-7-5.2-6.9c5.9.1,8.1-11.3-1.9-11.3h-13.4Z"/>
            </g>
            <g id="g85">
              <path id="path87" d="M167.5,103.6h.5v-1.4h.5l.9,1.4h.5l-.9-1.4c.5,0,.9-.3.9-.9s-.4-1-1.1-1h-1.3v3.3ZM168,101.8v-1h.7c.3,0,.7,0,.7.5s-.4.5-.9.5h-.5ZM165.9,101.9c0,1.5,1.3,2.8,2.8,2.8s2.8-1.3,2.8-2.8-1.3-2.8-2.8-2.8-2.8,1.3-2.8,2.8M168.7,104.3c-1.3,0-2.3-1-2.3-2.3s1-2.4,2.3-2.4,2.3,1.1,2.3,2.4-1,2.3-2.3,2.3"/>
            </g>
          </g>
        </g>
      </g>
    </g>
  </g>
</svg>