<?xml version="1.0" encoding="UTF-8"?>
<svg id="Layer_1" data-name="Layer 1" xmlns="http://www.w3.org/2000/svg" viewBox="0 0 200 200">
  <defs>
    <style>
      .cls-1 {
        fill: #fff;
      }

      .cls-2 {
        fill: #ab002f;
      }
    </style>
  </defs>
  <rect class="cls-2" width="200" height="200"/>
  <path class="cls-1" d="m99.88,130.74c-.02-5.02,4.03-9.07,9.08-9.08,4.93,0,8.98,4.06,9.08,9.08-.1,4.96-4.15,9.01-9.08,9.08-5.05-.07-9.1-4.12-9.08-9.08Zm9.09,5.74c2.73-.04,4.99-2.61,5.02-5.74-.03-3.19-2.29-5.76-5.02-5.74-2.85-.02-5.11,2.55-5.02,5.74-.09,3.13,2.17,5.7,5.02,5.74m19.35-11v13.87h-3.82v-13.87h-5.5v-3.1h14.58v3.1h-5.26Zm9.8,10.04l-1.43,3.83h-4.54l7.17-16.97h4.78l6.93,16.97h-4.54l-1.43-3.83h-6.94Zm3.59-2.86h2.39l-2.39-6.22-2.39,6.22h2.39Zm-83.65-7.17v13.87h-3.82v-13.87h-5.26v-3.1h14.34v3.1h-5.26Zm6.22,5.26c0-5.02,4.05-9.07,9.08-9.08,4.96,0,9.01,4.06,9.08,9.08-.07,4.96-4.12,9.01-9.08,9.08-5.03-.07-9.07-4.12-9.08-9.08h0Zm9.08,5.74c2.76-.04,5.02-2.61,5.02-5.74,0-3.19-2.26-5.76-5.02-5.74-2.82-.02-5.08,2.55-5.01,5.74-.07,3.13,2.2,5.7,5.01,5.74m17.69,2.87h1.91v-6.46l6.69-10.51h-4.3l-4.3,7.17-4.06-7.17h-4.54l6.69,10.51v6.46h1.91Z"/>
  <path class="cls-1" d="m52.05,85.02c0,16.19,21.05,29.36,46.93,29.36s46.93-13.17,46.93-29.36c0-16.19-21.05-29.36-46.93-29.36s-46.93,13.17-46.93,29.36Zm1.44,0c0-15.4,20.41-27.92,45.49-27.92s45.49,12.53,45.49,27.92-20.41,27.92-45.49,27.92c-25.08,0-45.49-12.53-45.49-27.92h0Z"/>
  <path class="cls-1" d="m94.54,61c-10.98.67-18.96,3.58-20.32,7.42-.14.39-.21.79-.21,1.2,0,.65.18,1.29.55,1.91,1.52,2.6,6.26,4.74,12.99,5.89l.71.12.12-.71c1.11-6.74,3.53-12.04,6.66-14.55l1.77-1.42-2.27.14Zm-18.74,9.81c-.23-.4-.35-.79-.35-1.18,0-.24.04-.48.13-.73,1.04-2.93,8.09-5.49,17.1-6.31-2.57,2.91-4.55,7.59-5.58,13.28-5.85-1.08-10.06-2.95-11.3-5.06h0Zm16.74,6.45l-.14.78.79.06c1.88.14,3.83.22,5.79.22s3.91-.08,5.79-.22l.79-.06-.14-.78c-1.08-6.08-3.49-9.72-6.44-9.72s-5.36,3.63-6.44,9.72h0Zm6.44-8.28c2.02,0,3.88,3.02,4.86,7.73-1.59.1-3.22.17-4.86.17s-3.26-.06-4.85-.17c.98-4.71,2.84-7.73,4.86-7.73h0Zm3.94-6.7c3.13,2.5,5.56,7.81,6.66,14.55l.12.71.71-.12c6.74-1.15,11.47-3.29,12.99-5.89.59-1,.7-2.08.34-3.12-1.36-3.83-9.34-6.75-20.32-7.42l-2.26-.14,1.77,1.42Zm2.37.3c9,.83,16.06,3.39,17.09,6.31.09.24.13.48.13.73,0,.39-.12.78-.35,1.18-1.24,2.11-5.45,3.97-11.3,5.06-1.03-5.69-3-10.37-5.57-13.28h0Zm-38.01,8.66c-4.94,4.13-7.55,9.05-7.55,14.21,0,12.14,14.8,22.4,34.43,23.87l2.19.16-1.67-1.43c-4.3-3.68-6.97-12.41-6.97-22.78l.05-2.45-.6-.12c-10.33-1.85-17.67-6.19-18.72-11.05l-.25-1.17-.92.77h0Zm-6.1,14.21c0-4.43,2.16-8.67,6.21-12.36,1.89,4.91,8.94,9,18.92,10.91-.01.56-.02,1.27-.02,1.27,0,9.62,2.28,17.93,6.05,22.41-17.89-1.91-31.15-11.25-31.15-22.23h0Zm30.78-1.3v.26c0,9.64,3.02,16.92,7.03,16.92s7.03-7.28,7.03-16.92v-1.04s-.78.07-.78.07c-2.04.18-4.14.27-6.25.27s-4.21-.09-6.25-.27l-.78-.07v.78Zm12.61.77c-.11,8.97-2.93,14.97-5.58,14.97s-5.48-6-5.58-14.97c1.83.14,3.7.22,5.58.22s3.75-.08,5.58-.22Zm24.95-13.28c-1.04,4.86-8.39,9.2-18.71,11.05l-.6.11.05,2.46c0,10.37-2.67,19.1-6.97,22.78l-1.67,1.43,2.19-.16c19.63-1.46,34.44-11.72,34.44-23.87,0-5.16-2.61-10.07-7.55-14.21l-.91-.77-.25,1.17Zm1.06,1.44c4.06,3.69,6.22,7.94,6.22,12.36,0,10.98-13.27,20.32-31.15,22.23,3.76-4.48,6.05-12.79,6.05-22.41,0,0-.01-.71-.02-1.27,9.97-1.9,17.03-6,18.91-10.91h0Z"/>
</svg>