<?xml version="1.0" encoding="UTF-8"?>
<svg id="Layer_1" data-name="Layer 1" xmlns="http://www.w3.org/2000/svg" viewBox="0 0 200 200">
  <defs>
    <style>
      .cls-1 {
        fill: #fff;
      }

      .cls-2 {
        isolation: isolate;
      }

      .cls-3 {
        fill: #01437f;
      }
    </style>
  </defs>
  <rect class="cls-3" width="200" height="200"/>
  <g>
    <g class="cls-2">
      <path class="cls-1" d="m42.57,95.72l.07,6.06c0,.19-.01.44-.04.74-.03.3-.04.5-.04.6.41-.91.99-1.86,1.73-2.85.42-.57.99-1.32,1.69-2.26.7-.94,1.27-1.7,1.69-2.28h5.09l-10.03,13.58h-5.09l-.15-13.58h5.09Z"/>
      <path class="cls-1" d="m49.46,109.3l4.13-11.34c.25-.69.66-1.23,1.24-1.63.58-.4,1.23-.6,1.96-.6h12.9l-4.94,13.58h-5.11l1.25-3.4h-5.09l-1.25,3.4h-5.09Zm8.8-10.18l-1.23,3.4h5.09l1.23-3.4h-5.09Z"/>
      <path class="cls-1" d="m67.28,109.3l4.94-13.58h12.86c.58,0,1.05.24,1.38.72.34.48.4,1,.2,1.56l-1.45,3.97c-.25.69-.66,1.23-1.24,1.63-.58.4-1.23.6-1.94.6h-.37l2.59,5.09h-5.09l-2.59-5.09h-2.35l-1.84,5.09h-5.09Zm8.67-10.18l-.79,2.15h5.46l.79-2.15h-5.46Z"/>
      <path class="cls-1" d="m84.79,109.3l4.94-13.56h5.09l-4.94,13.56h-5.09Z"/>
      <path class="cls-1" d="m112.11,95.72l-4.13,11.34c-.25.69-.66,1.23-1.24,1.63-.58.4-1.23.6-1.94.6h-12.4l4.13-11.34c.25-.69.66-1.23,1.24-1.63.58-.4,1.23-.6,1.94-.6h12.4Zm-13.39,10.18h4.59l2.48-6.78h-4.59l-2.48,6.78Z"/>
      <path class="cls-1" d="m128.7,99.12h-10.2l-.61,1.69h7.77c.58,0,1.05.24,1.39.72.34.48.41,1,.21,1.56l-1.45,3.99c-.25.69-.66,1.23-1.24,1.62-.58.4-1.23.59-1.96.59h-12.9l1.23-3.4h10.2l.61-1.69h-7.77c-.59,0-1.05-.24-1.39-.72-.34-.48-.41-1-.21-1.56l1.45-3.97c.25-.69.66-1.23,1.24-1.63.58-.4,1.23-.6,1.96-.6h12.9l-1.23,3.4Z"/>
    </g>
    <path class="cls-1" d="m136.9,93.5c.2-.3.5-.7.8-.7s.7,0,.8-.2c.2-.2.2-.5.3-.8,0-.2.2-.3.2-.3.2-.3.2-.5-.2-.7-.2-.2-.3-.3-.3-.5-.2-.3-.2-.7,0-1,.3-.5.8-.8,1.2-1.2s.7-.3,1,0c.2.2.3.3.7.5h.3c.5-.2.8-.3,1.3-.5l.2-.2c0-.2,0-.5.2-.7,0-.5.3-.8.8-.8h1.7c.5,0,.8.3.8.7,0,.3,0,.7.2.8.2.2.5.2.8.3.2,0,.3.2.5.2.3.2.5.2.7,0l.5-.5c.3-.2.5-.2.8,0l1.3,1.3c.2.3.2.7,0,1-.2.2-.3.5-.5.7v.3c.2.5.3.8.5,1.2l.2.2c.2,0,.5,0,.7.2.5,0,.8.3.8.8v1.7c0,.5-.3.8-.8.8-.3,0-.7,0-.8.2-.2.2-.2.5-.3.8-.2.2-.2.3-.3.7v.3c.2.2.3.5.5.7.3.3.3.8,0,1.2-.3.3-.7.8-1.2,1.2-.3.3-.7.3-1.2,0-.3-.2-.5-.5-.8-.5s-.5.2-.8.3h-.2c-.5,0-.7.3-.7.8-.2,1-.2,1.2-1.3,1.2h-1.2c-.5,0-.8-.2-.8-.7,0-.3,0-.7-.2-.8,0-.2-.2-.2-.2-.2-.3-.2-.8-.3-1.2-.5h-.3c-.2.2-.5.3-.7.5-.3.3-.8.3-1.2,0-.3-.3-.8-.7-1.2-1.2-.3-.3-.3-.7,0-1.2.2-.2.3-.5.5-.7v-.3c-.2-.3-.3-.7-.5-1.2,0-.2-.2-.2-.2-.2-.3,0-.5,0-.8-.2-.3,0-.7-.2-.8-.7.4-.7.4-1.4.4-2.1Zm8.3,3.9c1.7,0,3-1.3,3-2.9,0-1.7-1.3-3-3-3s-3,1.3-2.9,3c0,1.5,1.3,2.9,2.9,2.9Z"/>
    <path class="cls-1" d="m162.1,106.6c-.3-.2-.5-.3-.8-.5-.2-.2-.3-.2-.7,0-.2.2-.5.3-.7.3s-.3.2-.3.3v.5c0,.5-.3.7-.7.8-.3,0-.7,0-1.2.2-.5,0-.8-.2-.8-.7,0-.7-.3-.8-.8-1-.3-.2-.7-.2-1,.2-.5.5-.8.5-1.3,0-.2-.2-.5-.3-.7-.5-.3-.3-.5-.7-.2-1.2s.3-.8,0-1.3c-.2-.3-.5-.5-.8-.5-.7,0-1-.3-1-1v-.8c0-.5.2-.8.7-.8s.7-.3.8-.8c.2-.5.2-.8-.3-1.2-.3-.3-.3-.7,0-1.2.2-.3.5-.5.7-.8.3-.3.7-.5,1.2-.2.3.3.7.3,1.2,0,.2-.2.5-.2.7-.3.2-.2,0-.5.2-.8,0-.3.3-.7.7-.7s.8,0,1.2-.2c.5,0,.8.2.8.7s.3.7.8.8c.5.2.8.2,1.2-.2s.7-.3,1,0c.3.2.7.5.8.7.3.3.5.7.2,1s-.3.7,0,1.2c.2.5.5.7,1,.7s.7.3.8.7c0,.3,0,.7.2,1,0,.5-.2.8-.7,1-.5,0-.7.3-.8.8s-.2.8.3,1.3c.3.3.3.7,0,1-.2.3-.5.7-.8,1-.4.4-.5.4-.9.5Zm-6.5-5.2c0,1.3,1,2.4,2.2,2.4,1.5,0,2.5-1,2.5-2.4,0-1.3-1-2.5-2.4-2.5-1.1,0-2.3,1.2-2.3,2.5Z"/>
    <path class="cls-1" d="m143.5,111.3c.2-.2.2-.5.3-.7.2-.2.2-.3,0-.5-.2-.5-.3-.8-1-.8-.3,0-.5-.2-.5-.5v-1c0-.3.3-.7.7-.7h.2c.3,0,.5-.2.5-.5.2-.5.3-.8-.2-1.2-.2-.2-.2-.5,0-.8.2-.2.3-.5.7-.7.3-.3.7-.3,1,0,.2.2.3.2.7,0h0c.5-.2.8-.3.8-.8,0-.3.3-.5.5-.5h.8c.5,0,.7.3.7.8,0,.2.2.3.3.3h.2c.3.3.8.3,1.2,0,.2-.2.5-.2.7,0s.5.3.7.7c.3.3.3.7,0,1-.2.2-.2.3,0,.7h0c.2.5.3.8.8.8.3,0,.5.3.5.7v.7c0,.5-.3.8-.8.8-.3,0-.3.2-.5.3h0c-.3.5-.3.8,0,1.3.2.2.2.5-.2.8-.2.2-.3.5-.7.7-.3.3-.7.3-1,0-.3-.2-.5-.2-.8-.2-.5.2-.8.3-.8.8,0,.3-.3.5-.7.5h-.8c-.3,0-.7-.3-.7-.7v-.3c0-.2,0-.3-.2-.3h0c-.5-.3-.8-.3-1.3,0-.2.2-.5.2-.7,0-.3-.2-.5-.5-.8-.8.4.5.4.3.4.1Zm4.3-1.1c1,0,2-.8,2-2,0-1-.8-2-2-2-1,0-2,.8-2,2,.2,1.1,1,2,2,2Z"/>
  </g>
</svg>