<?xml version="1.0" encoding="UTF-8"?>
<svg xmlns="http://www.w3.org/2000/svg" version="1.1" viewBox="0 0 200 200">
  <defs>
    <style>
      .cls-1 {
        fill: #fefbf9;
      }

      .cls-1, .cls-2, .cls-3, .cls-4, .cls-5 {
        fill-rule: evenodd;
      }

      .cls-2, .cls-6 {
        fill: #fff;
      }

      .cls-3 {
        stroke: #fffffb;
        stroke-linecap: square;
        stroke-linejoin: round;
        stroke-width: 3px;
      }

      .cls-3, .cls-5 {
        fill: #2a6eb5;
      }

      .cls-6 {
        font-family: MyriadPro-Semibold, 'Myriad Pro';
        font-size: 9.1px;
        font-weight: 600;
      }

      .cls-4 {
        fill: #fffffb;
      }
    </style>
  </defs>
  <!-- Generator: Adobe Illustrator 28.7.3, SVG Export Plug-In . SVG Version: 1.2.0 Build 164)  -->
  <g>
    <g id="Layer_1">
      <path class="cls-5" d="M200,200H0V0h200v200Z"/>
      <g>
        <path class="cls-3" d="M148.2,80.8H52.1s-18,11.8,0,25h96.1s17.3-12,0-25Z"/>
        <path class="cls-4" d="M49.4,87.4v1.8h3.1l6,11h7.4l6-11.1h3.1v-1.8h-9.2v1.8h2.4l-4.2,7.8-4.6-7.8h3.3v-1.8h-13.3Z"/>
        <path class="cls-2" d="M83.2,87.1c-5.2,0-9.4,3-9.4,6.8s4.2,6.8,9.4,6.8,9.4-3,9.4-6.8-4.2-6.8-9.4-6.8ZM83,98.6c-1.4,0-2.5-2.2-2.5-4.9s1.1-4.9,2.5-4.9,2.5,2.2,2.5,4.9-1.1,4.9-2.5,4.9h0ZM142.4,87.1c-5.2,0-9.4,3-9.4,6.8s4.2,6.8,9.4,6.8,9.4-3,9.4-6.8-4.2-6.8-9.4-6.8ZM142.2,98.6c-1.4,0-2.5-2.2-2.5-4.9s1.1-4.9,2.5-4.9,2.5,2.2,2.5,4.9-1.1,4.9-2.5,4.9h0Z"/>
        <path class="cls-1" d="M93.5,87.4v1.8h3.1v9h-3.2v2h3.2s15.3,0,15.3,0v-6h-2c-.1,3.2-2.9,4-4.1,4h-3.2v-9h3v-1.8h-12.1Z"/>
        <path class="cls-4" d="M108.6,87.4v1.8h3.1l6,11h7.4l6-11.1h3.1v-1.8h-9.2v1.8h2.4l-4.2,7.8-4.6-7.8h3.3v-1.8h-13.3Z"/>
        <text class="cls-6" transform="translate(51 116.9)"><tspan x="0" y="0">Construction Equipment</tspan></text>
      </g>
    </g>
  </g>
</svg>