<?xml version="1.0" encoding="UTF-8"?>
<svg id="Layer_1" data-name="Layer 1" xmlns="http://www.w3.org/2000/svg" viewBox="0 0 200 200">
  <defs>
    <style>
      .cls-1 {
        fill: #fff;
      }

      .cls-1, .cls-2, .cls-3, .cls-4, .cls-5 {
        fill-rule: evenodd;
      }

      .cls-2, .cls-5 {
        fill: #2a6eb5;
      }

      .cls-3 {
        fill: #fffffb;
      }

      .cls-6 {
        fill: none;
        stroke-miterlimit: 33.89;
        stroke-width: 2px;
      }

      .cls-6, .cls-5 {
        stroke: #fffffb;
      }

      .cls-4 {
        fill: #fefbf9;
      }

      .cls-5 {
        stroke-linecap: square;
        stroke-linejoin: round;
        stroke-width: 3px;
      }
    </style>
  </defs>
  <path class="cls-2" d="m200,200H0V0h200v200Z"/>
  <g>
    <path class="cls-6" d="m130.18,103.24c0,16.65-13.44,30.14-30.02,30.14s-30.02-13.5-30.02-30.14,13.44-30.15,30.02-30.15,30.02,13.5,30.02,30.15Zm-4.9-36.03c-7.21-4.93-15.95-7.81-25.37-7.81-24.67,0-44.68,19.79-44.68,44.2s20,44.2,44.68,44.2,44.68-19.79,44.68-44.2c.01-8.85-2.67-17.5-7.69-24.79l9.13-8.65,5.64,6.54-.33-24.5-25.28,1.44,7.56,5.49-8.35,8.08h0Z"/>
    <path class="cls-5" d="m148.2,91.35H52.12s-18.02,11.77,0,24.98h96.08s17.29-12.01,0-24.98Z"/>
    <path class="cls-3" d="m49.41,97.95v1.83h3.07l6,11.03h7.38l6-11.05,3.07-.02v-1.79s-9.16,0-9.16,0v1.8h2.44l-4.24,7.84-4.58-7.82h3.34s0-1.83,0-1.83h-13.31Z"/>
    <path class="cls-1" d="m83.17,97.58c-5.21,0-9.44,3.04-9.44,6.79s4.22,6.79,9.44,6.79,9.44-3.04,9.44-6.79-4.23-6.79-9.44-6.79Zm-.13,11.55c-1.36,0-2.46-2.19-2.46-4.9s1.1-4.9,2.46-4.9,2.46,2.19,2.46,4.9c0,2.7-1.1,4.9-2.46,4.9h0Zm59.34-11.55c-5.21,0-9.44,3.04-9.44,6.79s4.22,6.79,9.44,6.79,9.43-3.04,9.43-6.79-4.22-6.79-9.43-6.79Zm-.14,11.55c-1.36,0-2.46-2.19-2.46-4.9s1.1-4.9,2.46-4.9,2.46,2.19,2.46,4.9-1.1,4.9-2.46,4.9h0Z"/>
    <path class="cls-4" d="m93.49,97.95v1.83h3.07v9.01s-3.23,0-3.23,0v2.01l3.23.02h15.31v-5.99h-1.99c-.11,3.17-2.92,3.97-4.09,3.97-1.08,0-3.18,0-3.18,0v-9.01h3.02s0-1.83,0-1.83h-12.12Z"/>
    <path class="cls-3" d="m108.58,97.95v1.83h3.07l6,11.03h7.38l6-11.05,3.07-.02v-1.79s-9.16,0-9.16,0v1.8h2.44l-4.23,7.84-4.58-7.82h3.34s0-1.83,0-1.83h-13.31,0Z"/>
  </g>
</svg>