<?xml version="1.0" encoding="UTF-8"?>
<svg id="Layer_1" data-name="Layer 1" xmlns="http://www.w3.org/2000/svg" viewBox="0 0 200 200">
  <defs>
    <style>
      .cls-1 {
        fill: #0038a1;
      }

      .cls-2 {
        fill: #fff;
      }
    </style>
  </defs>
  <rect class="cls-1" width="200" height="200"/>
  <path class="cls-2" d="m146.24,103.01c.1,3.66.27,8.05-7.1,8.1h-7.36c-7.49.03-6.88-5.46-7.12-8.4v-8.08c0-3.15,1.31-5.77,7.15-5.74h6.81c6.4-.03,7.66,2.58,7.66,5.74v1.55h-8.45c0-1.95-.42-3.17-1.67-3.34h-1.36c-1.25-.02-1.67,1.54-1.67,3.49v5.03c.12,1.97.05,5.15,1.87,5.16h.98c1.46.03,1.71-1.54,1.8-3.53l8.45.02Zm-89.01-5.99l-2.1,13.9h-12.63l-4.74-21.87h8.16l2.63,15.75,3.28-15.75h10.73l3.26,15.75,2.65-15.75h8.16l-4.74,21.87h-12.64l-2.04-13.9Zm33.34,10.76l.83,3.16h8.93l-6.72-21.88h-12.16l-6.46,21.88h8.62l.76-3.16h6.19Zm-5.04-4.33l2.06-7.79,1.94,7.79h-4Zm31.69,7.47h-16.04v-21.85h18.1c2.17-.09,3.87,1.17,3.85,4.07v1.94s.13,3.61-3.14,4.03c3.48.89,3.39,4.82,3.39,4.82l-.02,1.77c-.05,4.94-4.02,5.29-6.14,5.22m-4.48-4.65c.8.07,1.39-.66,1.39-1.45v-1.7c0-.79-.65-1.44-1.44-1.45h-2.54v4.59h2.6Zm-.13-8.74c.79-.01,1.43-.65,1.44-1.45v-1.55c-.01-.79-.65-1.44-1.44-1.45h-2.49v4.44h2.49Zm42.27,13.58c-7.02-.02-7-5.28-7.12-8.4v-8.08c0-3.15,2.58-5.74,5.72-5.74h11.75c3.14,0,5.72,2.58,5.72,5.74v8.08c-.03,3.07-.09,8.39-7.15,8.4h-8.92Zm5.5-4.65c1.84-.02,1.95-3.17,1.95-5.09v-5.13c.05-1.96-.56-3.51-1.77-3.5h-2.46c-1.24-.02-1.67,1.54-1.67,3.5v5.12c.02,1.99.22,5.08,2.04,5.09h1.9Z"/>
</svg>