<?xml version="1.0" encoding="UTF-8"?>
<svg xmlns="http://www.w3.org/2000/svg" version="1.1" viewBox="0 0 200 200">
  <defs>
    <style>
      .cls-1 {
        fill: #fff;
        fill-rule: evenodd;
      }

      .cls-2 {
        fill: #00469b;
      }

      .cls-3 {
        fill: #fffefe;
      }
    </style>
  </defs>
  <!-- Generator: Adobe Illustrator 28.7.3, SVG Export Plug-In . SVG Version: 1.2.0 Build 164)  -->
  <g>
    <g id="Layer_1">
      <path class="cls-1" d="M200,200H0V0h200v200Z"/>
      <path class="cls-3" d="M53,82.3h-10.9l-2.7,4.7h16.3l-2.7-4.7ZM55.7,87l-8.1,14.1h5.4l5.4-9.4-2.7-4.7ZM36.7,91.7l5.4,9.4h5.4l-8.1-14.1-2.7,4.7Z"/>
      <g>
        <path class="cls-2" d="M64.3,87.3h-20.9c-1.2,0-2.1.9-2.1,2.1v20.9c0,1.2.9,2.1,2.1,2.1h20.9c1.2,0,2.1-.9,2.1-2.1v-20.9c0-1.2-.9-2.1-2.1-2.1M48.4,90.4h10.9l2.7,4.7h-16.3l2.7-4.7ZM48.4,109.2l-5.4-9.4,2.7-4.7,8.1,14.1h-5.4ZM59.3,109.2h-5.4l8.1-14.1,2.7,4.7-5.4,9.4Z"/>
        <path class="cls-2" d="M146.9,99.4l-1.1,5.3h4.4c-.9.8-2.1,1.3-3.5,1.3-2.1,0-3.9-1.9-3.9-4.3s2.1-5.1,4.6-5.1,2.6.7,3.5,1.7l6.8-2.7c-1-3.3-5.2-5.8-10.2-5.8-7.2,0-13,5.5-13,12.4,0,5.9,5.1,10.6,11.5,10.6s7.6-1.6,9.9-4c1.7-1.8,3.5-5.6,2.6-9.4h-11.6Z"/>
        <path class="cls-2" d="M128.2,90.4l-5.9,10.8-1.2-10.8h0s-7.5,0-7.5,0l-7.5,21.9h7.5l3-8.9,1,8.9h4.9l4.9-9-.6,9h7.3l1.3-21.9h-7.3Z"/>
        <path class="cls-2" d="M74.3,90.4h-2.2l5.6,10.2-11.3,11.7h2.6l11-11.4-5.8-10.4ZM90.2,90.4h-2.6l-3.4,3.5-1.9-3.5h-6.8l5.4,9.7,9.4-9.7ZM70.4,112.3h7.8l3.9-4,2.2,4h2.2l-5.8-10.5-10.2,10.5ZM88.2,103c0-5.6,3.7-10.4,9-12.6h-5.7l-10.2,10.6,6.2,11.3h6.3c-3.3-1.7-5.6-5.2-5.6-9.2"/>
        <path class="cls-2" d="M106.5,105c-1.1.3-2.3.4-3.5.4-2,0-3.5-1.6-3.5-3.5s2.4-4.9,5.3-4.9,3,.3,4.2.7l2.4-7.1c-1.8-.6-3.7-1-5.8-1-8.5,0-15.5,5.9-15.5,13.3s.9,4.8,2.7,6.6c2.8,2.8,6.8,3.6,11.1,2.7l2.5-7.3Z"/>
      </g>
    </g>
  </g>
</svg>