<?xml version="1.0" encoding="UTF-8"?>
<svg id="Layer_1" data-name="Layer 1" xmlns="http://www.w3.org/2000/svg" viewBox="0 0 200 200">
  <defs>
    <style>
      .cls-1 {
        fill: #fff;
      }

      .cls-2 {
        fill: #df2626;
      }
    </style>
  </defs>
  <rect class="cls-2" width="200" height="200"/>
  <path class="cls-1" d="m57.98,65.89c-.06.02-.1,1.93-.1,5.36v5.31l.36.17c.2.1.75.35,1.24.55.49.21.96.42,1.06.48.1.05.24.09.3.09s.47.17.89.36.84.36.91.36c.08,0,.17.04.2.09s.19.12.34.17c.15.03.57.2.92.37.36.17.73.3.81.3s.17.04.21.09c.03.05.17.12.31.16.25.06,1.48.59,1.85.79.1.06.24.1.29.1.1,0,.42.12,1.3.52.87.38,1.19.52,1.29.52.05,0,.3.1.55.24.25.12.68.32.96.42.29.1.67.25.83.33.17.07.74.3,1.25.51.52.21,1.03.42,1.14.47.75.32,1.29.55,1.58.68.17.08.36.15.42.15s.35.12.67.27c.31.16.96.42,1.46.62.49.19.98.38,1.09.45.32.19,1.15.53,1.28.53.05,0,.19.04.29.1.31.17,1.39.63,2.1.89.37.13.82.32.99.39.51.24,1.07.48,1.12.48.03,0,.37.15.77.32.38.17.85.38,1.04.47.17.08.37.15.44.15s.2.04.3.1c.28.15,1.59.73,1.65.73.04,0,.6.23,1.27.51.67.28,1.46.61,1.78.74.31.13.81.34,1.11.48.29.13.59.25.64.25.06,0,.2.04.3.1.09.05.42.2.7.31.29.12.61.26.73.31.12.05.63.26,1.14.47.52.21.98.42,1.04.48.05.05.17.09.26.09.08.01.34.09.57.21s.45.2.49.21c.04,0,.36.13.73.29.36.17.82.36,1.02.44.2.07.62.25.93.39s.8.34,1.08.44c.57.2.8.15,1.98-.41.34-.17.79-.35.99-.42.47-.17,1.97-.81,2.2-.95.1-.05.24-.09.3-.09.05,0,.37-.12.7-.27.32-.16,1.06-.46,1.63-.68s1.09-.45,1.14-.49c.06-.04.41-.19.78-.32.67-.25,1.86-.75,2.2-.93.1-.06.24-.1.29-.1.12,0,.55-.19,1.63-.68.29-.13.59-.25.67-.25.1,0,1.04-.41,1.79-.79.17-.08.34-.15.39-.15.06,0,.32-.09.59-.22.27-.12.65-.28.85-.36.2-.08.45-.2.54-.25.1-.06.24-.1.31-.1.06,0,.41-.13.75-.3.35-.17.91-.41,1.25-.53.77-.29,1.19-.48,1.86-.79.29-.13.56-.25.6-.25.08,0,.42-.15,1.28-.52.87-.39,1.19-.52,1.3-.52.05,0,.19-.04.29-.1.26-.15,1.58-.73,1.65-.73.03,0,.62-.24,1.31-.53,1.75-.73,1.75-.73,2.1-.87,1.03-.46,1.3-.57,1.4-.57.05,0,.19-.04.29-.1.3-.17,1.39-.63,1.99-.85.31-.12.91-.37,1.33-.56.42-.2.8-.35.85-.35.06,0,.19-.04.29-.1.09-.05.42-.2.7-.31.29-.12.67-.28.83-.35.17-.07.48-.2.67-.27s.65-.27,1.02-.44c.36-.16.68-.29.71-.29.05,0,2.36-.95,2.91-1.21.17-.08.34-.15.37-.15s.35-.13.71-.29c.36-.17.85-.38,1.09-.49l.45-.19v-10.66h-.24c-.13,0-.28.04-.34.08-.05.05-.32.17-.61.28-.56.2-2.07.83-2.36,1-.1.05-.23.09-.29.09s-.45.16-.86.35c-.42.19-.99.42-1.27.52-.29.09-.75.28-1.04.42-.28.13-.82.36-1.19.51-.37.13-1.04.42-1.48.62-.45.21-.86.37-.92.37s-.44.16-.85.34c-.41.2-.96.44-1.25.54-.5.17-1.68.7-2.04.89-.1.05-.24.09-.3.09s-.26.06-.44.15c-.19.08-.56.25-.85.37-.28.12-.6.26-.7.31-.1.06-.24.1-.3.1-.07,0-.46.16-.86.35-.41.19-.96.42-1.25.53-.5.17-1.66.68-2.04.89-.1.05-.24.09-.29.09-.1,0-.42.12-1.3.52-.85.38-1.19.52-1.28.52-.05,0-.23.06-.39.15-.65.31-1.46.67-1.96.84-.28.1-.8.32-1.13.49-.34.16-.65.29-.71.29-.08,0-.42.15-1.28.52s-1.19.52-1.28.52c-.04,0-.31.12-.6.25-.28.13-.83.37-1.24.53-.39.16-.96.38-1.25.52-.28.12-.73.31-.99.41-.76.31-.85.34-1.59.67-.39.17-.83.35-.96.38-.15.04-.51.19-.8.33-.3.13-.93.41-1.42.59-.83.32-1.38.56-1.79.79-.1.05-.24.09-.3.09s-.26.06-.44.15c-1.15.52-1.64.73-2.15.91-.31.12-.82.32-1.12.46-.68.31-.84.31-1.5,0-.3-.13-.75-.33-1.01-.42-.26-.1-.7-.29-.99-.42-.28-.12-.8-.33-1.14-.47-.34-.13-.87-.35-1.18-.5-.31-.13-.85-.35-1.19-.49-.56-.21-1.09-.44-2.21-.95-.17-.08-.37-.15-.44-.15s-.2-.04-.3-.1c-.09-.05-.41-.2-.7-.31-.28-.12-.61-.26-.73-.31-.12-.04-.49-.2-.83-.32-.34-.13-.67-.28-.74-.32s-.41-.19-.78-.33c-.71-.26-1.79-.73-2.09-.89-.1-.06-.24-.1-.3-.1s-.26-.06-.44-.15c-1.12-.51-1.65-.74-2.2-.95-.34-.12-.86-.35-1.16-.49-.29-.15-.65-.29-.8-.33-.22-.05-.71-.26-1.88-.79-.12-.05-.47-.2-.78-.31-.31-.12-.74-.29-.93-.37-.65-.29-.77-.33-1.71-.73-.51-.21-.98-.42-1.03-.47-.06-.05-.17-.09-.26-.09-.09-.01-.35-.09-.58-.21s-.45-.2-.49-.21c-.04,0-.37-.15-.74-.31-.37-.17-.73-.31-.79-.31s-.2-.04-.3-.09c-.56-.31-1.8-.84-1.93-.84-.09,0-.25-.04-.35-.09-.42-.23-1.55-.74-1.64-.74-.05-.01-.28-.09-.51-.21-.23-.12-.45-.2-.49-.21-.04,0-.37-.15-.74-.31-.37-.17-.73-.31-.8-.31-.06,0-.51-.19-.98-.42-.47-.2-1.09-.46-1.36-.55-.28-.09-.84-.32-1.25-.52s-.8-.35-.86-.35c-.07,0-.37-.12-.67-.25-1.07-.5-1.51-.68-1.62-.68-.05,0-.19-.04-.29-.09-.54-.29-1.79-.84-1.89-.84-.06,0-.41-.13-.76-.29-.35-.17-.7-.28-.74-.26h0Zm-.1,17.44c-.08.08-.07,10.26.01,10.47.03.09.32.28.64.42.32.13.73.32.91.41.17.08.37.15.42.15.06,0,.24.06.41.15.83.42,1.68.79,1.83.79.09,0,.19.04.23.09.03.05.19.12.34.17.17.03.57.2.91.36.33.17.67.31.75.31s.21.04.31.1c.32.17,1.15.52,1.25.52.06,0,.12.04.12.08s.26.17.58.26c.33.1.92.34,1.34.54s.82.36.91.36.19.04.22.09c.03.05.17.12.31.16.15.03.56.21.92.37.37.17.73.31.79.31s.2.04.3.09c.09.06.57.27,1.06.48.49.21.96.42,1.06.48.1.05.24.09.3.09s.45.17.86.36.83.36.92.36.2.04.23.1c.03.05.12.1.21.1.07,0,.49.17.91.36.42.2.83.36.89.36s.2.04.3.09c.23.13,1.72.77,2.2.95.2.07.71.29,1.12.48.42.2.83.35.9.35.08,0,.17.04.2.09s.17.12.31.16c.15.03.55.2.91.36.36.16.82.35,1.02.42.33.12.84.34,1.61.67.17.08.55.23.83.33.29.1.78.32,1.09.48s.65.29.75.29.2.04.24.09c.03.05.2.12.36.17.17.04.51.17.76.3.24.12.67.31.96.42.63.24,1.39.55,1.64.7.09.05.41.17.67.26.27.09.75.28,1.06.42s.95.42,1.4.6,1.04.42,1.3.54.73.31,1.04.42c.31.12.85.33,1.19.49.61.27.77.33,1.33.56.63.25.59.6.59-5.16,0-4.98-.01-5.3-.19-5.45-.1-.1-.24-.17-.29-.17s-.23-.07-.41-.17c-.17-.09-.71-.32-1.21-.51-.49-.19-1.21-.49-1.58-.67-.37-.17-.74-.32-.8-.32s-.19-.04-.29-.09c-.23-.13-1.72-.77-2.2-.95-.2-.07-.71-.29-1.12-.48-.42-.2-.81-.35-.86-.35-.09,0-.48-.17-1.5-.64-.34-.16-.68-.29-.75-.29-.07,0-.21-.04-.31-.1-.09-.05-.41-.2-.7-.31-.28-.12-.65-.28-.83-.35-.17-.07-.48-.2-.67-.27s-.64-.26-.99-.42-.85-.36-1.14-.47c-.28-.1-.85-.34-1.25-.53-.41-.2-.81-.35-.9-.35s-.2-.05-.23-.1c-.03-.06-.13-.1-.22-.1-.07,0-.49-.16-.89-.35-.42-.19-.96-.42-1.22-.53s-.7-.29-.99-.42c-.28-.13-.64-.27-.81-.31-.16-.03-.31-.1-.34-.16s-.12-.09-.22-.09c-.08,0-.51-.17-.93-.36s-.84-.36-.91-.36c-.08,0-.17-.04-.2-.09s-.17-.12-.31-.16c-.15-.03-.55-.2-.91-.36-.36-.16-.82-.35-1.02-.42-.33-.12-.6-.24-1.66-.68-.54-.24-.73-.31-1.35-.56-.31-.12-.71-.28-.88-.36-.59-.27-1.07-.47-1.12-.47-.06,0-1.39-.58-1.65-.73-.1-.06-.24-.1-.29-.1-.1,0-.54-.17-1.4-.57-.68-.31-1.07-.47-1.16-.47-.05,0-.34-.12-.63-.26-.3-.15-.57-.26-.61-.26-.05-.01-.27-.09-.5-.21s-.46-.2-.51-.21c-.09,0-1.22-.51-1.64-.74-.1-.05-.24-.09-.29-.09-.1,0-.42-.12-1.3-.52-1.24-.54-1.4-.58-1.55-.44h0Zm92.11.1c-.2.09-.5.24-.67.31-.17.08-.85.36-1.5.62-.65.26-1.3.53-1.42.61-.12.08-.28.15-.34.15-.1,0-.42.12-1.3.52-.42.19-1.15.49-1.5.62-.2.07-.62.25-.93.39-.31.13-.85.35-1.19.49-.34.12-.87.35-1.18.51-.31.15-.61.27-.65.27-.08,0-.42.15-1.28.52-.58.26-1.19.51-1.66.68-.28.1-.71.29-.96.42-.25.12-.58.26-.76.3-.17.04-.33.12-.36.17-.04.05-.13.09-.23.09-.08,0-.45.13-.8.3-.34.17-.89.41-1.21.52-.31.12-.67.27-.78.32-.42.19-1.15.49-1.5.62-.2.07-.65.27-1.02.42-.36.17-.77.33-.91.36-.13.03-.28.1-.31.16-.03.05-.12.09-.21.09-.09,0-.5.17-.91.36-.42.2-.81.36-.88.36-.06,0-.2.04-.3.09-.59.29-1.53.7-2.2.95-.42.17-1.14.46-1.59.67s-.86.37-.92.37c-.06,0-.46.17-.87.36s-.82.36-.91.36c-.08,0-.17.04-.21.09-.03.05-.19.12-.34.17-.26.05-1.34.53-1.82.79-.1.05-.25.09-.33.09s-.42.13-.76.3c-.34.17-.74.34-.89.37-.16.04-.31.12-.34.17s-.12.09-.22.09-.5.16-.9.35-.96.42-1.25.53c-.47.15-1.57.63-2.04.89-.1.05-.24.09-.29.09-.1,0-.48.16-1.42.58-.17.08-.37.15-.42.15-.36,0-.38.29-.35,5.66l.02,5.26.29-.07c.27-.06.64-.22,1.32-.52.48-.22,1.21-.52,1.61-.67.2-.07.64-.26.99-.42s.74-.31.88-.35c.28-.08.32-.1,1.38-.57.39-.17.74-.32.77-.32.05,0,.53-.2,1.12-.47.48-.22,1.21-.52,1.61-.67.2-.07.65-.27,1.02-.42.36-.17.77-.33.91-.36.13-.03.28-.1.31-.16.03-.05.12-.09.22-.09.08,0,.51-.17.93-.36s.84-.36.91-.36c.08,0,.17-.05.21-.1.03-.06.12-.1.21-.1.07,0,.49-.17.91-.36s.83-.36.89-.36.2-.04.3-.09c.09-.06.57-.27,1.06-.48s.96-.42,1.06-.48c.1-.05.25-.09.33-.09.07,0,.47-.16.86-.35s.96-.44,1.28-.54.71-.27.88-.36c.17-.1.64-.3,1.04-.45.41-.16.82-.31.93-.37.12-.05.45-.19.73-.31.29-.12.6-.26.7-.31.1-.06.24-.1.3-.1.07,0,.47-.17.88-.36.42-.2.82-.36.91-.36.08,0,.19-.05.22-.1.03-.06.13-.1.22-.1.13,0,1.39-.54,1.93-.84.1-.05.25-.09.33-.09s.49-.16.91-.35c.42-.19.92-.41,1.12-.48.36-.13.6-.24,1.8-.77.33-.15.67-.27.73-.27.06,0,.37-.13.68-.29s.81-.37,1.09-.48c.29-.1.81-.32,1.17-.49.36-.17.77-.33.91-.36.13-.03.28-.1.31-.16.03-.05.12-.09.21-.09s.35-.09.59-.2c1.08-.49,1.66-.74,1.75-.74.05,0,.38-.13.74-.3.36-.17.76-.33.88-.37.16-.04.25-.17.29-.39.03-.19.04-2.59.03-5.37-.03-4.95-.03-5.04-.24-5.05-.12,0-.38.06-.57.15h0Zm-92.04,38.61c-.05.13.44,1.3.8,1.91.35.58.73,1.3.73,1.38,0,.05.21.45.47.87.26.42.47.82.47.89s.07.23.16.34c.19.28.88,1.63.88,1.72,0,.04.12.25.26.46.37.55.33,1.15-.16,2.79-.05.17-.12.56-.17.85q-.1.86,1.99.86c.99,0,1.9-.04,2.04-.09.27-.1.45-.52.6-1.46.06-.31.16-.87.22-1.24.17-.93.39-1.42,1.09-2.26.34-.41.87-1.05,1.18-1.43s.62-.76.67-.82c.09-.1.95-1.12,1.48-1.78.1-.12.36-.44.59-.73.23-.28.56-.68.75-.88.6-.67,1.08-1.35,1.02-1.45-.04-.06-.99-.1-2.45-.1-2.69,0-2.33-.12-3.26,1.04-.28.35-.7.86-.91,1.12-.21.27-.42.53-.47.59-.04.05-.32.39-.63.75-.83.96-.91.93-1.63-.57-.32-.67-.65-1.36-.75-1.53-.09-.17-.29-.55-.45-.83l-.28-.52-2.09-.03c-1.85-.03-2.1-.01-2.17.13h0Zm17.89-.07c-.3.06-.35.13-1.31,1.93-.19.34-.44.79-.56.99-.12.2-.39.68-.6,1.09-1.02,1.91-1.66,3.09-2.13,3.89-.26.44-.57,1.03-1.5,2.8-.2.37-.39.71-.44.74-.05.04-.07.17-.05.31l.03.25,2.15.03,2.15.02.26-.28c.15-.16.34-.46.44-.65.48-1.05.6-1.25.8-1.4.31-.22,4.5-.23,4.79-.02.13.1.21.35.27.91.04.42.13.91.22,1.08l.15.31,1.86.03c1.65.02,1.88.01,2.05-.16.16-.15.19-.27.15-.55-.03-.2-.1-.76-.17-1.25-.05-.49-.15-1.09-.21-1.35-.05-.26-.15-.99-.22-1.61-.1-1.08-.28-2.6-.51-4.46-.08-.71-.2-1.41-.37-2.3-.07-.39-.51-.45-3.82-.44-1.72.01-3.26.04-3.42.09h0Zm3.41,2.49c.03.09.12.76.22,1.47.37,2.9.37,2.96-.03,3.11-.33.12-2.34.12-2.67-.01-.36-.13-.34-.36.09-1.04.2-.31.36-.62.36-.68s.17-.42.36-.78c.21-.36.49-.91.62-1.22.45-.96.67-1.28.84-1.14.07.06.16.19.19.29h0Zm24.16-2.4c-.16.13-.27.41-.33.76-.05.31-.17.86-.26,1.24-.09.37-.23,1.07-.32,1.56-.38,2.17-.46,2.59-.61,3.22-.08.37-.21.93-.26,1.25l-.21,1.04c-.05.26-.12.7-.16.99-.04.28-.13.77-.23,1.07q-.24.85,1.95.85h1.85l.16-.34c.08-.17.21-.71.27-1.16.06-.46.17-1.18.25-1.61.48-2.56.56-2.93.78-3.06.15-.08.51.52.59.96.03.19.1.36.16.39s.09.15.09.26.09.42.22.7c.32.74.37.86.55,1.37.09.26.17.53.17.6,0,.13.28.83.6,1.47q.19.36.99.39c.71.03.82.01,1.04-.21.26-.28.85-1.01,1.18-1.47.12-.17.28-.37.33-.45.06-.06.56-.71,1.11-1.45.56-.73,1.06-1.38,1.12-1.44s.19-.23.27-.35c.28-.42.64-.83.74-.83.3,0,.15,1.45-.49,4.41-.09.46-.17,1.04-.19,1.3v.47s1.87.03,1.87.03c1.58.02,1.9,0,2.01-.13.17-.2.33-.96.79-3.63.17-1.06.28-1.58.52-2.54.09-.37.21-.98.25-1.35.05-.37.17-1.05.26-1.5.53-2.69.54-2.8.12-2.91-.13-.04-1.36-.05-2.74-.03-2.88.03-2.56-.08-3.59,1.28-.34.46-.65.85-.7.88-.07.06-1.28,1.6-1.64,2.11-.51.71-1.1,1.32-1.27,1.32-.26,0-.36-.17-.62-1.04-.13-.42-.27-.85-.31-.93-.27-.58-.42-.96-.58-1.45-.33-1.07-.6-1.71-.79-1.92-.17-.2-.35-.21-2.45-.24-2.12-.04-2.27-.03-2.49.16h0Zm23.26-.08c-.26.1-.61.62-.96,1.4-.12.29-.29.59-.36.67-.08.08-.32.51-.55.93-.96,1.85-1.39,2.66-1.47,2.75-.04.05-.27.46-.5.88-.81,1.55-1.19,2.23-1.38,2.51-.12.15-.2.31-.2.36s-.24.51-.53,1.01c-.34.6-.51,1.01-.49,1.19l.03.27,1.92.03c1.06.02,2.07,0,2.23-.03.27-.04.38-.17.7-.76.21-.38.46-.86.56-1.06.34-.62.31-.61,2.79-.61,2.68,0,2.56-.05,2.69,1.24s.06,1.25,2.19,1.25,2.18-.04,2.09-.71c-.03-.21-.1-.89-.17-1.51-.06-.63-.17-1.5-.23-1.92-.45-3.22-.68-5.09-.81-6.43-.15-1.63.17-1.5-3.92-1.53-1.87-.01-3.5.01-3.62.07h0Zm3.61,2.98c.05.38.15,1.42.22,2.3.15,1.98.23,1.88-1.47,1.88-1.48,0-1.65-.08-1.45-.68.07-.22.27-.64.42-.95.45-.83.47-.87.8-1.54.83-1.68,1.09-2.04,1.3-1.83.05.06.13.42.18.81h0Zm9.12-3.01c-.15.03-.3.08-.34.13-.12.1-.25.64-.44,1.71-.19,1.02-.42,2.13-.51,2.34-.03.08-.1.48-.16.88-.13.93-.37,2.21-.58,3.06-.09.37-.22.98-.27,1.35-.06.37-.16.91-.22,1.21-.06.29-.12.71-.12.93v.41s1.97.03,1.97.03c1.66.02,2,0,2.12-.13.15-.17.27-.6.48-1.66.07-.41.19-.89.25-1.09.05-.2.1-.52.1-.71,0-.63.26-.74,1.85-.75,1.34,0,1.39.01,1.65.27.21.21.25.32.2.59-.21,1.11-.41,2.48-.42,2.93v.52s1.95.03,1.95.03c1.29.02,2-.01,2.09-.08.08-.06.22-.57.31-1.12s.24-1.29.32-1.64c.33-1.4.15-2.28-.57-2.82-.17-.12-.32-.27-.32-.32,0-.05.2-.22.45-.37.78-.52.87-.67,1.31-2.04.19-.59.33-1.97.26-2.47-.09-.65-.6-1.1-1.32-1.19-.6-.08-9.63-.07-10.03,0h0Zm6.59,2.36c.35.16.36.17.36.78,0,.56-.21,1.62-.36,1.88-.19.3-.68.41-2.01.42-1.75.03-1.79.01-1.54-1.04.09-.39.17-.85.17-1.02,0-.48.21-.98.46-1.07.39-.16,2.52-.13,2.92.04h0Zm-57.66-2.17c-.21.26-.55,1.8-1.03,4.72-.13.84-.41,2.11-.54,2.59-.05.2-.15.67-.2,1.04s-.17,1.14-.26,1.71c-.1.57-.19,1.21-.2,1.4v.36s1.8.03,1.8.03c1,.01,1.92,0,2.04-.03.24-.05.29-.22.6-2.02.22-1.24.42-2.3.5-2.49.03-.08.08-.29.12-.45.08-.38.45-.34.67.07.08.17.41.73.71,1.22.29.51.54.95.54.96,0,.02.13.24.3.49s.45.73.63,1.08c.17.34.44.76.58.9.26.28.27.28,1.65.28.76,0,1.46-.03,1.56-.06.21-.08.44-.61.53-1.25.03-.27.1-.55.15-.6.05-.06.13-.48.2-.93.12-.85.3-1.84.59-3.11.08-.41.22-1.08.29-1.5.07-.42.29-1.56.48-2.51.28-1.43.32-1.76.21-1.9-.1-.12-.42-.16-1.92-.16s-1.8.02-1.94.17c-.2.25-.37.85-.5,1.75-.2,1.46-.31,2.19-.42,2.54-.05.2-.12.47-.16.59-.04.15-.15.24-.27.24-.19,0-.44-.32-.89-1.15-.1-.2-.32-.54-.47-.78-.15-.24-.36-.58-.47-.78s-.33-.56-.49-.82c-.17-.25-.42-.67-.54-.95-.39-.77-.53-.82-2.25-.82-1.18,0-1.51.03-1.61.15h0Z"/>
</svg>