<?xml version="1.0" encoding="UTF-8"?>
<svg id="Layer_1" data-name="Layer 1" xmlns="http://www.w3.org/2000/svg" viewBox="0 0 200 200">
  <defs>
    <style>
      .cls-1 {
        fill: #fff;
      }

      .cls-2 {
        fill: #eb1c24;
      }
    </style>
  </defs>
  <rect class="cls-2" width="200" height="200"/>
  <g>
    <path class="cls-1" d="m105.86,95.11c-2.45,0-4.89.03-7.32,0-8.34-.12-16.62-.84-24.75-2.8-3.56-.86-7.07-1.91-10.25-3.76-1.12-.65-2.21-1.45-3.11-2.37-1.92-1.95-1.83-4.2.07-6.17,1.47-1.53,3.3-2.51,5.21-3.36,3.84-1.7,7.89-2.71,12-3.5,4.74-.91,9.52-1.43,14.33-1.72,5.3-.32,10.6-.29,15.91-.06.34.01.67.05,1.06.08v-4.73h-3.89v-2.31h16.2v2.28h-4.19v5.49c1.35.2,2.68.39,4.01.6.76.12,1.51.27,2.27.38.17.02.44-.01.53-.13,1.72-2.05,3.43-4.12,5.26-6.33-.65,0-1.16-.02-1.67,0-.42.02-.62-.1-.58-.56.04-.47-.02-.94.02-1.4.01-.14.21-.38.32-.38,2.81-.01,5.62,0,8.43.01.02,0,.03.02.09.05v2.27c-.97,0-1.92.04-2.87-.01-.59-.03-.96.18-1.32.63-1.62,2.01-3.28,4-4.92,6-.1.13-.2.26-.33.44,1.24.33,2.43.62,3.61.97,2.88.84,5.72,1.82,8.25,3.49.9.59,1.75,1.31,2.46,2.11,1.56,1.76,1.53,3.79.04,5.61-1.18,1.44-2.73,2.39-4.36,3.2-3.52,1.75-7.27,2.78-11.09,3.59-5.21,1.11-10.5,1.73-15.81,2.09-.42.03-.68.19-.93.5-3.59,4.37-7.19,8.74-10.8,13.1-1.06,1.27-2.46,1.87-4.1,1.89-.88.02-1.64-.28-2.02-1.15-.37-.86-.08-1.62.53-2.27,1.29-1.37,2.82-1.99,4.72-1.51.15.04.42-.03.51-.14,2.83-3.35,5.65-6.71,8.47-10.07.02-.02.02-.07.03-.08Zm6.76-4.71c.22.02.34.04.47.05,4.05.13,8.09-.01,12.1-.68,2.96-.49,5.88-1.18,8.61-2.48,1.17-.56,2.29-1.21,3.15-2.21,1.05-1.22,1.15-2.62.08-3.82-.7-.78-1.56-1.47-2.48-1.98-3.01-1.67-6.34-2.32-9.7-2.87-.5-.08-.78.06-1.08.43-3.02,3.68-6.05,7.35-9.08,11.02-.67.82-1.35,1.64-2.07,2.53Zm-3.59-14.23c-.24.01-.43.01-.61.03-3.32.41-6.59,1-9.71,2.26-1.36.55-2.67,1.21-3.73,2.25-1.6,1.58-1.6,3.35.1,4.81.81.7,1.76,1.29,2.72,1.76,2.52,1.24,5.24,1.89,8,2.38,1.06.19,2.13.32,3.24.48v-13.98Zm8.11-.37v5.48c1.47-1.78,2.86-3.46,4.35-5.27-1.53-.07-2.92-.14-4.35-.21Z"/>
    <path class="cls-1" d="m109.42,117.41v7.37h10.75v10.79h-5.08v-7h-5.66v7.01h-5.13c0-.21-.02-.4-.02-.58,0-5.64,0-11.29-.01-16.93,0-.5.11-.68.64-.67,1.48.04,2.96.01,4.52.01Z"/>
    <path class="cls-1" d="m128.42,117.41c1.67,0,3.22,0,4.78,0,.36,0,.43.21.51.47,1.05,3.22,2.11,6.43,3.16,9.65.82,2.49,1.64,4.97,2.46,7.46.06.18.11.35.17.58h-17.32c.26-.93.51-1.82.77-2.72.73-2.53,1.46-5.07,2.22-7.59.05-.18.28-.44.43-.44,1.57-.03,3.15-.02,4.83-.02-.66,2.47-1.31,4.89-1.97,7.36h4.78c-1.61-4.92-3.2-9.79-4.82-14.75Z"/>
    <path class="cls-1" d="m102.29,121.4c-1.35,0-2.6,0-3.85,0-2.25,0-3.71,1.18-4,3.42-.15,1.18-.16,2.4-.02,3.58.25,2.05,1.69,3.21,3.79,3.24,1.33.01,2.66,0,4.04,0v3.89s-.04.05-.07.05c-2.36-.05-4.74.09-7.06-.22-3.47-.46-5.6-3.15-5.62-6.64,0-1.67-.07-3.34.1-4.99.36-3.46,2.67-5.83,6.13-6.18,2.06-.21,4.15-.1,6.23-.11.11,0,.32.17.32.27.02,1.21.01,2.43.01,3.71Z"/>
    <path class="cls-1" d="m78.15,117.41v.75c0,3.97,0,7.95,0,11.92,0,1.17.63,1.79,1.83,1.79,2.08,0,4.16,0,6.24,0h.67v3.72h-.58c-3.02,0-6.04-.07-9.05.03-1.76.05-4.27-1.88-4.27-4.13,0-4.54,0-9.07.02-13.61,0-.16.19-.45.29-.45,1.59-.03,3.18-.02,4.85-.02Z"/>
    <path class="cls-1" d="m145.74,117.41v18.14h-5.09c-.01-.18-.04-.38-.04-.57,0-5.66,0-11.31-.01-16.97,0-.45.09-.62.58-.61,1.5.03,2.99.01,4.56.01Z"/>
    <path class="cls-1" d="m60.24,135.6c.58-1.55,1.15-3.01,1.68-4.49,1.54-4.33,3.07-8.67,4.57-13.02.18-.53.41-.72.98-.7,1.44.05,2.88.02,4.41.02-.27.77-.51,1.47-.76,2.17-1.88,5.22-3.76,10.45-5.65,15.66-.05.15-.26.34-.39.35-1.59.02-3.18.02-4.84.02Z"/>
    <path class="cls-1" d="m86.9,130.18h-5.04v-12.73h5.04v12.73Z"/>
    <path class="cls-1" d="m62.16,128.52c-1.62,0-3.21.01-4.79-.02-.13,0-.34-.25-.38-.42-.84-3.22-1.66-6.44-2.49-9.66-.08-.3-.15-.61-.24-.96.16-.02.28-.05.4-.05,1.42,0,2.85,0,4.27,0,.29,0,.47.04.56.38.87,3.44,1.77,6.87,2.65,10.3.03.12.02.25.03.43Z"/>
    <path class="cls-1" d="m120.18,117.41v5.67h-5.05c-.02-.09-.06-.2-.06-.3,0-1.63-.01-3.26.01-4.89,0-.16.19-.45.29-.45,1.59-.03,3.18-.02,4.8-.02Z"/>
  </g>
</svg>